<svg width="40" height="41" viewBox="0 0 40 41" fill="none" xmlns="http://www.w3.org/2000/svg">
<path d="M6.00337 27.2788H0V10.5471H6.00337V15.5897H4.98372V11.5668H1.01965V26.2591H4.98372V16.7732H6.00337V27.2788Z" fill="#E31E30"/>
<path d="M39.9995 27.2788H33.9961V16.8909H35.0157V26.2591H38.9798V11.5668H35.0157V15.752H33.9961V10.5471H39.9995V27.2788Z" fill="#E31E30"/>
<path d="M20.8539 32.1582C20.3245 32.1582 19.8264 31.9519 19.4515 31.5778L18.0742 30.2106L18.7927 29.4867L20.1708 30.8546C20.3543 31.0381 20.5959 31.1377 20.8532 31.1377C21.1104 31.1377 21.352 31.0373 21.534 30.8554C21.7159 30.6734 21.8163 30.4318 21.8163 30.1746C21.8163 29.9173 21.7159 29.6757 21.534 29.4938L22.2524 28.7706L23.1176 29.6247C23.3019 29.8091 23.5435 29.9087 23.8007 29.9087C24.058 29.9087 24.2996 29.8083 24.4815 29.6263C24.8486 29.2592 24.8596 28.6725 24.5051 28.2914L25.2392 27.5839L25.7569 28.1015C26.1326 28.4772 26.7436 28.4772 27.1193 28.1015C27.4911 27.7298 27.4981 27.1399 27.1357 26.758L27.866 26.0458L28.6393 26.8191C28.9743 27.0701 29.5994 27.0835 29.9853 26.6976C30.1672 26.5156 30.2676 26.274 30.2676 26.0168C30.2676 25.7595 30.1672 25.5179 29.9853 25.3359L27.9036 23.2582L28.6237 22.5366L30.7053 24.6151C31.0802 24.9901 31.2865 25.4881 31.2865 26.0175C31.2865 26.547 31.0802 27.045 30.7061 27.42C30.0959 28.0302 29.1327 28.1839 28.3789 27.8435C28.3005 28.2012 28.1209 28.5423 27.8401 28.8224C27.2777 29.3847 26.4581 29.5385 25.7561 29.282C25.6886 29.6718 25.5043 30.0452 25.2023 30.3471C24.8274 30.722 24.3302 30.9283 23.7999 30.9283C23.4344 30.9283 23.0838 30.8303 22.7787 30.646C22.694 30.995 22.5144 31.3158 22.254 31.5762C21.8799 31.9503 21.3818 32.1566 20.8516 32.1566L20.8539 32.1582Z" fill="#323232"/>
<path d="M8.06052 23.9021H5.49414V24.9217H8.06052V23.9021Z" fill="#323232"/>
<path d="M12.885 13.1378H5.49414V12.1181H12.4599L14.2725 10.2898C14.8051 9.75256 15.5157 9.45137 16.2726 9.44196L19.5425 9.40039L19.5551 10.42L16.2852 10.4608C15.7973 10.4671 15.34 10.6608 14.9965 11.0075L12.885 13.1378Z" fill="#323232"/>
<path d="M20.967 27.5055L20.252 28.2324L21.538 29.4975L22.2531 28.7706L20.967 27.5055Z" fill="#323232"/>
<path d="M23.0528 25.4217L22.3359 26.1469L24.522 28.3078L25.2388 27.5827L23.0528 25.4217Z" fill="#323232"/>
<path d="M25.2382 23.4492L24.5215 24.1744L27.1481 26.77L27.8648 26.0448L25.2382 23.4492Z" fill="#323232"/>
<path d="M12.9175 26.7187C12.3763 26.7187 11.8289 26.5147 11.432 26.1171C11.0578 25.7429 10.8516 25.2449 10.8516 24.7147C10.8516 24.1844 11.0578 23.6872 11.432 23.3122L14.4462 20.298C15.2337 19.5105 16.5153 19.5105 17.3028 20.298C18.0903 21.0855 18.0903 22.3671 17.3028 23.1546L14.178 26.2794L14.156 26.2967C13.8046 26.579 13.363 26.7171 12.9167 26.7171L12.9175 26.7187ZM15.167 21.0204L12.1528 24.0346C11.9708 24.2166 11.8704 24.4582 11.8704 24.7154C11.8704 24.9727 11.9708 25.2143 12.1528 25.3962C12.5387 25.7821 13.1638 25.7688 13.4987 25.5178L16.582 22.4346C16.9718 22.0447 16.9718 21.4094 16.582 21.0196C16.1922 20.6298 15.5576 20.6298 15.167 21.0196V21.0204Z" fill="#323232"/>
<path d="M9.50698 25.859C8.96578 25.859 8.41831 25.6551 8.02143 25.2582C7.24807 24.4849 7.24807 23.2276 8.02143 22.4542L10.4803 19.9953C11.2678 19.2078 12.5494 19.2078 13.3369 19.9953C14.1244 20.7828 14.1244 22.0644 13.3369 22.8519L10.7674 25.4214L10.7455 25.4386C10.3941 25.721 9.95249 25.859 9.50619 25.859H9.50698ZM11.9086 20.4235C11.6522 20.4235 11.3965 20.5208 11.2012 20.7161L8.74224 23.175C8.36654 23.5507 8.36654 24.1617 8.74224 24.5374C9.12814 24.9233 9.75326 24.91 10.0882 24.659L12.6161 22.131C13.0059 21.7412 13.0059 21.1059 12.6161 20.7161C12.4208 20.5208 12.1651 20.4235 11.9086 20.4235Z" fill="#323232"/>
<path d="M15.0539 28.8545C14.5127 28.8545 13.9652 28.6505 13.5683 28.2537C12.7949 27.4803 12.7949 26.223 13.5683 25.4496L16.5825 22.4354C17.37 21.6479 18.6516 21.6479 19.4391 22.4354C19.8211 22.8174 20.0305 23.3241 20.0305 23.8637C20.0305 24.4033 19.8203 24.9108 19.4391 25.292L16.3143 28.4168L16.2923 28.4341C15.9409 28.7164 15.4994 28.8545 15.0531 28.8545H15.0539ZM17.3034 23.1562L14.2891 26.1704C13.9134 26.5461 13.9134 27.1572 14.2891 27.5329C14.675 27.9188 15.3001 27.9054 15.6351 27.6544L18.7183 24.5712C18.9073 24.3821 19.0117 24.1312 19.0117 23.8637C19.0117 23.5962 18.9073 23.3452 18.7183 23.1562C18.3285 22.7664 17.694 22.7664 17.3034 23.1562Z" fill="#323232"/>
<path d="M17.1906 30.9902C16.6494 30.9902 16.1027 30.7863 15.705 30.3894C14.9317 29.616 14.9317 28.3587 15.705 27.5854L18.1639 25.1264C18.9514 24.339 20.233 24.339 21.0205 25.1264C21.4025 25.5076 21.6119 26.0151 21.6119 26.5547C21.6119 27.0944 21.4017 27.6018 21.0205 27.983L18.451 30.5525L18.4298 30.5698C18.0784 30.8522 17.6369 30.9902 17.1906 30.9902ZM19.5922 25.5547C19.3358 25.5547 19.0801 25.652 18.8848 25.8473L16.4258 28.3062C16.0501 28.6819 16.0501 29.2929 16.4258 29.6686C16.8117 30.0545 17.4369 30.0411 17.7718 29.7902L20.2997 27.263C20.4887 27.074 20.5931 26.823 20.5931 26.5555C20.5931 26.2881 20.4887 26.0371 20.2997 25.848C20.1107 25.659 19.8487 25.5555 19.5922 25.5555V25.5547Z" fill="#323232"/>
<path d="M29.7159 25.0708L20.2363 15.6046L18.6339 17.1842C18.0708 17.7333 17.3319 18.0211 16.5476 17.9984C15.7648 17.9756 15.0424 17.6446 14.5146 17.0658L13.1035 15.5206L19.3398 9.40039H23.9385C24.5604 9.40039 25.1754 9.60746 25.6703 9.98237L28.4939 12.1229H34.5067V13.1425H28.1512L25.0546 10.795C24.7353 10.5534 24.3393 10.42 23.9385 10.42H19.7571L14.5193 15.5591L15.2667 16.3779C15.6071 16.7505 16.0723 16.9638 16.5766 16.9787C17.0817 16.9936 17.5578 16.8077 17.9194 16.4556L20.2403 14.1684L30.1238 24.0378L34.4902 23.9021L34.5216 24.921L29.7151 25.07L29.7159 25.0708Z" fill="#323232"/>
<path d="M24.9305 19.1028C24.1948 19.1028 23.4598 18.8251 22.9045 18.2706L19.877 15.2477L20.5978 14.5261L23.6253 17.549C24.3328 18.2557 25.4936 18.2651 26.2129 17.5709L26.7329 17.069L27.4412 17.8031L26.9212 18.3043C26.369 18.8369 25.6497 19.1028 24.9313 19.1028H24.9305Z" fill="#323232"/>
<path d="M37.6918 21.0738H36.5137V22.0934H37.6918V21.0738Z" fill="#323232"/>
<path d="M3.51988 21.0738H2.3418V22.0934H3.51988V21.0738Z" fill="#323232"/>
</svg>
