<svg width="40" height="41" viewBox="0 0 40 41" fill="none" xmlns="http://www.w3.org/2000/svg">
<path d="M31.8537 30.8479L31.6957 30.6759L31.8806 30.5328C32.9623 29.6963 33.1612 28.135 32.3236 27.0534C32.2645 26.977 32.2 26.9028 32.1322 26.834C32.1064 26.8071 32.0828 26.7845 32.058 26.7609L31.8946 26.605L32.058 26.4491C32.5451 25.9856 32.8236 25.3609 32.8408 24.6889C32.858 24.0169 32.6129 23.3782 32.1494 22.8911C31.6763 22.3932 31.0107 22.1072 30.3247 22.1072H24.6345L24.7292 21.8244C25.1808 20.4664 25.4248 19.0525 25.4528 17.6213C25.5033 16.2407 24.9474 14.8364 24.07 14.1225C23.6292 13.7354 23.0335 13.5838 22.469 13.7128C21.9099 13.8601 21.4604 14.3042 21.3034 14.8676L20.9077 16.2364C20.3379 18.2084 19.382 20.0073 18.0669 21.5836L16.6799 23.2502L16.6035 22.7868C16.4304 21.7406 15.5337 20.9793 14.4735 20.9771H8.31554C7.12524 20.9782 6.15537 21.9481 6.1543 23.1395V38.2391C6.15537 39.4294 7.12524 40.3993 8.31662 40.4004H14.4745C15.5896 40.3982 16.5347 39.5262 16.6261 38.4144L16.6487 38.1391L18.6788 38.8305C19.0669 38.9628 19.4712 39.0294 19.8809 39.0294H29.2624C29.2699 39.0294 29.2775 39.0294 29.285 39.0294C30.6613 39.0294 31.7914 37.9596 31.8634 36.5833C31.8828 36.0015 31.6946 35.4252 31.3333 34.9639L31.1892 34.7801L31.3849 34.6521C32.544 33.8898 32.8677 32.3274 32.1053 31.1683C32.0312 31.0554 31.9484 30.949 31.857 30.85L31.8537 30.8479ZM15.5584 38.2359C15.5584 38.8337 15.0702 39.3219 14.4724 39.3219H8.31447C7.71555 39.3219 7.22847 38.8337 7.22847 38.2359V23.1373C7.22847 22.5384 7.71663 22.0513 8.31447 22.0513H14.4724C15.0713 22.0513 15.5584 22.5395 15.5584 23.1373V38.2359ZM29.9968 33.9908H29.342C29.0452 33.9908 28.8043 34.2317 28.8043 34.5285C28.8043 34.8252 29.0452 35.0661 29.342 35.0661C29.7269 35.0661 30.0893 35.2155 30.3613 35.4876C30.6344 35.7596 30.7839 36.122 30.7839 36.5069C30.7839 36.522 30.7839 36.537 30.7839 36.5521C30.7269 37.3488 30.0753 37.952 29.2904 37.952C29.2775 37.952 29.2656 37.952 29.2527 37.952H19.883C19.883 37.952 19.8787 37.952 19.8766 37.952C19.5863 37.952 19.3002 37.9047 19.025 37.8112L16.682 37.0155V24.9254L18.8938 22.2696C20.3035 20.5793 21.3292 18.6503 21.9411 16.5364L22.3378 15.1697C22.383 14.9837 22.5238 14.8267 22.7142 14.7611L22.726 14.7579C22.9346 14.6988 23.1572 14.7665 23.3916 14.9568L23.4098 14.974C24.0829 15.6676 24.4367 16.6181 24.3786 17.5826C24.3561 18.9352 24.1206 20.2793 23.6797 21.5675L23.3539 22.461C23.3045 22.5954 23.3109 22.7416 23.3722 22.8717C23.4324 23.0018 23.541 23.1008 23.6754 23.1502C23.7346 23.1717 23.7969 23.1825 23.8593 23.1825H30.3226C31.1183 23.1825 31.7656 23.8298 31.7656 24.6244C31.7656 25.0093 31.6161 25.3727 31.343 25.6448C31.0699 25.9168 30.7086 26.0674 30.3226 26.0684C30.0247 26.0684 29.7839 26.3093 29.7839 26.6061C29.7839 26.9028 30.0247 27.1437 30.3215 27.1437C31.1172 27.1437 31.7645 27.792 31.7645 28.5877C31.7645 28.6028 31.7645 28.6178 31.7645 28.6329C31.7064 29.4404 31.0376 30.0511 30.2333 30.0307H29.9946C29.6979 30.0307 29.457 30.2716 29.457 30.5683C29.457 30.8651 29.6979 31.106 29.9946 31.106C30.7892 31.106 31.4365 31.7522 31.4376 32.5479C31.4376 33.3435 30.7914 33.9908 29.9957 33.9919L29.9968 33.9908Z" fill="#323232"/>
<path d="M11.4085 6.43123C11.3311 6.35166 11.23 6.2979 11.1214 6.27854L8.10318 5.83984L6.76342 3.1227C6.63224 2.85711 6.30859 2.74744 6.04301 2.87862C5.93763 2.93023 5.85161 3.01732 5.79893 3.1227L4.45917 5.83984L1.46031 6.27532C1.16677 6.31725 0.963546 6.59037 1.00548 6.88391C1.02268 7.00003 1.07752 7.10971 1.16247 7.19143L3.33339 9.30751L2.8205 12.2945C2.79576 12.4365 2.82802 12.5784 2.91189 12.6956C2.99468 12.8128 3.11834 12.8913 3.26027 12.915C3.3764 12.9343 3.49682 12.915 3.60112 12.8612L6.28171 11.4516L8.9623 12.8612C9.22466 12.9988 9.55046 12.8978 9.68809 12.6354C9.74293 12.5311 9.76228 12.4107 9.74185 12.2945L9.22896 9.30751L11.402 7.19143C11.6139 6.98498 11.6182 6.64305 11.4106 6.43123H11.4085ZM8.27629 8.73441C8.15049 8.85806 8.09242 9.03547 8.12253 9.20966L8.49672 11.4032L6.52902 10.3688C6.37203 10.2871 6.18494 10.2871 6.02795 10.3688L4.06025 11.4032L4.43444 9.21074C4.46455 9.03655 4.40756 8.85806 4.28068 8.73441L2.69039 7.18175L4.89034 6.86133C5.06561 6.83552 5.21722 6.72585 5.29571 6.56671L6.27956 4.5732L7.26341 6.56671C7.3419 6.72585 7.49351 6.83552 7.66878 6.86133L9.86981 7.18175L8.27629 8.73441Z" fill="#E31E30"/>
<path d="M25.9127 4.43881C25.831 4.35494 25.7213 4.29903 25.6052 4.28182L22.1988 3.78614L20.6752 0.700181C20.6117 0.571152 20.502 0.475455 20.3655 0.429219C20.23 0.382984 20.0838 0.392661 19.9547 0.456101C19.8494 0.507712 19.7623 0.594807 19.7107 0.700181L18.187 3.78614L14.7817 4.28075C14.4893 4.32376 14.285 4.59795 14.328 4.89041C14.3452 5.00654 14.4011 5.11514 14.485 5.19686L16.9494 7.59788L16.3666 10.9892C16.3161 11.2817 16.514 11.5602 16.8053 11.6096C16.9215 11.629 17.0419 11.6096 17.1462 11.5559L20.1924 9.95482L23.2385 11.5559C23.5009 11.6935 23.8267 11.5924 23.9643 11.3301C24.0192 11.2258 24.0385 11.1053 24.0181 10.9892L23.4375 7.59788L25.9019 5.19686C26.0052 5.09686 26.0621 4.96246 26.0643 4.81837C26.0664 4.67429 26.0116 4.53881 25.9116 4.43666L25.9127 4.43881ZM22.4869 7.02693C22.3611 7.15058 22.3031 7.32799 22.3332 7.50218L22.7783 10.0989L20.4472 8.87312C20.2902 8.7914 20.1031 8.79033 19.9472 8.87312L17.6129 10.1L18.058 7.50433C18.0881 7.33014 18.0311 7.15166 17.9043 7.028L16.0183 5.18933L18.6236 4.81084C18.7989 4.78504 18.9505 4.67536 19.029 4.5173L20.1945 2.15499L21.3601 4.5173C21.4386 4.67644 21.5902 4.78611 21.7655 4.81084L24.3729 5.18933L22.4869 7.02693Z" fill="#E31E30"/>
<path d="M39.2359 6.43232C39.1542 6.34845 39.0445 6.29254 38.9284 6.27533L35.9306 5.83878L34.5897 3.12164C34.4586 2.85605 34.1349 2.74638 33.8693 2.87863C33.764 2.93024 33.6779 3.01734 33.6252 3.12271L32.2855 5.83986L29.2866 6.27641C29.1447 6.29684 29.0189 6.37211 28.9329 6.48608C28.8469 6.60006 28.8114 6.74199 28.8318 6.885C28.849 7.00112 28.9038 7.1108 28.9888 7.19252L31.1586 9.30753L30.6468 12.2946C30.5963 12.587 30.7931 12.8655 31.0855 12.915C31.2016 12.9354 31.3231 12.915 31.4274 12.8612L34.108 11.4505L36.7886 12.8612C36.9155 12.9279 37.0617 12.9419 37.1983 12.8988C37.3359 12.8558 37.4477 12.7634 37.5144 12.6354C37.5692 12.5311 37.5886 12.4096 37.5682 12.2946L37.0553 9.30753L39.2251 7.19252C39.437 6.98607 39.4423 6.64522 39.2348 6.43232H39.2359ZM36.1048 8.73442C35.979 8.85807 35.9209 9.03656 35.951 9.21075L36.3252 11.4043L34.3575 10.3699C34.2005 10.2871 34.0134 10.2871 33.8575 10.3699L31.8898 11.4043L32.264 9.21183C32.2941 9.03656 32.2371 8.85915 32.1102 8.7355L30.5199 7.18392L32.7199 6.86349C32.8952 6.83876 33.0468 6.72801 33.1253 6.56995L34.1091 4.57537L35.093 6.56995C35.1715 6.72909 35.322 6.83876 35.4973 6.86349L37.6983 7.18499L36.1037 8.73657L36.1048 8.73442Z" fill="#E31E30"/>
</svg>
