<svg width="40" height="41" viewBox="0 0 40 41" fill="none" xmlns="http://www.w3.org/2000/svg">
<path d="M19.7546 0.400391C10.527 0.410938 3.0106 7.92737 3.00005 17.155C2.99113 20.6633 4.12378 24.1481 6.19275 26.9805L7.04062 26.3541C5.22074 23.8543 4.19762 20.9018 4.08078 17.8089L4.07591 17.6823H10.5928L10.5944 17.8024C10.6301 20.256 10.9838 22.6973 11.6451 25.0608L12.6568 24.7623C12.024 22.4969 11.6857 20.1578 11.65 17.8065L11.6483 17.6831H19.228V23.5249H20.2828V17.6831H27.8625L27.8609 17.8065C27.8236 20.1586 27.4836 22.4978 26.85 24.7623L27.8617 25.0608C28.5238 22.6982 28.8783 20.2568 28.9157 17.8024L28.9173 17.6823H35.4366L35.4317 17.8089C35.3149 20.9034 34.2925 23.856 32.4719 26.3566L33.3173 26.9805C35.3863 24.1481 36.5189 20.6633 36.51 17.155C36.4986 7.92737 28.9822 0.41175 19.7546 0.400391ZM7.61182 7.21581C9.62236 4.76145 12.2934 2.99025 15.3368 2.09289L15.7814 1.96145L15.4585 2.2941C13.8065 3.99633 12.5765 6.09694 11.9007 8.37037L11.8698 8.47422L11.7627 8.45556C10.3769 8.21297 8.99924 7.86084 7.66699 7.40891L7.50066 7.35211L7.61182 7.21581ZM11.5282 9.61662C10.936 11.8649 10.6187 14.1838 10.5838 16.5083L10.5822 16.6284H4.06618L4.07105 16.5018C4.19032 13.5655 5.13149 10.733 6.79234 8.30952L6.84589 8.23163L6.93433 8.26327C8.39234 8.78903 9.90553 9.1939 11.4317 9.4657L11.5615 9.48923L11.5282 9.61662ZM19.228 16.6276H11.637L11.6386 16.5042C11.6759 14.2308 11.994 11.9655 12.5846 9.76915L12.613 9.66449L12.7201 9.6799C14.828 9.99065 16.9765 10.1586 19.1072 10.1781H19.228V16.6276ZM19.228 9.12493H19.1055C17.0942 9.10465 15.065 8.95211 13.0731 8.66814L12.9278 8.64704L12.9757 8.5083C14.3607 4.45475 16.5887 1.90546 19.0885 1.51276L19.2289 1.49086V9.12493H19.228ZM24.1741 2.09289C27.2159 2.98944 29.8869 4.75982 31.8974 7.21256L32.0086 7.34806L31.8431 7.40485C30.5124 7.86003 29.1347 8.21378 27.7481 8.45556L27.6418 8.47422L27.611 8.37037C26.9343 6.09775 25.7043 3.99633 24.0532 2.29491L23.7303 1.96226L24.1749 2.09289H24.1741ZM20.2828 1.49086L20.4232 1.51276C22.9222 1.90546 25.1502 4.45556 26.5368 8.50992L26.5846 8.64948L26.4386 8.66976C24.4467 8.9513 22.4167 9.10465 20.4053 9.12493L20.282 9.12656V1.49005L20.2828 1.49086ZM20.2828 16.6284V10.1805H20.4037C22.5343 10.1586 24.6836 9.99147 26.7915 9.68315L26.8986 9.66773L26.927 9.7724C27.5169 11.9671 27.8349 14.2316 27.8723 16.5042L27.8739 16.6276H20.2828V16.6284ZM28.9287 16.6284L28.927 16.5083C28.893 14.1829 28.5749 11.8641 27.9818 9.61581L27.9477 9.48761L28.0783 9.46489C29.6045 9.19552 31.1177 8.79065 32.5749 8.26327L32.6633 8.23082L32.7169 8.30871C34.3786 10.7322 35.3197 13.5655 35.439 16.5018L35.4439 16.6284H28.9287Z" fill="#323232"/>
<path d="M36.5091 34.9399C36.5075 33.9566 35.8365 33.1209 34.8767 32.9075L34.6454 32.8564L34.8215 32.6981C35.7034 31.9063 35.7773 30.544 34.9854 29.662C34.1935 28.7801 32.8312 28.7063 31.9493 29.4981C31.0673 30.29 30.9935 31.6523 31.7854 32.5343C31.8365 32.5919 31.8917 32.6462 31.9493 32.6981L32.1237 32.8547L31.8949 32.9067C31.5915 32.9764 31.3034 33.116 31.0609 33.3115L30.9586 33.3935L30.884 33.2856C30.4905 32.7144 29.8698 32.333 29.1826 32.2405L28.9075 32.2032L29.1217 32.0263C29.6312 31.6052 29.946 31.0105 30.0077 30.3525C30.0702 29.6945 29.8722 29.0519 29.4503 28.5424C28.5805 27.4908 27.017 27.3432 25.9663 28.2138C24.9148 29.0835 24.7671 30.647 25.6377 31.6977C25.7367 31.817 25.8471 31.9282 25.9663 32.0272L26.1822 32.2057L25.9047 32.2422C25.542 32.2892 25.189 32.4199 24.8824 32.6203L24.7428 32.7111L24.6982 32.5505C24.3274 31.2069 23.0957 30.2649 21.7018 30.26H21.2191L21.4933 30.0426C22.0791 29.5785 22.4499 28.914 22.5359 28.1708C22.6219 27.4284 22.4142 26.6965 21.9493 26.1099C20.9911 24.9002 19.2272 24.6949 18.0166 25.6539C16.8069 26.6121 16.6024 28.376 17.5606 29.5858C17.6945 29.7545 17.8479 29.9079 18.0166 30.0418L18.2909 30.2592H17.8073C16.4126 30.2633 15.1793 31.2052 14.8093 32.5497L14.7647 32.7103L14.6252 32.6194C14.3193 32.4199 13.9655 32.2892 13.6028 32.2414L13.3254 32.2048L13.5412 32.0263C14.0507 31.6052 14.3655 31.0105 14.4272 30.3525C14.4897 29.6945 14.2917 29.0519 13.8698 28.5424C13.4487 28.0328 12.854 27.718 12.1959 27.6564C11.5379 27.5947 10.8953 27.7919 10.3858 28.2138C9.87627 28.6349 9.56146 29.2296 9.4998 29.8876C9.43732 30.5456 9.63529 31.1882 10.0572 31.6977C10.1562 31.817 10.2665 31.9282 10.3858 32.0263L10.6 32.2032L10.3249 32.2405C9.63773 32.3338 9.01704 32.7144 8.62353 33.2856L8.54888 33.3935L8.44665 33.3115C8.20406 33.116 7.91602 32.9764 7.61258 32.9067L7.38377 32.8539L7.55822 32.6973C7.9858 32.3136 8.23813 31.787 8.26897 31.2134C8.2998 30.6397 8.10588 30.0888 7.72211 29.6612C7.29777 29.189 6.71035 28.948 6.1213 28.948C5.60933 28.948 5.09574 29.129 4.686 29.4973C3.80406 30.2892 3.73022 31.6515 4.52211 32.5334C4.57323 32.5911 4.6284 32.6454 4.686 32.6973L4.86207 32.8556L4.63164 32.9067C3.67181 33.1217 3.00162 33.9574 3 34.9399V38.5748C3 38.8653 3.23692 39.1022 3.52738 39.1022H8.1927V39.2239C8.1927 39.5144 8.42962 39.7513 8.72008 39.7513H14.6836V39.873C14.6836 40.1635 14.9205 40.4004 15.211 40.4004H24.2982C24.5886 40.4004 24.8256 40.1635 24.8256 39.873V39.7513H30.789C31.0795 39.7513 31.3164 39.5144 31.3164 39.2239V39.1022H35.9817C36.2722 39.1022 36.5091 38.8653 36.5091 38.5748V34.9399ZM6.12373 30.015C6.72738 30.015 7.21907 30.5067 7.21907 31.1103C7.21907 31.714 6.72738 32.2057 6.12373 32.2057C5.52008 32.2057 5.0284 31.714 5.0284 31.1103C5.0284 30.5067 5.52008 30.015 6.12373 30.015ZM8.1927 38.0474H4.05477V34.9399C4.05477 34.372 4.51724 33.9095 5.08519 33.9095H7.16227C7.73022 33.9095 8.1927 34.372 8.1927 34.9399V38.0474ZM10.5456 30.1367C10.5456 29.3537 11.1826 28.7168 11.9655 28.7168C12.7485 28.7168 13.3854 29.3537 13.3854 30.1367C13.3854 30.9197 12.7485 31.5566 11.9655 31.5566C11.1826 31.5566 10.5456 30.9197 10.5456 30.1367ZM14.6836 38.6965H9.24746V34.6803C9.24746 33.8973 9.88438 33.2604 10.6673 33.2604H13.2637C14.0467 33.2604 14.6836 33.8973 14.6836 34.6803V38.6965ZM18.0101 27.8649C18.0101 26.9026 18.7931 26.1205 19.7546 26.1205C20.716 26.1205 21.499 26.9026 21.499 27.8649C21.499 28.8272 20.7168 29.6093 19.7546 29.6093C18.7923 29.6093 18.0101 28.8272 18.0101 27.8649ZM23.7708 39.3456H15.7383V33.3821C15.7383 32.2414 16.6665 31.3132 17.8073 31.3132H21.7018C22.8426 31.3132 23.7708 32.2414 23.7708 33.3821V39.3456ZM26.1237 30.1367C26.1237 29.3537 26.7607 28.7168 27.5436 28.7168C28.3266 28.7168 28.9635 29.3537 28.9635 30.1367C28.9635 30.9197 28.3266 31.5566 27.5436 31.5566C26.7607 31.5566 26.1237 30.9197 26.1237 30.1367ZM30.2617 38.6965H24.8256V34.6803C24.8256 33.8973 25.4625 33.2604 26.2454 33.2604H28.8418C29.6247 33.2604 30.2617 33.8973 30.2617 34.6803V38.6965ZM33.3854 30.015C33.989 30.015 34.4807 30.5067 34.4807 31.1103C34.4807 31.714 33.989 32.2057 33.3854 32.2057C32.7817 32.2057 32.2901 31.714 32.2901 31.1103C32.2901 30.5067 32.7817 30.015 33.3854 30.015ZM35.4544 38.0474H31.3164V34.9399C31.3164 34.372 31.7789 33.9095 32.3469 33.9095H34.4239C34.9919 33.9095 35.4544 34.372 35.4544 34.9399V38.0474Z" fill="#E31E30"/>
</svg>
