<svg width="40" height="41" viewBox="0 0 40 41" fill="none" xmlns="http://www.w3.org/2000/svg">
<path fill-rule="evenodd" clip-rule="evenodd" d="M40 7.29513C40 6.24881 39.1516 5.40039 38.1053 5.40039C32.2463 5.40039 7.75368 5.40039 1.89474 5.40039C0.848421 5.40039 0 6.24881 0 7.29513V34.4909C0 35.5372 0.848421 36.3857 1.89474 36.3857H38.1053C39.1516 36.3857 40 35.5372 40 34.4909V7.29513ZM38.7368 7.29513V34.4909C38.7368 34.8395 38.4539 35.1225 38.1053 35.1225H1.89474C1.54611 35.1225 1.26316 34.8395 1.26316 34.4909V7.29513C1.26316 6.9465 1.54611 6.66355 1.89474 6.66355H38.1053C38.4539 6.66355 38.7368 6.9465 38.7368 7.29513Z" fill="#323232"/>
<path fill-rule="evenodd" clip-rule="evenodd" d="M0.631579 13.4618H39.3684C39.7171 13.4618 40 13.1789 40 12.8302C40 12.4816 39.7171 12.1987 39.3684 12.1987H0.631579C0.282947 12.1987 0 12.4816 0 12.8302C0 13.1789 0.282947 13.4618 0.631579 13.4618Z" fill="#323232"/>
<path fill-rule="evenodd" clip-rule="evenodd" d="M35.4307 8.79956H34.0749C33.7263 8.79956 33.4434 9.08251 33.4434 9.43114C33.4434 9.77977 33.7263 10.0627 34.0749 10.0627H35.4307C35.7794 10.0627 36.0623 9.77977 36.0623 9.43114C36.0623 9.08251 35.7794 8.79956 35.4307 8.79956Z" fill="#323232"/>
<path fill-rule="evenodd" clip-rule="evenodd" d="M31.0313 8.79956H29.6755C29.3269 8.79956 29.0439 9.08251 29.0439 9.43114C29.0439 9.77977 29.3269 10.0627 29.6755 10.0627H31.0313C31.3799 10.0627 31.6629 9.77977 31.6629 9.43114C31.6629 9.08251 31.3799 8.79956 31.0313 8.79956Z" fill="#323232"/>
<path fill-rule="evenodd" clip-rule="evenodd" d="M9.03645 31.2926C14.3657 31.2926 25.639 31.2926 30.9687 31.2568C31.9417 31.2568 32.8625 30.7991 33.4529 30.0198C34.0428 29.2408 34.2339 28.2303 33.9695 27.2892C33.9695 27.2892 33.9691 27.2888 33.9691 27.2884C32.2453 21.1966 26.6402 16.7284 20.0002 16.7284C13.3615 16.7284 7.75771 21.1949 5.99729 27.2749C5.99687 27.2766 5.99645 27.2779 5.99603 27.2796C5.72824 28.2311 5.9215 29.2534 6.51855 30.0417C7.1156 30.8299 8.04739 31.293 9.03645 31.2926ZM9.03602 30.0294C8.44276 30.0299 7.8836 29.752 7.52571 29.2791C7.16781 28.8067 7.0516 28.1941 7.2116 27.6236C8.82003 22.0711 13.9375 17.9916 20.0002 17.9916C26.0626 17.9916 31.1792 22.0707 32.7535 27.632C32.911 28.192 32.7973 28.7932 32.4457 29.2572C32.0946 29.7208 31.5463 29.9937 30.9644 29.9937C30.9628 29.9937 30.9615 29.9937 30.9598 29.9937C25.6322 30.0294 14.3636 30.0294 9.03602 30.0294Z" fill="#E31E30"/>
<path fill-rule="evenodd" clip-rule="evenodd" d="M19.3682 17.36V20.6307C19.3682 20.9793 19.6511 21.2623 19.9997 21.2623C20.3484 21.2623 20.6313 20.9793 20.6313 20.6307V17.36C20.6313 17.0113 20.3484 16.7284 19.9997 16.7284C19.6511 16.7284 19.3682 17.0113 19.3682 17.36Z" fill="#E31E30"/>
<path fill-rule="evenodd" clip-rule="evenodd" d="M29.0263 25.6134L31.3392 23.3006C31.5859 23.0543 31.5859 22.6538 31.3392 22.4075C31.0929 22.1608 30.6925 22.1608 30.4461 22.4075L28.1333 24.7204C27.8866 24.9667 27.8866 25.3671 28.1333 25.6134C28.3796 25.8602 28.78 25.8602 29.0263 25.6134Z" fill="#E31E30"/>
<path fill-rule="evenodd" clip-rule="evenodd" d="M20.5214 31.0173L26.1555 22.7621C26.3522 22.4741 26.2781 22.0809 25.9901 21.8847C25.7021 21.688 25.3088 21.7621 25.1122 22.0501L19.4781 30.3053C19.2814 30.5933 19.3559 30.9866 19.6435 31.1828C19.9315 31.3794 20.3248 31.3053 20.5214 31.0173Z" fill="#E31E30"/>
<path fill-rule="evenodd" clip-rule="evenodd" d="M11.7786 24.7204L9.4658 22.4075C9.21948 22.1608 8.81906 22.1608 8.57275 22.4075C8.32601 22.6538 8.32601 23.0543 8.57275 23.3006L10.8856 25.6134C11.1319 25.8602 11.5323 25.8602 11.7786 25.6134C12.0254 25.3671 12.0254 24.9667 11.7786 24.7204Z" fill="#E31E30"/>
</svg>
