<svg width="40" height="41" viewBox="0 0 40 41" fill="none" xmlns="http://www.w3.org/2000/svg">
<path d="M14.499 16.2441H25.5016C25.7218 16.2441 25.9 16.0658 25.9 15.8456C25.8961 13.2152 24.1545 10.9047 21.6276 10.1755C22.7692 9.27661 22.9669 7.62288 22.0681 6.48045C21.1692 5.33879 19.5155 5.14112 18.373 6.03997C17.2306 6.93882 17.0337 8.59255 17.9326 9.73498C18.0618 9.89919 18.2096 10.0471 18.373 10.1755C15.8461 10.9039 14.1045 13.2152 14.1006 15.8456C14.1006 16.0658 14.2788 16.2441 14.499 16.2441ZM18.166 8.11161C18.166 7.09836 18.9871 6.27733 20.0003 6.27733C21.0136 6.27733 21.8346 7.09836 21.8346 8.11161C21.8346 9.12486 21.0136 9.94588 20.0003 9.94588C18.9878 9.94588 18.1668 9.12408 18.166 8.11161ZM20.0003 10.7428C22.6626 10.7459 24.8759 12.7934 25.0876 15.4472H14.9138C15.1247 12.7934 17.3388 10.7459 20.0011 10.7428H20.0003Z" fill="#E31E30"/>
<path d="M25.5013 16.3219H14.4987C14.2365 16.3219 14.0225 16.1079 14.0225 15.8456C14.0264 13.2456 15.7416 10.9218 18.2116 10.1428C18.0871 10.0338 17.9727 9.91322 17.8708 9.78325C16.947 8.60969 17.1509 6.90304 18.3245 5.97929C19.4981 5.05553 21.2047 5.25943 22.1285 6.43299C23.0219 7.56842 22.8608 9.20114 21.7876 10.1428C24.2577 10.9218 25.9729 13.2456 25.9768 15.8456C25.9768 16.1087 25.7628 16.3219 25.5005 16.3219H25.5013ZM19.9977 5.55593C19.4451 5.55593 18.8887 5.73415 18.4218 6.10147C17.3151 6.9723 17.1237 8.58012 17.9937 9.68675C18.119 9.84551 18.263 9.98948 18.4218 10.1148L18.5408 10.2089L18.3953 10.251C15.9167 10.9654 14.1828 13.2666 14.1789 15.8464C14.1789 16.0231 14.3229 16.167 14.4995 16.167H25.5021C25.6787 16.167 25.8227 16.0231 25.8227 15.8464C25.8188 13.2666 24.0849 10.9662 21.6063 10.251L21.4607 10.2089L21.5798 10.1148C22.6864 9.24394 22.8779 7.63613 22.0078 6.52949C21.5051 5.88979 20.7549 5.55593 19.9985 5.55593H19.9977ZM25.1713 15.525H14.8287L14.8357 15.441C14.9392 14.1382 15.5252 12.9312 16.4848 12.044C17.4443 11.1568 18.6926 10.6665 20 10.665C21.3074 10.6665 22.5557 11.156 23.5153 12.044C24.4748 12.932 25.0608 14.1382 25.1643 15.441L25.1713 15.525ZM14.9984 15.3694H25.0024C24.7557 12.8152 22.5752 10.8245 20.0008 10.8206C17.4264 10.8237 15.2451 12.8152 14.9991 15.3694H14.9984ZM20 10.0237C18.9463 10.0237 18.0887 9.16534 18.0879 8.11162C18.0879 7.05713 18.9455 6.19952 20 6.19952C21.0545 6.19952 21.9121 7.05713 21.9121 8.11162C21.9121 9.16612 21.0545 10.0237 20 10.0237ZM18.2436 8.11162C18.2436 9.07974 19.0319 9.8673 20 9.86808C20.9681 9.86808 21.7565 9.08051 21.7565 8.11162C21.7565 7.14273 20.9689 6.35517 20 6.35517C19.0311 6.35517 18.2436 7.14273 18.2436 8.11162Z" fill="#E31E30"/>
<path d="M21.6276 28.6217C22.7692 27.7229 22.9669 26.0692 22.0681 24.9267C21.1692 23.7851 19.5155 23.5874 18.373 24.4863C17.2306 25.3851 17.0337 27.0388 17.9326 28.1813C18.0618 28.3455 18.2096 28.4933 18.373 28.6217C15.8438 29.3509 14.1021 31.6646 14.1006 34.2973C14.1006 34.5176 14.2788 34.6958 14.499 34.6958H25.5016C25.7218 34.6958 25.9 34.5176 25.9 34.2973C25.8985 31.6654 24.156 29.3517 21.6276 28.6217ZM18.166 26.5579C18.166 25.5446 18.9871 24.7236 20.0003 24.7236C21.0136 24.7236 21.8346 25.5446 21.8346 26.5579C21.8346 27.5711 21.0136 28.3922 20.0003 28.3922C18.9878 28.3922 18.1668 27.5704 18.166 26.5579ZM14.9131 33.8989C15.1356 31.0895 17.5933 28.9922 20.4027 29.2148C22.9031 29.4132 24.8883 31.3985 25.0868 33.8989H14.9131Z" fill="#323232"/>
<path d="M25.5013 34.7728H14.4987C14.2365 34.7728 14.0225 34.5588 14.0225 34.2966C14.024 31.6942 15.7392 29.3681 18.2116 28.5883C18.0871 28.4793 17.9735 28.3587 17.8708 28.2287C17.4233 27.6599 17.2241 26.9509 17.3097 26.2326C17.3953 25.5143 17.7556 24.8723 18.3245 24.4248C19.4981 23.501 21.2047 23.7049 22.1285 24.8785C23.0219 26.0139 22.8608 27.6466 21.7876 28.5883C24.26 29.3673 25.9752 31.6942 25.9768 34.2958C25.9768 34.5588 25.7628 34.7721 25.5005 34.7721L25.5013 34.7728ZM19.9969 24.0014C19.4444 24.0014 18.8879 24.1796 18.421 24.547C17.8848 24.9688 17.5455 25.5742 17.4646 26.2513C17.3836 26.9283 17.5719 27.5968 17.993 28.1322C18.1183 28.291 18.2622 28.435 18.421 28.5603L18.5401 28.6544L18.3938 28.6965C15.9128 29.4117 14.1789 31.7152 14.1773 34.2974C14.1773 34.474 14.3213 34.618 14.498 34.618H25.5005C25.6772 34.618 25.8211 34.474 25.8211 34.2974C25.8196 31.7152 24.0857 29.4124 21.6047 28.6972L21.4592 28.6552L21.5783 28.561C22.6849 27.6902 22.8763 26.0824 22.0063 24.9758C21.5035 24.3361 20.7533 24.0022 19.9969 24.0022V24.0014ZM25.1705 33.9759H14.8279L14.8349 33.8919C14.9439 32.5121 15.5844 31.2584 16.6365 30.3603C17.6895 29.4622 19.028 29.0272 20.4086 29.1369C22.9619 29.3393 24.962 31.3393 25.1635 33.8919L25.1698 33.9759H25.1705ZM14.9976 33.8203H25.0017C24.769 31.3845 22.8452 29.4856 20.3969 29.2918C19.0591 29.186 17.7595 29.607 16.7385 30.4786C15.7384 31.3315 15.1229 32.5152 14.9984 33.8203H14.9976ZM19.9992 28.4692C18.9455 28.4692 18.0879 27.6108 18.0871 26.5571C18.0871 25.5026 18.9447 24.645 19.9992 24.645C21.0537 24.645 21.9113 25.5026 21.9113 26.5571C21.9113 27.6116 21.0537 28.4692 19.9992 28.4692ZM18.2428 26.5571C18.2428 27.5252 19.0311 28.3128 19.9992 28.3136C20.9673 28.3136 21.7557 27.526 21.7557 26.5571C21.7557 25.5882 20.9681 24.8007 19.9992 24.8007C19.0303 24.8007 18.2428 25.5882 18.2428 26.5571Z" fill="#323232"/>
<path d="M35.651 28.6217C36.7927 27.7229 36.9903 26.0692 36.0915 24.9267C35.1926 23.7851 33.5389 23.5874 32.3965 24.4863C31.254 25.3851 31.0572 27.0388 31.956 28.1813C32.0852 28.3455 32.2331 28.4933 32.3965 28.6217C29.8672 29.3509 28.1256 31.6646 28.124 34.2973C28.124 34.5176 28.3022 34.6958 28.5225 34.6958H39.525C39.7453 34.6958 39.9235 34.5176 39.9235 34.2973C39.9219 31.6654 38.1795 29.3517 35.651 28.6217ZM32.1895 26.5579C32.1895 25.5446 33.0105 24.7236 34.0238 24.7236C35.037 24.7236 35.858 25.5446 35.858 26.5579C35.858 27.5711 35.037 28.3922 34.0238 28.3922C33.0113 28.3922 32.1903 27.5704 32.1895 26.5579ZM28.9365 33.8989C29.1591 31.0895 31.6167 28.9922 34.4261 29.2148C36.9265 29.4132 38.9118 31.3985 39.1102 33.8989H28.9365Z" fill="#323232"/>
<path d="M39.5247 34.7728H28.5222C28.2591 34.7728 28.0459 34.5588 28.0459 34.2966C28.0475 31.6942 29.7627 29.368 32.2351 28.5883C32.1106 28.4793 31.9962 28.3587 31.8942 28.2287C31.4467 27.6598 31.2475 26.9509 31.3331 26.2326C31.4187 25.5143 31.779 24.8722 32.3479 24.4248C32.9168 23.9773 33.6258 23.7781 34.3441 23.8637C35.0624 23.9493 35.7044 24.3096 36.1519 24.8785C36.5994 25.4473 36.7986 26.1563 36.713 26.8746C36.6328 27.5447 36.3145 28.1478 35.811 28.589C38.2835 29.368 39.9987 31.6949 40.0002 34.2966C40.0002 34.5596 39.7862 34.7728 39.5239 34.7728H39.5247ZM34.018 23.9998C33.4483 23.9998 32.8989 24.189 32.4444 24.5469C31.9082 24.9687 31.5689 25.5742 31.488 26.2513C31.4071 26.9283 31.5946 27.5968 32.0164 28.1322C32.1417 28.291 32.2849 28.435 32.4444 28.5603L32.5635 28.6544L32.418 28.6964C29.937 29.4116 28.2031 31.7152 28.2015 34.2973C28.2015 34.474 28.3455 34.618 28.5222 34.618H39.5247C39.7014 34.618 39.8454 34.474 39.8454 34.2973C39.8438 31.7152 38.1099 29.4124 35.6289 28.6972L35.4834 28.6552L35.6025 28.561C36.7091 27.6902 36.9005 26.0816 36.0305 24.9757C35.6087 24.4395 35.0032 24.1002 34.3262 24.0193C34.2235 24.0069 34.1207 24.0006 34.0188 24.0006L34.018 23.9998ZM39.194 33.9759H28.8521L28.8584 33.8919C29.0841 31.0443 31.5853 28.912 34.432 29.1369C36.9854 29.3393 38.9854 31.3393 39.187 33.8919L39.1932 33.9759H39.194ZM29.021 33.8203H39.0251C38.7924 31.3844 36.8686 29.4856 34.4203 29.2918C31.6857 29.0754 29.2825 31.1004 29.0218 33.8203H29.021ZM34.0227 28.4692C32.969 28.4692 32.1113 27.6108 32.1106 26.5571C32.1106 25.5026 32.9682 24.645 34.0227 24.645C35.0772 24.645 35.9348 25.5026 35.9348 26.5571C35.9348 27.6116 35.0772 28.4692 34.0227 28.4692ZM32.2662 26.5571C32.2662 27.5252 33.0546 28.3128 34.0227 28.3136C34.9908 28.3136 35.7791 27.526 35.7791 26.5571C35.7791 25.5882 34.9916 24.8006 34.0227 24.8006C33.0538 24.8006 32.2662 25.5882 32.2662 26.5571Z" fill="#323232"/>
<path d="M7.60512 28.6217C8.74678 27.7229 8.94445 26.0692 8.0456 24.9267C7.14675 23.7851 5.49302 23.5874 4.35058 24.4863C3.20815 25.3851 3.01126 27.0388 3.91011 28.1813C4.03929 28.3455 4.18716 28.4933 4.35058 28.6217C1.82213 29.3509 0.0796815 31.6646 0.078125 34.2966C0.078125 34.5168 0.256339 34.695 0.476576 34.695H11.4791C11.6994 34.695 11.8776 34.5168 11.8776 34.2966C11.876 31.6646 10.1336 29.3509 7.60512 28.621V28.6217ZM4.14357 26.5579C4.14357 25.5446 4.9646 24.7236 5.97785 24.7236C6.9911 24.7236 7.81213 25.5446 7.81213 26.5579C7.81213 27.5711 6.9911 28.3922 5.97785 28.3922C4.96538 28.3922 4.14435 27.5704 4.14357 26.5579ZM0.890592 33.8989C1.11316 31.0895 3.5708 28.9922 6.38019 29.2148C8.88063 29.4132 10.8659 31.3985 11.0643 33.8989H0.890592Z" fill="#323232"/>
<path d="M11.4788 34.7728H0.476274C0.214012 34.7728 0 34.5588 0 34.2966C0.00155645 31.6942 1.71677 29.368 4.18919 28.5883C4.06467 28.4793 3.95105 28.3587 3.84832 28.2287C2.92457 27.0552 3.12847 25.3485 4.30203 24.4248C4.87091 23.9773 5.5791 23.7781 6.29818 23.8637C7.01648 23.9493 7.65852 24.3096 8.106 24.8785C8.55348 25.4473 8.7527 26.1563 8.6671 26.8746C8.58694 27.5447 8.26865 28.1478 7.76513 28.589C10.2376 29.368 11.9528 31.6949 11.9543 34.2966C11.9543 34.5596 11.7403 34.7728 11.478 34.7728H11.4788ZM5.9721 23.9998C5.40244 23.9998 4.85301 24.189 4.39853 24.5469C3.29189 25.4178 3.10045 27.0256 3.97051 28.1322C4.0958 28.291 4.23977 28.435 4.39853 28.5603L4.5176 28.6544L4.37129 28.6964C1.89031 29.4116 0.156423 31.7152 0.154867 34.2973C0.154867 34.474 0.298839 34.618 0.475496 34.618H11.478C11.6547 34.618 11.7987 34.474 11.7987 34.2973C11.7971 31.7152 10.0632 29.4124 7.58225 28.6972L7.43672 28.6552L7.55579 28.561C8.09199 28.1392 8.43129 27.5338 8.51223 26.8567C8.59317 26.1797 8.40483 25.5112 7.98381 24.9757C7.56202 24.4395 6.95656 24.1002 6.2795 24.0193C6.17678 24.0069 6.07405 24.0006 5.9721 24.0006V23.9998ZM11.1481 33.9759H0.806242L0.813246 33.8919C0.922197 32.5121 1.56268 31.2584 2.61484 30.3603C3.66778 29.4622 5.0071 29.0272 6.38612 29.1369C8.93948 29.3393 10.9395 31.3393 11.1411 33.8919L11.1481 33.9759ZM0.975116 33.8203H10.9792C10.7465 31.3844 8.82274 29.4856 6.37444 29.2918C5.03668 29.1859 3.73704 29.607 2.71601 30.4786C1.71599 31.3315 1.10041 32.5152 0.975895 33.8203H0.975116ZM5.97677 28.4692C4.92305 28.4692 4.06545 27.6108 4.06467 26.5571C4.06467 25.5026 4.92228 24.645 5.97677 24.645C7.03127 24.645 7.88887 25.5026 7.88887 26.5571C7.88887 27.6116 7.03127 28.4692 5.97677 28.4692ZM4.22032 26.5571C4.22032 27.5252 5.00866 28.3128 5.97677 28.3136C6.94488 28.3136 7.73323 27.526 7.73323 26.5571C7.73323 25.5882 6.94566 24.8006 5.97677 24.8006C5.00788 24.8006 4.22032 25.5882 4.22032 26.5571Z" fill="#323232"/>
<path d="M5.97755 22.7501C6.19779 22.7501 6.376 22.5719 6.376 22.3516V20.4839H19.6019V22.3516C19.6019 22.5719 19.7802 22.7501 20.0004 22.7501C20.2206 22.7501 20.3988 22.5719 20.3988 22.3516V20.4839H33.6248V22.3516C33.6248 22.5719 33.803 22.7501 34.0232 22.7501C34.2435 22.7501 34.4217 22.5719 34.4217 22.3516V20.0854C34.4217 19.8652 34.2435 19.687 34.0232 19.687H20.3988V17.8192C20.3988 17.599 20.2206 17.4208 20.0004 17.4208C19.7802 17.4208 19.6019 17.599 19.6019 17.8192V19.687H5.97755C5.75731 19.687 5.5791 19.8652 5.5791 20.0854V22.3516C5.5791 22.5719 5.75731 22.7501 5.97755 22.7501Z" fill="#323232"/>
<path d="M34.0229 22.8279C33.7607 22.8279 33.5467 22.6139 33.5467 22.3516V20.5617H20.4764V22.3516C20.4764 22.6139 20.2624 22.8279 20.0001 22.8279C19.7378 22.8279 19.5238 22.6139 19.5238 22.3516V20.5617H6.45352V22.3516C6.45352 22.6139 6.23951 22.8279 5.97725 22.8279C5.71499 22.8279 5.50098 22.6139 5.50098 22.3516V20.0854C5.50098 19.8232 5.71499 19.6091 5.97725 19.6091H19.5238V17.8192C19.5238 17.557 19.7378 17.343 20.0001 17.343C20.2624 17.343 20.4764 17.557 20.4764 17.8192V19.6091H34.0229C34.286 19.6091 34.4992 19.8232 34.4992 20.0854V22.3516C34.4992 22.6139 34.2852 22.8279 34.0229 22.8279ZM20.3207 20.4061H33.7023V22.3516C33.7023 22.5283 33.8463 22.6722 34.0229 22.6722C34.1996 22.6722 34.3436 22.5283 34.3436 22.3516V20.0854C34.3436 19.9088 34.1996 19.7648 34.0229 19.7648H20.3207V17.8192C20.3207 17.6426 20.1768 17.4986 20.0001 17.4986C19.8234 17.4986 19.6795 17.6426 19.6795 17.8192V19.7648H5.97725C5.80059 19.7648 5.65662 19.9088 5.65662 20.0854V22.3516C5.65662 22.5283 5.80059 22.6722 5.97725 22.6722C6.15391 22.6722 6.29788 22.5283 6.29788 22.3516V20.4061H19.6795V22.3516C19.6795 22.5283 19.8234 22.6722 20.0001 22.6722C20.1768 22.6722 20.3207 22.5283 20.3207 22.3516V20.4061Z" fill="#323232"/>
</svg>
