<svg width="256" height="51" viewBox="0 0 256 51" fill="none" xmlns="http://www.w3.org/2000/svg">
<path d="M18.5475 48.8928C15.0053 48.0623 11.8188 46.4902 8.97323 44.2063C6.67601 42.3524 4.74931 40.1723 3.26723 37.6065C1.79998 35.0853 0.866267 32.386 0.362361 29.5237C0.0659455 27.7885 -0.0526212 26.0384 0.0214827 24.2884C0.15487 20.9811 0.881088 17.8073 2.22978 14.7818C3.57847 11.7118 5.56445 9.0867 8.03952 6.83241C9.46232 5.52729 11.0185 4.4298 12.7081 3.49546C15.3313 2.0272 18.1325 1.0187 21.0966 0.499615C23.1715 0.143673 25.2613 0.0250262 27.3806 0.188166C29.3963 0.351306 31.3674 0.722078 33.2941 1.35981C36.3917 2.38314 39.1928 3.97004 41.6975 6.07603C42.0087 6.34299 42.3496 6.58028 42.6312 6.86207C42.8239 7.05487 42.9573 7.04004 43.1499 6.89173C43.7724 6.4468 44.3949 6.01671 45.0174 5.58661C45.1211 5.51246 45.2249 5.37898 45.3582 5.45313C45.4768 5.51246 45.4175 5.66077 45.4323 5.77941C45.5806 7.41081 45.7288 9.04221 45.8621 10.6588C45.9659 11.8897 46.0548 13.1355 46.1437 14.3665C46.203 15.0487 46.2771 15.7309 46.3068 16.4132C46.3364 16.9026 46.3068 16.9174 45.8325 16.695C44.8692 16.2352 43.9058 15.7903 42.9425 15.3305C40.7193 14.2775 38.4962 13.2245 36.2731 12.1715C36.1397 12.1122 36.0212 12.038 35.8433 11.9342C36.5102 11.4745 37.1179 11.0592 37.7255 10.6439C38.2146 10.3028 38.2294 10.288 37.7996 9.9024C34.8948 7.24767 31.5156 5.52729 27.6178 4.84507C26.4025 4.63743 25.1872 4.50396 23.957 4.51879C20.7854 4.57811 17.7323 5.2455 14.8423 6.56545C12.2634 7.75192 9.98105 9.35366 8.00988 11.4003C6.05354 13.447 4.61592 15.8199 3.60811 18.4598C2.91153 20.2989 2.42245 22.1972 2.22978 24.1549C1.82962 28.2779 2.34834 32.2526 4.05273 36.0641C5.3866 39.0451 7.29849 41.5812 9.71427 43.7465C12.2931 46.0453 15.2424 47.6915 18.5475 48.7149V48.8928Z" fill="#585858"/>
<path d="M33.0565 43.5383C29.544 43.5383 26.0315 43.5383 22.519 43.5383C21.8965 43.5383 21.3778 43.3455 21.0813 42.7374C20.6515 41.8475 21.2444 40.8094 22.2374 40.7501C22.3856 40.7352 22.5338 40.7501 22.682 40.7501C29.2624 40.7501 35.8577 40.7501 42.4381 40.7649C42.8531 40.7649 43.0606 40.6314 43.2384 40.2606C45.2837 35.9004 47.3438 31.5549 49.4039 27.1946C49.6262 26.7349 49.8337 26.2603 50.056 25.8005C50.2042 25.5187 50.1449 25.4149 49.8188 25.4149C48.9741 25.4297 48.1144 25.4149 47.2697 25.4149C43.0754 25.4149 38.8663 25.4149 34.672 25.4149C34.1236 25.4149 33.6197 25.2814 33.3085 24.7772C32.7008 23.7835 33.353 22.6415 34.5386 22.6267C35.7391 22.6119 36.9396 22.6267 38.1401 22.6267C42.8086 22.6267 47.4772 22.6267 52.1457 22.6267C53.524 22.6267 54.1317 23.5907 53.5389 24.8365C51.7011 28.6925 49.8929 32.5634 48.0552 36.4194C47.0918 38.4513 46.1136 40.4831 45.1799 42.5446C44.8391 43.2713 44.3055 43.5383 43.5496 43.5383C40.0519 43.5383 36.5542 43.5383 33.0565 43.5383Z" fill="#585858"/>
<path d="M28.6869 30.7111C26.2267 30.7111 23.7664 30.7111 21.3062 30.7111C20.6689 30.7111 20.1353 30.3403 19.9427 29.7916C19.75 29.228 19.8834 28.6348 20.328 28.2788C20.6244 28.0415 20.9653 27.9229 21.3358 27.9229C21.7656 27.9229 22.1806 27.9081 22.6104 27.9229C22.9365 27.9377 23.0254 27.8487 22.9068 27.5225C22.4177 26.0097 21.9435 24.4821 21.4692 22.9545C21.1283 21.9164 21.1283 21.9164 20.0316 21.9164C18.8756 21.9164 17.7195 21.9312 16.5635 21.9164C15.4223 21.9016 14.7258 20.7447 15.2889 19.8252C15.5557 19.3803 15.9559 19.1282 16.4894 19.1282C18.3717 19.1282 20.2687 19.1133 22.151 19.1282C22.8031 19.1282 23.2773 19.4989 23.4848 20.1515C24.2555 22.5541 25.0114 24.9419 25.7524 27.3445C25.8858 27.7746 26.0636 27.9377 26.5379 27.9229C29.6947 27.8932 32.8664 27.9081 36.0232 27.9081C36.7494 27.9081 37.2533 28.2195 37.4756 28.8127C37.8462 29.7619 37.1644 30.6963 36.0529 30.6963C33.6074 30.7111 31.1472 30.7111 28.6869 30.7111Z" fill="#585858"/>
<path d="M29.2173 36.9535C25.3491 36.9535 21.4808 36.9535 17.6274 36.9535C17.0494 36.9535 16.6344 36.7162 16.3825 36.212C16.1305 35.6929 16.1898 35.1738 16.5455 34.7289C16.8271 34.3581 17.2569 34.2246 17.7164 34.2246C18.6501 34.2246 19.5838 34.2246 20.5323 34.2246C27.2609 34.2246 34.0044 34.2246 40.733 34.2246C41.6223 34.2246 42.2447 34.7734 42.2744 35.5594C42.304 36.3454 41.7408 36.9387 40.9553 36.9535C39.8141 36.9683 38.6729 36.9535 37.5317 36.9535C34.7454 36.9535 31.9739 36.9535 29.2173 36.9535Z" fill="#585858"/>
<path d="M37.9316 44.9473C39.2062 44.9473 40.1548 45.9261 40.1548 47.2164C40.1548 48.4918 39.1766 49.441 37.8872 49.441C36.6126 49.441 35.6641 48.4622 35.6641 47.1719C35.6641 45.8816 36.6274 44.9473 37.9316 44.9473Z" fill="#585858"/>
<path d="M28.2852 47.2019C28.2852 45.8967 29.2337 44.9624 30.5231 44.9624C31.7977 44.9624 32.7759 45.9264 32.761 47.2167C32.761 48.4625 31.768 49.4413 30.5379 49.4562C29.2633 49.4413 28.2852 48.4773 28.2852 47.2019Z" fill="#585858"/>
<path d="M41.7093 30.7095C41.2499 30.7095 40.8053 30.7095 40.3458 30.7095C39.5159 30.6947 38.9082 30.1163 38.9082 29.3154C38.9082 28.5145 39.501 27.9213 40.331 27.9213C41.2351 27.9064 42.1391 27.9064 43.058 27.9213C43.9621 27.9361 44.5401 28.5145 44.5401 29.3599C44.5253 30.1756 43.9324 30.7095 43.0284 30.7095C42.5838 30.7095 42.154 30.7095 41.7093 30.7095Z" fill="#585858"/>
<path d="M18.5488 48.892V48.7437C19.0083 48.8623 19.4677 48.9809 19.9272 49.0996C19.4381 49.1441 18.9935 49.0106 18.5488 48.892Z" fill="#585858"/>
<path d="M20.2375 49.2347L20.207 49.2042C20.2223 49.2042 20.2375 49.189 20.2528 49.189C20.268 49.2042 20.268 49.2195 20.2833 49.2347C20.268 49.2347 20.2528 49.2347 20.2375 49.2347Z" fill="#585858"/>
<path d="M66.0825 40.1791C65.8305 38.7701 65.875 37.5095 66.2159 36.412C66.5568 35.2997 67.0755 34.2912 67.8017 33.4013C68.5131 32.4967 69.3727 31.681 70.3509 30.9098C71.329 30.1534 72.3517 29.4118 73.3891 28.6703C74.4266 27.9287 75.464 27.202 76.4867 26.4753C77.5093 25.7486 78.4134 24.9477 79.1841 24.0727C79.9547 23.1977 80.5624 22.2485 80.9922 21.2104C81.422 20.1722 81.585 18.9857 81.4813 17.6658C81.3924 16.7166 81.2145 15.8267 80.9329 15.011C80.6513 14.1953 80.266 13.4983 79.7473 12.9051C79.2433 12.3118 78.6061 11.8521 77.8502 11.511C77.0943 11.1698 76.1903 11.0067 75.1528 11.0067C74.3673 11.0067 73.5373 11.1254 72.6629 11.3626C71.7885 11.5999 70.9733 11.9411 70.2027 12.4008C69.432 12.8457 68.7206 13.3648 68.0685 13.9581C67.4164 14.5513 66.8976 15.2038 66.5123 15.9454L65.623 15.2632C66.127 14.314 66.7791 13.4686 67.5794 12.7271C68.3797 12.0004 69.2541 11.3775 70.2175 10.8881C71.1808 10.3986 72.1887 10.0279 73.2558 9.77574C74.3228 9.52361 75.3751 9.39014 76.4126 9.39014C77.6131 9.39014 78.7839 9.56811 79.9103 9.92405C81.0367 10.28 82.0296 10.8139 82.8744 11.5258C83.734 12.2377 84.4158 13.1572 84.9345 14.2843C85.4532 15.4115 85.72 16.7314 85.72 18.2442C85.72 20.2612 85.3495 21.9667 84.6233 23.3608C83.8971 24.7549 82.9634 25.9562 81.8222 26.9796C80.681 28.0029 79.4212 28.8928 78.0577 29.664C76.6793 30.4203 75.3603 31.1767 74.0709 31.9183C72.7815 32.6598 71.6403 33.4607 70.6177 34.3209C69.595 35.1811 68.8688 36.2044 68.4538 37.4205L85.72 37.0794V40.1642L66.0825 40.1791Z" fill="#585858"/>
<path fill-rule="evenodd" clip-rule="evenodd" d="M79.3027 10.9675C79.8 11.2921 80.2491 11.6801 80.6393 12.1381C81.2698 12.8609 81.7233 13.6943 82.0456 14.6278C82.3631 15.5475 82.5571 16.5316 82.6531 17.5564L82.654 17.5651L82.6547 17.5739C82.7703 19.045 82.5924 20.422 82.0798 21.66C81.596 22.8286 80.9158 23.8867 80.0678 24.8495C79.2309 25.7997 78.2574 26.66 77.1693 27.4333C76.7396 27.7386 76.3122 28.0405 75.8849 28.3424C75.2834 28.7673 74.6819 29.1921 74.0744 29.6264C73.0414 30.3647 72.0349 31.0948 71.0761 31.836C70.1519 32.565 69.366 33.3156 68.7273 34.1278L68.7208 34.1362L68.714 34.1444C68.0924 34.9061 67.6417 35.7762 67.3413 36.7565L67.34 36.7607C67.2595 37.02 67.1981 37.2954 67.1574 37.5874L67.3438 37.0412C67.8336 35.6058 68.6913 34.4077 69.8633 33.4219C70.9412 32.5152 72.1398 31.6747 73.4871 30.8999C74.7743 30.1596 76.1003 29.3992 77.4877 28.6378C78.7812 27.9056 79.9686 27.0654 81.0397 26.105C82.0749 25.1768 82.9216 24.0882 83.5832 22.8182C84.2023 21.6298 84.547 20.1206 84.547 18.2444C84.547 16.8695 84.3048 15.7224 83.8692 14.7757C83.4139 13.7865 82.8334 13.0159 82.127 12.4309L82.1231 12.4277L82.1193 12.4245C81.4028 11.8207 80.5498 11.3579 79.5582 11.0446C79.4734 11.0178 79.3882 10.9921 79.3027 10.9675ZM67.1006 38.6227C67.1033 38.7472 67.1092 38.8741 67.1184 39.0035L84.547 38.9903V38.278L67.1006 38.6227ZM72.9876 8.63242C74.1326 8.36187 75.2759 8.21533 76.4146 8.21533C77.7324 8.21533 79.0228 8.4109 80.2663 8.80385C81.5259 9.20188 82.6575 9.80585 83.6297 10.6242C84.6406 11.4624 85.4224 12.5298 86.0039 13.7933C86.6057 15.1009 86.897 16.5937 86.897 18.2444C86.897 20.4021 86.5007 22.304 85.6674 23.9038C84.8765 25.422 83.8559 26.7361 82.6086 27.8545C81.3991 28.9391 80.0691 29.8775 78.6381 30.6869L78.6316 30.6906L78.6249 30.6942C77.2581 31.4443 75.9482 32.1954 74.6587 32.937C73.4271 33.6453 72.3433 34.4065 71.376 35.2202C71.0099 35.5281 70.6928 35.8561 70.4229 36.2066L86.897 35.8812V41.3385L65.1011 41.355L64.9279 40.3861C64.6509 38.8375 64.687 37.3813 65.0951 36.0658C65.4755 34.8256 66.0598 33.6823 66.8866 32.6669C67.6684 31.6744 68.598 30.7973 69.6254 29.9872L69.6298 29.9838L69.6341 29.9804C70.6304 29.2101 71.6676 28.4582 72.7079 27.7146C73.3167 27.2794 73.9316 26.845 74.5404 26.415C74.9674 26.1133 75.3914 25.8138 75.8081 25.5177C76.7652 24.8375 77.5999 24.0961 78.3043 23.2963C78.9977 22.5091 79.5328 21.6688 79.9086 20.7611C80.2548 19.9248 80.403 18.9317 80.3126 17.7667C80.2305 16.8965 80.0691 16.1039 79.8243 15.3946C79.5843 14.6995 79.2688 14.1408 78.8647 13.6787L78.8592 13.6723L78.8537 13.6659C78.4764 13.2217 77.9868 12.8609 77.3689 12.5821C76.8041 12.3272 76.0747 12.1819 75.1548 12.1819C74.4877 12.1819 73.7618 12.2826 72.9727 12.4968C72.1971 12.7073 71.4815 13.0074 70.8066 13.4101L70.7994 13.4144L70.7921 13.4186C70.0936 13.8218 69.4505 14.2913 68.8612 14.8274C68.2994 15.3385 67.871 15.8829 67.5569 16.4874L66.9108 17.7307L64.1211 15.5905L64.5873 14.7124C65.1539 13.6451 65.8874 12.695 66.7828 11.8654L66.7871 11.8614L66.7915 11.8574C67.6602 11.0686 68.62 10.3829 69.6873 9.84069C70.7334 9.30921 71.8292 8.90612 72.9876 8.63242Z" fill="#585858"/>
<path d="M86.8047 31.37L102.307 10.6216H105.805V30.8954L109.644 30.7619V33.565H105.805V40.1796H102.055L102.011 33.565H87.6495L86.8047 31.37ZM88.6573 31.1179L102.055 30.8658L102.144 12.6979L88.6573 31.1179Z" fill="#585858"/>
<path fill-rule="evenodd" clip-rule="evenodd" d="M103.321 11.7966L103.222 32.019L88.4183 32.2976L88.4539 32.39H103.176L103.22 39.0046H104.628V32.39H108.466V31.9785L104.628 32.112V11.7966H103.321ZM103.066 9.44665H101.716L85.4727 31.1865L86.8403 34.74H100.841L100.886 41.3546H106.978V34.74H110.816V29.5454L106.978 29.6789V9.44665H103.333L103.334 9.08008L103.066 9.44665ZM91.004 29.8985L100.884 29.7126L100.949 16.3158L91.004 29.8985Z" fill="#585858"/>
<path d="M134.782 15.0115C133.374 13.7509 131.729 12.8165 129.847 12.2085C127.965 11.6004 126.083 11.2445 124.2 11.1258H123.563C122.466 11.1258 121.429 11.2741 120.451 11.5707C119.472 11.8674 118.598 12.2826 117.857 12.8165C117.116 13.3504 116.523 13.9882 116.108 14.7297C115.693 15.4713 115.471 16.3018 115.471 17.1916C115.471 17.9777 115.649 18.6302 115.99 19.1493C116.345 19.6684 116.923 20.1282 117.724 20.5138C118.524 20.9142 119.576 21.2998 120.91 21.7002C122.229 22.1007 123.859 22.5753 125.801 23.1388C127.935 23.7321 129.743 24.3401 131.211 24.9482C132.693 25.5711 133.878 26.2385 134.768 26.9652C135.657 27.6919 136.324 28.5076 136.724 29.4123C137.124 30.317 137.332 31.37 137.332 32.5713C137.332 33.5501 137.109 34.5734 136.665 35.6561C135.849 37.4803 134.516 38.8299 132.648 39.7049C130.781 40.58 128.528 41.0101 125.89 41.0101C123.252 41.0101 120.955 40.6541 118.835 39.9571C116.716 39.26 114.671 37.9994 112.714 36.2048L113.47 35.404C115.219 37.065 117.012 38.1922 118.865 38.7706C120.717 39.3638 122.555 39.7049 124.378 39.7791C124.571 39.8088 124.763 39.8236 124.941 39.8236H125.549C126.527 39.8236 127.52 39.7346 128.498 39.5715C129.476 39.4083 130.395 39.1117 131.24 38.7113C132.085 38.3108 132.811 37.7621 133.434 37.065C134.056 36.3828 134.456 35.5226 134.649 34.5141C134.812 33.6094 134.693 32.8234 134.264 32.156C133.834 31.4886 133.197 30.8806 132.322 30.3615C131.448 29.8424 130.381 29.3678 129.121 28.9525C127.861 28.5373 126.468 28.1368 124.956 27.7661C123.667 27.4546 122.288 27.0987 120.806 26.6834C119.324 26.283 117.976 25.7194 116.745 25.0224C115.515 24.3253 114.508 23.4206 113.737 22.3231C112.966 21.2256 112.625 19.8315 112.699 18.1557C112.788 16.6429 113.188 15.3526 113.915 14.3144C114.641 13.2763 115.56 12.4309 116.671 11.808C117.783 11.1703 118.998 10.7254 120.332 10.4436C121.666 10.1618 122.985 10.0283 124.274 10.0283C125.253 10.058 126.246 10.147 127.239 10.2953C128.232 10.4436 129.225 10.6957 130.203 11.0368C131.181 11.3779 132.144 11.808 133.063 12.3419C133.997 12.8759 134.842 13.5432 135.627 14.3293L134.782 15.0115Z" fill="#585858"/>
<path fill-rule="evenodd" clip-rule="evenodd" d="M124.158 12.3005H123.558C122.569 12.3005 121.647 12.4341 120.787 12.6948C119.913 12.96 119.16 13.3227 118.539 13.7695C117.918 14.217 117.449 14.7308 117.129 15.3032C116.812 15.8698 116.641 16.5029 116.641 17.1913C116.641 17.7925 116.774 18.2059 116.961 18.4943C117.167 18.7907 117.556 19.1304 118.229 19.4549L118.237 19.4587L118.245 19.4627C118.957 19.819 119.936 20.182 121.243 20.5746L121.247 20.5756C122.556 20.9731 124.177 21.445 126.118 22.0083C128.281 22.6097 130.134 23.2318 131.656 23.8624L131.659 23.8635L131.661 23.8647C133.205 24.5135 134.5 25.233 135.506 26.0551C136.504 26.8705 137.303 27.8268 137.794 28.9367C138.271 30.015 138.502 31.2344 138.502 32.571C138.502 33.7308 138.238 34.9062 137.747 36.1022L137.74 36.1188L137.733 36.1352C136.8 38.2236 135.258 39.7771 133.142 40.7686C131.079 41.7351 128.646 42.1847 125.885 42.1847C123.138 42.1847 120.715 41.8134 118.464 41.0729C116.156 40.3139 113.969 38.9545 111.915 37.0704L111.037 36.2648L113.42 33.74L114.275 34.5517C115.927 36.1213 117.569 37.1363 119.21 37.6487L119.215 37.65L119.219 37.6513C120.98 38.2154 122.714 38.5353 124.421 38.6048L124.487 38.6074L124.552 38.6175C124.689 38.6385 124.822 38.6483 124.937 38.6483H125.544C126.452 38.6483 127.38 38.5656 128.3 38.4122C129.168 38.2675 129.983 38.0045 130.732 37.6492C131.432 37.3176 132.032 36.865 132.553 36.2821L132.557 36.2774L132.561 36.2728C133.013 35.7775 133.33 35.1282 133.489 34.2995C133.61 33.6247 133.506 33.1569 133.271 32.7919C132.954 32.3 132.46 31.8122 131.718 31.3715C130.931 30.9047 129.945 30.4627 128.748 30.0681C127.52 29.6632 126.157 29.2713 124.674 28.9074C123.373 28.5933 121.984 28.2344 120.49 27.816C118.914 27.3897 117.476 26.7888 116.162 26.0443C114.788 25.266 113.647 24.2456 112.771 22.9981C111.814 21.636 111.439 19.9665 111.521 18.1034L111.521 18.0949L111.522 18.0864C111.621 16.4071 112.07 14.8944 112.947 13.6406C113.77 12.4642 114.818 11.4976 116.087 10.7856C117.316 10.0814 118.647 9.59729 120.085 9.29366C121.499 8.99495 122.899 8.85303 124.27 8.85303H124.288L124.305 8.85357C125.33 8.88465 126.37 8.97784 127.408 9.13287C128.479 9.29296 129.544 9.56395 130.585 9.92705C131.625 10.2897 132.656 10.7493 133.645 11.3237C134.68 11.916 135.606 12.65 136.454 13.4984L137.377 14.4224L134.739 16.5532L133.994 15.8866C132.714 14.7406 131.215 13.8862 129.481 13.3262C127.703 12.7517 125.929 12.4151 124.158 12.3005ZM114.478 15.6635C114.138 16.3695 113.928 17.2157 113.868 18.2158C113.804 19.7002 114.11 20.8163 114.694 21.6476C115.359 22.595 116.233 23.384 117.32 23.9998C118.465 24.6485 119.722 25.1743 121.108 25.5488L121.114 25.5502L121.119 25.5517C122.586 25.9629 123.951 26.3153 125.227 26.6236L125.231 26.6246C126.771 27.0021 128.193 27.4108 129.484 27.8363C130.807 28.2723 131.955 28.7795 132.917 29.3508C133.924 29.9482 134.704 30.6767 135.247 31.5195C135.825 32.4168 135.982 33.4291 135.84 34.4727C136.053 33.7919 136.152 33.1613 136.152 32.571C136.152 31.505 135.968 30.6183 135.645 29.8873C135.335 29.1878 134.8 28.5127 134.019 27.8747C133.247 27.2438 132.172 26.6288 130.753 26.0322C129.342 25.4477 127.583 24.8546 125.482 24.2706L125.475 24.2688L125.469 24.2669C123.53 23.704 121.893 23.2275 120.566 22.8247C119.211 22.4178 118.088 22.0109 117.201 21.5681C116.285 21.1255 115.521 20.5506 115.016 19.8132L115.009 19.8036L115.003 19.794C114.511 19.0447 114.291 18.1555 114.291 17.1913C114.291 16.6656 114.355 16.1545 114.478 15.6635Z" fill="#585858"/>
<path d="M164.895 10.5029V12.1492H147.674V23.5689H159.56V25.2152H147.674V38.5333H164.895V40.1796H143.494V10.5029H164.895Z" fill="#585858"/>
<path fill-rule="evenodd" clip-rule="evenodd" d="M142.318 9.32764H166.07V13.3238H148.848V22.3937H160.734V26.3898H148.848V37.358H166.07V41.3542H142.318V9.32764ZM144.668 11.6776V39.0043H146.498V11.6776H144.668Z" fill="#585858"/>
<path d="M168.822 10.5474H173.624L185.792 37.3171L198.093 10.5474H199.857L186.296 40.1795H182.294L168.822 10.5474Z" fill="#585858"/>
<path fill-rule="evenodd" clip-rule="evenodd" d="M166.996 9.37207H174.38L185.797 34.4901L197.339 9.37207H201.686L187.049 41.3542H181.537L166.996 9.37207ZM185.267 39.0042L172.866 11.722H170.646L183.05 39.0042H185.267Z" fill="#585858"/>
<path d="M225.052 10.5029V12.1492H207.83V23.5689H219.701V25.2152H207.83V38.5333H225.052V40.1796H203.65V10.5029H225.052Z" fill="#585858"/>
<path fill-rule="evenodd" clip-rule="evenodd" d="M202.475 9.32764H226.226V13.3238H209.004V22.3937H220.875V26.3898H209.004V37.358H226.226V41.3542H202.475V9.32764ZM204.825 11.6776V39.0043H206.654V11.6776H204.825Z" fill="#585858"/>
<path d="M228.961 10.5029H233.763L253.223 36.3828V10.5029H254.823V40.1796H250.822L230.606 13.3653V40.1796H228.961V10.5029Z" fill="#585858"/>
<path fill-rule="evenodd" clip-rule="evenodd" d="M227.787 9.32764H234.351L252.049 32.8648V9.32764H255.999V41.3542H250.237L231.782 16.8753V41.3542H227.787V9.32764ZM230.807 11.6776L251.408 39.0043H253.649V38.9037L233.177 11.6776H230.807Z" fill="#585858"/>
</svg>
