<svg width="233" height="76" viewBox="0 0 233 76" fill="none" xmlns="http://www.w3.org/2000/svg">
<path d="M103.467 12.9304C103.419 13.5033 103.009 13.7867 102.64 14.1116C96.477 19.5449 90.3231 24.9842 84.1574 30.4117C83.7145 30.8015 83.2745 31.4806 82.5629 30.8841C81.9693 30.3851 82.4536 29.83 82.6514 29.3545C83.6171 27.0247 84.624 24.7125 85.6191 22.3975C86.318 20.7714 85.8317 19.8146 84.1604 19.5272C83.4694 19.4062 82.7843 19.2556 82.0963 19.1345C81.5412 19.0341 80.9269 19.0075 80.8886 18.2427C80.8472 17.4454 81.5116 17.3982 82.0313 17.2682C85.7018 16.3381 89.3752 15.4197 93.0487 14.5102C95.975 13.7868 98.9014 13.0633 101.834 12.3693C102.46 12.2217 103.269 11.7994 103.464 12.9304H103.467Z" fill="#363636"/>
<path d="M89.7012 13.258C90.9562 10.37 92.1846 7.55885 93.3982 4.73882C93.6049 4.26044 93.8057 3.81455 94.4406 3.93562C94.9899 4.04193 94.9751 4.53802 95.0223 4.9278C95.2468 6.81176 95.4387 8.69868 95.6365 10.5856C95.7163 11.3622 95.8846 12.1831 94.727 12.3308C93.5163 12.4843 93.8855 11.498 93.6935 10.9222C93.6079 10.6594 93.5754 10.3789 93.478 9.91823C92.4385 11.3297 92.5064 13.7039 89.7041 13.2609L89.7012 13.258Z" fill="#4F4F4F"/>
<path d="M95.0285 26.7733C95.4508 24.6472 94.3287 22.719 96.8091 21.9453C97.1133 24.8185 97.4233 27.6799 97.7157 30.5413C97.7511 30.8927 97.7039 31.2618 97.3052 31.4094C96.8357 31.5866 96.505 31.3297 96.2274 30.9871C95.1289 29.6288 94.0511 28.2527 92.932 26.9121C92.4034 26.2772 91.9634 25.7723 92.8729 25.0341C93.7972 24.284 94.0718 25.0252 94.4616 25.5626C94.624 25.7841 94.7037 26.0676 95.0285 26.7763V26.7733Z" fill="#4F4F4F"/>
<path d="M88.3426 41.6177C87.4537 41.0951 86.9694 41.9573 86.4704 42.5154C84.5008 44.7213 82.5991 46.9891 80.5646 49.1329C75.1696 54.8143 69.4911 60.1768 62.6551 64.1426C59.1382 66.1831 57.1981 65.0373 57.1893 60.9298C57.1834 58.3106 57.5495 55.7356 58.2789 53.2198C60.7771 44.5884 64.6779 36.7277 70.938 30.1486C73.0317 27.9487 73.2088 25.0962 71.5523 22.8283C69.8957 20.5575 66.4791 19.1815 64.7546 20.8942C62.0645 23.5666 59.9414 22.3706 57.4816 21.1156C57.0564 20.8971 56.5455 20.8115 56.0612 20.7406C49.8985 19.8282 44.158 21.3342 38.7542 24.1158C30.802 28.2085 23.8479 33.7069 17.5463 40.0143C13.3916 44.172 9.8156 48.7756 7.67473 54.336C4.06331 63.7085 10.6424 73.2464 20.706 73.2583C25.1914 73.2642 28.8206 71.141 32.1426 68.448C37.3102 64.2607 41.7337 59.3382 46.2044 53.6154C46.1808 56.9965 45.9062 59.8432 46.1542 62.6986C46.8747 71.017 53.2235 75.1836 61.0635 72.3724C63.1276 71.6312 65.0558 70.6006 66.8335 69.3279C75.3881 63.2036 81.9406 55.2632 87.4567 46.4044C87.9675 45.5806 88.2274 44.6031 88.6172 43.7025C88.9449 42.9436 89.1576 42.0991 88.3426 41.6207V41.6177ZM54.7177 31.6841C46.3461 41.6502 38.0662 51.699 28.5843 60.667C26.2279 62.8935 23.8449 65.0846 20.954 66.6083C18.2226 68.0493 17.2894 67.5326 16.9203 64.5294C16.7166 62.8847 16.8229 61.2399 17.4784 59.7634C24.1432 44.7596 35.063 34.2325 50.5836 28.6722C52.6683 27.9251 54.9244 27.7154 57.5436 28.3119C56.4776 29.5846 55.5976 30.6358 54.7177 31.6871V31.6841Z" fill="#585858"/>
<path d="M120.487 16.0918L120.092 15.0531H116.728L116.333 16.1143C116.178 16.5283 116.046 16.8087 115.937 16.9554C115.828 17.0984 115.649 17.1699 115.401 17.1699C115.19 17.1699 115.004 17.0928 114.842 16.9385C114.68 16.7842 114.6 16.6092 114.6 16.4135C114.6 16.3006 114.618 16.184 114.656 16.0635C114.694 15.9431 114.756 15.7756 114.842 15.5611L116.959 10.1872C117.019 10.0329 117.091 9.84855 117.174 9.63404C117.26 9.41577 117.35 9.23514 117.445 9.09213C117.542 8.94913 117.668 8.83435 117.823 8.7478C117.981 8.65748 118.175 8.61232 118.404 8.61232C118.637 8.61232 118.831 8.65748 118.986 8.7478C119.144 8.83435 119.27 8.94725 119.364 9.08649C119.462 9.22573 119.543 9.37626 119.607 9.53808C119.674 9.69613 119.759 9.90876 119.861 10.1759L122.023 15.516C122.192 15.9224 122.277 16.2178 122.277 16.4022C122.277 16.5942 122.196 16.771 122.034 16.9328C121.876 17.0909 121.684 17.1699 121.458 17.1699C121.326 17.1699 121.213 17.1455 121.119 17.0965C121.025 17.0514 120.946 16.9893 120.882 16.9103C120.818 16.8275 120.749 16.7033 120.673 16.5377C120.602 16.3684 120.54 16.2197 120.487 16.0918ZM117.168 13.7943H119.64L118.393 10.3792L117.168 13.7943ZM129.073 12.0331V16.5095C129.073 17.0213 129.018 17.4616 128.909 17.8304C128.8 18.1992 128.625 18.504 128.384 18.7448C128.143 18.9857 127.827 19.1644 127.436 19.2811C127.048 19.3978 126.565 19.4561 125.985 19.4561C125.455 19.4561 124.98 19.3808 124.563 19.2303C124.145 19.0835 123.823 18.8916 123.597 18.6545C123.372 18.4212 123.259 18.1804 123.259 17.932C123.259 17.7438 123.323 17.5895 123.451 17.4691C123.579 17.3524 123.733 17.2941 123.914 17.2941C124.139 17.2941 124.337 17.3938 124.506 17.5933C124.589 17.6949 124.674 17.7965 124.76 17.8981C124.851 18.0035 124.948 18.0919 125.054 18.1634C125.163 18.2387 125.293 18.2933 125.443 18.3271C125.594 18.3648 125.767 18.3836 125.963 18.3836C126.362 18.3836 126.67 18.3271 126.888 18.2142C127.11 18.1051 127.265 17.9508 127.351 17.7514C127.442 17.5519 127.494 17.3374 127.509 17.1078C127.524 16.882 127.536 16.517 127.543 16.0127C127.306 16.3439 127.031 16.596 126.719 16.7691C126.41 16.9423 126.042 17.0288 125.613 17.0288C125.097 17.0288 124.646 16.8971 124.258 16.6337C123.874 16.3702 123.579 16.0014 123.372 15.5273C123.165 15.0531 123.061 14.5056 123.061 13.8846C123.061 13.4217 123.123 13.004 123.247 12.6315C123.375 12.2589 123.556 11.9447 123.789 11.6888C124.023 11.4329 124.292 11.2409 124.597 11.113C124.901 10.9813 125.236 10.9154 125.601 10.9154C126.038 10.9154 126.416 11.0001 126.736 11.1694C127.056 11.335 127.353 11.5966 127.628 11.9541V11.7452C127.628 11.478 127.694 11.2711 127.825 11.1243C127.957 10.9775 128.126 10.9041 128.333 10.9041C128.631 10.9041 128.828 11.002 128.926 11.1977C129.024 11.3896 129.073 11.6681 129.073 12.0331ZM124.608 13.9862C124.608 14.6109 124.743 15.0832 125.014 15.4031C125.289 15.723 125.643 15.8829 126.076 15.8829C126.331 15.8829 126.572 15.8152 126.798 15.6797C127.028 15.5404 127.214 15.3335 127.357 15.0588C127.5 14.7803 127.571 14.4435 127.571 14.0483C127.571 13.4199 127.432 12.9306 127.154 12.5807C126.879 12.2307 126.516 12.0557 126.064 12.0557C125.624 12.0557 125.27 12.2232 125.003 12.5581C124.74 12.893 124.608 13.3691 124.608 13.9862ZM134.639 14.4152H131.624C131.628 14.7652 131.698 15.0738 131.833 15.341C131.973 15.6082 132.155 15.8095 132.381 15.945C132.61 16.0805 132.863 16.1482 133.137 16.1482C133.322 16.1482 133.489 16.1275 133.64 16.0861C133.794 16.041 133.943 15.9732 134.086 15.8829C134.229 15.7888 134.36 15.6891 134.481 15.5837C134.601 15.4784 134.757 15.3354 134.949 15.1547C135.028 15.087 135.141 15.0531 135.288 15.0531C135.446 15.0531 135.574 15.0964 135.672 15.1829C135.77 15.2695 135.819 15.3918 135.819 15.5499C135.819 15.6891 135.764 15.8528 135.655 16.041C135.546 16.2254 135.38 16.4041 135.158 16.5772C134.94 16.7466 134.663 16.8877 134.328 17.0006C133.997 17.1135 133.615 17.1699 133.182 17.1699C132.193 17.1699 131.423 16.8877 130.874 16.3232C130.324 15.7587 130.05 14.9929 130.05 14.0257C130.05 13.5704 130.117 13.1489 130.253 12.7613C130.388 12.3699 130.586 12.035 130.845 11.7565C131.105 11.478 131.425 11.2654 131.805 11.1186C132.185 10.9681 132.607 10.8928 133.07 10.8928C133.672 10.8928 134.187 11.0208 134.616 11.2767C135.049 11.5288 135.373 11.8562 135.587 12.2589C135.802 12.6616 135.909 13.0718 135.909 13.4895C135.909 13.8771 135.798 14.1292 135.576 14.2459C135.354 14.3588 135.041 14.4152 134.639 14.4152ZM131.624 13.5403H134.419C134.381 13.0134 134.238 12.6202 133.99 12.3605C133.745 12.0971 133.421 11.9654 133.019 11.9654C132.635 11.9654 132.319 12.099 132.07 12.3662C131.826 12.6296 131.677 13.021 131.624 13.5403ZM138.613 11.7565V11.9428C138.884 11.5853 139.179 11.3237 139.499 11.1582C139.823 10.9888 140.193 10.9041 140.611 10.9041C141.017 10.9041 141.381 10.9926 141.701 11.1694C142.02 11.3463 142.259 11.5966 142.417 11.9202C142.519 12.1084 142.585 12.3116 142.615 12.5299C142.645 12.7481 142.66 13.0266 142.66 13.3653V16.2329C142.66 16.5415 142.589 16.7748 142.446 16.9328C142.306 17.0909 142.124 17.1699 141.898 17.1699C141.669 17.1699 141.482 17.089 141.339 16.9272C141.196 16.7654 141.125 16.5339 141.125 16.2329V13.6645C141.125 13.1564 141.053 12.7688 140.91 12.5016C140.771 12.2307 140.491 12.0952 140.069 12.0952C139.794 12.0952 139.544 12.178 139.318 12.3436C139.093 12.5054 138.927 12.7293 138.822 13.0153C138.746 13.2449 138.709 13.6739 138.709 14.3023V16.2329C138.709 16.5452 138.635 16.7804 138.489 16.9385C138.346 17.0928 138.159 17.1699 137.93 17.1699C137.708 17.1699 137.525 17.089 137.382 16.9272C137.239 16.7654 137.168 16.5339 137.168 16.2329V11.7791C137.168 11.4856 137.232 11.2673 137.36 11.1243C137.488 10.9775 137.663 10.9041 137.885 10.9041C138.02 10.9041 138.142 10.9361 138.251 11.0001C138.361 11.0641 138.447 11.16 138.511 11.288C138.579 11.4159 138.613 11.5721 138.613 11.7565ZM149.728 15.262C149.728 15.4539 149.669 15.659 149.553 15.8773C149.44 16.0955 149.265 16.3044 149.028 16.5038C148.794 16.6995 148.499 16.8576 148.141 16.978C147.784 17.0984 147.381 17.1586 146.933 17.1586C145.981 17.1586 145.238 16.882 144.704 16.3288C144.169 15.7719 143.902 15.0268 143.902 14.0935C143.902 13.4613 144.024 12.9024 144.269 12.417C144.514 11.9315 144.867 11.5571 145.33 11.2936C145.793 11.0264 146.346 10.8928 146.99 10.8928C147.389 10.8928 147.754 10.9512 148.085 11.0678C148.42 11.1845 148.702 11.335 148.932 11.5194C149.165 11.7038 149.342 11.9014 149.462 12.1121C149.586 12.3191 149.648 12.5129 149.648 12.6936C149.648 12.878 149.579 13.0341 149.44 13.1621C149.304 13.29 149.139 13.354 148.943 13.354C148.815 13.354 148.708 13.322 148.621 13.258C148.538 13.1903 148.444 13.0831 148.339 12.9363C148.151 12.6503 147.953 12.4358 147.746 12.2928C147.543 12.1498 147.283 12.0783 146.967 12.0783C146.512 12.0783 146.145 12.257 145.866 12.6145C145.588 12.9683 145.449 13.4537 145.449 14.0709C145.449 14.3607 145.484 14.6279 145.556 14.8725C145.627 15.1133 145.731 15.3203 145.866 15.4934C146.002 15.6628 146.166 15.7926 146.358 15.8829C146.549 15.9695 146.76 16.0127 146.99 16.0127C147.298 16.0127 147.562 15.9412 147.78 15.7982C148.002 15.6552 148.198 15.437 148.367 15.1434C148.461 14.9703 148.563 14.8348 148.672 14.737C148.781 14.6392 148.915 14.5902 149.073 14.5902C149.261 14.5902 149.417 14.6617 149.541 14.8047C149.665 14.9477 149.728 15.1001 149.728 15.262ZM152.194 17.3619L152.335 17.0175L150.439 12.242C150.322 11.9672 150.264 11.7678 150.264 11.6436C150.264 11.5119 150.298 11.3896 150.365 11.2767C150.433 11.1638 150.525 11.0735 150.642 11.0057C150.762 10.938 150.887 10.9041 151.015 10.9041C151.237 10.9041 151.404 10.9756 151.517 11.1186C151.63 11.2579 151.73 11.4592 151.816 11.7226L153.12 15.516L154.356 11.9879C154.454 11.7019 154.543 11.478 154.622 11.3162C154.701 11.1544 154.783 11.0453 154.87 10.9888C154.96 10.9324 155.086 10.9041 155.248 10.9041C155.365 10.9041 155.476 10.9361 155.581 11.0001C155.69 11.0603 155.773 11.1431 155.83 11.2485C155.89 11.3538 155.92 11.4649 155.92 11.5815C155.905 11.653 155.88 11.7546 155.847 11.8863C155.813 12.0181 155.771 12.1516 155.722 12.2871L153.713 17.5481C153.54 18.011 153.37 18.3742 153.205 18.6376C153.039 18.901 152.819 19.1024 152.544 19.2416C152.273 19.3846 151.906 19.4561 151.444 19.4561C150.992 19.4561 150.653 19.4072 150.427 19.3093C150.202 19.2115 150.089 19.0327 150.089 18.7731C150.089 18.5962 150.141 18.4588 150.247 18.361C150.356 18.2669 150.516 18.2199 150.727 18.2199C150.809 18.2199 150.89 18.2312 150.969 18.2537C151.067 18.2763 151.152 18.2876 151.223 18.2876C151.4 18.2876 151.54 18.2613 151.641 18.2086C151.743 18.1559 151.833 18.0637 151.912 17.932C151.995 17.804 152.089 17.614 152.194 17.3619ZM159.804 11.0396H160.17V10.5767C160.17 10.095 160.231 9.71307 160.351 9.43083C160.475 9.14482 160.682 8.93784 160.972 8.80989C161.266 8.67818 161.666 8.61232 162.174 8.61232C163.074 8.61232 163.524 8.83247 163.524 9.27277C163.524 9.41577 163.477 9.53808 163.382 9.63969C163.288 9.74129 163.177 9.7921 163.049 9.7921C162.989 9.7921 162.886 9.78081 162.739 9.75823C162.592 9.73565 162.468 9.72436 162.366 9.72436C162.088 9.72436 161.909 9.80715 161.83 9.97273C161.751 10.1346 161.712 10.3679 161.712 10.6727V11.0396H162.09C162.677 11.0396 162.97 11.2165 162.97 11.5702C162.97 11.8224 162.891 11.9823 162.733 12.05C162.579 12.1178 162.364 12.1516 162.09 12.1516H161.712V16.2329C161.712 16.5377 161.638 16.771 161.491 16.9328C161.348 17.0909 161.162 17.1699 160.933 17.1699C160.714 17.1699 160.532 17.0909 160.385 16.9328C160.242 16.771 160.17 16.5377 160.17 16.2329V12.1516H159.747C159.518 12.1516 159.341 12.1008 159.217 11.9992C159.092 11.8939 159.03 11.7584 159.03 11.5928C159.03 11.224 159.288 11.0396 159.804 11.0396ZM169.389 14.037C169.389 14.4961 169.317 14.9195 169.174 15.3071C169.031 15.6947 168.824 16.0278 168.553 16.3063C168.282 16.5847 167.959 16.7993 167.582 16.9498C167.206 17.0965 166.783 17.1699 166.312 17.1699C165.845 17.1699 165.426 17.0947 165.053 16.9441C164.681 16.7936 164.357 16.5791 164.082 16.3006C163.811 16.0184 163.604 15.6872 163.461 15.3071C163.322 14.9233 163.253 14.4999 163.253 14.037C163.253 13.5704 163.324 13.1433 163.467 12.7556C163.61 12.368 163.815 12.0369 164.082 11.7622C164.35 11.4874 164.673 11.2767 165.053 11.1299C165.433 10.9794 165.853 10.9041 166.312 10.9041C166.779 10.9041 167.202 10.9794 167.582 11.1299C167.962 11.2805 168.288 11.495 168.559 11.7734C168.83 12.0519 169.035 12.3831 169.174 12.7669C169.317 13.1508 169.389 13.5742 169.389 14.037ZM167.842 14.037C167.842 13.4086 167.703 12.9193 167.424 12.5694C167.149 12.2194 166.779 12.0444 166.312 12.0444C166.011 12.0444 165.746 12.1234 165.516 12.2815C165.287 12.4358 165.11 12.6653 164.986 12.9702C164.861 13.275 164.799 13.6306 164.799 14.037C164.799 14.4397 164.859 14.7916 164.98 15.0926C165.104 15.3937 165.279 15.6251 165.505 15.7869C165.734 15.945 166.004 16.024 166.312 16.024C166.779 16.024 167.149 15.849 167.424 15.4991C167.703 15.1453 167.842 14.658 167.842 14.037ZM172.138 14.9459V16.2329C172.138 16.5452 172.064 16.7804 171.917 16.9385C171.771 17.0928 171.584 17.1699 171.359 17.1699C171.137 17.1699 170.954 17.0909 170.811 16.9328C170.668 16.7748 170.597 16.5415 170.597 16.2329V11.9428C170.597 11.2504 170.847 10.9041 171.347 10.9041C171.603 10.9041 171.788 10.985 171.901 11.1469C172.013 11.3087 172.076 11.5476 172.087 11.8638C172.271 11.5476 172.459 11.3087 172.651 11.1469C172.847 10.985 173.107 10.9041 173.43 10.9041C173.754 10.9041 174.068 10.985 174.373 11.1469C174.678 11.3087 174.83 11.5232 174.83 11.7904C174.83 11.9785 174.764 12.1347 174.633 12.2589C174.505 12.3793 174.365 12.4395 174.215 12.4395C174.158 12.4395 174.021 12.4057 173.803 12.3379C173.588 12.2664 173.398 12.2307 173.233 12.2307C173.007 12.2307 172.823 12.2909 172.68 12.4113C172.537 12.528 172.425 12.703 172.346 12.9363C172.267 13.1696 172.213 13.4481 172.183 13.7717C172.153 14.0916 172.138 14.483 172.138 14.9459Z" fill="#585858"/>
<path d="M121.481 28.4181C121.481 28.9186 121.351 29.3683 121.091 29.7672C120.835 30.1661 120.459 30.4785 119.962 30.7043C119.465 30.9301 118.876 31.043 118.195 31.043C117.379 31.043 116.705 30.8887 116.174 30.5801C115.798 30.3581 115.491 30.0627 115.254 29.6939C115.021 29.3213 114.904 28.96 114.904 28.61C114.904 28.4068 114.974 28.2337 115.113 28.0907C115.256 27.9439 115.437 27.8706 115.655 27.8706C115.832 27.8706 115.981 27.927 116.101 28.0399C116.225 28.1528 116.331 28.3203 116.417 28.5423C116.523 28.8057 116.635 29.0259 116.756 29.2028C116.88 29.3796 117.053 29.5264 117.275 29.6431C117.497 29.7559 117.789 29.8124 118.15 29.8124C118.647 29.8124 119.05 29.6976 119.358 29.4681C119.67 29.2347 119.827 28.945 119.827 28.5988C119.827 28.324 119.742 28.102 119.573 27.9327C119.407 27.7595 119.191 27.6278 118.923 27.5375C118.66 27.4472 118.306 27.3512 117.862 27.2496C117.268 27.1104 116.769 26.9486 116.366 26.7642C115.967 26.576 115.649 26.322 115.412 26.0021C115.179 25.6785 115.062 25.2777 115.062 24.7998C115.062 24.3444 115.187 23.9399 115.435 23.5861C115.683 23.2324 116.043 22.9614 116.513 22.7733C116.984 22.5813 117.537 22.4854 118.173 22.4854C118.681 22.4854 119.119 22.5493 119.488 22.6773C119.861 22.8015 120.169 22.9689 120.414 23.1797C120.658 23.3867 120.837 23.6049 120.95 23.8345C121.063 24.064 121.119 24.288 121.119 24.5062C121.119 24.7057 121.048 24.8863 120.905 25.0481C120.766 25.2062 120.591 25.2852 120.38 25.2852C120.188 25.2852 120.041 25.2382 119.94 25.1441C119.842 25.0463 119.734 24.8882 119.618 24.6699C119.467 24.3576 119.287 24.1149 119.076 23.9417C118.865 23.7649 118.526 23.6764 118.06 23.6764C117.627 23.6764 117.277 23.7724 117.01 23.9643C116.746 24.1525 116.615 24.3802 116.615 24.6473C116.615 24.8129 116.66 24.9559 116.75 25.0764C116.841 25.1968 116.965 25.3003 117.123 25.3868C117.281 25.4734 117.441 25.5411 117.603 25.59C117.764 25.639 118.032 25.7105 118.404 25.8045C118.871 25.9137 119.292 26.0341 119.669 26.1658C120.049 26.2975 120.37 26.4575 120.634 26.6456C120.901 26.8338 121.108 27.0728 121.255 27.3625C121.405 27.6485 121.481 28.0004 121.481 28.4181ZM128.322 29.135C128.322 29.3269 128.264 29.532 128.147 29.7503C128.034 29.9686 127.859 30.1774 127.622 30.3769C127.389 30.5726 127.093 30.7306 126.736 30.8511C126.378 30.9715 125.976 31.0317 125.528 31.0317C124.576 31.0317 123.833 30.7551 123.298 30.2019C122.764 29.6449 122.497 28.8998 122.497 27.9665C122.497 27.3343 122.619 26.7755 122.864 26.29C123.108 25.8045 123.462 25.4301 123.925 25.1667C124.388 24.8995 124.941 24.7659 125.584 24.7659C125.983 24.7659 126.348 24.8242 126.68 24.9409C127.014 25.0575 127.297 25.2081 127.526 25.3925C127.76 25.5769 127.936 25.7744 128.057 25.9852C128.181 26.1922 128.243 26.386 128.243 26.5666C128.243 26.751 128.174 26.9072 128.034 27.0351C127.899 27.1631 127.733 27.2271 127.538 27.2271C127.41 27.2271 127.302 27.1951 127.216 27.1311C127.133 27.0633 127.039 26.9561 126.934 26.8093C126.745 26.5233 126.548 26.3088 126.341 26.1658C126.138 26.0228 125.878 25.9513 125.562 25.9513C125.106 25.9513 124.74 26.1301 124.461 26.4876C124.183 26.8413 124.043 27.3268 124.043 27.9439C124.043 28.2337 124.079 28.5009 124.151 28.7455C124.222 28.9864 124.326 29.1933 124.461 29.3665C124.597 29.5358 124.76 29.6656 124.952 29.7559C125.144 29.8425 125.355 29.8858 125.584 29.8858C125.893 29.8858 126.156 29.8143 126.375 29.6713C126.597 29.5283 126.792 29.31 126.962 29.0165C127.056 28.8434 127.157 28.7079 127.267 28.61C127.376 28.5122 127.509 28.4633 127.667 28.4633C127.856 28.4633 128.012 28.5348 128.136 28.6778C128.26 28.8208 128.322 28.9732 128.322 29.135ZM131.212 25.6521V30.1059C131.212 30.4145 131.139 30.6478 130.992 30.8059C130.845 30.9639 130.659 31.043 130.433 31.043C130.208 31.043 130.023 30.9621 129.88 30.8002C129.741 30.6384 129.671 30.407 129.671 30.1059V25.6973C129.671 25.3925 129.741 25.1629 129.88 25.0086C130.023 24.8543 130.208 24.7772 130.433 24.7772C130.659 24.7772 130.845 24.8543 130.992 25.0086C131.139 25.1629 131.212 25.3774 131.212 25.6521ZM130.45 24.0603C130.236 24.0603 130.051 23.9944 129.897 23.8627C129.747 23.731 129.671 23.5447 129.671 23.3039C129.671 23.0856 129.748 22.9069 129.903 22.7676C130.061 22.6246 130.243 22.5531 130.45 22.5531C130.65 22.5531 130.827 22.6171 130.981 22.745C131.135 22.873 131.212 23.0593 131.212 23.3039C131.212 23.541 131.137 23.7272 130.987 23.8627C130.836 23.9944 130.657 24.0603 130.45 24.0603ZM137.111 28.2883H134.097C134.101 28.6383 134.17 28.9469 134.306 29.214C134.445 29.4812 134.627 29.6826 134.853 29.818C135.083 29.9535 135.335 30.0213 135.61 30.0213C135.794 30.0213 135.962 30.0006 136.112 29.9592C136.266 29.914 136.415 29.8463 136.558 29.7559C136.701 29.6619 136.833 29.5621 136.953 29.4568C137.074 29.3514 137.23 29.2084 137.422 29.0278C137.501 28.96 137.614 28.9262 137.76 28.9262C137.918 28.9262 138.046 28.9694 138.144 29.056C138.242 29.1425 138.291 29.2648 138.291 29.4229C138.291 29.5621 138.236 29.7258 138.127 29.914C138.018 30.0984 137.853 30.2772 137.631 30.4503C137.412 30.6196 137.136 30.7607 136.801 30.8736C136.47 30.9865 136.088 31.043 135.655 31.043C134.665 31.043 133.896 30.7607 133.346 30.1962C132.797 29.6318 132.522 28.8659 132.522 27.8988C132.522 27.4434 132.59 27.022 132.725 26.6343C132.861 26.243 133.058 25.908 133.318 25.6296C133.578 25.3511 133.897 25.1385 134.278 24.9917C134.658 24.8412 135.079 24.7659 135.542 24.7659C136.144 24.7659 136.66 24.8938 137.089 25.1497C137.521 25.4019 137.845 25.7293 138.06 26.1319C138.274 26.5346 138.381 26.9448 138.381 27.3625C138.381 27.7501 138.27 28.0023 138.048 28.1189C137.826 28.2318 137.514 28.2883 137.111 28.2883ZM134.097 27.4133H136.891C136.853 26.8865 136.71 26.4932 136.462 26.2336C136.217 25.9701 135.894 25.8384 135.491 25.8384C135.107 25.8384 134.791 25.972 134.543 26.2392C134.298 26.5026 134.15 26.894 134.097 27.4133ZM141.085 25.6296V25.8158C141.356 25.4583 141.652 25.1968 141.971 25.0312C142.295 24.8619 142.666 24.7772 143.083 24.7772C143.49 24.7772 143.853 24.8656 144.173 25.0425C144.493 25.2194 144.732 25.4696 144.89 25.7933C144.991 25.9814 145.057 26.1846 145.087 26.4029C145.118 26.6212 145.133 26.8996 145.133 27.2383V30.1059C145.133 30.4145 145.061 30.6478 144.918 30.8059C144.779 30.9639 144.596 31.043 144.371 31.043C144.141 31.043 143.955 30.9621 143.812 30.8002C143.669 30.6384 143.597 30.407 143.597 30.1059V27.5375C143.597 27.0295 143.526 26.6419 143.383 26.3747C143.243 26.1037 142.963 25.9682 142.542 25.9682C142.267 25.9682 142.017 26.051 141.791 26.2166C141.565 26.3784 141.399 26.6024 141.294 26.8884C141.219 27.1179 141.181 27.5469 141.181 28.1754V30.1059C141.181 30.4183 141.108 30.6535 140.961 30.8115C140.818 30.9658 140.632 31.043 140.402 31.043C140.18 31.043 139.998 30.9621 139.855 30.8002C139.712 30.6384 139.64 30.407 139.64 30.1059V25.6521C139.64 25.3586 139.704 25.1403 139.832 24.9973C139.96 24.8506 140.135 24.7772 140.357 24.7772C140.493 24.7772 140.615 24.8092 140.724 24.8731C140.833 24.9371 140.92 25.0331 140.984 25.161C141.051 25.289 141.085 25.4452 141.085 25.6296ZM152.2 29.135C152.2 29.3269 152.142 29.532 152.025 29.7503C151.912 29.9686 151.737 30.1774 151.5 30.3769C151.267 30.5726 150.971 30.7306 150.614 30.8511C150.256 30.9715 149.854 31.0317 149.406 31.0317C148.454 31.0317 147.71 30.7551 147.176 30.2019C146.642 29.6449 146.374 28.8998 146.374 27.9665C146.374 27.3343 146.497 26.7755 146.741 26.29C146.986 25.8045 147.34 25.4301 147.803 25.1667C148.265 24.8995 148.819 24.7659 149.462 24.7659C149.861 24.7659 150.226 24.8242 150.557 24.9409C150.892 25.0575 151.174 25.2081 151.404 25.3925C151.637 25.5769 151.814 25.7744 151.935 25.9852C152.059 26.1922 152.121 26.386 152.121 26.5666C152.121 26.751 152.051 26.9072 151.912 27.0351C151.777 27.1631 151.611 27.2271 151.415 27.2271C151.287 27.2271 151.18 27.1951 151.094 27.1311C151.011 27.0633 150.917 26.9561 150.811 26.8093C150.623 26.5233 150.426 26.3088 150.219 26.1658C150.015 26.0228 149.756 25.9513 149.44 25.9513C148.984 25.9513 148.617 26.1301 148.339 26.4876C148.06 26.8413 147.921 27.3268 147.921 27.9439C147.921 28.2337 147.957 28.5009 148.028 28.7455C148.1 28.9864 148.203 29.1933 148.339 29.3665C148.474 29.5358 148.638 29.6656 148.83 29.7559C149.022 29.8425 149.233 29.8858 149.462 29.8858C149.771 29.8858 150.034 29.8143 150.252 29.6713C150.475 29.5283 150.67 29.31 150.84 29.0165C150.934 28.8434 151.035 28.7079 151.144 28.61C151.253 28.5122 151.387 28.4633 151.545 28.4633C151.733 28.4633 151.889 28.5348 152.014 28.6778C152.138 28.8208 152.2 28.9732 152.2 29.135ZM157.85 28.2883H154.836C154.84 28.6383 154.909 28.9469 155.045 29.214C155.184 29.4812 155.367 29.6826 155.593 29.818C155.822 29.9535 156.074 30.0213 156.349 30.0213C156.533 30.0213 156.701 30.0006 156.851 29.9592C157.006 29.914 157.154 29.8463 157.297 29.7559C157.44 29.6619 157.572 29.5621 157.692 29.4568C157.813 29.3514 157.969 29.2084 158.161 29.0278C158.24 28.96 158.353 28.9262 158.5 28.9262C158.658 28.9262 158.786 28.9694 158.883 29.056C158.981 29.1425 159.03 29.2648 159.03 29.4229C159.03 29.5621 158.976 29.7258 158.867 29.914C158.757 30.0984 158.592 30.2772 158.37 30.4503C158.152 30.6196 157.875 30.7607 157.54 30.8736C157.209 30.9865 156.827 31.043 156.394 31.043C155.404 31.043 154.635 30.7607 154.085 30.1962C153.536 29.6318 153.261 28.8659 153.261 27.8988C153.261 27.4434 153.329 27.022 153.464 26.6343C153.6 26.243 153.797 25.908 154.057 25.6296C154.317 25.3511 154.637 25.1385 155.017 24.9917C155.397 24.8412 155.818 24.7659 156.281 24.7659C156.883 24.7659 157.399 24.8938 157.828 25.1497C158.261 25.4019 158.584 25.7293 158.799 26.1319C159.013 26.5346 159.121 26.9448 159.121 27.3625C159.121 27.7501 159.01 28.0023 158.788 28.1189C158.565 28.2318 158.253 28.2883 157.85 28.2883ZM154.836 27.4133H157.63C157.593 26.8865 157.45 26.4932 157.201 26.2336C156.957 25.9701 156.633 25.8384 156.23 25.8384C155.847 25.8384 155.53 25.972 155.282 26.2392C155.037 26.5026 154.889 26.894 154.836 27.4133ZM161.029 31.0543C160.78 31.0543 160.566 30.979 160.385 30.8285C160.204 30.6742 160.114 30.4597 160.114 30.185C160.114 29.9479 160.202 29.7484 160.379 29.5866C160.556 29.4248 160.765 29.3439 161.006 29.3439C161.187 29.3439 161.35 29.3928 161.497 29.4906C161.644 29.5885 161.759 29.7334 161.841 29.9253C161.924 30.1135 161.966 30.3468 161.966 30.6253C161.966 30.9978 161.887 31.3459 161.728 31.6696C161.57 31.997 161.377 32.2547 161.147 32.4429C160.921 32.6348 160.716 32.7308 160.532 32.7308C160.415 32.7308 160.319 32.6913 160.244 32.6122C160.172 32.537 160.137 32.4485 160.137 32.3469C160.137 32.1926 160.214 32.0685 160.368 31.9744C160.808 31.7298 161.029 31.4231 161.029 31.0543ZM171.98 24.0095H170.151V30.0213C170.151 30.3675 170.073 30.6253 169.919 30.7946C169.765 30.9602 169.565 31.043 169.321 31.043C169.072 31.043 168.869 30.9583 168.711 30.789C168.557 30.6196 168.48 30.3637 168.48 30.0213V24.0095H166.651C166.365 24.0095 166.152 23.9474 166.013 23.8232C165.874 23.6952 165.804 23.5278 165.804 23.3208C165.804 23.1063 165.876 22.937 166.019 22.8128C166.165 22.6886 166.376 22.6265 166.651 22.6265H171.98C172.269 22.6265 172.484 22.6905 172.623 22.8184C172.766 22.9464 172.838 23.1138 172.838 23.3208C172.838 23.5278 172.766 23.6952 172.623 23.8232C172.48 23.9474 172.266 24.0095 171.98 24.0095ZM177.291 28.2883H174.277C174.281 28.6383 174.35 28.9469 174.486 29.214C174.625 29.4812 174.808 29.6826 175.033 29.818C175.263 29.9535 175.515 30.0213 175.79 30.0213C175.974 30.0213 176.142 30.0006 176.292 29.9592C176.447 29.914 176.595 29.8463 176.738 29.7559C176.881 29.6619 177.013 29.5621 177.133 29.4568C177.254 29.3514 177.41 29.2084 177.602 29.0278C177.681 28.96 177.794 28.9262 177.941 28.9262C178.099 28.9262 178.227 28.9694 178.324 29.056C178.422 29.1425 178.471 29.2648 178.471 29.4229C178.471 29.5621 178.417 29.7258 178.307 29.914C178.198 30.0984 178.033 30.2772 177.811 30.4503C177.592 30.6196 177.316 30.7607 176.981 30.8736C176.65 30.9865 176.268 31.043 175.835 31.043C174.845 31.043 174.076 30.7607 173.526 30.1962C172.977 29.6318 172.702 28.8659 172.702 27.8988C172.702 27.4434 172.77 27.022 172.905 26.6343C173.041 26.243 173.238 25.908 173.498 25.6296C173.758 25.3511 174.078 25.1385 174.458 24.9917C174.838 24.8412 175.259 24.7659 175.722 24.7659C176.324 24.7659 176.84 24.8938 177.269 25.1497C177.702 25.4019 178.025 25.7293 178.24 26.1319C178.454 26.5346 178.561 26.9448 178.561 27.3625C178.561 27.7501 178.45 28.0023 178.228 28.1189C178.006 28.2318 177.694 28.2883 177.291 28.2883ZM174.277 27.4133H177.071C177.034 26.8865 176.891 26.4932 176.642 26.2336C176.398 25.9701 176.074 25.8384 175.671 25.8384C175.287 25.8384 174.971 25.972 174.723 26.2392C174.478 26.5026 174.33 26.894 174.277 27.4133ZM185.392 29.135C185.392 29.3269 185.333 29.532 185.217 29.7503C185.104 29.9686 184.929 30.1774 184.692 30.3769C184.458 30.5726 184.163 30.7306 183.806 30.8511C183.448 30.9715 183.045 31.0317 182.598 31.0317C181.645 31.0317 180.902 30.7551 180.368 30.2019C179.833 29.6449 179.566 28.8998 179.566 27.9665C179.566 27.3343 179.689 26.7755 179.933 26.29C180.178 25.8045 180.532 25.4301 180.994 25.1667C181.457 24.8995 182.01 24.7659 182.654 24.7659C183.053 24.7659 183.418 24.8242 183.749 24.9409C184.084 25.0575 184.366 25.2081 184.596 25.3925C184.829 25.5769 185.006 25.7744 185.126 25.9852C185.251 26.1922 185.313 26.386 185.313 26.5666C185.313 26.751 185.243 26.9072 185.104 27.0351C184.968 27.1631 184.803 27.2271 184.607 27.2271C184.479 27.2271 184.372 27.1951 184.285 27.1311C184.203 27.0633 184.108 26.9561 184.003 26.8093C183.815 26.5233 183.617 26.3088 183.41 26.1658C183.207 26.0228 182.948 25.9513 182.631 25.9513C182.176 25.9513 181.809 26.1301 181.531 26.4876C181.252 26.8413 181.113 27.3268 181.113 27.9439C181.113 28.2337 181.149 28.5009 181.22 28.7455C181.292 28.9864 181.395 29.1933 181.531 29.3665C181.666 29.5358 181.83 29.6656 182.022 29.7559C182.214 29.8425 182.424 29.8858 182.654 29.8858C182.963 29.8858 183.226 29.8143 183.444 29.6713C183.666 29.5283 183.862 29.31 184.031 29.0165C184.125 28.8434 184.227 28.7079 184.336 28.61C184.445 28.5122 184.579 28.4633 184.737 28.4633C184.925 28.4633 185.081 28.5348 185.205 28.6778C185.33 28.8208 185.392 28.9732 185.392 29.135ZM187.955 23.4224V25.7086C188.15 25.4828 188.34 25.304 188.525 25.1723C188.713 25.0406 188.92 24.9428 189.146 24.8788C189.371 24.8111 189.614 24.7772 189.874 24.7772C190.265 24.7772 190.611 24.86 190.912 25.0256C191.217 25.1911 191.456 25.432 191.629 25.7481C191.738 25.9325 191.812 26.1395 191.849 26.369C191.887 26.5948 191.906 26.8564 191.906 27.1537V30.1059C191.906 30.4145 191.834 30.6478 191.691 30.8059C191.552 30.9639 191.366 31.043 191.133 31.043C190.625 31.043 190.371 30.7306 190.371 30.1059V27.5036C190.371 27.0107 190.297 26.6325 190.15 26.369C190.004 26.1018 189.725 25.9682 189.315 25.9682C189.04 25.9682 188.792 26.0473 188.57 26.2053C188.352 26.3596 188.188 26.5722 188.079 26.8432C187.996 27.0728 187.955 27.4811 187.955 28.0681V30.1059C187.955 30.4108 187.885 30.6441 187.746 30.8059C187.61 30.9639 187.42 31.043 187.176 31.043C186.667 31.043 186.413 30.7306 186.413 30.1059V23.4224C186.413 23.1101 186.479 22.8767 186.611 22.7225C186.747 22.5644 186.935 22.4854 187.176 22.4854C187.42 22.4854 187.61 22.5644 187.746 22.7225C187.885 22.8805 187.955 23.1138 187.955 23.4224ZM194.836 25.6296V25.8158C195.107 25.4583 195.402 25.1968 195.722 25.0312C196.045 24.8619 196.416 24.7772 196.834 24.7772C197.24 24.7772 197.603 24.8656 197.923 25.0425C198.243 25.2194 198.482 25.4696 198.64 25.7933C198.742 25.9814 198.808 26.1846 198.838 26.4029C198.868 26.6212 198.883 26.8996 198.883 27.2383V30.1059C198.883 30.4145 198.811 30.6478 198.668 30.8059C198.529 30.9639 198.347 31.043 198.121 31.043C197.891 31.043 197.705 30.9621 197.562 30.8002C197.419 30.6384 197.348 30.407 197.348 30.1059V27.5375C197.348 27.0295 197.276 26.6419 197.133 26.3747C196.994 26.1037 196.713 25.9682 196.292 25.9682C196.017 25.9682 195.767 26.051 195.541 26.2166C195.315 26.3784 195.15 26.6024 195.044 26.8884C194.969 27.1179 194.932 27.5469 194.932 28.1754V30.1059C194.932 30.4183 194.858 30.6535 194.711 30.8115C194.568 30.9658 194.382 31.043 194.153 31.043C193.931 31.043 193.748 30.9621 193.605 30.8002C193.462 30.6384 193.39 30.407 193.39 30.1059V25.6521C193.39 25.3586 193.454 25.1403 193.582 24.9973C193.71 24.8506 193.885 24.7772 194.107 24.7772C194.243 24.7772 194.365 24.8092 194.474 24.8731C194.583 24.9371 194.67 25.0331 194.734 25.161C194.802 25.289 194.836 25.4452 194.836 25.6296ZM206.193 27.9101C206.193 28.3692 206.122 28.7926 205.979 29.1802C205.836 29.5678 205.629 29.9008 205.358 30.1793C205.087 30.4578 204.763 30.6723 204.387 30.8228C204.01 30.9696 203.587 31.043 203.117 31.043C202.65 31.043 202.23 30.9677 201.858 30.8172C201.485 30.6667 201.162 30.4521 200.887 30.1737C200.616 29.8914 200.409 29.5603 200.266 29.1802C200.127 28.7963 200.057 28.373 200.057 27.9101C200.057 27.4434 200.129 27.0163 200.272 26.6287C200.415 26.2411 200.62 25.9099 200.887 25.6352C201.154 25.3605 201.478 25.1497 201.858 25.003C202.238 24.8524 202.657 24.7772 203.117 24.7772C203.583 24.7772 204.007 24.8524 204.387 25.003C204.767 25.1535 205.092 25.368 205.363 25.6465C205.634 25.925 205.839 26.2561 205.979 26.64C206.122 27.0238 206.193 27.4472 206.193 27.9101ZM204.646 27.9101C204.646 27.2816 204.507 26.7924 204.229 26.4424C203.954 26.0924 203.583 25.9174 203.117 25.9174C202.816 25.9174 202.55 25.9965 202.321 26.1545C202.091 26.3088 201.914 26.5384 201.79 26.8432C201.666 27.148 201.604 27.5036 201.604 27.9101C201.604 28.3127 201.664 28.6646 201.784 28.9657C201.909 29.2667 202.084 29.4982 202.309 29.66C202.539 29.818 202.808 29.8971 203.117 29.8971C203.583 29.8971 203.954 29.7221 204.229 29.3721C204.507 29.0184 204.646 28.531 204.646 27.9101ZM207.412 30.1059V23.4224C207.412 23.1138 207.48 22.8805 207.616 22.7225C207.755 22.5644 207.941 22.4854 208.174 22.4854C208.408 22.4854 208.596 22.5644 208.739 22.7225C208.882 22.8767 208.953 23.1101 208.953 23.4224V30.1059C208.953 30.4183 208.88 30.6535 208.733 30.8115C208.59 30.9658 208.404 31.043 208.174 31.043C207.949 31.043 207.764 30.9621 207.621 30.8002C207.482 30.6384 207.412 30.407 207.412 30.1059ZM216.32 27.9101C216.32 28.3692 216.248 28.7926 216.105 29.1802C215.962 29.5678 215.755 29.9008 215.484 30.1793C215.214 30.4578 214.89 30.6723 214.514 30.8228C214.137 30.9696 213.714 31.043 213.243 31.043C212.777 31.043 212.357 30.9677 211.985 30.8172C211.612 30.6667 211.288 30.4521 211.014 30.1737C210.743 29.8914 210.536 29.5603 210.393 29.1802C210.254 28.7963 210.184 28.373 210.184 27.9101C210.184 27.4434 210.255 27.0163 210.398 26.6287C210.541 26.2411 210.747 25.9099 211.014 25.6352C211.281 25.3605 211.605 25.1497 211.985 25.003C212.365 24.8524 212.784 24.7772 213.243 24.7772C213.71 24.7772 214.133 24.8524 214.514 25.003C214.894 25.1535 215.219 25.368 215.49 25.6465C215.761 25.925 215.966 26.2561 216.105 26.64C216.248 27.0238 216.32 27.4472 216.32 27.9101ZM214.773 27.9101C214.773 27.2816 214.634 26.7924 214.356 26.4424C214.081 26.0924 213.71 25.9174 213.243 25.9174C212.942 25.9174 212.677 25.9965 212.448 26.1545C212.218 26.3088 212.041 26.5384 211.917 26.8432C211.793 27.148 211.731 27.5036 211.731 27.9101C211.731 28.3127 211.791 28.6646 211.911 28.9657C212.035 29.2667 212.21 29.4982 212.436 29.66C212.666 29.818 212.935 29.8971 213.243 29.8971C213.71 29.8971 214.081 29.7221 214.356 29.3721C214.634 29.0184 214.773 28.531 214.773 27.9101ZM223.207 25.9062V30.3825C223.207 30.8943 223.152 31.3346 223.043 31.7034C222.934 32.0722 222.759 32.377 222.518 32.6179C222.277 32.8587 221.961 33.0375 221.57 33.1542C221.182 33.2708 220.698 33.3291 220.119 33.3291C219.588 33.3291 219.114 33.2539 218.696 33.1034C218.279 32.9566 217.957 32.7647 217.731 32.5276C217.505 32.2943 217.392 32.0534 217.392 31.805C217.392 31.6169 217.456 31.4626 217.584 31.3422C217.712 31.2255 217.867 31.1672 218.047 31.1672C218.273 31.1672 218.471 31.2669 218.64 31.4663C218.723 31.5679 218.807 31.6696 218.894 31.7712C218.984 31.8765 219.082 31.965 219.188 32.0365C219.297 32.1117 219.426 32.1663 219.577 32.2002C219.728 32.2378 219.901 32.2566 220.096 32.2566C220.495 32.2566 220.804 32.2002 221.022 32.0873C221.244 31.9781 221.398 31.8238 221.485 31.6244C221.575 31.4249 221.628 31.2104 221.643 30.9809C221.658 30.7551 221.669 30.3901 221.677 29.8858C221.44 30.2169 221.165 30.4691 220.853 30.6422C220.544 30.8153 220.175 30.9019 219.746 30.9019C219.231 30.9019 218.779 30.7701 218.392 30.5067C218.008 30.2433 217.712 29.8745 217.505 29.4003C217.298 28.9262 217.195 28.3786 217.195 27.7577C217.195 27.2948 217.257 26.8771 217.381 26.5045C217.509 26.1319 217.69 25.8177 217.923 25.5618C218.156 25.3059 218.425 25.114 218.73 24.986C219.035 24.8543 219.37 24.7885 219.735 24.7885C220.172 24.7885 220.55 24.8731 220.87 25.0425C221.19 25.2081 221.487 25.4696 221.762 25.8271V25.6183C221.762 25.3511 221.827 25.1441 221.959 24.9973C222.091 24.8506 222.26 24.7772 222.467 24.7772C222.764 24.7772 222.962 24.875 223.06 25.0707C223.158 25.2626 223.207 25.5411 223.207 25.9062ZM218.742 27.8593C218.742 28.484 218.877 28.9563 219.148 29.2761C219.423 29.596 219.776 29.7559 220.209 29.7559C220.465 29.7559 220.706 29.6882 220.932 29.5527C221.161 29.4135 221.348 29.2065 221.491 28.9318C221.634 28.6533 221.705 28.3165 221.705 27.9214C221.705 27.2929 221.566 26.8037 221.287 26.4537C221.013 26.1037 220.65 25.9287 220.198 25.9287C219.758 25.9287 219.404 26.0962 219.137 26.4311C218.873 26.7661 218.742 27.2421 218.742 27.8593ZM226.187 31.2349L226.328 30.8906L224.432 26.115C224.315 25.8403 224.257 25.6408 224.257 25.5167C224.257 25.3849 224.29 25.2626 224.358 25.1497C224.426 25.0368 224.518 24.9465 224.635 24.8788C224.755 24.8111 224.879 24.7772 225.007 24.7772C225.229 24.7772 225.397 24.8487 225.51 24.9917C225.623 25.1309 225.722 25.3323 225.809 25.5957L227.113 29.389L228.349 25.861C228.447 25.575 228.535 25.3511 228.614 25.1893C228.693 25.0274 228.776 24.9183 228.863 24.8619C228.953 24.8054 229.079 24.7772 229.241 24.7772C229.358 24.7772 229.469 24.8092 229.574 24.8731C229.683 24.9334 229.766 25.0161 229.822 25.1215C229.883 25.2269 229.913 25.3379 229.913 25.4546C229.898 25.5261 229.873 25.6277 229.839 25.7594C229.805 25.8911 229.764 26.0247 229.715 26.1602L227.706 31.4212C227.533 31.8841 227.363 32.2472 227.198 32.5106C227.032 32.7741 226.812 32.9754 226.537 33.1146C226.266 33.2576 225.899 33.3291 225.436 33.3291C224.985 33.3291 224.646 33.2802 224.42 33.1824C224.195 33.0845 224.082 32.9058 224.082 32.6461C224.082 32.4692 224.134 32.3319 224.24 32.234C224.349 32.14 224.509 32.0929 224.719 32.0929C224.802 32.0929 224.883 32.1042 224.962 32.1268C225.06 32.1494 225.145 32.1607 225.216 32.1607C225.393 32.1607 225.532 32.1343 225.634 32.0816C225.736 32.0289 225.826 31.9367 225.905 31.805C225.988 31.6771 226.082 31.487 226.187 31.2349Z" fill="#585858"/>
<path d="M118.98 44.0462C118.607 44.336 118.246 44.5543 117.896 44.701C117.55 44.844 117.16 44.9155 116.728 44.9155C116.333 44.9155 115.984 44.8384 115.683 44.6841C115.386 44.526 115.156 44.3134 114.995 44.0462C114.833 43.779 114.752 43.4893 114.752 43.1769C114.752 42.7554 114.886 42.396 115.153 42.0987C115.42 41.8015 115.787 41.602 116.253 41.5004C116.351 41.4778 116.594 41.427 116.982 41.348C117.369 41.269 117.7 41.1975 117.975 41.1335C118.254 41.0657 118.555 40.9848 118.878 40.8907C118.86 40.4843 118.777 40.187 118.63 39.9989C118.487 39.8069 118.188 39.711 117.732 39.711C117.341 39.711 117.046 39.7655 116.846 39.8747C116.65 39.9838 116.481 40.1475 116.338 40.3658C116.199 40.584 116.099 40.7289 116.039 40.8004C115.983 40.8682 115.858 40.902 115.666 40.902C115.493 40.902 115.343 40.8475 115.215 40.7383C115.091 40.6254 115.029 40.4824 115.029 40.3093C115.029 40.0384 115.125 39.7749 115.316 39.519C115.508 39.2631 115.808 39.0524 116.214 38.8868C116.62 38.7212 117.127 38.6384 117.732 38.6384C118.41 38.6384 118.942 38.7194 119.33 38.8812C119.718 39.0392 119.99 39.2914 120.148 39.6376C120.31 39.9838 120.391 40.4429 120.391 41.0149C120.391 41.3762 120.389 41.6829 120.386 41.935C120.386 42.1872 120.384 42.4675 120.38 42.7761C120.38 43.0659 120.427 43.3688 120.521 43.685C120.619 43.9973 120.668 44.1986 120.668 44.289C120.668 44.447 120.592 44.5919 120.442 44.7236C120.295 44.8516 120.128 44.9155 119.94 44.9155C119.782 44.9155 119.625 44.8422 119.471 44.6954C119.317 44.5449 119.153 44.3285 118.98 44.0462ZM118.878 41.8165C118.653 41.8993 118.323 41.9877 117.89 42.0818C117.461 42.1721 117.164 42.2399 116.999 42.285C116.833 42.3264 116.675 42.4111 116.524 42.539C116.374 42.6632 116.299 42.8382 116.299 43.064C116.299 43.2973 116.387 43.4968 116.564 43.6624C116.741 43.8242 116.972 43.9051 117.258 43.9051C117.563 43.9051 117.843 43.8392 118.099 43.7075C118.359 43.5721 118.549 43.3989 118.669 43.1882C118.809 42.9549 118.878 42.571 118.878 42.0367V41.8165ZM123.36 39.5021V39.6884C123.631 39.3309 123.927 39.0693 124.247 38.9038C124.57 38.7344 124.941 38.6497 125.359 38.6497C125.765 38.6497 126.128 38.7382 126.448 38.915C126.768 39.0919 127.007 39.3422 127.165 39.6658C127.267 39.854 127.332 40.0572 127.363 40.2755C127.393 40.4937 127.408 40.7722 127.408 41.1109V43.9785C127.408 44.2871 127.336 44.5204 127.193 44.6785C127.054 44.8365 126.871 44.9155 126.646 44.9155C126.416 44.9155 126.23 44.8346 126.087 44.6728C125.944 44.511 125.872 44.2795 125.872 43.9785V41.4101C125.872 40.902 125.801 40.5144 125.658 40.2472C125.519 39.9763 125.238 39.8408 124.817 39.8408C124.542 39.8408 124.292 39.9236 124.066 40.0892C123.84 40.251 123.675 40.4749 123.569 40.7609C123.494 40.9905 123.456 41.4195 123.456 42.0479V43.9785C123.456 44.2908 123.383 44.526 123.236 44.6841C123.093 44.8384 122.907 44.9155 122.677 44.9155C122.455 44.9155 122.273 44.8346 122.13 44.6728C121.987 44.511 121.915 44.2795 121.915 43.9785V39.5247C121.915 39.2312 121.979 39.0129 122.107 38.8699C122.235 38.7231 122.41 38.6497 122.632 38.6497C122.768 38.6497 122.89 38.6817 122.999 38.7457C123.108 38.8097 123.195 38.9056 123.259 39.0336C123.326 39.1615 123.36 39.3177 123.36 39.5021ZM133.171 44.0349V43.8825C132.964 44.1196 132.759 44.3134 132.556 44.4639C132.356 44.6107 132.138 44.7217 131.901 44.797C131.668 44.876 131.412 44.9155 131.133 44.9155C130.765 44.9155 130.422 44.8384 130.106 44.6841C129.794 44.526 129.523 44.3021 129.293 44.0124C129.064 43.7226 128.889 43.382 128.768 42.9906C128.651 42.5993 128.593 42.1759 128.593 41.7205C128.593 40.7572 128.828 40.0064 129.299 39.4682C129.769 38.9301 130.388 38.661 131.156 38.661C131.6 38.661 131.974 38.7382 132.279 38.8925C132.584 39.043 132.881 39.2763 133.171 39.5924V37.3176C133.171 37.0014 133.233 36.7625 133.357 36.6007C133.485 36.4388 133.666 36.3579 133.899 36.3579C134.133 36.3579 134.311 36.4332 134.436 36.5837C134.564 36.7305 134.627 36.9488 134.627 37.2385V44.0349C134.627 44.3285 134.56 44.5486 134.424 44.6954C134.289 44.8422 134.114 44.9155 133.899 44.9155C133.689 44.9155 133.514 44.8403 133.374 44.6897C133.239 44.5354 133.171 44.3172 133.171 44.0349ZM130.14 41.7713C130.14 42.1891 130.204 42.5447 130.332 42.8382C130.463 43.1318 130.642 43.3538 130.868 43.5043C131.094 43.6511 131.34 43.7245 131.607 43.7245C131.878 43.7245 132.125 43.6548 132.347 43.5156C132.573 43.3726 132.752 43.1562 132.883 42.8665C133.019 42.5729 133.086 42.2079 133.086 41.7713C133.086 41.3612 133.019 41.0093 132.883 40.7158C132.752 40.4185 132.571 40.1927 132.341 40.0384C132.116 39.8803 131.867 39.8013 131.596 39.8013C131.314 39.8013 131.062 39.8822 130.84 40.044C130.618 40.2021 130.445 40.4316 130.32 40.7327C130.2 41.03 130.14 41.3762 130.14 41.7713ZM141.424 41.2351H140.837V43.8938C140.837 44.2438 140.76 44.5016 140.605 44.6672C140.451 44.8327 140.25 44.9155 140.001 44.9155C139.734 44.9155 139.527 44.829 139.38 44.6559C139.234 44.4828 139.16 44.2287 139.16 43.8938V37.5264C139.16 37.1651 139.241 36.9036 139.403 36.7418C139.565 36.58 139.826 36.499 140.188 36.499H142.914C143.29 36.499 143.612 36.516 143.879 36.5499C144.147 36.58 144.387 36.6439 144.602 36.7418C144.862 36.8509 145.091 37.0071 145.291 37.2103C145.49 37.4135 145.641 37.6506 145.742 37.9216C145.848 38.1887 145.9 38.4729 145.9 38.7739C145.9 39.3911 145.725 39.8841 145.375 40.2529C145.029 40.6217 144.502 40.8832 143.795 41.0375C144.092 41.1956 144.376 41.4289 144.647 41.7375C144.918 42.0461 145.159 42.3753 145.37 42.7253C145.584 43.0715 145.75 43.3858 145.866 43.668C145.987 43.9465 146.047 44.1384 146.047 44.2438C146.047 44.3529 146.011 44.4621 145.94 44.5712C145.872 44.6766 145.778 44.7594 145.658 44.8196C145.537 44.8835 145.398 44.9155 145.24 44.9155C145.052 44.9155 144.894 44.8704 144.766 44.7801C144.638 44.6935 144.527 44.5825 144.433 44.447C144.342 44.3115 144.218 44.1121 144.06 43.8487L143.388 42.731C143.147 42.3208 142.931 42.0084 142.739 41.7939C142.551 41.5794 142.359 41.4327 142.163 41.3536C141.968 41.2746 141.721 41.2351 141.424 41.2351ZM142.384 37.7579H140.837V40.0327H142.338C142.741 40.0327 143.08 39.9989 143.354 39.9311C143.629 39.8596 143.838 39.7411 143.981 39.5755C144.128 39.4062 144.201 39.1747 144.201 38.8812C144.201 38.6516 144.143 38.4503 144.026 38.2772C143.91 38.1003 143.748 37.9686 143.541 37.882C143.345 37.7992 142.959 37.7579 142.384 37.7579ZM151.393 42.1608H148.378C148.382 42.5108 148.452 42.8194 148.587 43.0866C148.726 43.3538 148.909 43.5551 149.135 43.6906C149.364 43.8261 149.616 43.8938 149.891 43.8938C150.076 43.8938 150.243 43.8731 150.394 43.8317C150.548 43.7866 150.697 43.7188 150.84 43.6285C150.983 43.5344 151.114 43.4347 151.235 43.3293C151.355 43.224 151.511 43.081 151.703 42.9003C151.782 42.8326 151.895 42.7987 152.042 42.7987C152.2 42.7987 152.328 42.842 152.426 42.9285C152.524 43.0151 152.573 43.1374 152.573 43.2955C152.573 43.4347 152.518 43.5984 152.409 43.7866C152.3 43.971 152.134 44.1497 151.912 44.3228C151.694 44.4922 151.417 44.6333 151.082 44.7462C150.751 44.8591 150.369 44.9155 149.936 44.9155C148.947 44.9155 148.177 44.6333 147.628 44.0688C147.078 43.5043 146.803 42.7385 146.803 41.7713C146.803 41.316 146.871 40.8945 147.007 40.5069C147.142 40.1155 147.34 39.7806 147.599 39.5021C147.859 39.2236 148.179 39.011 148.559 38.8642C148.939 38.7137 149.361 38.6384 149.823 38.6384C150.426 38.6384 150.941 38.7664 151.37 39.0223C151.803 39.2744 152.127 39.6018 152.341 40.0045C152.556 40.4072 152.663 40.8174 152.663 41.2351C152.663 41.6227 152.552 41.8748 152.33 41.9915C152.108 42.1044 151.795 42.1608 151.393 42.1608ZM148.378 41.2859H151.173C151.135 40.759 150.992 40.3658 150.744 40.1061C150.499 39.8427 150.175 39.711 149.773 39.711C149.389 39.711 149.073 39.8446 148.824 40.1118C148.58 40.3752 148.431 40.7666 148.378 41.2859ZM158.929 42.9003C158.929 43.3256 158.825 43.6906 158.618 43.9954C158.411 44.2965 158.104 44.526 157.698 44.6841C157.295 44.8384 156.804 44.9155 156.225 44.9155C155.672 44.9155 155.197 44.8309 154.802 44.6615C154.407 44.4922 154.115 44.2814 153.927 44.0293C153.739 43.7734 153.645 43.5175 153.645 43.2616C153.645 43.0922 153.705 42.9474 153.826 42.8269C153.946 42.7065 154.099 42.6463 154.283 42.6463C154.445 42.6463 154.569 42.6858 154.655 42.7648C154.742 42.8439 154.825 42.9549 154.904 43.0979C155.062 43.3726 155.25 43.5777 155.468 43.7132C155.69 43.8487 155.991 43.9164 156.372 43.9164C156.68 43.9164 156.932 43.8487 157.128 43.7132C157.327 43.5739 157.427 43.4159 157.427 43.239C157.427 42.9681 157.324 42.7705 157.117 42.6463C156.913 42.5221 156.577 42.4036 156.106 42.2907C155.576 42.159 155.143 42.0216 154.808 41.8786C154.477 41.7318 154.211 41.5399 154.012 41.3028C153.812 41.0657 153.713 40.7741 153.713 40.4279C153.713 40.1193 153.805 39.8276 153.989 39.5529C154.174 39.2782 154.445 39.0599 154.802 38.8981C155.164 38.7325 155.598 38.6497 156.106 38.6497C156.505 38.6497 156.863 38.6911 157.179 38.7739C157.499 38.8567 157.764 38.9677 157.975 39.107C158.189 39.2462 158.351 39.4005 158.46 39.5699C158.573 39.7392 158.629 39.9048 158.629 40.0666C158.629 40.2435 158.569 40.3884 158.449 40.5013C158.332 40.6142 158.165 40.6706 157.946 40.6706C157.788 40.6706 157.653 40.6254 157.54 40.5351C157.431 40.4448 157.305 40.3093 157.162 40.1287C157.045 39.9782 156.908 39.8577 156.75 39.7674C156.592 39.6771 156.377 39.6319 156.106 39.6319C155.828 39.6319 155.596 39.6922 155.412 39.8126C155.227 39.9292 155.135 40.076 155.135 40.2529C155.135 40.4147 155.203 40.5483 155.338 40.6537C155.474 40.7553 155.656 40.8399 155.886 40.9077C156.116 40.9754 156.432 41.0582 156.834 41.1561C157.312 41.2727 157.702 41.412 158.003 41.5738C158.308 41.7356 158.537 41.9275 158.692 42.1496C158.85 42.3678 158.929 42.6181 158.929 42.9003ZM164.534 42.1608H161.52C161.523 42.5108 161.593 42.8194 161.728 43.0866C161.868 43.3538 162.05 43.5551 162.276 43.6906C162.506 43.8261 162.758 43.8938 163.032 43.8938C163.217 43.8938 163.384 43.8731 163.535 43.8317C163.689 43.7866 163.838 43.7188 163.981 43.6285C164.124 43.5344 164.255 43.4347 164.376 43.3293C164.496 43.224 164.653 43.081 164.844 42.9003C164.923 42.8326 165.036 42.7987 165.183 42.7987C165.341 42.7987 165.469 42.842 165.567 42.9285C165.665 43.0151 165.714 43.1374 165.714 43.2955C165.714 43.4347 165.659 43.5984 165.55 43.7866C165.441 43.971 165.275 44.1497 165.053 44.3228C164.835 44.4922 164.558 44.6333 164.224 44.7462C163.892 44.8591 163.51 44.9155 163.078 44.9155C162.088 44.9155 161.318 44.6333 160.769 44.0688C160.219 43.5043 159.945 42.7385 159.945 41.7713C159.945 41.316 160.012 40.8945 160.148 40.5069C160.283 40.1155 160.481 39.7806 160.741 39.5021C161 39.2236 161.32 39.011 161.7 38.8642C162.08 38.7137 162.502 38.6384 162.965 38.6384C163.567 38.6384 164.082 38.7664 164.511 39.0223C164.944 39.2744 165.268 39.6018 165.482 40.0045C165.697 40.4072 165.804 40.8174 165.804 41.2351C165.804 41.6227 165.693 41.8748 165.471 41.9915C165.249 42.1044 164.937 42.1608 164.534 42.1608ZM161.52 41.2859H164.314C164.276 40.759 164.133 40.3658 163.885 40.1061C163.64 39.8427 163.317 39.711 162.914 39.711C162.53 39.711 162.214 39.8446 161.966 40.1118C161.721 40.3752 161.572 40.7666 161.52 41.2859ZM171.003 44.0462C170.63 44.336 170.269 44.5543 169.919 44.701C169.573 44.844 169.183 44.9155 168.751 44.9155C168.356 44.9155 168.007 44.8384 167.706 44.6841C167.409 44.526 167.18 44.3134 167.018 44.0462C166.856 43.779 166.775 43.4893 166.775 43.1769C166.775 42.7554 166.909 42.396 167.176 42.0987C167.443 41.8015 167.81 41.602 168.277 41.5004C168.374 41.4778 168.617 41.427 169.005 41.348C169.392 41.269 169.723 41.1975 169.998 41.1335C170.277 41.0657 170.578 40.9848 170.901 40.8907C170.883 40.4843 170.8 40.187 170.653 39.9989C170.51 39.8069 170.211 39.711 169.755 39.711C169.364 39.711 169.069 39.7655 168.869 39.8747C168.674 39.9838 168.504 40.1475 168.361 40.3658C168.222 40.584 168.122 40.7289 168.062 40.8004C168.006 40.8682 167.881 40.902 167.689 40.902C167.516 40.902 167.366 40.8475 167.238 40.7383C167.114 40.6254 167.052 40.4824 167.052 40.3093C167.052 40.0384 167.148 39.7749 167.339 39.519C167.531 39.2631 167.831 39.0524 168.237 38.8868C168.643 38.7212 169.15 38.6384 169.755 38.6384C170.433 38.6384 170.965 38.7194 171.353 38.8812C171.741 39.0392 172.013 39.2914 172.171 39.6376C172.333 39.9838 172.414 40.4429 172.414 41.0149C172.414 41.3762 172.412 41.6829 172.409 41.935C172.409 42.1872 172.407 42.4675 172.403 42.7761C172.403 43.0659 172.45 43.3688 172.544 43.685C172.642 43.9973 172.691 44.1986 172.691 44.289C172.691 44.447 172.616 44.5919 172.465 44.7236C172.318 44.8516 172.151 44.9155 171.963 44.9155C171.805 44.9155 171.648 44.8422 171.494 44.6954C171.34 44.5449 171.176 44.3285 171.003 44.0462ZM170.901 41.8165C170.676 41.8993 170.346 41.9877 169.914 42.0818C169.485 42.1721 169.187 42.2399 169.022 42.285C168.856 42.3264 168.698 42.4111 168.547 42.539C168.397 42.6632 168.322 42.8382 168.322 43.064C168.322 43.2973 168.41 43.4968 168.587 43.6624C168.764 43.8242 168.995 43.9051 169.281 43.9051C169.586 43.9051 169.866 43.8392 170.122 43.7075C170.382 43.5721 170.572 43.3989 170.693 43.1882C170.832 42.9549 170.901 42.571 170.901 42.0367V41.8165ZM175.513 42.6915V43.9785C175.513 44.2908 175.44 44.526 175.293 44.6841C175.146 44.8384 174.96 44.9155 174.734 44.9155C174.512 44.9155 174.33 44.8365 174.187 44.6785C174.044 44.5204 173.972 44.2871 173.972 43.9785V39.6884C173.972 38.996 174.222 38.6497 174.723 38.6497C174.979 38.6497 175.163 38.7306 175.276 38.8925C175.389 39.0543 175.451 39.2933 175.462 39.6094C175.647 39.2933 175.835 39.0543 176.027 38.8925C176.223 38.7306 176.482 38.6497 176.806 38.6497C177.13 38.6497 177.444 38.7306 177.749 38.8925C178.053 39.0543 178.206 39.2688 178.206 39.536C178.206 39.7241 178.14 39.8803 178.008 40.0045C177.88 40.1249 177.741 40.1851 177.591 40.1851C177.534 40.1851 177.397 40.1513 177.178 40.0835C176.964 40.012 176.774 39.9763 176.608 39.9763C176.383 39.9763 176.198 40.0365 176.055 40.1569C175.912 40.2736 175.801 40.4486 175.722 40.6819C175.643 40.9152 175.588 41.1937 175.558 41.5173C175.528 41.8372 175.513 42.2286 175.513 42.6915ZM184.274 43.0076C184.274 43.1995 184.216 43.4046 184.099 43.6229C183.986 43.8411 183.811 44.05 183.574 44.2494C183.341 44.4451 183.045 44.6032 182.688 44.7236C182.33 44.844 181.928 44.9042 181.48 44.9042C180.528 44.9042 179.785 44.6276 179.25 44.0745C178.716 43.5175 178.449 42.7724 178.449 41.8391C178.449 41.2069 178.571 40.648 178.815 40.1626C179.06 39.6771 179.414 39.3027 179.877 39.0392C180.34 38.772 180.893 38.6384 181.536 38.6384C181.935 38.6384 182.3 38.6968 182.631 38.8134C182.966 38.9301 183.249 39.0806 183.478 39.265C183.711 39.4494 183.888 39.647 184.009 39.8577C184.133 40.0647 184.195 40.2585 184.195 40.4392C184.195 40.6236 184.125 40.7797 183.986 40.9077C183.851 41.0356 183.685 41.0996 183.489 41.0996C183.361 41.0996 183.254 41.0676 183.168 41.0036C183.085 40.9359 182.991 40.8287 182.885 40.6819C182.697 40.3959 182.5 40.1814 182.293 40.0384C182.089 39.8954 181.83 39.8239 181.514 39.8239C181.058 39.8239 180.691 40.0026 180.413 40.3601C180.134 40.7139 179.995 41.1993 179.995 41.8165C179.995 42.1063 180.031 42.3735 180.102 42.6181C180.174 42.8589 180.277 43.0659 180.413 43.239C180.548 43.4084 180.712 43.5382 180.904 43.6285C181.096 43.7151 181.307 43.7583 181.536 43.7583C181.845 43.7583 182.108 43.6868 182.327 43.5438C182.549 43.4008 182.744 43.1826 182.914 42.889C183.008 42.7159 183.109 42.5804 183.218 42.4826C183.328 42.3848 183.461 42.3358 183.619 42.3358C183.807 42.3358 183.964 42.4073 184.088 42.5503C184.212 42.6933 184.274 42.8458 184.274 43.0076ZM186.837 37.295V39.5811C187.033 39.3553 187.223 39.1766 187.407 39.0449C187.595 38.9132 187.802 38.8153 188.028 38.7513C188.254 38.6836 188.496 38.6497 188.756 38.6497C189.147 38.6497 189.494 38.7325 189.795 38.8981C190.1 39.0637 190.339 39.3045 190.512 39.6207C190.621 39.8051 190.694 40.012 190.732 40.2416C190.769 40.4674 190.788 40.7289 190.788 41.0262V43.9785C190.788 44.2871 190.717 44.5204 190.574 44.6785C190.434 44.8365 190.248 44.9155 190.015 44.9155C189.507 44.9155 189.253 44.6032 189.253 43.9785V41.3762C189.253 40.8832 189.179 40.505 189.033 40.2416C188.886 39.9744 188.607 39.8408 188.197 39.8408C187.923 39.8408 187.674 39.9198 187.452 40.0779C187.234 40.2322 187.07 40.4448 186.961 40.7158C186.878 40.9453 186.837 41.3536 186.837 41.9407V43.9785C186.837 44.2833 186.767 44.5166 186.628 44.6785C186.492 44.8365 186.302 44.9155 186.058 44.9155C185.55 44.9155 185.296 44.6032 185.296 43.9785V37.295C185.296 36.9826 185.362 36.7493 185.493 36.595C185.629 36.437 185.817 36.3579 186.058 36.3579C186.302 36.3579 186.492 36.437 186.628 36.595C186.767 36.7531 186.837 36.9864 186.837 37.295Z" fill="#585858"/>
<path d="M120.426 65.2187C120.426 65.6241 120.321 65.9884 120.111 66.3115C119.904 66.6346 119.599 66.8876 119.197 67.0704C118.794 67.2533 118.317 67.3448 117.765 67.3448C117.104 67.3448 116.558 67.2198 116.129 66.9699C115.824 66.79 115.575 66.5507 115.383 66.252C115.194 65.9503 115.1 65.6577 115.1 65.3742C115.1 65.2096 115.156 65.0694 115.269 64.9536C115.385 64.8347 115.531 64.7752 115.708 64.7752C115.851 64.7752 115.972 64.821 116.069 64.9124C116.17 65.0038 116.255 65.1395 116.325 65.3193C116.411 65.5327 116.502 65.711 116.6 65.8543C116.7 65.9975 116.84 66.1164 117.02 66.2109C117.2 66.3023 117.436 66.348 117.729 66.348C118.131 66.348 118.457 66.2551 118.707 66.0692C118.96 65.8802 119.087 65.6455 119.087 65.365C119.087 65.1425 119.018 64.9627 118.881 64.8255C118.747 64.6853 118.572 64.5786 118.355 64.5055C118.142 64.4323 117.855 64.3546 117.496 64.2723C117.014 64.1595 116.61 64.0285 116.284 63.8791C115.961 63.7267 115.703 63.521 115.511 63.2619C115.322 62.9997 115.228 62.6751 115.228 62.288C115.228 61.9192 115.329 61.5915 115.53 61.305C115.731 61.0185 116.022 60.799 116.403 60.6466C116.784 60.4912 117.232 60.4134 117.747 60.4134C118.159 60.4134 118.514 60.4653 118.812 60.5689C119.114 60.6695 119.364 60.8051 119.562 60.9758C119.76 61.1435 119.905 61.3202 119.997 61.5062C120.088 61.6921 120.134 61.8735 120.134 62.0503C120.134 62.2118 120.076 62.3581 119.96 62.4892C119.847 62.6172 119.706 62.6812 119.535 62.6812C119.379 62.6812 119.261 62.6431 119.178 62.5669C119.099 62.4877 119.012 62.3596 118.918 62.1828C118.796 61.9299 118.649 61.7333 118.479 61.593C118.308 61.4498 118.034 61.3782 117.656 61.3782C117.305 61.3782 117.022 61.4559 116.805 61.6113C116.592 61.7637 116.485 61.9481 116.485 62.1646C116.485 62.2987 116.522 62.4145 116.595 62.512C116.668 62.6096 116.769 62.6934 116.897 62.7635C117.025 62.8336 117.154 62.8885 117.285 62.9281C117.416 62.9677 117.633 63.0256 117.935 63.1018C118.313 63.1902 118.654 63.2878 118.959 63.3945C119.267 63.5011 119.527 63.6307 119.741 63.7831C119.957 63.9355 120.125 64.129 120.244 64.3637C120.365 64.5954 120.426 64.8804 120.426 65.2187ZM121.633 66.5172V61.2364C121.633 60.9621 121.696 60.7563 121.821 60.6192C121.946 60.482 122.107 60.4134 122.306 60.4134C122.51 60.4134 122.674 60.482 122.799 60.6192C122.927 60.7533 122.991 60.959 122.991 61.2364V66.5172C122.991 66.7946 122.927 67.0019 122.799 67.139C122.674 67.2762 122.51 67.3448 122.306 67.3448C122.111 67.3448 121.949 67.2762 121.821 67.139C121.696 66.9988 121.633 66.7915 121.633 66.5172ZM126.283 61.2273L128.894 65.1776V61.1907C128.894 60.9316 128.949 60.7381 129.059 60.61C129.171 60.479 129.322 60.4134 129.511 60.4134C129.706 60.4134 129.86 60.479 129.973 60.61C130.086 60.7381 130.142 60.9316 130.142 61.1907V66.4624C130.142 67.0506 129.898 67.3448 129.411 67.3448C129.289 67.3448 129.179 67.3265 129.081 67.2899C128.984 67.2564 128.892 67.2015 128.807 67.1253C128.722 67.0491 128.643 66.9607 128.569 66.8601C128.496 66.7565 128.423 66.6513 128.35 66.5447L125.803 62.6401V66.5675C125.803 66.8235 125.744 67.0171 125.625 67.1482C125.506 67.2792 125.354 67.3448 125.168 67.3448C124.976 67.3448 124.822 67.2792 124.706 67.1482C124.59 67.0141 124.532 66.8205 124.532 66.5675V61.3964C124.532 61.177 124.557 61.0048 124.605 60.8798C124.663 60.7426 124.759 60.6314 124.893 60.546C125.028 60.4576 125.172 60.4134 125.328 60.4134C125.45 60.4134 125.553 60.4332 125.639 60.4729C125.727 60.5125 125.803 60.5658 125.867 60.6329C125.934 60.7 126.001 60.7868 126.068 60.8935C126.139 61.0002 126.21 61.1114 126.283 61.2273ZM137.75 64.5055V65.7903C137.75 65.9609 137.733 66.0981 137.7 66.2017C137.666 66.3023 137.604 66.3938 137.512 66.4761C137.424 66.5584 137.31 66.6376 137.17 66.7138C136.764 66.9333 136.374 67.0933 135.999 67.1939C135.624 67.2945 135.216 67.3448 134.774 67.3448C134.259 67.3448 133.789 67.2655 133.366 67.107C132.942 66.9485 132.581 66.7184 132.282 66.4166C131.983 66.1149 131.753 65.7491 131.592 65.3193C131.433 64.8895 131.354 64.4095 131.354 63.8791C131.354 63.3579 131.432 62.8809 131.587 62.448C131.742 62.0152 131.971 61.6479 132.273 61.3461C132.575 61.0444 132.942 60.8143 133.375 60.6558C133.808 60.4942 134.298 60.4134 134.847 60.4134C135.298 60.4134 135.697 60.4744 136.045 60.5963C136.392 60.7152 136.674 60.8661 136.891 61.049C137.107 61.2318 137.27 61.4254 137.38 61.6296C137.49 61.8338 137.544 62.0152 137.544 62.1737C137.544 62.3444 137.48 62.4907 137.352 62.6126C137.227 62.7315 137.077 62.7909 136.9 62.7909C136.802 62.7909 136.708 62.7681 136.616 62.7224C136.528 62.6766 136.453 62.6126 136.392 62.5303C136.225 62.2682 136.083 62.0701 135.967 61.936C135.851 61.8018 135.694 61.6891 135.496 61.5976C135.301 61.5062 135.051 61.4605 134.746 61.4605C134.432 61.4605 134.152 61.5153 133.905 61.625C133.658 61.7317 133.446 61.8887 133.27 62.096C133.096 62.3002 132.962 62.5517 132.867 62.8504C132.776 63.1491 132.73 63.4798 132.73 63.8425C132.73 64.6289 132.91 65.234 133.27 65.6577C133.632 66.0813 134.137 66.2932 134.783 66.2932C135.097 66.2932 135.391 66.252 135.665 66.1697C135.943 66.0874 136.223 65.9701 136.507 65.8177V64.7295H135.455C135.202 64.7295 135.01 64.6914 134.879 64.6152C134.751 64.539 134.687 64.4095 134.687 64.2266C134.687 64.0772 134.74 63.9538 134.847 63.8562C134.957 63.7587 135.104 63.7099 135.29 63.7099H136.831C137.02 63.7099 137.18 63.7267 137.311 63.7602C137.442 63.7938 137.548 63.8684 137.627 63.9843C137.709 64.1001 137.75 64.2738 137.75 64.5055ZM142.976 66.4715L142.656 65.6302H139.931L139.611 66.4898C139.486 66.8251 139.379 67.0522 139.291 67.171C139.203 67.2869 139.058 67.3448 138.857 67.3448C138.686 67.3448 138.535 67.2823 138.404 67.1573C138.273 67.0323 138.207 66.8906 138.207 66.7321C138.207 66.6407 138.223 66.5462 138.253 66.4486C138.284 66.3511 138.334 66.2155 138.404 66.0417L140.119 61.6891C140.167 61.5641 140.225 61.4147 140.292 61.241C140.362 61.0642 140.436 60.9179 140.512 60.8021C140.591 60.6862 140.693 60.5933 140.818 60.5232C140.946 60.45 141.103 60.4134 141.289 60.4134C141.478 60.4134 141.635 60.45 141.76 60.5232C141.888 60.5933 141.99 60.6847 142.066 60.7975C142.146 60.9103 142.211 61.0322 142.263 61.1633C142.318 61.2913 142.386 61.4635 142.469 61.6799L144.22 66.0051C144.357 66.3343 144.426 66.5736 144.426 66.723C144.426 66.8784 144.36 67.0217 144.229 67.1527C144.101 67.2808 143.945 67.3448 143.763 67.3448C143.656 67.3448 143.564 67.325 143.488 67.2853C143.412 67.2488 143.348 67.1985 143.296 67.1345C143.244 67.0674 143.188 66.9668 143.127 66.8327C143.069 66.6955 143.019 66.5751 142.976 66.4715ZM140.288 64.6106H142.29L141.28 61.8445L140.288 64.6106ZM148.028 64.6198H146.785V66.5172C146.785 66.7885 146.721 66.9942 146.593 67.1345C146.465 67.2747 146.303 67.3448 146.108 67.3448C145.904 67.3448 145.739 67.2762 145.614 67.139C145.489 66.9988 145.427 66.7946 145.427 66.5264V61.3599C145.427 61.0612 145.495 60.8478 145.633 60.7198C145.77 60.5917 145.988 60.5277 146.286 60.5277H148.028C148.543 60.5277 148.94 60.5674 149.217 60.6466C149.491 60.7228 149.728 60.8493 149.926 61.0261C150.127 61.2029 150.279 61.4193 150.383 61.6753C150.487 61.9314 150.538 62.2194 150.538 62.5395C150.538 63.2222 150.328 63.7404 149.907 64.094C149.487 64.4445 148.86 64.6198 148.028 64.6198ZM147.699 61.5473H146.785V63.5956H147.699C148.019 63.5956 148.286 63.5621 148.499 63.495C148.716 63.428 148.88 63.3183 148.993 63.1659C149.106 63.0134 149.162 62.8138 149.162 62.5669C149.162 62.2712 149.075 62.0304 148.902 61.8445C148.707 61.6464 148.306 61.5473 147.699 61.5473ZM154.621 60.4134C155.316 60.4134 155.912 60.5552 156.409 60.8386C156.909 61.1191 157.287 61.5199 157.543 62.0411C157.799 62.5593 157.927 63.1689 157.927 63.87C157.927 64.3881 157.857 64.8591 157.717 65.2827C157.576 65.7064 157.366 66.0737 157.086 66.3846C156.805 66.6955 156.461 66.9333 156.052 67.0979C155.644 67.2625 155.176 67.3448 154.649 67.3448C154.125 67.3448 153.655 67.2609 153.241 67.0933C152.826 66.9226 152.48 66.6833 152.203 66.3755C151.925 66.0676 151.715 65.6973 151.572 65.2645C151.432 64.8316 151.361 64.3637 151.361 63.8608C151.361 63.3457 151.435 62.8732 151.581 62.4435C151.73 62.0137 151.945 61.6479 152.226 61.3461C152.506 61.0444 152.847 60.8143 153.25 60.6558C153.652 60.4942 154.109 60.4134 154.621 60.4134ZM156.551 63.8608C156.551 63.3701 156.472 62.9449 156.313 62.5852C156.155 62.2255 155.927 61.9542 155.632 61.7714C155.339 61.5854 155.002 61.4925 154.621 61.4925C154.35 61.4925 154.099 61.5443 153.867 61.6479C153.638 61.7485 153.44 61.8963 153.273 62.0914C153.108 62.2865 152.977 62.5364 152.879 62.8412C152.785 63.143 152.738 63.4829 152.738 63.8608C152.738 64.2418 152.785 64.5863 152.879 64.8941C152.977 65.202 153.113 65.458 153.286 65.6622C153.463 65.8634 153.664 66.0143 153.89 66.1149C154.118 66.2155 154.368 66.2658 154.64 66.2658C154.987 66.2658 155.306 66.1789 155.595 66.0051C155.888 65.8314 156.119 65.5632 156.29 65.2004C156.464 64.8377 156.551 64.3912 156.551 63.8608ZM160.913 64.3637H160.437V66.5172C160.437 66.8007 160.375 67.0095 160.25 67.1436C160.125 67.2777 159.962 67.3448 159.76 67.3448C159.544 67.3448 159.376 67.2747 159.257 67.1345C159.139 66.9942 159.079 66.7885 159.079 66.5172V61.3599C159.079 61.0672 159.145 60.8554 159.276 60.7243C159.407 60.5933 159.619 60.5277 159.911 60.5277H162.12C162.424 60.5277 162.685 60.5415 162.901 60.5689C163.118 60.5933 163.313 60.6451 163.487 60.7243C163.697 60.8127 163.883 60.9392 164.044 61.1038C164.206 61.2684 164.328 61.4605 164.41 61.6799C164.496 61.8963 164.538 62.1265 164.538 62.3703C164.538 62.8702 164.397 63.2695 164.113 63.5682C163.833 63.8669 163.406 64.0788 162.833 64.2037C163.074 64.3317 163.304 64.5207 163.523 64.7707C163.743 65.0206 163.938 65.2873 164.108 65.5708C164.282 65.8512 164.416 66.1057 164.511 66.3343C164.608 66.5599 164.657 66.7153 164.657 66.8007C164.657 66.8891 164.628 66.9775 164.57 67.0659C164.515 67.1512 164.439 67.2183 164.342 67.267C164.244 67.3189 164.131 67.3448 164.003 67.3448C163.851 67.3448 163.723 67.3082 163.619 67.235C163.516 67.1649 163.426 67.075 163.35 66.9653C163.276 66.8556 163.176 66.694 163.048 66.4806L162.504 65.5754C162.309 65.2431 162.133 64.9901 161.978 64.8164C161.825 64.6426 161.67 64.5238 161.512 64.4598C161.353 64.3958 161.153 64.3637 160.913 64.3637ZM161.69 61.5473H160.437V63.3899H161.653C161.979 63.3899 162.254 63.3625 162.476 63.3076C162.699 63.2497 162.868 63.1537 162.984 63.0195C163.103 62.8824 163.162 62.6949 163.162 62.4572C163.162 62.2712 163.115 62.1082 163.02 61.968C162.926 61.8247 162.795 61.718 162.627 61.6479C162.469 61.5809 162.156 61.5473 161.69 61.5473ZM170.244 61.5748H167.186V63.2207H170.002C170.209 63.2207 170.363 63.268 170.464 63.3625C170.567 63.4539 170.619 63.5758 170.619 63.7282C170.619 63.8806 170.569 64.0056 170.468 64.1031C170.368 64.1976 170.212 64.2449 170.002 64.2449H167.186V66.1514H170.349C170.563 66.1514 170.723 66.2017 170.83 66.3023C170.939 66.3999 170.994 66.5309 170.994 66.6955C170.994 66.854 170.939 66.9836 170.83 67.0842C170.723 67.1817 170.563 67.2305 170.349 67.2305H166.66C166.364 67.2305 166.151 67.1649 166.02 67.0339C165.892 66.9028 165.828 66.691 165.828 66.3983V61.3599C165.828 61.1648 165.857 61.0063 165.914 60.8844C165.972 60.7594 166.062 60.6695 166.184 60.6146C166.309 60.5567 166.468 60.5277 166.66 60.5277H170.244C170.461 60.5277 170.621 60.5765 170.724 60.674C170.831 60.7685 170.884 60.8935 170.884 61.049C170.884 61.2075 170.831 61.3355 170.724 61.433C170.621 61.5275 170.461 61.5748 170.244 61.5748Z" fill="#585858"/>
<path d="M114.9 53.2192H186.402" stroke="#585858" stroke-width="0.073823" stroke-miterlimit="10"/>
</svg>
