<svg width="188" height="72" viewBox="0 0 188 72" fill="none" xmlns="http://www.w3.org/2000/svg">
<path d="M176.47 66.6121C176.47 66.2766 176.418 65.9771 176.314 65.7135C176.218 65.4419 176.039 65.1983 175.775 64.9826C175.52 64.7589 175.156 64.5433 174.685 64.3356C174.221 64.1199 173.622 63.8963 172.887 63.6646C172.073 63.409 171.314 63.1214 170.611 62.8019C169.908 62.4824 169.289 62.111 168.754 61.6876C168.227 61.2642 167.815 60.777 167.52 60.2258C167.224 59.6667 167.076 59.0196 167.076 58.2847C167.076 57.5658 167.228 56.9108 167.532 56.3197C167.843 55.7286 168.282 55.2214 168.85 54.798C169.417 54.3667 170.084 54.0352 170.851 53.8035C171.625 53.5719 172.48 53.4561 173.415 53.4561C174.709 53.4561 175.827 53.6917 176.77 54.163C177.72 54.6343 178.455 55.2733 178.974 56.0801C179.493 56.8869 179.753 57.7935 179.753 58.8H176.47C176.47 58.2568 176.354 57.7775 176.123 57.3621C175.899 56.9468 175.555 56.6193 175.092 56.3796C174.637 56.14 174.062 56.0202 173.367 56.0202C172.696 56.0202 172.137 56.12 171.689 56.3197C171.25 56.5194 170.918 56.791 170.695 57.1345C170.479 57.478 170.371 57.8614 170.371 58.2847C170.371 58.6043 170.447 58.8918 170.599 59.1474C170.751 59.3951 170.978 59.6307 171.282 59.8544C171.585 60.07 171.961 60.2737 172.408 60.4654C172.864 60.6492 173.391 60.8329 173.99 61.0166C174.948 61.3042 175.787 61.6237 176.506 61.9752C177.233 62.3266 177.836 62.726 178.315 63.1733C178.803 63.6207 179.166 64.1239 179.406 64.6831C179.653 65.2422 179.777 65.8773 179.777 66.5882C179.777 67.339 179.629 68.01 179.334 68.6011C179.038 69.1922 178.615 69.6955 178.064 70.1108C177.512 70.5262 176.849 70.8417 176.075 71.0574C175.308 71.2731 174.449 71.3809 173.499 71.3809C172.652 71.3809 171.813 71.2691 170.982 71.0454C170.16 70.8138 169.413 70.4703 168.742 70.015C168.071 69.5517 167.536 68.9686 167.136 68.2656C166.737 67.5547 166.537 66.724 166.537 65.7734H169.844C169.844 66.3246 169.932 66.7959 170.108 67.1873C170.291 67.5707 170.547 67.8862 170.875 68.1338C171.21 68.3735 171.601 68.5492 172.049 68.661C172.496 68.7729 172.979 68.8288 173.499 68.8288C174.17 68.8288 174.721 68.7369 175.152 68.5532C175.591 68.3615 175.919 68.0979 176.135 67.7624C176.358 67.4269 176.47 67.0435 176.47 66.6121Z" fill="#585858"/>
<path d="M163.988 53.6958V71.1414H160.681L153.264 59.0397V71.1414H149.969V53.6958H153.264L160.704 65.8095V53.6958H163.988Z" fill="#585858"/>
<path d="M146.408 53.6958V71.1414H143.113V53.6958H146.408Z" fill="#585858"/>
<path d="M134.006 63.3652H129.549L129.525 61.0407H133.347C134.002 61.0407 134.549 60.9488 134.989 60.7651C135.428 60.5814 135.76 60.3138 135.983 59.9623C136.215 59.6108 136.331 59.1835 136.331 58.6803C136.331 58.1211 136.223 57.6658 136.007 57.3143C135.799 56.9629 135.472 56.7072 135.025 56.5475C134.577 56.3797 134.01 56.2959 133.323 56.2959H130.615V71.1414H127.32V53.6958H133.323C134.314 53.6958 135.196 53.7917 135.971 53.9834C136.754 54.1671 137.417 54.4547 137.96 54.8461C138.503 55.2375 138.915 55.7287 139.194 56.3198C139.482 56.9109 139.626 57.6139 139.626 58.4286C139.626 59.1475 139.458 59.8105 139.122 60.4176C138.795 61.0167 138.288 61.504 137.601 61.8794C136.922 62.2548 136.059 62.4705 135.013 62.5264L134.006 63.3652ZM133.862 71.1414H128.578L129.956 68.5533H133.862C134.517 68.5533 135.057 68.4455 135.48 68.2298C135.911 68.0141 136.231 67.7186 136.439 67.3431C136.654 66.9597 136.762 66.5204 136.762 66.0251C136.762 65.482 136.666 65.0107 136.474 64.6113C136.291 64.2119 135.995 63.9043 135.588 63.6887C135.188 63.473 134.661 63.3652 134.006 63.3652H130.579L130.603 61.0407H134.965L135.72 61.9393C136.726 61.9473 137.545 62.147 138.176 62.5384C138.815 62.9298 139.286 63.4331 139.59 64.0481C139.893 64.6632 140.045 65.3262 140.045 66.0371C140.045 67.1554 139.801 68.094 139.314 68.8529C138.835 69.6117 138.132 70.1828 137.205 70.5663C136.287 70.9497 135.172 71.1414 133.862 71.1414Z" fill="#585858"/>
<path d="M118.43 63.3652H113.973L113.949 61.0407H117.771C118.426 61.0407 118.973 60.9488 119.413 60.7651C119.852 60.5814 120.183 60.3138 120.407 59.9623C120.639 59.6108 120.755 59.1835 120.755 58.6803C120.755 58.1211 120.647 57.6658 120.431 57.3143C120.223 56.9629 119.896 56.7072 119.448 56.5475C119.001 56.3797 118.434 56.2959 117.747 56.2959H115.039V71.1414H111.744V53.6958H117.747C118.738 53.6958 119.62 53.7917 120.395 53.9834C121.178 54.1671 121.841 54.4547 122.384 54.8461C122.927 55.2375 123.339 55.7287 123.618 56.3198C123.906 56.9109 124.05 57.6139 124.05 58.4286C124.05 59.1475 123.882 59.8105 123.546 60.4176C123.219 61.0167 122.712 61.504 122.025 61.8794C121.346 62.2548 120.483 62.4705 119.436 62.5264L118.43 63.3652ZM118.286 71.1414H113.002L114.38 68.5533H118.286C118.941 68.5533 119.48 68.4455 119.904 68.2298C120.335 68.0141 120.655 67.7186 120.862 67.3431C121.078 66.9597 121.186 66.5204 121.186 66.0251C121.186 65.482 121.09 65.0107 120.898 64.6113C120.715 64.2119 120.419 63.9043 120.012 63.6887C119.612 63.473 119.085 63.3652 118.43 63.3652H115.003L115.027 61.0407H119.389L120.143 61.9393C121.15 61.9473 121.969 62.147 122.6 62.5384C123.239 62.9298 123.71 63.4331 124.014 64.0481C124.317 64.6632 124.469 65.3262 124.469 66.0371C124.469 67.1554 124.225 68.094 123.738 68.8529C123.259 69.6117 122.556 70.1828 121.629 70.5663C120.711 70.9497 119.596 71.1414 118.286 71.1414Z" fill="#585858"/>
<path d="M108.953 61.9752V62.8738C108.953 64.1918 108.777 65.378 108.426 66.4324C108.075 67.4788 107.575 68.3695 106.928 69.1044C106.281 69.8393 105.51 70.4024 104.616 70.7938C103.721 71.1852 102.727 71.3809 101.632 71.3809C100.554 71.3809 99.5634 71.1852 98.6608 70.7938C97.7661 70.4024 96.9913 69.8393 96.3363 69.1044C95.6813 68.3695 95.174 67.4788 94.8146 66.4324C94.4551 65.378 94.2754 64.1918 94.2754 62.8738V61.9752C94.2754 60.6492 94.4551 59.463 94.8146 58.4165C95.174 57.3701 95.6773 56.4795 96.3243 55.7446C96.9713 55.0017 97.7421 54.4346 98.6368 54.0432C99.5394 53.6518 100.53 53.4561 101.608 53.4561C102.703 53.4561 103.697 53.6518 104.592 54.0432C105.486 54.4346 106.257 55.0017 106.904 55.7446C107.559 56.4795 108.063 57.3701 108.414 58.4165C108.773 59.463 108.953 60.6492 108.953 61.9752ZM105.622 62.8738V61.9512C105.622 61.0006 105.534 60.1659 105.359 59.447C105.183 58.7201 104.923 58.109 104.58 57.6138C104.236 57.1185 103.813 56.7471 103.31 56.4994C102.806 56.2438 102.239 56.116 101.608 56.116C100.969 56.116 100.402 56.2438 99.9069 56.4994C99.4196 56.7471 99.0042 57.1185 98.6608 57.6138C98.3173 58.109 98.0537 58.7201 97.8699 59.447C97.6942 60.1659 97.6063 61.0006 97.6063 61.9512V62.8738C97.6063 63.8164 97.6942 64.6511 97.8699 65.378C98.0537 66.1049 98.3173 66.72 98.6608 67.2232C99.0122 67.7185 99.4356 68.0939 99.9308 68.3495C100.426 68.6051 100.993 68.7329 101.632 68.7329C102.271 68.7329 102.838 68.6051 103.334 68.3495C103.829 68.0939 104.244 67.7185 104.58 67.2232C104.923 66.72 105.183 66.1049 105.359 65.378C105.534 64.6511 105.622 63.8164 105.622 62.8738Z" fill="#585858"/>
<path d="M79.2266 53.6958H85.565C86.891 53.6958 88.0292 53.8955 88.9798 54.2949C89.9304 54.6943 90.6613 55.2854 91.1725 56.0682C91.6837 56.851 91.9393 57.8136 91.9393 58.9558C91.9393 59.8585 91.7796 60.6413 91.46 61.3043C91.1405 61.9673 90.6892 62.5224 90.1061 62.9698C89.531 63.4171 88.852 63.7686 88.0692 64.0242L87.0387 64.5514H81.4432L81.4192 61.9513H85.6009C86.2799 61.9513 86.843 61.8315 87.2904 61.5918C87.7377 61.3522 88.0732 61.0207 88.2968 60.5974C88.5285 60.174 88.6443 59.6907 88.6443 59.1475C88.6443 58.5644 88.5325 58.0612 88.3088 57.6378C88.0852 57.2065 87.7457 56.875 87.2904 56.6433C86.835 56.4117 86.2599 56.2959 85.565 56.2959H82.5216V71.1414H79.2266V53.6958ZM89.0757 71.1414L85.0378 63.3292L88.5245 63.3172L92.6103 70.9736V71.1414H89.0757Z" fill="#585858"/>
<path d="M60.0565 53.6958L63.8907 61.8315L67.7489 53.6958H71.3674L65.5682 64.7551V71.1414H62.2253V64.7551L56.4141 53.6958H60.0565Z" fill="#585858"/>
<path d="M55.0012 53.6958V71.1414H51.6942L44.2774 59.0397V71.1414H40.9824V53.6958H44.2774L51.7182 65.8095V53.6958H55.0012Z" fill="#585858"/>
<path d="M38.1875 61.9752V62.8738C38.1875 64.1918 38.0118 65.378 37.6603 66.4324C37.3089 67.4788 36.8096 68.3695 36.1626 69.1044C35.5156 69.8393 34.7448 70.4024 33.8501 70.7938C32.9555 71.1852 31.961 71.3809 30.8666 71.3809C29.7883 71.3809 28.7978 71.1852 27.8951 70.7938C27.0005 70.4024 26.2257 69.8393 25.5706 69.1044C24.9156 68.3695 24.4084 67.4788 24.0489 66.4324C23.6895 65.378 23.5098 64.1918 23.5098 62.8738V61.9752C23.5098 60.6492 23.6895 59.463 24.0489 58.4165C24.4084 57.3701 24.9116 56.4795 25.5587 55.7446C26.2057 55.0017 26.9765 54.4346 27.8712 54.0432C28.7738 53.6518 29.7643 53.4561 30.8427 53.4561C31.937 53.4561 32.9315 53.6518 33.8261 54.0432C34.7208 54.4346 35.4916 55.0017 36.1386 55.7446C36.7937 56.4795 37.2969 57.3701 37.6484 58.4165C38.0078 59.463 38.1875 60.6492 38.1875 61.9752ZM34.8566 62.8738V61.9512C34.8566 61.0006 34.7687 60.1659 34.593 59.447C34.4173 58.7201 34.1576 58.109 33.8142 57.6138C33.4707 57.1185 33.0473 56.7471 32.5441 56.4994C32.0409 56.2438 31.4737 56.116 30.8427 56.116C30.2036 56.116 29.6365 56.2438 29.1412 56.4994C28.654 56.7471 28.2386 57.1185 27.8951 57.6138C27.5516 58.109 27.288 58.7201 27.1043 59.447C26.9286 60.1659 26.8407 61.0006 26.8407 61.9512V62.8738C26.8407 63.8164 26.9286 64.6511 27.1043 65.378C27.288 66.1049 27.5516 66.72 27.8951 67.2232C28.2466 67.7185 28.67 68.0939 29.1652 68.3495C29.6605 68.6051 30.2276 68.7329 30.8666 68.7329C31.5057 68.7329 32.0728 68.6051 32.5681 68.3495C33.0633 68.0939 33.4787 67.7185 33.8142 67.2232C34.1576 66.72 34.4173 66.1049 34.593 65.378C34.7687 64.6511 34.8566 63.8164 34.8566 62.8738Z" fill="#585858"/>
<path d="M16.7893 53.6958V71.1414H13.5063V53.6958H16.7893ZM22.2051 53.6958V56.2959H8.15039V53.6958H22.2051Z" fill="#585858"/>
<g clip-path="url(#clip0_12659_24551)">
<path d="M100.442 46.805C97.5488 45.7414 96.1601 43.6141 95.813 40.6595C95.6973 39.9504 95.6973 39.2413 95.6973 38.5322C95.6973 28.8412 95.6973 19.2684 95.6973 9.57734C95.6973 7.92278 95.813 6.3864 96.5073 4.85002C97.3173 3.07727 98.7059 1.89544 100.557 1.30452C101.83 0.949975 103.103 0.831792 104.376 0.831792C106.575 0.831792 108.658 0.713609 110.856 0.949975C112.476 1.06816 113.981 1.54089 115.369 2.48636C115.369 2.48636 115.369 2.60454 115.485 2.60454C115.485 2.60454 115.601 2.60454 115.601 2.72272C117.452 4.49547 117.915 6.74095 117.915 9.22279C117.915 19.1502 117.915 29.0776 117.915 39.1231C117.915 40.1868 117.799 41.2504 117.568 42.1959C117.105 43.8504 116.179 45.2686 114.675 46.2141C113.402 46.9232 112.013 47.2778 110.625 47.2778C108.658 47.3959 106.806 47.2778 104.839 47.2778C103.798 47.2778 102.756 47.2778 101.715 47.0414C101.367 46.9232 101.02 46.805 100.557 46.805H100.442ZM105.533 39.3595C106.228 39.5959 106.806 39.5959 107.269 39.4777C108.542 39.4777 109.005 39.0049 109.005 37.7049V37.4686C109.005 28.6048 109.005 19.6229 109.005 10.7592C109.005 10.5228 109.005 10.2864 109.005 10.0501C109.005 9.69553 108.889 9.34098 108.542 9.10461C108.311 8.86824 107.963 8.75006 107.5 8.75006C107.153 8.75006 106.806 8.75006 106.459 8.75006C105.07 8.75006 104.608 9.22279 104.608 10.641V10.7592C104.608 19.6229 104.608 28.6048 104.608 37.4686C104.608 37.7049 104.608 37.9413 104.608 38.1777C104.723 38.8868 104.955 39.2413 105.533 39.3595Z" fill="#585858"/>
<path d="M134.578 46.9234C133.768 46.8052 133.768 46.8052 133.768 46.0961C133.768 41.2506 133.768 36.4051 133.768 31.4414C133.768 30.8505 133.768 30.3777 133.305 29.905C133.074 29.5504 132.611 29.5504 132.264 29.5504C131.685 29.5504 130.991 29.5504 130.412 29.5504C129.949 29.5504 129.949 29.6686 129.949 30.1414C129.949 35.4596 129.949 40.896 129.949 46.3324C129.949 46.8052 129.834 46.9234 129.371 46.9234C126.825 46.9234 124.279 46.9234 121.733 46.9234C121.039 46.9234 121.039 46.9234 121.039 46.2143C121.039 31.4414 121.039 16.6685 121.039 2.01377C121.039 1.42285 121.039 1.42285 121.618 1.42285C126.015 1.42285 130.412 1.42285 134.809 1.42285C136.892 1.42285 138.744 1.89558 140.364 3.1956C140.711 3.55015 141.058 4.02288 141.29 4.37743C142.215 5.79563 142.563 7.33201 142.563 8.98657C142.563 12.0593 142.563 15.0139 142.563 18.0867C142.563 18.7958 142.563 19.5049 142.447 20.214C142.1 22.4594 141.174 24.2322 139.091 25.1777C138.975 25.1777 138.86 25.2958 138.86 25.414C139.091 25.5322 139.438 25.6504 139.67 25.7686L140.595 26.3595C140.595 26.3595 140.595 26.4777 140.711 26.4777C140.711 26.4777 140.827 26.4777 140.827 26.5959C141.405 27.1868 141.753 27.7777 142.1 28.4868C142.331 29.1959 142.563 30.0232 142.563 30.7323C142.563 36.0505 142.563 41.2506 142.563 46.5688C142.563 46.9234 142.447 46.9234 142.1 46.9234C140.48 46.9234 138.744 46.9234 137.124 46.9234C136.43 46.9234 135.504 46.9234 134.578 46.9234ZM130.759 21.8685C131.338 21.8685 131.917 21.8685 132.495 21.8685C132.611 21.8685 132.842 21.8685 132.958 21.7503C133.074 21.6322 133.305 21.6322 133.421 21.514C133.537 21.3958 133.652 21.2776 133.652 21.0413C133.768 20.9231 133.768 20.6867 133.768 20.5685C133.768 17.2594 133.768 13.9503 133.768 10.6411C133.768 10.523 133.768 10.2866 133.652 10.1684C133.537 10.0502 133.537 9.81385 133.305 9.69567C133.189 9.4593 132.842 9.34112 132.611 9.34112C131.801 9.22294 131.107 9.34112 130.412 9.22294C130.065 9.22294 129.949 9.34112 129.949 9.69567C129.949 13.5957 129.949 17.4958 129.949 21.514C129.949 21.8685 130.065 21.9867 130.412 21.9867C130.528 21.8685 130.644 21.8685 130.759 21.8685Z" fill="#585858"/>
<path d="M158.879 26.8318C161.656 26.8318 164.433 26.8318 167.095 26.8318C167.558 26.8318 167.673 26.95 167.673 27.4227C167.673 31.3228 167.673 35.1046 167.673 39.0047C167.673 40.5411 167.442 41.9593 166.863 43.3775C166.516 44.2047 165.938 45.032 165.243 45.6229C164.549 46.2139 163.739 46.6866 162.813 46.923C161.656 47.2775 160.499 47.3957 159.342 47.3957C157.374 47.3957 155.407 47.3957 153.44 47.3957C152.514 47.3957 151.589 47.2775 150.663 47.0411C150.547 47.0411 150.431 47.0411 150.316 47.0411C148.696 46.4502 147.307 45.5048 146.381 43.8502C145.687 42.5502 145.34 41.132 145.34 39.7138C145.34 31.6773 145.34 23.7591 145.34 15.7226C145.34 13.7135 145.34 11.7044 145.34 9.69527C145.34 7.92252 145.571 6.14978 146.381 4.49521C146.728 4.25885 146.844 3.9043 147.076 3.66793C148.233 2.13155 149.853 1.42245 151.589 1.18609C154.482 0.831537 157.49 1.0679 160.499 1.0679C162.003 1.0679 163.508 1.65882 164.78 2.60428C166.4 3.9043 166.979 5.67705 167.326 7.56798C167.442 8.27707 167.442 8.98617 167.442 9.57709C167.442 12.8862 167.442 16.1953 167.442 19.5045C167.442 19.9772 167.326 20.0954 166.863 20.0954C164.318 20.0954 161.656 20.0954 159.11 20.0954C158.763 20.0954 158.647 19.9772 158.647 19.6227C158.647 16.6681 158.647 13.7135 158.647 10.7589C158.647 10.5226 158.647 10.2862 158.647 10.0498C158.532 9.22254 158.185 8.98617 157.374 8.86799C156.68 8.74981 156.102 8.74981 155.407 8.86799C154.829 9.10436 154.482 9.45891 154.482 10.168C154.482 10.2862 154.482 10.4044 154.482 10.5226C154.482 19.6227 154.482 28.7228 154.482 37.941C154.482 38.1774 154.482 38.4138 154.597 38.6501C154.713 39.1229 154.944 39.3592 155.407 39.4774C156.102 39.7138 156.68 39.7138 157.374 39.5956C158.532 39.4774 158.763 39.0047 158.763 37.941C158.763 35.6956 158.763 33.5683 158.763 31.3228V30.0228C158.879 28.8409 158.879 27.7773 158.879 26.8318Z" fill="#585858"/>
<path d="M49.5244 46.9233C48.8301 46.8051 48.8301 46.8051 48.8301 46.096C48.8301 31.3231 48.8301 16.6684 48.8301 1.89555C48.8301 1.30464 48.8301 1.30464 49.4087 1.30464C54.616 1.30464 59.7076 1.30464 64.9149 1.30464C65.1463 1.30464 65.4934 1.18645 65.4934 1.65918C65.4934 4.02285 65.4934 6.50469 65.4934 8.86835C65.4934 9.34109 65.3777 9.45927 64.9149 9.45927C62.7162 9.45927 60.4019 9.45927 58.2032 9.45927C57.8561 9.45927 57.7404 9.57745 57.7404 9.932C57.7404 13.1229 57.7404 16.1957 57.7404 19.3867C57.7404 19.7412 57.8561 19.8594 58.2032 19.8594C58.3189 19.8594 58.4347 19.8594 58.5504 19.8594C60.6333 19.8594 62.7162 19.8594 64.6834 19.8594C64.9149 19.8594 65.1463 19.8594 65.1463 20.2139C65.1463 20.4503 65.1463 20.5685 65.1463 20.8049C65.1463 23.0503 65.1463 25.2958 65.1463 27.5413C65.1463 27.8958 65.0306 28.014 64.6834 28.014C62.6005 28.014 60.4019 28.014 58.3189 28.014C58.0875 28.014 57.8561 28.014 57.8561 28.3686C57.8561 31.7959 57.8561 35.105 57.8561 38.5323C57.8561 38.7687 57.9718 39.0051 58.2032 38.8869C58.3189 38.8869 58.4347 38.8869 58.5504 38.8869C60.749 38.8869 62.9477 38.8869 65.1463 38.8869C65.3777 38.8869 65.6092 38.8869 65.6092 39.2414C65.6092 41.6051 65.6092 44.0869 65.6092 46.4506C65.6092 46.9233 65.4934 47.0415 65.0306 47.0415C60.0547 47.0415 55.1946 47.0415 50.2187 47.0415C49.8715 46.9233 49.7558 46.9233 49.5244 46.9233Z" fill="#585858"/>
<path d="M30.7783 46.9234C30.084 46.8052 30.084 46.8052 30.084 46.0961V1.8956C30.084 1.30469 30.084 1.30469 30.6626 1.30469C32.6298 1.30469 34.597 1.30469 36.5642 1.30469C38.3 1.30469 39.92 1.30469 41.6558 1.30469C43.0444 1.30469 44.5487 1.30469 45.9373 1.30469C46.1688 1.30469 46.4002 1.30469 46.4002 1.65924C46.4002 1.8956 46.4002 2.01379 46.4002 2.25015C46.4002 4.49563 46.4002 6.74111 46.4002 8.86841C46.4002 9.34114 46.2845 9.45932 45.8216 9.45932C43.7387 9.45932 41.6558 9.45932 39.4571 9.45932C39.11 9.45932 38.9943 9.57751 38.9943 9.93206C38.9943 13.2412 38.9943 16.5503 38.9943 19.8594C38.9943 20.214 39.11 20.3322 39.4571 20.3322C39.5728 20.3322 39.6886 20.3322 39.8043 20.3322C41.7715 20.3322 43.7387 20.3322 45.7059 20.3322C46.053 20.3322 46.1688 20.4504 46.1688 20.6867C46.1688 23.1686 46.1688 25.5322 46.1688 28.0141C46.1688 28.3686 46.053 28.4868 45.7059 28.4868C43.7387 28.4868 41.6558 28.4868 39.6886 28.4868C39.2257 28.4868 39.11 28.605 39.11 29.0777C39.11 34.7505 39.11 40.5415 39.11 46.2143C39.11 47.1597 39.11 47.1597 38.2999 47.1597L30.7783 46.9234Z" fill="#585858"/>
<path d="M86.6705 20.0954C88.6377 20.0954 90.6049 20.0954 92.5721 20.0954C92.8036 20.0954 93.035 20.2135 93.035 20.4499C93.035 22.9317 93.035 25.2954 93.035 27.7773C93.035 28.1318 92.9193 28.25 92.5721 28.25C90.6049 28.25 88.522 28.25 86.5548 28.25C86.0919 28.25 85.9762 28.3682 85.9762 28.7227C85.9762 33.0955 85.9762 37.5865 85.9762 41.9592C85.9762 43.3774 85.9762 44.9138 85.9762 46.332C85.9762 46.6866 85.8605 46.8047 85.629 46.6866C85.0505 46.6866 84.5876 46.6866 84.009 46.6866H77.876C77.1816 46.5684 77.1816 46.5684 77.1816 45.8593C77.1816 31.0864 77.1816 16.4317 77.1816 1.65879C77.1816 1.06787 77.1816 1.06787 77.7602 1.06787C79.6117 1.06787 81.3475 1.06787 83.199 1.06787C85.9762 1.06787 88.6377 1.06787 91.4149 1.06787C91.9935 1.06787 92.5721 1.06787 93.1507 1.06787C93.3821 1.06787 93.4979 1.18605 93.4979 1.42242C93.3821 1.5406 93.3821 1.77697 93.3821 1.89515C93.3821 4.14063 93.3821 6.38611 93.3821 8.51341C93.3821 9.10432 93.3821 9.10432 92.8035 9.10432C90.7206 9.10432 88.6377 9.10432 86.5548 9.10432C86.2076 9.10432 86.0919 9.22251 86.0919 9.57705C86.0919 12.8862 86.0919 16.1953 86.0919 19.5044C86.0919 19.859 86.2076 19.9772 86.5548 19.9772C86.4391 20.2135 86.5548 20.0954 86.6705 20.0954Z" fill="#585858"/>
<path d="M-0.00146967 4.732C-0.00146967 3.78653 -0.00146967 2.72289 -0.00146967 1.77742C-0.00146967 1.42287 0.114248 1.30469 0.461402 1.30469C2.4286 1.42287 4.39581 1.30469 6.47873 1.30469C7.17304 1.30469 7.86734 1.30469 8.67737 1.30469C8.79309 1.30469 8.79309 1.30469 8.9088 1.30469C9.02452 1.30469 9.02452 1.42287 9.14024 1.42287C8.9088 1.77742 8.9088 1.8956 8.9088 2.13197V12.8866C8.9088 21.3958 8.9088 29.7868 8.9088 38.296C8.9088 38.7687 9.02452 38.8869 9.37168 38.7687C9.48739 38.7687 9.48739 38.7687 9.60311 38.7687C11.3389 38.7687 13.0746 38.7687 14.9261 38.7687C15.1576 38.7687 15.389 38.7687 15.389 39.1233C15.2733 39.2415 15.2733 39.4778 15.2733 39.596C15.2733 41.8415 15.2733 44.087 15.2733 46.3325C15.2733 46.8052 15.1576 46.9234 14.6947 46.9234C11.1074 46.9234 7.40447 46.9234 3.81722 46.9234C2.77576 46.9234 1.61858 46.9234 0.577119 46.9234C-0.117188 46.9234 -0.117188 46.9234 -0.117188 46.2143C-0.117188 32.6232 -0.117188 19.0322 -0.117188 5.4411C-0.00146967 5.20473 -0.00146967 4.96836 -0.00146967 4.732Z" fill="#585858"/>
<path d="M18.514 46.9234C17.8197 46.8053 17.8197 46.8053 17.8197 46.0962C17.8197 31.3233 17.8197 16.5504 17.8197 1.89567C17.8197 1.18657 17.704 1.30475 18.3983 1.30475C21.0598 1.30475 23.7213 1.30475 26.3829 1.30475C26.6143 1.30475 26.8457 1.30475 26.8457 1.6593C26.73 1.89567 26.73 2.01385 26.73 2.25021C26.73 14.5413 26.73 26.9505 26.73 39.2415C26.73 41.6052 26.73 44.087 26.73 46.4507C26.73 46.8053 26.6143 47.0416 26.2671 46.9234C26.1514 46.9234 26.0357 46.9234 25.8043 46.9234H18.514Z" fill="#585858"/>
<path d="M170.682 24.114C170.682 16.7867 170.682 9.34112 170.682 2.01377C170.682 1.54103 170.797 1.42285 171.26 1.42285C176.352 1.42285 181.559 1.42285 186.651 1.42285C187.114 1.42285 187.229 1.54103 187.229 2.01377C187.229 4.25925 187.229 6.62291 187.229 8.86839C187.229 9.34112 187.114 9.4593 186.651 9.4593C184.452 9.4593 182.253 9.4593 180.17 9.4593C179.823 9.4593 179.708 9.57749 179.708 9.93204C179.708 13.0048 179.708 16.0776 179.708 19.1503C179.708 19.5049 179.823 19.6231 180.17 19.6231C182.253 19.6231 184.452 19.6231 186.535 19.6231C186.882 19.6231 186.998 19.7412 186.998 20.0958C186.998 22.4594 186.998 24.9413 186.998 27.305C186.998 27.6595 186.882 27.7777 186.535 27.7777C184.452 27.7777 182.253 27.7777 180.17 27.7777C179.823 27.7777 179.708 27.8959 179.708 28.2504C179.708 31.5595 179.708 34.8687 179.708 38.1778C179.708 38.6505 179.823 38.6505 180.286 38.6505C182.601 38.6505 184.799 38.6505 187.114 38.6505C187.461 38.6505 187.576 38.7687 187.576 39.1233C187.576 41.4869 187.576 43.9688 187.576 46.3324C187.576 46.687 187.461 46.8052 187.114 46.8052C181.906 46.8052 176.583 46.8052 171.376 46.8052C170.913 46.8052 170.913 46.687 170.913 46.2143C170.682 39.0051 170.682 31.5595 170.682 24.114Z" fill="#585858"/>
</g>
<defs>
<clipPath id="clip0_12659_24551">
<rect width="187.463" height="47.2733" fill="white" transform="translate(0 0.477539)"/>
</clipPath>
</defs>
</svg>
