<svg width="233" height="68" viewBox="0 0 233 68" fill="none" xmlns="http://www.w3.org/2000/svg">
<g clip-path="url(#clip0_12659_24577)">
<path d="M0 0.477539H58.25V67.4775H0V0.477539Z" fill="#E0E0E0"/>
<path d="M18.2031 14.0869H29.125V26.6494H18.2031V14.0869ZM18.2031 27.6963H29.125V40.2588H18.2031V27.6963ZM18.2031 41.3057H29.125V53.8682H18.2031V41.3057ZM30.0352 41.3057H40.957V53.8682H30.0352V41.3057Z" fill="#363636"/>
<path fill-rule="evenodd" clip-rule="evenodd" d="M94.6865 25.843C93.7745 28.3035 93.3203 31.0464 93.3203 34.0655C93.3203 37.141 93.7745 39.8965 94.6865 42.3444C95.5993 44.7922 96.8508 46.8698 98.4518 48.577C100.047 50.2843 101.906 51.5836 104.02 52.4749C106.135 53.3661 108.382 53.8117 110.803 53.8117C113.223 53.8117 115.491 53.3661 117.606 52.4749C119.72 51.5836 121.573 50.2843 123.174 48.577C124.775 46.8698 126.027 44.7922 126.929 42.3444C127.83 39.8965 128.284 37.0846 128.284 34.0655C128.284 31.0464 127.83 28.3035 126.918 25.843C126.005 23.3826 124.753 21.2737 123.153 19.5225C121.557 17.7713 119.698 16.4281 117.584 15.4929C115.469 14.5577 113.195 14.0869 110.803 14.0869C108.409 14.0869 106.157 14.5577 104.042 15.4929C101.928 16.4281 100.069 17.7713 98.4627 19.5225C96.8563 21.2737 95.5993 23.3826 94.6865 25.843ZM105.222 38.1327C104.638 36.9841 104.349 35.6095 104.349 34.0152C104.349 32.4209 104.638 31.0401 105.222 29.8726C105.808 28.7052 106.589 27.8014 107.567 27.1674C108.545 26.5335 109.628 26.2134 110.808 26.2134C111.988 26.2134 113.07 26.5335 114.048 27.1674C115.027 27.8077 115.808 28.7052 116.393 29.8726C116.977 31.0401 117.267 32.4209 117.267 34.0152C117.267 35.6095 116.977 36.9841 116.393 38.1327C115.808 39.2813 115.027 40.1601 114.048 40.7689C113.07 41.3777 111.988 41.6853 110.808 41.6853C109.628 41.6853 108.545 41.3777 107.567 40.7689C106.589 40.1601 105.808 39.2813 105.222 38.1327Z" fill="#585858"/>
<path d="M93.3611 41.4941H82.5875V14.1436H69.1719V53.8684H93.3611V41.4941Z" fill="#585858"/>
<path d="M155.977 52.3942V40.1812C153.946 41.21 151.882 41.7243 149.774 41.7243C147.387 41.7243 145.59 41.0845 144.388 39.8049C143.187 38.5253 142.586 36.5744 142.586 33.9525C142.586 31.3305 143.187 29.3797 144.388 28.1001C145.59 26.8205 147.382 26.1806 149.774 26.1806C151.876 26.1806 153.946 26.695 155.977 27.7237V15.5045C153.263 14.5574 150.658 14.0869 148.163 14.0869C143.7 14.0869 140.156 14.94 137.535 16.6462C134.914 18.3523 132.855 20.6983 131.353 23.6716C129.857 26.6511 129.086 30.0759 129.059 33.9525C129.086 37.8102 129.851 41.2288 131.353 44.2021C132.855 47.1816 134.914 49.5275 137.535 51.24C140.156 52.9524 143.695 53.8117 148.163 53.8117C150.653 53.8117 153.258 53.335 155.977 52.3942Z" fill="#585858"/>
<path fill-rule="evenodd" clip-rule="evenodd" d="M177.918 14.1436L170.854 30.344H170.849V14.1436H157.785V53.8684H170.849V37.7251L178.056 53.8684H204.288L205.257 47.9825H211.96L212.908 53.8684H227.389L217.163 14.1436H200.033L190.791 50.0412L182.782 34.0092L192.233 14.1436H177.918ZM208.615 27.3597L210.431 38.5652H206.797L208.615 27.3597Z" fill="#585858"/>
</g>
<defs>
<clipPath id="clip0_12659_24577">
<rect width="233" height="67" fill="white" transform="translate(0 0.477539)"/>
</clipPath>
</defs>
</svg>
