<svg width="239" height="79" viewBox="0 0 239 79" fill="none" xmlns="http://www.w3.org/2000/svg">
<path fill-rule="evenodd" clip-rule="evenodd" d="M60.9404 14.5262L51.4184 19.828L35.2311 10.7198L19.1799 19.6921L9.65796 14.3903L35.2311 0.116211L60.9404 14.5262ZM68.0138 60.3391L35.2311 78.6915L2.4485 60.3391L11.9704 55.0373L35.2311 67.952L58.3558 55.0373L68.0138 60.3391ZM70.4623 56.3968V19.6921L65.8373 17.1091L65.1572 17.517L56.3154 22.4109L52.7787 24.3141L52.6427 24.1782L35.0951 34.1021L14.2829 22.5469L4.76096 17.2451L0 19.828V56.3968L9.52193 51.095V30.7035L34.9591 44.8416H35.0951H35.2311L60.9404 30.5675V51.2309L70.4623 56.3968Z" fill="#585858"/>
<path d="M91.1367 29.072H96.3058L101.747 42.3944H102.019L107.46 29.072H112.629V48.7838H108.548V35.8691H108.412L103.243 48.7838H100.523L95.3536 36.0051H95.2175V48.9197H91.1367V29.072ZM116.03 48.9197V29.072H120.247V37.7724H120.519L127.592 29.072H132.625L125.28 37.9083L132.761 48.7838H127.728L122.287 40.6272L120.247 43.0741V48.6478H116.03V48.9197ZM134.802 48.9197V29.072H139.018V37.2286H147.452V29.072H151.669V48.7838H147.452V40.6272H139.018V48.7838H134.802V48.9197ZM162.143 48.9197H155.07V29.072H162.143C164.184 29.072 165.816 29.4798 167.312 30.2955C168.808 31.1111 169.897 32.1987 170.577 33.6941C171.393 35.1894 171.801 36.9567 171.801 38.9958C171.801 41.035 171.393 42.8023 170.577 44.2976C169.761 45.793 168.672 46.8806 167.176 47.6962C165.816 48.5119 164.184 48.9197 162.143 48.9197ZM159.287 45.3852H162.007C163.231 45.3852 164.32 45.1133 165.136 44.7055C165.952 44.2976 166.632 43.6179 167.04 42.6663C167.448 41.7147 167.72 40.4912 167.72 38.9958C167.72 37.5005 167.448 36.277 167.04 35.4613C166.632 34.5097 165.952 33.83 165.136 33.4222C164.32 33.0143 163.231 32.7424 162.007 32.7424H159.287V45.3852ZM193.157 38.9958C193.157 41.1709 192.749 42.9382 191.933 44.4336C191.117 45.929 190.029 47.1524 188.668 47.8322C187.308 48.6478 185.676 49.0557 183.908 49.0557C182.139 49.0557 180.507 48.6478 179.147 47.8322C177.786 47.0165 176.698 45.929 175.882 44.4336C175.066 42.9382 174.658 41.035 174.658 38.9958C174.658 36.8208 175.066 35.0535 175.882 33.5581C176.698 32.0627 177.786 30.8392 179.147 30.1595C180.507 29.3439 182.139 28.936 183.908 28.936C185.676 28.936 187.172 29.3439 188.668 30.1595C190.029 30.9752 191.117 32.0627 191.933 33.5581C192.749 35.0535 193.157 36.8208 193.157 38.9958ZM188.805 38.9958C188.805 37.6364 188.532 36.4129 188.124 35.4613C187.716 34.5097 187.172 33.83 186.356 33.2862C185.54 32.7424 184.724 32.6065 183.771 32.6065C182.819 32.6065 181.867 32.8784 181.187 33.2862C180.371 33.83 179.827 34.5097 179.419 35.4613C179.011 36.4129 178.738 37.6364 178.738 38.9958C178.738 40.3553 179.011 41.5788 179.419 42.5304C179.827 43.482 180.371 44.1617 181.187 44.7055C182.003 45.2492 182.819 45.3852 183.771 45.3852C184.724 45.3852 185.676 45.1133 186.356 44.7055C187.172 44.1617 187.716 43.482 188.124 42.5304C188.668 41.5788 188.805 40.3553 188.805 38.9958ZM214.378 38.9958C214.378 41.1709 213.97 42.9382 213.153 44.4336C212.337 45.929 211.249 47.1524 209.889 47.8322C208.528 48.6478 206.896 49.0557 205.128 49.0557C203.359 49.0557 201.727 48.6478 200.367 47.8322C199.007 47.0165 197.918 45.929 197.102 44.4336C196.286 42.9382 195.878 41.035 195.878 38.9958C195.878 36.8208 196.286 35.0535 197.102 33.5581C197.918 32.0627 199.007 30.8392 200.367 30.1595C201.727 29.3439 203.359 28.936 205.128 28.936C206.896 28.936 208.392 29.3439 209.889 30.1595C211.249 30.9752 212.337 32.0627 213.153 33.5581C213.97 35.0535 214.378 36.8208 214.378 38.9958ZM210.161 38.9958C210.161 37.6364 209.889 36.4129 209.481 35.4613C209.073 34.5097 208.529 33.83 207.712 33.2862C206.896 32.7424 206.08 32.6065 205.128 32.6065C204.176 32.6065 203.223 32.8784 202.543 33.2862C201.727 33.83 201.183 34.5097 200.775 35.4613C200.367 36.4129 200.095 37.6364 200.095 38.9958C200.095 40.3553 200.367 41.5788 200.775 42.5304C201.183 43.482 201.727 44.1617 202.543 44.7055C203.359 45.2492 204.176 45.3852 205.128 45.3852C206.08 45.3852 207.032 45.1133 207.712 44.7055C208.529 44.1617 209.073 43.482 209.481 42.5304C209.889 41.5788 210.161 40.3553 210.161 38.9958ZM217.506 29.072H222.675L228.116 42.3944H228.389L233.83 29.072H238.999V48.7838H234.918V35.8691H234.782L229.613 48.6478H226.892L221.723 35.8691H221.587V48.7838H217.506V29.072Z" fill="#585858"/>
</svg>
