<svg width="252" height="49" viewBox="0 0 252 49" fill="none" xmlns="http://www.w3.org/2000/svg">
<g clip-path="url(#clip0_12659_24586)">
<path fill-rule="evenodd" clip-rule="evenodd" d="M0 39.5884H1.8522V7.58838H0V39.5884ZM12.9708 39.5884H14.823V20.0328H12.9708V39.5884ZM22.2354 39.5884H24.0876V20.0328H22.2354V39.5884ZM22.2354 12.9217H24.0876V7.58838H22.2354V12.9217ZM44.4708 39.5884H46.323V32.4773H44.4708V39.5884ZM44.4708 25.3662H46.323V20.0328H44.4708V25.3662ZM57.4416 39.5884H59.2956V32.4773H57.4416V39.5884Z" fill="#363636"/>
<path fill-rule="evenodd" clip-rule="evenodd" d="M0 48.4773H59.2938V39.5884H0V48.4773Z" fill="#363636"/>
<path fill-rule="evenodd" clip-rule="evenodd" d="M44.4707 32.4778H59.2937V25.3667H44.4707V32.4778Z" fill="#363636"/>
<path fill-rule="evenodd" clip-rule="evenodd" d="M0 7.58865H24.0876V0.477539H0V7.58865Z" fill="#363636"/>
<path fill-rule="evenodd" clip-rule="evenodd" d="M12.9707 20.0335H46.3229V12.9224H12.9707V20.0335Z" fill="#363636"/>
<path d="M94.3655 35.2698C94.3655 36.9961 94.2264 38.6124 93.9481 40.1188C93.6697 41.6142 93.23 42.9336 92.6288 44.0771C92.0388 45.2097 91.2595 46.0948 90.2909 46.7325C89.3224 47.3702 88.1479 47.6891 86.7674 47.6891C85.3647 47.6891 84.1734 47.3647 83.1938 46.716C82.2141 46.0563 81.4236 45.1547 80.8225 44.0112C80.2324 42.8676 79.7982 41.5427 79.5199 40.0363C79.2527 38.53 79.1191 36.9301 79.1191 35.2369C79.1191 32.488 79.403 30.201 79.9708 28.3758C80.5497 26.5505 81.4069 25.1816 82.5425 24.269C83.678 23.3564 85.0863 22.9001 86.7674 22.9001C88.5932 22.9001 90.0627 23.4498 91.176 24.5494C92.2893 25.6379 93.0964 27.1168 93.5974 28.986C94.1095 30.8552 94.3655 32.9498 94.3655 35.2698ZM81.8745 35.2698C81.8745 37.4579 82.0582 39.2997 82.4256 40.795C82.8041 42.2794 83.3552 43.4009 84.0788 44.1596C84.8024 44.9183 85.6875 45.2976 86.734 45.2976C87.8027 45.2976 88.6934 44.9293 89.4059 44.1926C90.1184 43.4449 90.6527 42.3289 91.009 40.8445C91.3764 39.3491 91.5601 37.4909 91.5601 35.2698C91.5601 31.9602 91.1593 29.4698 90.3577 27.7985C89.5562 26.1272 88.3594 25.2916 86.7674 25.2916C85.6764 25.2916 84.769 25.6709 84.0454 26.4296C83.3218 27.1773 82.7763 28.2933 82.4089 29.7777C82.0526 31.251 81.8745 33.0818 81.8745 35.2698Z" fill="#585858"/>
<path d="M104.068 31.394H101.179V47.3593H98.6238V31.394H96.3694V30.0251L98.6238 29.1674V27.9469C98.6238 26.5725 98.7407 25.407 98.9745 24.4504C99.2194 23.4938 99.6369 22.7681 100.227 22.2733C100.828 21.7675 101.652 21.5146 102.698 21.5146C103.188 21.5146 103.639 21.5586 104.051 21.6466C104.474 21.7346 104.908 21.8665 105.354 22.0424L104.686 24.0876C104.374 23.9776 104.079 23.8951 103.801 23.8402C103.533 23.7742 103.266 23.7412 102.999 23.7412C102.309 23.7412 101.836 24.0436 101.58 24.6483C101.335 25.2421 101.201 26.3196 101.179 27.881V29.2499H104.068V31.394ZM112.534 31.394H109.645V47.3593H107.09V31.394H104.836V30.0251L107.09 29.1674V27.9469C107.09 26.5725 107.207 25.407 107.441 24.4504C107.686 23.4938 108.103 22.7681 108.693 22.2733C109.295 21.7675 110.118 21.5146 111.165 21.5146C111.655 21.5146 112.106 21.5586 112.518 21.6466C112.941 21.7346 113.375 21.8665 113.82 22.0424L113.152 24.0876C112.84 23.9776 112.545 23.8951 112.267 23.8402C112 23.7742 111.733 23.7412 111.466 23.7412C110.775 23.7412 110.302 24.0436 110.046 24.6483C109.801 25.2421 109.668 26.3196 109.645 27.881V29.2499H112.534V31.394ZM117.811 29.2499V47.3593H115.256V29.2499H117.811ZM116.576 22.4548C117.099 22.4548 117.477 22.6197 117.711 22.9495C117.956 23.2794 118.078 23.7357 118.078 24.3185C118.078 24.8902 117.95 25.341 117.694 25.6709C117.438 26.0008 117.065 26.1657 116.576 26.1657C116.097 26.1657 115.718 26.0008 115.44 25.6709C115.162 25.341 115.022 24.8902 115.022 24.3185C115.022 23.7137 115.156 23.2519 115.423 22.9331C115.69 22.6142 116.075 22.4548 116.576 22.4548Z" fill="#585858"/>
<path d="M127.614 47.6891C126.267 47.6891 125.142 47.3428 124.24 46.6501C123.35 45.9573 122.682 44.9238 122.237 43.5494C121.791 42.1749 121.569 40.4707 121.569 38.4365C121.569 36.4464 121.791 34.7421 122.237 33.3237C122.693 31.9053 123.378 30.8167 124.291 30.058C125.203 29.2994 126.345 28.92 127.714 28.92C128.404 28.92 129.022 28.9915 129.568 29.1344C130.124 29.2774 130.642 29.4808 131.121 29.7447L130.302 31.8393C129.89 31.6194 129.478 31.4545 129.067 31.3445C128.666 31.2346 128.271 31.1796 127.881 31.1796C127.079 31.1796 126.406 31.4545 125.86 32.0042C125.315 32.543 124.897 33.3457 124.608 34.4122C124.33 35.4788 124.19 36.8092 124.19 38.4035C124.19 39.9539 124.324 41.2513 124.591 42.2959C124.869 43.3404 125.281 44.1321 125.827 44.6709C126.384 45.1987 127.074 45.4626 127.898 45.4626C128.387 45.4626 128.883 45.3966 129.384 45.2646C129.896 45.1217 130.408 44.9183 130.92 44.6544V46.7985C130.453 47.0844 129.907 47.3043 129.284 47.4582C128.671 47.6121 128.115 47.6891 127.614 47.6891Z" fill="#585858"/>
<path d="M139.119 28.953C140.366 28.953 141.391 29.3104 142.192 30.0251C143.005 30.7398 143.606 31.7019 143.996 32.9113C144.396 34.1208 144.597 35.4678 144.597 36.9521V38.7499H135.863C135.885 41.0039 136.236 42.6972 136.915 43.8297C137.605 44.9623 138.641 45.5285 140.021 45.5285C140.678 45.5285 141.324 45.4296 141.958 45.2316C142.593 45.0337 143.25 44.7149 143.929 44.2751V46.5511C143.294 46.9359 142.632 47.2218 141.942 47.4087C141.251 47.5957 140.517 47.6891 139.737 47.6891C138.212 47.6891 136.976 47.2878 136.03 46.4851C135.084 45.6715 134.394 44.5664 133.959 43.17C133.536 41.7626 133.325 40.1738 133.325 38.4035C133.325 36.3804 133.542 34.6651 133.976 33.2577C134.41 31.8503 135.056 30.7837 135.913 30.058C136.782 29.3214 137.85 28.953 139.119 28.953ZM139.119 31.0311C138.151 31.0311 137.394 31.4984 136.848 32.433C136.303 33.3567 135.986 34.7861 135.897 36.7212H142.192C142.192 35.6987 142.081 34.7586 141.858 33.9009C141.647 33.0323 141.313 32.3396 140.856 31.8228C140.411 31.295 139.832 31.0311 139.119 31.0311Z" fill="#585858"/>
<path d="M160.077 47.3593H157.422V25.6214H152.663V23.2464H164.853V25.6214H160.077V47.3593Z" fill="#585858"/>
<path d="M170.03 29.2499V47.3593H167.475V29.2499H170.03ZM168.794 22.4548C169.317 22.4548 169.696 22.6197 169.93 22.9495C170.174 23.2794 170.297 23.7357 170.297 24.3185C170.297 24.8902 170.169 25.341 169.913 25.6709C169.657 26.0008 169.284 26.1657 168.794 26.1657C168.315 26.1657 167.937 26.0008 167.658 25.6709C167.38 25.341 167.241 24.8902 167.241 24.3185C167.241 23.7137 167.375 23.2519 167.642 22.9331C167.909 22.6142 168.293 22.4548 168.794 22.4548Z" fill="#585858"/>
<path d="M188.917 28.92C190.353 28.92 191.416 29.4368 192.106 30.4704C192.807 31.4929 193.158 33.0543 193.158 35.1544V47.3593H190.586V35.5997C190.586 34.0164 190.381 32.8839 189.969 32.2021C189.568 31.5094 188.983 31.1631 188.215 31.1631C187.102 31.1631 186.306 31.6799 185.827 32.7134C185.348 33.747 185.109 35.2424 185.109 37.1995V47.3593H182.571V35.5667C182.571 34.4892 182.482 33.6315 182.304 32.9938C182.126 32.3451 181.858 31.8778 181.502 31.5919C181.157 31.306 180.717 31.1631 180.183 31.1631C179.359 31.1631 178.724 31.4435 178.279 32.0042C177.834 32.565 177.522 33.3347 177.344 34.3133C177.177 35.2918 177.093 36.4079 177.093 37.6613V47.3593H174.522V29.2499H176.576L176.876 31.8228H177.027C177.26 31.2071 177.561 30.6848 177.928 30.256C178.296 29.8271 178.73 29.4973 179.231 29.2664C179.743 29.0355 180.316 28.92 180.951 28.92C182.009 28.92 182.838 29.2059 183.439 29.7777C184.052 30.3384 184.458 31.0476 184.658 31.9053H184.842C185.265 30.8937 185.794 30.146 186.428 29.6622C187.063 29.1674 187.892 28.92 188.917 28.92Z" fill="#585858"/>
<path d="M202.61 28.953C203.857 28.953 204.881 29.3104 205.683 30.0251C206.495 30.7398 207.096 31.7019 207.486 32.9113C207.887 34.1208 208.087 35.4678 208.087 36.9521V38.7499H199.354C199.376 41.0039 199.727 42.6972 200.406 43.8297C201.096 44.9623 202.131 45.5285 203.512 45.5285C204.169 45.5285 204.814 45.4296 205.449 45.2316C206.083 45.0337 206.74 44.7149 207.419 44.2751V46.5511C206.785 46.9359 206.122 47.2218 205.432 47.4087C204.742 47.5957 204.007 47.6891 203.228 47.6891C201.703 47.6891 200.467 47.2878 199.521 46.4851C198.574 45.6715 197.884 44.5664 197.45 43.17C197.027 41.7626 196.815 40.1738 196.815 38.4035C196.815 36.3804 197.032 34.6651 197.467 33.2577C197.901 31.8503 198.546 30.7837 199.404 30.058C200.272 29.3214 201.341 28.953 202.61 28.953ZM202.61 31.0311C201.641 31.0311 200.884 31.4984 200.339 32.433C199.793 33.3567 199.476 34.7861 199.387 36.7212H205.683C205.683 35.6987 205.571 34.7586 205.349 33.9009C205.137 33.0323 204.803 32.3396 204.347 31.8228C203.901 31.295 203.322 31.0311 202.61 31.0311Z" fill="#585858"/>
<path d="M214.299 47.3593H211.728V21.6961H214.299V47.3593Z" fill="#585858"/>
<path d="M221.33 29.2499V47.3593H218.775V29.2499H221.33ZM220.094 22.4548C220.617 22.4548 220.996 22.6197 221.23 22.9495C221.474 23.2794 221.597 23.7357 221.597 24.3185C221.597 24.8902 221.469 25.341 221.213 25.6709C220.957 26.0008 220.584 26.1657 220.094 26.1657C219.615 26.1657 219.237 26.0008 218.958 25.6709C218.68 25.341 218.541 24.8902 218.541 24.3185C218.541 23.7137 218.675 23.2519 218.942 22.9331C219.209 22.6142 219.593 22.4548 220.094 22.4548Z" fill="#585858"/>
<path d="M232.418 28.92C233.865 28.92 234.962 29.4203 235.708 30.4209C236.454 31.4215 236.827 32.9553 236.827 35.0225V47.3593H234.255V35.5337C234.255 34.0714 234.06 32.9773 233.67 32.2516C233.292 31.5259 232.691 31.1631 231.867 31.1631C230.665 31.1631 229.785 31.6909 229.228 32.7464C228.672 33.802 228.394 35.4953 228.394 37.8263V47.3593H225.822V29.2499H227.876L228.16 31.8723H228.327C228.583 31.2675 228.911 30.7453 229.312 30.3054C229.713 29.8656 230.175 29.5248 230.698 29.2829C231.221 29.041 231.795 28.92 232.418 28.92Z" fill="#585858"/>
<path d="M246.295 28.953C247.542 28.953 248.566 29.3104 249.368 30.0251C250.18 30.7398 250.782 31.7019 251.171 32.9113C251.572 34.1208 251.772 35.4678 251.772 36.9521V38.7499H243.039C243.061 41.0039 243.412 42.6972 244.091 43.8297C244.781 44.9623 245.816 45.5285 247.197 45.5285C247.854 45.5285 248.499 45.4296 249.134 45.2316C249.769 45.0337 250.425 44.7149 251.104 44.2751V46.5511C250.47 46.9359 249.807 47.2218 249.117 47.4087C248.427 47.5957 247.692 47.6891 246.913 47.6891C245.388 47.6891 244.152 47.2878 243.206 46.4851C242.259 45.6715 241.569 44.5664 241.135 43.17C240.712 41.7626 240.5 40.1738 240.5 38.4035C240.5 36.3804 240.718 34.6651 241.152 33.2577C241.586 31.8503 242.232 30.7837 243.089 30.058C243.957 29.3214 245.026 28.953 246.295 28.953ZM246.295 31.0311C245.327 31.0311 244.569 31.4984 244.024 32.433C243.478 33.3567 243.161 34.7861 243.072 36.7212H249.368C249.368 35.6987 249.256 34.7586 249.034 33.9009C248.822 33.0323 248.488 32.3396 248.032 31.8228C247.586 31.295 247.008 31.0311 246.295 31.0311Z" fill="#585858"/>
</g>
<defs>
<clipPath id="clip0_12659_24586">
<rect width="252" height="48" fill="white" transform="translate(0 0.477539)"/>
</clipPath>
</defs>
</svg>
