<svg width="159" height="60" viewBox="0 0 159 60" fill="none" xmlns="http://www.w3.org/2000/svg">
<g clip-path="url(#clip0_12659_24624)">
<path d="M0.0781267 22.6164C0.438586 22.9255 0.81192 23.2281 1.18525 23.5244C1.18525 23.5244 1.19169 23.5244 1.19813 23.5308C1.55215 23.8077 1.91261 24.0782 2.27951 24.3422C2.44686 24.4581 2.61422 24.5741 2.78157 24.69C2.98755 24.8316 3.19353 24.9798 3.40594 25.115C3.65054 25.276 3.89514 25.4241 4.13974 25.5787C4.28134 25.6624 4.41652 25.7525 4.55813 25.8362C4.84134 26.0101 5.131 26.1711 5.42709 26.3321C5.53008 26.3901 5.63951 26.4545 5.74249 26.5124C6.05146 26.6799 6.36686 26.8408 6.68226 26.9954C6.77882 27.0405 6.86893 27.092 6.96548 27.1371C7.28088 27.2916 7.60272 27.4397 7.92456 27.5814C8.02111 27.6265 8.1241 27.6716 8.22065 27.7167C8.52962 27.8519 8.84502 27.9807 9.16042 28.103C9.23767 28.1352 9.31491 28.1674 9.39859 28.1996L10.1967 28.5087L10.1967 28.4959C13.6276 29.7194 17.2772 30.3634 21.0105 30.3634C24.7439 30.3634 28.3742 29.7194 31.7986 28.5023C32.2556 32.0764 32.0754 35.7341 31.2386 39.3275C28.2069 41.0276 24.7181 42 21.0041 42C9.97146 42 0.902034 33.4416 0.0781267 22.6164Z" fill="#E0E0E0"/>
<path d="M39.1803 10.4903C41.9803 15.3458 42.727 21.0064 41.2787 26.4222C39.9656 31.3164 37.0047 35.4894 32.8594 38.3164C34.2883 30.7626 32.9752 23.0091 29.1067 16.3054C27.2465 13.0791 24.8713 10.2456 22.1035 7.88862C24.9743 5.70555 28.2313 4.03122 31.7651 2.95578C34.8097 4.76535 37.3587 7.33481 39.1803 10.4838L39.1803 10.4903Z" fill="#363636"/>
<path d="M30.0662 2.06078C22.812 4.59804 16.7549 9.61459 12.8864 16.3119C11.0326 19.5254 9.75816 22.9771 9.10161 26.5962C5.73517 25.1859 2.68414 23.2024 5.1569e-07 20.6974L0.0064373 20.6974C0.0514951 17.1104 1.02345 13.6008 2.81931 10.4968C8.33563 0.940261 20.2823 -2.64024 30.0662 2.06078Z" fill="#585858"/>
</g>
<path d="M148.639 42.4801L139.579 28.3801L131.359 42.4801H121.879L135.079 21.3601L124 5.97998L126 0.600098H131.359L140.419 14.6401L148.579 0.600098H158.059L144.919 21.6601L158.299 42.4801H148.639Z" fill="#585858"/>
<path d="M123.922 0.600098L108.562 42.4801H98.362L83.002 0.600098H92.002L103.522 33.9001L114.982 0.600098H123.922Z" fill="#585858"/>
<path d="M69.6005 42.9C66.6805 42.9 64.0405 42.4 61.6805 41.4C59.3605 40.4 57.5205 38.96 56.1605 37.08C54.8005 35.2 54.1005 32.98 54.0605 30.42H63.0605C63.1805 32.14 63.7805 33.5 64.8605 34.5C65.9805 35.5 67.5005 36 69.4205 36C71.3805 36 72.9205 35.54 74.0405 34.62C75.1605 33.66 75.7205 32.42 75.7205 30.9C75.7205 29.66 75.3405 28.64 74.5805 27.84C73.8205 27.04 72.8605 26.42 71.7005 25.98C70.5805 25.5 69.0205 24.98 67.0205 24.42C64.3005 23.62 62.0805 22.84 60.3605 22.08C58.6805 21.28 57.2205 20.1 55.9805 18.54C54.7805 16.94 54.1805 14.82 54.1805 12.18C54.1805 9.7 54.8005 7.54 56.0405 5.7C57.2805 3.86 59.0205 2.46 61.2605 1.5C63.5005 0.499999 66.0605 0 68.9405 0C73.2605 0 76.7605 1.06 79.4405 3.18C82.1606 5.26 83.6606 8.18 83.9405 11.94H74.7005C74.6205 10.5 74.0005 9.32 72.8405 8.4C71.7206 7.44 70.2205 6.96 68.3405 6.96C66.7005 6.96 65.3805 7.38 64.3805 8.22C63.4205 9.06 62.9405 10.28 62.9405 11.88C62.9405 13 63.3005 13.94 64.0205 14.7C64.7805 15.42 65.7005 16.02 66.7805 16.5C67.9005 16.94 69.4605 17.46 71.4605 18.06C74.1805 18.86 76.4005 19.66 78.1205 20.46C79.8405 21.26 81.3205 22.46 82.5605 24.06C83.8005 25.66 84.4205 27.76 84.4205 30.36C84.4205 32.6 83.8405 34.68 82.6805 36.6C81.5205 38.52 79.8205 40.06 77.5805 41.22C75.3405 42.34 72.6805 42.9 69.6005 42.9Z" fill="#585858"/>
<path d="M156.18 53.9909V56.5354C156.18 56.7455 156.225 56.8952 156.314 56.9845C156.404 57.0685 156.559 57.1105 156.779 57.1105H157.307V57.7171H156.661C156.262 57.7171 155.963 57.6252 155.763 57.4414C155.563 57.2576 155.464 56.9556 155.464 56.5354V53.9909H154.904V53.4001H155.464V52.313H156.18V53.4001H157.307V53.9909H156.18Z" fill="#7E7E7E"/>
<path d="M150.174 55.5511C150.174 55.1047 150.263 54.7161 150.442 54.3852C150.62 54.0491 150.867 53.7891 151.182 53.6053C151.503 53.4215 151.868 53.3296 152.277 53.3296C152.808 53.3296 153.244 53.4583 153.585 53.7156C153.931 53.9729 154.16 54.3301 154.27 54.787H153.498C153.425 54.5244 153.28 54.3169 153.065 54.1646C152.855 54.0123 152.592 53.9362 152.277 53.9362C151.868 53.9362 151.537 54.078 151.285 54.3616C151.033 54.6399 150.906 55.0364 150.906 55.5511C150.906 56.071 151.033 56.4728 151.285 56.7564C151.537 57.04 151.868 57.1818 152.277 57.1818C152.592 57.1818 152.855 57.1083 153.065 56.9612C153.275 56.8142 153.419 56.6041 153.498 56.331H154.27C154.155 56.7721 153.924 57.1266 153.577 57.3945C153.23 57.6571 152.797 57.7884 152.277 57.7884C151.868 57.7884 151.503 57.6965 151.182 57.5126C150.867 57.3288 150.62 57.0689 150.442 56.7328C150.263 56.3966 150.174 56.0028 150.174 55.5511Z" fill="#7E7E7E"/>
<path d="M144.771 55.5432C144.771 55.1021 144.861 54.7161 145.039 54.3852C145.218 54.0491 145.462 53.7891 145.772 53.6053C146.087 53.4215 146.436 53.3296 146.82 53.3296C147.198 53.3296 147.526 53.411 147.804 53.5738C148.083 53.7366 148.29 53.9414 148.427 54.1883V53.4005H149.151V57.7175H148.427V56.9139C148.285 57.166 148.072 57.3761 147.789 57.5442C147.51 57.707 147.185 57.7884 146.812 57.7884C146.428 57.7884 146.082 57.6938 145.772 57.5048C145.462 57.3157 145.218 57.0505 145.039 56.7091C144.861 56.3678 144.771 55.9791 144.771 55.5432ZM148.427 55.5511C148.427 55.2255 148.361 54.9419 148.23 54.7003C148.098 54.4587 147.92 54.2749 147.694 54.1489C147.474 54.0176 147.229 53.9519 146.961 53.9519C146.694 53.9519 146.449 54.0149 146.229 54.141C146.008 54.267 145.832 54.4508 145.701 54.6924C145.57 54.934 145.504 55.2176 145.504 55.5432C145.504 55.8741 145.57 56.1629 145.701 56.4098C145.832 56.6513 146.008 56.8378 146.229 56.9691C146.449 57.0951 146.694 57.1581 146.961 57.1581C147.229 57.1581 147.474 57.0951 147.694 56.9691C147.92 56.8378 148.098 56.6513 148.23 56.4098C148.361 56.1629 148.427 55.8767 148.427 55.5511Z" fill="#7E7E7E"/>
<path d="M140.354 54.1961C140.495 53.9493 140.705 53.7445 140.984 53.5817C141.267 53.4136 141.596 53.3296 141.969 53.3296C142.352 53.3296 142.699 53.4215 143.008 53.6053C143.323 53.7891 143.57 54.0491 143.749 54.3852C143.927 54.7161 144.017 55.1021 144.017 55.5432C144.017 55.9791 143.927 56.3678 143.749 56.7091C143.57 57.0505 143.323 57.3157 143.008 57.5048C142.699 57.6938 142.352 57.7884 141.969 57.7884C141.601 57.7884 141.275 57.707 140.992 57.5442C140.713 57.3761 140.501 57.1686 140.354 56.9218V59.7657H139.637V53.4005H140.354V54.1961ZM143.284 55.5432C143.284 55.2176 143.218 54.934 143.087 54.6924C142.956 54.4508 142.777 54.267 142.551 54.141C142.331 54.0149 142.087 53.9519 141.819 53.9519C141.556 53.9519 141.312 54.0176 141.086 54.1489C140.866 54.2749 140.687 54.4614 140.551 54.7082C140.419 54.9498 140.354 55.2307 140.354 55.5511C140.354 55.8767 140.419 56.1629 140.551 56.4098C140.687 56.6513 140.866 56.8378 141.086 56.9691C141.312 57.0951 141.556 57.1581 141.819 57.1581C142.087 57.1581 142.331 57.0951 142.551 56.9691C142.777 56.8378 142.956 56.6513 143.087 56.4098C143.218 56.1629 143.284 55.8741 143.284 55.5432Z" fill="#7E7E7E"/>
<path d="M136.633 53.3218C136.969 53.3218 137.268 53.3927 137.531 53.5345C137.793 53.671 138.001 53.8785 138.153 54.1568C138.306 54.4352 138.382 54.7739 138.382 55.173V57.7175H137.673V55.2754C137.673 54.8448 137.565 54.5166 137.35 54.2907C137.14 54.0597 136.853 53.9441 136.491 53.9441C136.118 53.9441 135.821 54.0649 135.601 54.3065C135.38 54.5428 135.27 54.8868 135.27 55.3385V57.7175H134.561V55.2754C134.561 54.8448 134.453 54.5166 134.238 54.2907C134.028 54.0597 133.742 53.9441 133.379 53.9441C133.006 53.9441 132.71 54.0649 132.489 54.3065C132.269 54.5428 132.158 54.8868 132.158 55.3385V57.7175H131.441V53.4006H132.158V54.0229C132.3 53.7971 132.489 53.6238 132.725 53.503C132.967 53.3822 133.232 53.3218 133.521 53.3218C133.883 53.3218 134.204 53.4032 134.482 53.566C134.761 53.7288 134.968 53.9677 135.105 54.2829C135.225 53.9783 135.425 53.7419 135.703 53.5739C135.982 53.4058 136.291 53.3218 136.633 53.3218Z" fill="#7E7E7E"/>
<path d="M129.795 52.699C129.659 52.699 129.543 52.6517 129.448 52.5572C129.354 52.4627 129.307 52.3471 129.307 52.2106C129.307 52.074 129.354 51.9585 129.448 51.864C129.543 51.7694 129.659 51.7222 129.795 51.7222C129.926 51.7222 130.037 51.7694 130.126 51.864C130.22 51.9585 130.268 52.074 130.268 52.2106C130.268 52.3471 130.22 52.4627 130.126 52.5572C130.037 52.6517 129.926 52.699 129.795 52.699ZM130.142 53.4001V57.7171H129.425V53.4001H130.142Z" fill="#7E7E7E"/>
<path d="M127.734 52.2266H128.53L127.774 54.0148H127.27L127.734 52.2266Z" fill="#7E7E7E"/>
<path d="M126.322 52.2266V57.7173H125.605V52.2266H126.322Z" fill="#7E7E7E"/>
<path d="M121.125 54.1017C121.251 53.8548 121.43 53.6631 121.661 53.5266C121.897 53.3901 122.183 53.3218 122.519 53.3218V54.0623H122.33C121.527 54.0623 121.125 54.4982 121.125 55.37V57.7175H120.408V53.4006H121.125V54.1017Z" fill="#7E7E7E"/>
<path d="M119.12 53.4004V57.7174H118.403V57.0793C118.266 57.2998 118.075 57.4732 117.828 57.5992C117.586 57.72 117.319 57.7804 117.024 57.7804C116.688 57.7804 116.386 57.7121 116.119 57.5756C115.851 57.4338 115.638 57.2237 115.48 56.9454C115.328 56.667 115.252 56.3283 115.252 55.9291V53.4004H115.961V55.8346C115.961 56.26 116.069 56.5882 116.284 56.8193C116.499 57.0451 116.793 57.158 117.166 57.158C117.55 57.158 117.852 57.0399 118.072 56.8036C118.293 56.5672 118.403 56.2232 118.403 55.7716V53.4004H119.12Z" fill="#7E7E7E"/>
<path d="M112.057 57.7884C111.652 57.7884 111.285 57.6965 110.954 57.5126C110.628 57.3288 110.371 57.0689 110.182 56.7328C109.998 56.3914 109.906 55.9975 109.906 55.5511C109.906 55.1099 110.001 54.7213 110.19 54.3852C110.384 54.0438 110.647 53.7839 110.978 53.6053C111.308 53.4215 111.679 53.3296 112.088 53.3296C112.498 53.3296 112.868 53.4215 113.199 53.6053C113.53 53.7839 113.79 54.0412 113.979 54.3773C114.173 54.7134 114.27 55.1047 114.27 55.5511C114.27 55.9975 114.171 56.3914 113.971 56.7328C113.777 57.0689 113.512 57.3288 113.175 57.5126C112.839 57.6965 112.466 57.7884 112.057 57.7884ZM112.057 57.1581C112.314 57.1581 112.556 57.0978 112.782 56.977C113.007 56.8562 113.189 56.675 113.325 56.4334C113.467 56.1918 113.538 55.8977 113.538 55.5511C113.538 55.2045 113.47 54.9104 113.333 54.6688C113.196 54.4272 113.018 54.2487 112.797 54.1331C112.577 54.0123 112.338 53.9519 112.08 53.9519C111.818 53.9519 111.576 54.0123 111.356 54.1331C111.14 54.2487 110.967 54.4272 110.836 54.6688C110.705 54.9104 110.639 55.2045 110.639 55.5511C110.639 55.903 110.702 56.1997 110.828 56.4413C110.959 56.6829 111.133 56.864 111.348 56.9848C111.563 57.1004 111.8 57.1581 112.057 57.1581Z" fill="#7E7E7E"/>
<path d="M105.488 54.1961C105.63 53.9493 105.84 53.7445 106.119 53.5817C106.402 53.4136 106.73 53.3296 107.103 53.3296C107.487 53.3296 107.833 53.4215 108.143 53.6053C108.458 53.7891 108.705 54.0491 108.884 54.3852C109.062 54.7161 109.151 55.1021 109.151 55.5432C109.151 55.9791 109.062 56.3678 108.884 56.7091C108.705 57.0505 108.458 57.3157 108.143 57.5048C107.833 57.6938 107.487 57.7884 107.103 57.7884C106.736 57.7884 106.41 57.707 106.126 57.5442C105.848 57.3761 105.635 57.1686 105.488 56.9218V59.7657H104.771V53.4005H105.488V54.1961ZM108.419 55.5432C108.419 55.2176 108.353 54.934 108.222 54.6924C108.091 54.4508 107.912 54.267 107.686 54.141C107.466 54.0149 107.221 53.9519 106.954 53.9519C106.691 53.9519 106.447 54.0176 106.221 54.1489C106 54.2749 105.822 54.4614 105.685 54.7082C105.554 54.9498 105.488 55.2307 105.488 55.5511C105.488 55.8767 105.554 56.1629 105.685 56.4098C105.822 56.6513 106 56.8378 106.221 56.9691C106.447 57.0951 106.691 57.1581 106.954 57.1581C107.221 57.1581 107.466 57.0951 107.686 56.9691C107.912 56.8378 108.091 56.6513 108.222 56.4098C108.353 56.1629 108.419 55.8741 108.419 55.5432Z" fill="#7E7E7E"/>
<path d="M100.291 54.1017C100.417 53.8548 100.596 53.6631 100.827 53.5266C101.063 53.3901 101.349 53.3218 101.685 53.3218V54.0623H101.496C100.693 54.0623 100.291 54.4982 100.291 55.37V57.7175H99.5742V53.4006H100.291V54.1017Z" fill="#7E7E7E"/>
<path d="M97.9279 52.699C97.7913 52.699 97.6758 52.6517 97.5813 52.5572C97.4867 52.4627 97.4395 52.3471 97.4395 52.2106C97.4395 52.074 97.4867 51.9585 97.5813 51.864C97.6758 51.7694 97.7913 51.7222 97.9279 51.7222C98.0592 51.7222 98.1695 51.7694 98.2587 51.864C98.3533 51.9585 98.4005 52.074 98.4005 52.2106C98.4005 52.3471 98.3533 52.4627 98.2587 52.5572C98.1695 52.6517 98.0592 52.699 97.9279 52.699ZM98.2745 53.4001V57.7171H97.5576V53.4001H98.2745Z" fill="#7E7E7E"/>
<path d="M95.4832 53.9909V56.5354C95.4832 56.7455 95.5279 56.8952 95.6171 56.9845C95.7064 57.0685 95.8613 57.1105 96.0819 57.1105H96.6097V57.7171H95.9638C95.5646 57.7171 95.2653 57.6252 95.0657 57.4414C94.8661 57.2576 94.7663 56.9556 94.7663 56.5354V53.9909H94.207V53.4001H94.7663V52.313H95.4832V53.4001H96.6097V53.9909H95.4832Z" fill="#7E7E7E"/>
<path d="M91.9423 57.7884C91.6115 57.7884 91.3147 57.7332 91.0522 57.6229C90.7896 57.5074 90.5821 57.3498 90.4298 57.1503C90.2775 56.9454 90.1935 56.7117 90.1777 56.4492H90.9182C90.9392 56.6645 91.039 56.8404 91.2176 56.977C91.4014 57.1135 91.6404 57.1818 91.9345 57.1818C92.2076 57.1818 92.4229 57.1214 92.5804 57.0006C92.738 56.8798 92.8168 56.7275 92.8168 56.5437C92.8168 56.3546 92.7327 56.2155 92.5647 56.1262C92.3966 56.0316 92.1367 55.9397 91.7848 55.8505C91.4644 55.7664 91.2018 55.6824 90.997 55.5984C90.7974 55.5091 90.6241 55.3804 90.4771 55.2124C90.3353 55.039 90.2644 54.8132 90.2644 54.5349C90.2644 54.3143 90.33 54.1121 90.4613 53.9283C90.5926 53.7445 90.7791 53.6001 91.0207 53.495C91.2622 53.3847 91.538 53.3296 91.8478 53.3296C92.3257 53.3296 92.7117 53.4504 93.0058 53.692C93.2999 53.9335 93.4575 54.2644 93.4785 54.6846H92.7616C92.7459 54.4587 92.654 54.2775 92.4859 54.141C92.3231 54.0044 92.1025 53.9362 91.8242 53.9362C91.5668 53.9362 91.362 53.9913 91.2097 54.1016C91.0574 54.2119 90.9813 54.3563 90.9813 54.5349C90.9813 54.6767 91.0259 54.7948 91.1152 54.8894C91.2097 54.9787 91.3253 55.0522 91.4618 55.1099C91.6036 55.1625 91.7979 55.2229 92.0447 55.2911C92.3546 55.3752 92.6067 55.4592 92.801 55.5432C92.9953 55.622 93.1608 55.7428 93.2973 55.9056C93.4391 56.0684 93.5126 56.2811 93.5179 56.5437C93.5179 56.78 93.4522 56.9927 93.3209 57.1818C93.1896 57.3708 93.0032 57.5205 92.7616 57.6308C92.5253 57.7358 92.2522 57.7884 91.9423 57.7884Z" fill="#7E7E7E"/>
<path d="M89.3903 55.3935C89.3903 55.5301 89.3824 55.6745 89.3666 55.8268H85.9162C85.9425 56.2522 86.0869 56.5857 86.3495 56.8273C86.6173 57.0636 86.9403 57.1818 87.3184 57.1818C87.6283 57.1818 87.8856 57.1109 88.0905 56.9691C88.3005 56.822 88.4476 56.6277 88.5316 56.3861H89.3036C89.1881 56.801 88.957 57.1398 88.6104 57.4024C88.2638 57.6597 87.8331 57.7884 87.3184 57.7884C86.9088 57.7884 86.5412 57.6965 86.2156 57.5126C85.8952 57.3288 85.6431 57.0689 85.4593 56.7328C85.2755 56.3914 85.1836 55.9975 85.1836 55.5511C85.1836 55.1047 85.2729 54.7134 85.4514 54.3773C85.63 54.0412 85.8795 53.7839 86.1998 53.6053C86.5254 53.4215 86.8983 53.3296 87.3184 53.3296C87.7281 53.3296 88.0905 53.4189 88.4056 53.5974C88.7207 53.776 88.9623 54.0228 89.1303 54.3379C89.3036 54.6478 89.3903 54.9997 89.3903 55.3935ZM88.6498 55.2439C88.6498 54.9708 88.5894 54.7371 88.4686 54.5428C88.3478 54.3432 88.1824 54.1935 87.9723 54.0937C87.7675 53.9887 87.539 53.9362 87.2869 53.9362C86.9246 53.9362 86.6147 54.0517 86.3574 54.2828C86.1053 54.5139 85.9609 54.8342 85.9241 55.2439H88.6498Z" fill="#7E7E7E"/>
<path d="M82.5625 57.0556L83.9017 53.4004H84.6658L82.9721 57.7174H82.1371L80.4434 53.4004H81.2154L82.5625 57.0556Z" fill="#7E7E7E"/>
<path d="M77.9412 53.3218C78.4664 53.3218 78.8918 53.482 79.2174 53.8023C79.543 54.1174 79.7058 54.5743 79.7058 55.173V57.7175H78.9968V55.2754C78.9968 54.8448 78.8892 54.5166 78.6739 54.2907C78.4585 54.0597 78.1644 53.9441 77.7916 53.9441C77.4134 53.9441 77.1114 54.0623 76.8856 54.2986C76.665 54.5349 76.5548 54.8789 76.5548 55.3306V57.7175H75.8379V53.4006H76.5548V54.015C76.6966 53.7944 76.8882 53.6238 77.1298 53.503C77.3767 53.3822 77.6471 53.3218 77.9412 53.3218Z" fill="#7E7E7E"/>
<path d="M74.5372 52.2266V57.7173H73.8203V52.2266H74.5372Z" fill="#7E7E7E"/>
<path d="M70.1388 57.7644C70.0023 57.7644 69.8867 57.7172 69.7922 57.6226C69.6977 57.5281 69.6504 57.4126 69.6504 57.276C69.6504 57.1395 69.6977 57.0239 69.7922 56.9294C69.8867 56.8349 70.0023 56.7876 70.1388 56.7876C70.2701 56.7876 70.3804 56.8349 70.4697 56.9294C70.5642 57.0239 70.6115 57.1395 70.6115 57.276C70.6115 57.4126 70.5642 57.5281 70.4697 57.6226C70.3804 57.7172 70.2701 57.7644 70.1388 57.7644Z" fill="#7E7E7E"/>
<path d="M65.657 53.9909V56.5354C65.657 56.7455 65.7017 56.8952 65.791 56.9845C65.8802 57.0685 66.0352 57.1105 66.2557 57.1105H66.7836V57.7171H66.1376C65.7384 57.7171 65.4391 57.6252 65.2395 57.4414C65.04 57.2576 64.9402 56.9556 64.9402 56.5354V53.9909H64.3809V53.4001H64.9402V52.313H65.657V53.4001H66.7836V53.9909H65.657Z" fill="#7E7E7E"/>
<path d="M59.6504 55.5511C59.6504 55.1047 59.7397 54.7161 59.9182 54.3852C60.0968 54.0491 60.3436 53.7891 60.6587 53.6053C60.9791 53.4215 61.3441 53.3296 61.7537 53.3296C62.2842 53.3296 62.7201 53.4583 63.0614 53.7156C63.408 53.9729 63.6365 54.3301 63.7468 54.787H62.9748C62.9012 54.5244 62.7568 54.3169 62.5415 54.1646C62.3314 54.0123 62.0688 53.9362 61.7537 53.9362C61.3441 53.9362 61.0132 54.078 60.7611 54.3616C60.5091 54.6399 60.383 55.0364 60.383 55.5511C60.383 56.071 60.5091 56.4728 60.7611 56.7564C61.0132 57.04 61.3441 57.1818 61.7537 57.1818C62.0688 57.1818 62.3314 57.1083 62.5415 56.9612C62.7516 56.8142 62.896 56.6041 62.9748 56.331H63.7468C63.6312 56.7721 63.4002 57.1266 63.0536 57.3945C62.7069 57.6571 62.2737 57.7884 61.7537 57.7884C61.3441 57.7884 60.9791 57.6965 60.6587 57.5126C60.3436 57.3288 60.0968 57.0689 59.9182 56.7328C59.7397 56.3966 59.6504 56.0028 59.6504 55.5511Z" fill="#7E7E7E"/>
<path d="M54.248 55.5432C54.248 55.1021 54.3373 54.7161 54.5159 54.3852C54.6944 54.0491 54.9387 53.7891 55.2485 53.6053C55.5636 53.4215 55.9129 53.3296 56.2962 53.3296C56.6744 53.3296 57.0026 53.411 57.281 53.5738C57.5593 53.7366 57.7667 53.9414 57.9033 54.1883V53.4005H58.628V57.7175H57.9033V56.9139C57.7615 57.166 57.5488 57.3761 57.2652 57.5442C56.9869 57.707 56.6612 57.7884 56.2884 57.7884C55.905 57.7884 55.5584 57.6938 55.2485 57.5048C54.9387 57.3157 54.6944 57.0505 54.5159 56.7091C54.3373 56.3678 54.248 55.9791 54.248 55.5432ZM57.9033 55.5511C57.9033 55.2255 57.8376 54.9419 57.7064 54.7003C57.5751 54.4587 57.3965 54.2749 57.1707 54.1489C56.9501 54.0176 56.7059 53.9519 56.438 53.9519C56.1702 53.9519 55.926 54.0149 55.7054 54.141C55.4848 54.267 55.3089 54.4508 55.1776 54.6924C55.0463 54.934 54.9807 55.2176 54.9807 55.5432C54.9807 55.8741 55.0463 56.1629 55.1776 56.4098C55.3089 56.6513 55.4848 56.8378 55.7054 56.9691C55.926 57.0951 56.1702 57.1581 56.438 57.1581C56.7059 57.1581 56.9501 57.0951 57.1707 56.9691C57.3965 56.8378 57.5751 56.6513 57.7064 56.4098C57.8376 56.1629 57.9033 55.8767 57.9033 55.5511Z" fill="#7E7E7E"/>
<path d="M49.8302 54.1961C49.9719 53.9493 50.182 53.7445 50.4604 53.5817C50.744 53.4136 51.0722 53.3296 51.4451 53.3296C51.8285 53.3296 52.1751 53.4215 52.4849 53.6053C52.8 53.7891 53.0469 54.0491 53.2254 54.3852C53.404 54.7161 53.4933 55.1021 53.4933 55.5432C53.4933 55.9791 53.404 56.3678 53.2254 56.7091C53.0469 57.0505 52.8 57.3157 52.4849 57.5048C52.1751 57.6938 51.8285 57.7884 51.4451 57.7884C51.0774 57.7884 50.7518 57.707 50.4682 57.5442C50.1899 57.3761 49.9772 57.1686 49.8302 56.9218V59.7657H49.1133V53.4005H49.8302V54.1961ZM52.7607 55.5432C52.7607 55.2176 52.695 54.934 52.5637 54.6924C52.4324 54.4508 52.2539 54.267 52.028 54.141C51.8074 54.0149 51.5632 53.9519 51.2954 53.9519C51.0328 53.9519 50.7886 54.0176 50.5628 54.1489C50.3422 54.2749 50.1636 54.4614 50.0271 54.7082C49.8958 54.9498 49.8302 55.2307 49.8302 55.5511C49.8302 55.8767 49.8958 56.1629 50.0271 56.4098C50.1636 56.6513 50.3422 56.8378 50.5628 56.9691C50.7886 57.0951 51.0328 57.1581 51.2954 57.1581C51.5632 57.1581 51.8074 57.0951 52.028 56.9691C52.2539 56.8378 52.4324 56.6513 52.5637 56.4098C52.695 56.1629 52.7607 55.8741 52.7607 55.5432Z" fill="#7E7E7E"/>
<path d="M46.1094 53.3218C46.4455 53.3218 46.7448 53.3927 47.0074 53.5345C47.27 53.671 47.4775 53.8785 47.6298 54.1568C47.7821 54.4352 47.8582 54.7739 47.8582 55.173V57.7175H47.1492V55.2754C47.1492 54.8448 47.0416 54.5166 46.8262 54.2907C46.6162 54.0597 46.3299 53.9441 45.9676 53.9441C45.5947 53.9441 45.298 54.0649 45.0774 54.3065C44.8568 54.5428 44.7465 54.8868 44.7465 55.3385V57.7175H44.0375V55.2754C44.0375 54.8448 43.9299 54.5166 43.7145 54.2907C43.5045 54.0597 43.2183 53.9441 42.8559 53.9441C42.483 53.9441 42.1863 54.0649 41.9657 54.3065C41.7451 54.5428 41.6348 54.8868 41.6348 55.3385V57.7175H40.918V53.4006H41.6348V54.0229C41.7766 53.7971 41.9657 53.6238 42.202 53.503C42.4436 53.3822 42.7088 53.3218 42.9977 53.3218C43.3601 53.3218 43.6804 53.4032 43.9588 53.566C44.2371 53.7288 44.4445 53.9677 44.5811 54.2829C44.7019 53.9783 44.9015 53.7419 45.1798 53.5739C45.4581 53.4058 45.768 53.3218 46.1094 53.3218Z" fill="#7E7E7E"/>
<path d="M39.2716 52.699C39.1351 52.699 39.0195 52.6517 38.925 52.5572C38.8305 52.4627 38.7832 52.3471 38.7832 52.2106C38.7832 52.074 38.8305 51.9585 38.925 51.864C39.0195 51.7694 39.1351 51.7222 39.2716 51.7222C39.4029 51.7222 39.5132 51.7694 39.6025 51.864C39.697 51.9585 39.7443 52.074 39.7443 52.2106C39.7443 52.3471 39.697 52.4627 39.6025 52.5572C39.5132 52.6517 39.4029 52.699 39.2716 52.699ZM39.6182 53.4001V57.7171H38.9014V53.4001H39.6182Z" fill="#7E7E7E"/>
<path d="M34.4219 54.1017C34.548 53.8548 34.7266 53.6631 34.9576 53.5266C35.194 53.3901 35.4802 53.3218 35.8163 53.3218V54.0623H35.6272C34.8237 54.0623 34.4219 54.4982 34.4219 55.37V57.7175H33.7051V53.4006H34.4219V54.1017Z" fill="#7E7E7E"/>
<path d="M30.469 57.7884C30.0646 57.7884 29.697 57.6965 29.3661 57.5126C29.0405 57.3288 28.7831 57.0689 28.5941 56.7328C28.4103 56.3914 28.3184 55.9975 28.3184 55.5511C28.3184 55.1099 28.4129 54.7213 28.602 54.3852C28.7963 54.0438 29.0589 53.7839 29.3897 53.6053C29.7206 53.4215 30.0908 53.3296 30.5005 53.3296C30.9101 53.3296 31.2804 53.4215 31.6112 53.6053C31.9421 53.7839 32.2021 54.0412 32.3911 54.3773C32.5854 54.7134 32.6826 55.1047 32.6826 55.5511C32.6826 55.9975 32.5828 56.3914 32.3832 56.7328C32.1889 57.0689 31.9237 57.3288 31.5876 57.5126C31.2515 57.6965 30.8786 57.7884 30.469 57.7884ZM30.469 57.1581C30.7263 57.1581 30.9679 57.0978 31.1937 56.977C31.4195 56.8562 31.6007 56.675 31.7373 56.4334C31.8791 56.1918 31.95 55.8977 31.95 55.5511C31.95 55.2045 31.8817 54.9104 31.7452 54.6688C31.6086 54.4272 31.43 54.2487 31.2095 54.1331C30.9889 54.0123 30.7499 53.9519 30.4926 53.9519C30.23 53.9519 29.9884 54.0123 29.7679 54.1331C29.5525 54.2487 29.3792 54.4272 29.2479 54.6688C29.1166 54.9104 29.051 55.2045 29.051 55.5511C29.051 55.903 29.114 56.1997 29.24 56.4413C29.3713 56.6829 29.5447 56.864 29.76 56.9848C29.9753 57.1004 30.2116 57.1581 30.469 57.1581Z" fill="#7E7E7E"/>
<path d="M27.6724 53.9911H26.7664V57.7173H26.0496V53.9911H25.4902V53.4003H26.0496V53.0931C26.0496 52.6099 26.173 52.258 26.4198 52.0375C26.6719 51.8116 27.0737 51.6987 27.6251 51.6987V52.2974C27.31 52.2974 27.0868 52.3605 26.9555 52.4865C26.8294 52.6073 26.7664 52.8095 26.7664 53.0931V53.4003H27.6724V53.9911Z" fill="#7E7E7E"/>
<path d="M21.6629 53.9909V56.5354C21.6629 56.7455 21.7075 56.8952 21.7968 56.9845C21.8861 57.0685 22.041 57.1105 22.2616 57.1105H22.7894V57.7171H22.1434C21.7443 57.7171 21.445 57.6252 21.2454 57.4414C21.0458 57.2576 20.946 56.9556 20.946 56.5354V53.9909H20.3867V53.4001H20.946V52.313H21.6629V53.4001H22.7894V53.9909H21.6629Z" fill="#7E7E7E"/>
<path d="M18.122 57.7884C17.7912 57.7884 17.4944 57.7332 17.2318 57.6229C16.9693 57.5074 16.7618 57.3498 16.6095 57.1503C16.4572 56.9454 16.3732 56.7117 16.3574 56.4492H17.0979C17.1189 56.6645 17.2187 56.8404 17.3973 56.977C17.5811 57.1135 17.82 57.1818 18.1141 57.1818C18.3872 57.1818 18.6026 57.1214 18.7601 57.0006C18.9177 56.8798 18.9964 56.7275 18.9964 56.5437C18.9964 56.3546 18.9124 56.2155 18.7444 56.1262C18.5763 56.0316 18.3163 55.9397 17.9645 55.8505C17.6441 55.7664 17.3815 55.6824 17.1767 55.5984C16.9771 55.5091 16.8038 55.3804 16.6568 55.2124C16.515 55.039 16.4441 54.8132 16.4441 54.5349C16.4441 54.3143 16.5097 54.1121 16.641 53.9283C16.7723 53.7445 16.9588 53.6001 17.2003 53.495C17.4419 53.3847 17.7176 53.3296 18.0275 53.3296C18.5054 53.3296 18.8914 53.4504 19.1855 53.692C19.4796 53.9335 19.6372 54.2644 19.6582 54.6846H18.9413C18.9255 54.4587 18.8336 54.2775 18.6656 54.141C18.5028 54.0044 18.2822 53.9362 18.0039 53.9362C17.7465 53.9362 17.5417 53.9913 17.3894 54.1016C17.2371 54.2119 17.1609 54.3563 17.1609 54.5349C17.1609 54.6767 17.2056 54.7948 17.2949 54.8894C17.3894 54.9787 17.5049 55.0522 17.6415 55.1099C17.7833 55.1625 17.9776 55.2229 18.2244 55.2911C18.5343 55.3752 18.7864 55.4592 18.9807 55.5432C19.175 55.622 19.3404 55.7428 19.477 55.9056C19.6188 56.0684 19.6923 56.2811 19.6976 56.5437C19.6976 56.78 19.6319 56.9927 19.5006 57.1818C19.3693 57.3708 19.1829 57.5205 18.9413 57.6308C18.705 57.7358 18.4319 57.7884 18.122 57.7884Z" fill="#7E7E7E"/>
<path d="M15.568 55.3935C15.568 55.5301 15.5601 55.6745 15.5444 55.8268H12.094C12.1202 56.2522 12.2646 56.5857 12.5272 56.8273C12.7951 57.0636 13.1181 57.1818 13.4962 57.1818C13.806 57.1818 14.0634 57.1109 14.2682 56.9691C14.4783 56.822 14.6253 56.6277 14.7093 56.3861H15.4814C15.3658 56.801 15.1347 57.1398 14.7881 57.4024C14.4415 57.6597 14.0109 57.7884 13.4962 57.7884C13.0865 57.7884 12.7189 57.6965 12.3933 57.5126C12.0729 57.3288 11.8209 57.0689 11.637 56.7328C11.4532 56.3914 11.3613 55.9975 11.3613 55.5511C11.3613 55.1047 11.4506 54.7134 11.6292 54.3773C11.8077 54.0412 12.0572 53.7839 12.3776 53.6053C12.7032 53.4215 13.076 53.3296 13.4962 53.3296C13.9058 53.3296 14.2682 53.4189 14.5833 53.5974C14.8984 53.776 15.14 54.0228 15.308 54.3379C15.4814 54.6478 15.568 54.9997 15.568 55.3935ZM14.8275 55.2439C14.8275 54.9708 14.7671 54.7371 14.6463 54.5428C14.5255 54.3432 14.3601 54.1935 14.15 54.0937C13.9452 53.9887 13.7168 53.9362 13.4647 53.9362C13.1023 53.9362 12.7924 54.0517 12.5351 54.2828C12.283 54.5139 12.1386 54.8342 12.1018 55.2439H14.8275Z" fill="#7E7E7E"/>
<path d="M8.74215 57.0556L10.0814 53.4004H10.8455L9.15178 57.7174H8.31675L6.62305 53.4004H7.39506L8.74215 57.0556Z" fill="#7E7E7E"/>
<path d="M4.12092 53.3218C4.6461 53.3218 5.0715 53.482 5.39711 53.8023C5.72272 54.1174 5.88552 54.5743 5.88552 55.173V57.7175H5.17653V55.2754C5.17653 54.8448 5.06887 54.5166 4.85355 54.2907C4.63822 54.0597 4.34412 53.9441 3.97124 53.9441C3.59312 53.9441 3.29114 54.0623 3.06531 54.2986C2.84474 54.5349 2.73445 54.8789 2.73445 55.3306V57.7175H2.01758V53.4006H2.73445V54.015C2.87625 53.7944 3.06794 53.6238 3.30952 53.503C3.55635 53.3822 3.82682 53.3218 4.12092 53.3218Z" fill="#7E7E7E"/>
<path d="M0.71687 52.2266V57.7173H0V52.2266H0.71687Z" fill="#7E7E7E"/>
<defs>
<clipPath id="clip0_12659_24624">
<rect width="42" height="42" fill="white" transform="matrix(1 8.74228e-08 8.74228e-08 -1 0 42)"/>
</clipPath>
</defs>
</svg>
