<svg width="40" height="41" viewBox="0 0 40 41" fill="none" xmlns="http://www.w3.org/2000/svg">
<path d="M26.7905 23.2423V17.5534C26.7887 17.4835 26.7708 17.4117 26.7385 17.3445C26.6946 17.2476 26.6246 17.1714 26.5358 17.1212L20.2363 13.6284C20.1628 13.588 20.0803 13.5665 19.9969 13.5665C19.9135 13.5665 19.831 13.588 19.7574 13.6293L13.4579 17.123C13.3063 17.2117 13.2086 17.3794 13.2041 17.5597V23.2432C13.2041 23.4225 13.3018 23.5875 13.4579 23.6745L19.7583 27.1673C19.9072 27.2453 20.0892 27.2453 20.2426 27.1646L26.5376 23.6736C26.6946 23.5866 26.7914 23.4216 26.7914 23.2423H26.7905ZM19.5037 25.8984L14.1896 22.9517V18.391L19.5037 21.3376V25.8984ZM19.9969 20.483L19.9314 20.4472L14.7133 17.5543L19.996 14.6247L20.0614 14.6605L25.2795 17.5534L19.9969 20.483ZM25.8041 22.9517L25.7584 22.9777L20.491 25.8984V21.3376L20.5367 21.3116L25.8041 18.391V22.9517Z" fill="#E31E30"/>
<path d="M9.50928 40.4004C12.6461 40.4004 16.2581 39.3674 19.9544 37.4143L19.9966 37.3919L20.0387 37.4143C23.7342 39.3683 27.3462 40.4004 30.4839 40.4004C33.366 40.4004 35.7737 39.5171 37.4443 37.8456C39.2001 36.0898 40.0789 33.5359 39.9866 30.4592C39.8951 27.4211 38.8638 23.957 37.0049 20.44L36.9825 20.3979L37.0049 20.3557C38.8638 16.8387 39.8951 13.3746 39.9866 10.3365C40.0789 7.25982 39.2001 4.70592 37.4443 2.95012C35.6885 1.19432 33.1337 0.31462 30.0579 0.406983C27.0198 0.49845 23.5557 1.52969 20.0387 3.38862L19.9966 3.41104L19.9544 3.38862C16.4374 1.52969 12.9734 0.49845 9.93523 0.406983C6.85944 0.315516 4.30464 1.19432 2.54884 2.95012C0.793033 4.70592 -0.0857651 7.25982 0.00659842 10.3365C0.0980652 13.3746 1.12931 16.8387 2.98824 20.3557L3.01065 20.3979L2.98824 20.44C1.12931 23.9561 0.0980652 27.4211 0.00659842 30.4592C-0.0857651 33.5359 0.793033 36.0898 2.54884 37.8456C4.21945 39.5171 6.62628 40.4004 9.50928 40.4004ZM1.27548 30.5928C1.33825 27.9717 2.16773 24.9533 3.67513 21.8649L3.74777 21.7161L3.83296 21.8586C4.55035 23.0647 5.34127 24.2448 6.18419 25.3658L6.2918 25.5092H4.42211C4.07597 25.5092 3.7944 25.7908 3.7944 26.137C3.7944 26.4831 4.07597 26.7647 4.42211 26.7647H7.84315C8.18929 26.7647 8.47086 26.4831 8.47086 26.137V22.715C8.47086 22.3689 8.18929 22.0873 7.84315 22.0873C7.49701 22.0873 7.21544 22.3689 7.21544 22.715V24.6466L7.05403 24.4296C6.10797 23.1616 5.23635 21.8201 4.46247 20.4409L4.43825 20.397L4.46247 20.353C5.37175 18.7246 6.41376 17.1526 7.55799 15.6792C7.76962 15.4057 7.7203 15.0103 7.4459 14.7987C7.31318 14.6955 7.14818 14.6507 6.98229 14.6722C6.8155 14.6928 6.66753 14.778 6.56531 14.9107C5.57621 16.1913 4.65706 17.5453 3.83296 18.9362L3.74777 19.0797L3.67513 18.9299C2.16773 15.8416 1.33825 12.8232 1.27548 10.202C1.21091 7.51629 1.95879 5.3148 3.4366 3.83699C4.91442 2.35917 7.11411 1.61219 9.80162 1.67676C12.4228 1.73953 15.4412 2.56901 18.5295 4.07642L18.6793 4.14905L18.5367 4.23424C17.2077 5.02247 15.912 5.89948 14.6843 6.83925L14.54 6.94955V5.26279C14.54 4.91666 14.2584 4.63508 13.9122 4.63508C13.5661 4.63508 13.2845 4.91666 13.2845 5.26279V8.68383C13.2845 9.02997 13.5661 9.31155 13.9122 9.31155H17.3333C17.6794 9.31155 17.961 9.02997 17.961 8.68383C17.961 8.33769 17.6794 8.05612 17.3333 8.05612H15.1596L15.3676 7.8956C16.8141 6.77648 18.3573 5.75689 19.9535 4.86375L19.9975 4.83954L20.0414 4.86375C21.669 5.77304 23.2419 6.81504 24.7143 7.95927C24.847 8.0606 25.0111 8.10454 25.1779 8.08302C25.3438 8.0606 25.4918 7.97541 25.594 7.8427C25.8029 7.57009 25.7527 7.17732 25.4819 6.96569C24.2032 5.97749 22.8491 5.05834 21.4574 4.23424L21.3139 4.14905L21.4636 4.07642C24.552 2.56901 27.5695 1.73863 30.1915 1.67586C32.8773 1.6113 35.0787 2.35917 36.5566 3.83699C38.0344 5.3148 38.7813 7.51539 38.7177 10.202C38.6549 12.8232 37.8254 15.8416 36.318 18.9299L36.2454 19.0797L36.1602 18.9371C35.3836 17.6287 34.521 16.3518 33.5982 15.143L33.4879 14.9986H35.2428C35.589 14.9986 35.8706 14.7171 35.8706 14.3709C35.8706 14.0248 35.589 13.7432 35.2428 13.7432H31.8218C31.4757 13.7432 31.1941 14.0248 31.1941 14.3709V17.792C31.1941 18.1381 31.4757 18.4197 31.8218 18.4197C32.1679 18.4197 32.4495 18.1381 32.4495 17.792V15.7079L32.61 15.9178C33.6852 17.3203 34.6671 18.8124 35.5307 20.3539L35.5549 20.3979L35.5307 20.4418C34.6214 22.0703 33.5794 23.6422 32.4352 25.1156C32.2235 25.3891 32.2747 25.7845 32.549 25.9962C32.8217 26.2069 33.2171 26.1567 33.4287 25.8841C34.4169 24.6044 35.3361 23.2504 36.1602 21.8595L36.2454 21.7161L36.318 21.8658C37.8254 24.9542 38.6549 27.9726 38.7177 30.5937C38.7822 33.2794 38.0344 35.4809 36.5566 36.9587C35.0796 38.4356 32.8799 39.1826 30.196 39.1199C27.5767 39.058 24.5601 38.2303 21.4735 36.7247L21.3246 36.652L21.4672 36.5669C22.8545 35.741 24.2058 34.82 25.4819 33.83C25.4882 33.8202 25.4971 33.8076 25.5097 33.796L25.6594 33.6614V35.7481C25.6594 36.0943 25.941 36.3759 26.2872 36.3759C26.6333 36.3759 26.9149 36.0943 26.9149 35.7481V32.3271C26.9149 31.981 26.6333 31.6994 26.2872 31.6994H22.8661C22.52 31.6994 22.2384 31.981 22.2384 32.3271C22.2384 32.6732 22.52 32.9548 22.8661 32.9548H24.5457L24.3341 33.1162C22.9746 34.1502 21.5309 35.0971 20.0414 35.932L19.9975 35.9562L19.9535 35.932C18.3251 35.0227 16.7531 33.9807 15.2807 32.8364C15.1479 32.7351 14.9829 32.6903 14.817 32.7127C14.6512 32.7351 14.5032 32.8203 14.401 32.953C14.192 33.2256 14.2422 33.6184 14.5131 33.83C15.7891 34.8191 17.1396 35.7401 18.5277 36.5669L18.6703 36.652L18.5215 36.7247C15.4349 38.2303 12.4192 39.058 9.79982 39.1199C9.69491 39.1225 9.59088 39.1234 9.48686 39.1234C6.94462 39.1234 4.85793 38.3774 3.4384 36.9578C1.96058 35.48 1.2136 33.2785 1.27727 30.5928H1.27548Z" fill="#323232"/>
</svg>
