<svg width="175" height="100" viewBox="0 0 175 100" fill="none" xmlns="http://www.w3.org/2000/svg">
<g clip-path="url(#clip0_12188_24557)">
<path d="M58.7861 14.2234L86.5379 4.33557L115.037 14.0476L110.423 50.7645L86.5379 63.9923L63.0269 50.9403L58.7861 14.2234Z" fill="#E23237"/>
<path d="M115.037 14.0476L86.5381 4.33557V63.9923L110.423 50.7866L115.037 14.0476Z" fill="#B52E31"/>
<path d="M86.5826 11.3011L69.29 49.7759L75.75 49.666L79.2218 40.9865H94.7347L98.5361 49.7759L104.71 49.8857L86.5826 11.3011ZM86.6267 23.628L92.4714 35.8448H81.4848L86.6267 23.628Z" fill="white"/>
</g>
<path d="M123.084 89.6364V76.5454H124.558V78.5568H124.669C124.931 77.8977 125.385 77.3665 126.033 76.9631C126.686 76.554 127.425 76.3494 128.249 76.3494C128.374 76.3494 128.513 76.3523 128.666 76.3579C128.82 76.3636 128.948 76.3693 129.05 76.375V77.9176C128.982 77.9062 128.862 77.8892 128.692 77.8665C128.521 77.8437 128.337 77.8324 128.138 77.8324C127.456 77.8324 126.848 77.9773 126.314 78.267C125.786 78.5511 125.368 78.946 125.061 79.4517C124.754 79.9574 124.601 80.5341 124.601 81.1818V89.6364H123.084Z" fill="#242424"/>
<path d="M113.381 89.9346C112.591 89.9346 111.87 89.7812 111.216 89.4744C110.563 89.1619 110.043 88.713 109.657 88.1278C109.27 87.5369 109.077 86.821 109.077 85.9801C109.077 85.3324 109.199 84.7869 109.444 84.3437C109.688 83.9005 110.035 83.5369 110.483 83.2528C110.932 82.9687 111.464 82.7443 112.077 82.5795C112.691 82.4148 113.367 82.2869 114.106 82.196C114.839 82.1051 115.458 82.0255 115.964 81.9574C116.475 81.8892 116.864 81.7812 117.131 81.6335C117.398 81.4858 117.532 81.2471 117.532 80.9176V80.6108C117.532 79.7187 117.265 79.017 116.731 78.5057C116.202 77.9886 115.441 77.7301 114.446 77.7301C113.503 77.7301 112.733 77.9375 112.137 78.3523C111.546 78.767 111.131 79.2557 110.892 79.8182L109.452 79.2983C109.748 78.5824 110.157 78.0113 110.679 77.5852C111.202 77.1534 111.787 76.8437 112.435 76.6562C113.083 76.463 113.739 76.3665 114.404 76.3665C114.904 76.3665 115.424 76.4318 115.964 76.5625C116.509 76.6932 117.015 76.9204 117.481 77.2443C117.946 77.5625 118.324 78.0085 118.614 78.5824C118.904 79.1505 119.049 79.8721 119.049 80.7471V89.6363H117.532V87.5653H117.438C117.256 87.9517 116.986 88.3267 116.628 88.6903C116.27 89.054 115.821 89.3523 115.282 89.5852C114.742 89.8182 114.108 89.9346 113.381 89.9346ZM113.586 88.5454C114.392 88.5454 115.091 88.3665 115.682 88.0085C116.273 87.6505 116.728 87.1761 117.046 86.5852C117.37 85.9886 117.532 85.3324 117.532 84.6165V82.7244C117.418 82.8324 117.228 82.929 116.961 83.0142C116.699 83.0994 116.395 83.1761 116.049 83.2443C115.708 83.3068 115.367 83.3608 115.026 83.4062C114.685 83.4517 114.378 83.4915 114.106 83.5255C113.367 83.6165 112.736 83.7585 112.214 83.9517C111.691 84.1449 111.29 84.4119 111.012 84.7528C110.733 85.088 110.594 85.5199 110.594 86.0483C110.594 86.8437 110.878 87.4602 111.446 87.8977C112.015 88.3295 112.728 88.5454 113.586 88.5454Z" fill="#242424"/>
<path d="M105.71 72.1818V89.6364H104.193V72.1818H105.71Z" fill="#242424"/>
<path d="M98.66 84.6335V76.5455H100.177V89.6364H98.66V87.4631H98.5407C98.2338 88.1335 97.748 88.6932 97.0833 89.1421C96.4185 89.5852 95.606 89.8068 94.6458 89.8068C93.8105 89.8068 93.0691 89.625 92.4213 89.2614C91.7736 88.8921 91.2651 88.3523 90.8958 87.6421C90.5265 86.9318 90.3418 86.0597 90.3418 85.0256V76.5455H91.8588V84.9318C91.8588 85.9546 92.16 86.7784 92.7622 87.4034C93.3645 88.0227 94.1373 88.3324 95.0804 88.3324C95.6713 88.3324 96.2395 88.1904 96.785 87.9063C97.3304 87.6222 97.7793 87.2074 98.1316 86.6619C98.4838 86.1108 98.66 85.4347 98.66 84.6335Z" fill="#242424"/>
<path d="M80.9225 94.8182C80.0305 94.8182 79.2492 94.7017 78.5787 94.4687C77.9083 94.2415 77.343 93.929 76.8827 93.5312C76.4225 93.1335 76.0645 92.6875 75.8089 92.1932L77.0532 91.375C77.2407 91.7045 77.4907 92.0284 77.8032 92.3466C78.1214 92.6648 78.5333 92.929 79.039 93.1392C79.5503 93.3494 80.1782 93.4545 80.9225 93.4545C82.0816 93.4545 83.0162 93.1648 83.7265 92.5852C84.4424 92.0057 84.8003 91.1051 84.8003 89.8835V86.9346H84.664C84.4878 87.3324 84.235 87.7301 83.9055 88.1278C83.5759 88.5199 83.1441 88.8466 82.61 89.1079C82.0816 89.3693 81.4253 89.5 80.6412 89.5C79.5958 89.5 78.6668 89.2415 77.8543 88.7244C77.0475 88.2074 76.4111 87.4687 75.9452 86.5085C75.485 85.5426 75.2549 84.392 75.2549 83.0568C75.2549 81.7329 75.4793 80.5682 75.9282 79.5625C76.3827 78.5568 77.0162 77.7727 77.8287 77.2102C78.6412 76.6477 79.5873 76.3665 80.6668 76.3665C81.468 76.3665 82.1327 76.5085 82.6611 76.7926C83.1895 77.071 83.6128 77.4176 83.931 77.8324C84.2549 78.2471 84.5077 78.6505 84.6895 79.0426H84.843V76.5454H86.3259V89.9773C86.3259 91.0852 86.0901 91.9971 85.6185 92.713C85.1469 93.429 84.5049 93.9574 83.6924 94.2983C82.8799 94.6449 81.9566 94.8182 80.9225 94.8182ZM80.8202 88.1108C81.6611 88.1108 82.3799 87.9091 82.9765 87.5057C83.5731 87.0966 84.0305 86.5113 84.3486 85.75C84.6668 84.9886 84.8259 84.0824 84.8259 83.0312C84.8259 82.0085 84.6697 81.1023 84.3572 80.3125C84.0447 79.517 83.5901 78.892 82.9935 78.4375C82.4026 77.9773 81.6782 77.7471 80.8202 77.7471C79.9452 77.7471 79.2066 77.9829 78.6043 78.4545C78.002 78.9261 77.5475 79.5625 77.2407 80.3636C76.9339 81.1591 76.7805 82.0483 76.7805 83.0312C76.7805 84.0312 76.9367 84.9147 77.2492 85.6818C77.5617 86.4432 78.0191 87.0398 78.6214 87.4716C79.2236 87.8977 79.9566 88.1108 80.8202 88.1108Z" fill="#242424"/>
<path d="M63.5463 81.4545V89.6364H62.0293V76.5455H63.5037V78.5994H63.6401C63.9469 77.929 64.4242 77.392 65.0719 76.9886C65.7253 76.5795 66.5321 76.375 67.4924 76.375C68.373 76.375 69.1458 76.5597 69.8105 76.929C70.481 77.2926 71.0009 77.8295 71.3702 78.5398C71.7452 79.25 71.9327 80.1222 71.9327 81.1562V89.6364H70.4157V81.25C70.4157 80.1761 70.1145 79.3267 69.5122 78.7017C68.9157 78.0767 68.1145 77.7642 67.1088 77.7642C66.4213 77.7642 65.8105 77.9119 65.2765 78.2074C64.7424 78.5028 64.3191 78.929 64.0066 79.4858C63.6998 80.0369 63.5463 80.6932 63.5463 81.4545Z" fill="#242424"/>
<path d="M46.6206 89.6364H44.9502L51.2996 72.1818H53.0042L59.3536 89.6364H57.6831L52.2116 74.2528H52.0922L46.6206 89.6364ZM47.8224 82.946H56.4814V84.3778H47.8224V82.946Z" fill="#242424"/>
<defs>
<clipPath id="clip0_12188_24557">
<rect width="56.472" height="60" fill="white" transform="translate(58.7637 4.18182)"/>
</clipPath>
</defs>
</svg>
