<svg width="175" height="100" viewBox="0 0 175 100" fill="none" xmlns="http://www.w3.org/2000/svg">
<rect width="175" height="100" fill="white"/>
<path fill-rule="evenodd" clip-rule="evenodd" d="M83.9215 2.16256C85.8583 5.60555 86.8811 9.6953 86.8811 13.5698C86.8811 26.5376 76.2807 37.1372 63.2592 37.1372C59.3847 37.1372 55.3494 36.1697 52.0664 34.2329C54.4883 34.8779 57.1246 35.4166 59.7072 35.4166C73.698 35.4166 85.1052 24.0086 85.1052 10.0178C85.1052 7.32791 84.621 4.47547 83.9215 2.16256ZM122.934 37.784C120.512 38.4835 117.769 38.9141 115.24 38.9141C101.895 38.9141 91.0254 28.0447 91.0254 14.7534C91.0254 10.2677 92.3413 5.78367 94.688 2H93.5527C90.0924 6.21512 88.0657 11.5422 88.0657 17.0664C88.0657 30.0878 98.6662 40.6883 111.689 40.6883C115.562 40.6892 119.597 39.6672 122.934 37.784Z" fill="black"/>
<path fill-rule="evenodd" clip-rule="evenodd" d="M106.469 48.3309C102.272 41.1198 94.1465 36.6012 85.6981 36.6012C72.3533 36.6012 61.4839 47.4697 61.4839 60.7618C61.4839 61.1371 61.5012 61.5694 61.5297 62H61.3905C61.0931 60.3909 60.8916 58.7982 60.8916 57.2643C60.8916 44.2411 71.4921 33.6406 84.5136 33.6406C94.0921 33.6398 102.809 39.5055 106.469 48.3309Z" fill="black"/>
<path d="M41.3438 93H39.6733L46.0227 75.5455H47.7273L54.0767 93H52.4062L46.9347 77.6165H46.8153L41.3438 93ZM42.5455 86.3097H51.2045V87.7415H42.5455V86.3097ZM65.071 87.9972V79.9091H66.5881V93H65.071V90.8267H64.9517C64.6449 91.4972 64.1591 92.0568 63.4943 92.5057C62.8295 92.9489 62.017 93.1705 61.0568 93.1705C60.2216 93.1705 59.4801 92.9886 58.8324 92.625C58.1847 92.2557 57.6761 91.7159 57.3068 91.0057C56.9375 90.2955 56.7528 89.4233 56.7528 88.3892V79.9091H58.2699V88.2955C58.2699 89.3182 58.571 90.142 59.1733 90.767C59.7756 91.3864 60.5483 91.696 61.4915 91.696C62.0824 91.696 62.6506 91.554 63.196 91.2699C63.7415 90.9858 64.1903 90.571 64.5426 90.0256C64.8949 89.4744 65.071 88.7983 65.071 87.9972ZM75.7607 79.9091V81.2301H69.5135V79.9091H75.7607ZM71.4652 76.7727H72.9908V89.5824C72.9908 90.1278 73.0845 90.5568 73.272 90.8693C73.4595 91.1761 73.7038 91.3949 74.005 91.5256C74.3061 91.6506 74.6271 91.7131 74.968 91.7131C75.1669 91.7131 75.3374 91.7017 75.4794 91.679C75.6214 91.6506 75.7464 91.6222 75.8544 91.5938L76.1783 92.9659C76.0305 93.0227 75.8487 93.0739 75.6328 93.1193C75.4169 93.1705 75.1499 93.196 74.8317 93.196C74.2749 93.196 73.7379 93.0739 73.2209 92.8295C72.7095 92.5852 72.2891 92.2216 71.9595 91.7386C71.63 91.2557 71.4652 90.6562 71.4652 89.9403V76.7727ZM84.1534 93.2727C83.0227 93.2727 82.0227 92.9858 81.1534 92.4119C80.2898 91.8381 79.6136 91.0455 79.125 90.0341C78.6364 89.017 78.392 87.8437 78.392 86.5142C78.392 85.1733 78.6364 83.9943 79.125 82.9773C79.6136 81.9545 80.2898 81.1591 81.1534 80.5909C82.0227 80.017 83.0227 79.7301 84.1534 79.7301C85.2841 79.7301 86.2812 80.017 87.1449 80.5909C88.0085 81.1648 88.6847 81.9602 89.1733 82.9773C89.6676 83.9943 89.9148 85.1733 89.9148 86.5142C89.9148 87.8437 89.6705 89.017 89.1818 90.0341C88.6932 91.0455 88.0142 91.8381 87.1449 92.4119C86.2812 92.9858 85.2841 93.2727 84.1534 93.2727ZM84.1534 91.8835C85.0625 91.8835 85.8324 91.6392 86.4631 91.1506C87.0938 90.6619 87.571 90.0114 87.8949 89.1989C88.2244 88.3864 88.3892 87.4915 88.3892 86.5142C88.3892 85.5369 88.2244 84.6392 87.8949 83.821C87.571 83.0028 87.0938 82.3466 86.4631 81.8523C85.8324 81.358 85.0625 81.1108 84.1534 81.1108C83.25 81.1108 82.4801 81.358 81.8438 81.8523C81.2131 82.3466 80.733 83.0028 80.4034 83.821C80.0795 84.6392 79.9176 85.5369 79.9176 86.5142C79.9176 87.4915 80.0795 88.3864 80.4034 89.1989C80.733 90.0114 81.2131 90.6619 81.8438 91.1506C82.4744 91.6392 83.2443 91.8835 84.1534 91.8835ZM98.2393 98.1818C97.3473 98.1818 96.5661 98.0653 95.8956 97.8324C95.2251 97.6051 94.6598 97.2926 94.1996 96.8949C93.7393 96.4972 93.3814 96.0511 93.1257 95.5568L94.37 94.7386C94.5575 95.0682 94.8075 95.392 95.12 95.7102C95.4382 96.0284 95.8501 96.2926 96.3558 96.5028C96.8672 96.7131 97.495 96.8182 98.2393 96.8182C99.3984 96.8182 100.333 96.5284 101.043 95.9489C101.759 95.3693 102.117 94.4687 102.117 93.2472V90.2983H101.981C101.805 90.696 101.552 91.0937 101.222 91.4915C100.893 91.8835 100.461 92.2102 99.9268 92.4716C99.3984 92.733 98.7422 92.8636 97.9581 92.8636C96.9126 92.8636 95.9837 92.6051 95.1712 92.0881C94.3643 91.571 93.728 90.8324 93.2621 89.8722C92.8018 88.9062 92.5717 87.7557 92.5717 86.4205C92.5717 85.0966 92.7962 83.9318 93.245 82.9261C93.6996 81.9205 94.3331 81.1364 95.1456 80.5739C95.9581 80.0114 96.9041 79.7301 97.9837 79.7301C98.7848 79.7301 99.4496 79.8722 99.978 80.1562C100.506 80.4347 100.93 80.7812 101.248 81.196C101.572 81.6108 101.825 82.0142 102.006 82.4062H102.16V79.9091H103.643V93.3409C103.643 94.4489 103.407 95.3608 102.935 96.0767C102.464 96.7926 101.822 97.321 101.009 97.6619C100.197 98.0085 99.2734 98.1818 98.2393 98.1818ZM98.1371 91.4744C98.978 91.4744 99.6967 91.2727 100.293 90.8693C100.89 90.4602 101.347 89.875 101.665 89.1136C101.984 88.3523 102.143 87.446 102.143 86.3949C102.143 85.3722 101.987 84.4659 101.674 83.6761C101.362 82.8807 100.907 82.2557 100.31 81.8011C99.7195 81.3409 98.995 81.1108 98.1371 81.1108C97.2621 81.1108 96.5234 81.3466 95.9212 81.8182C95.3189 82.2898 94.8643 82.9261 94.5575 83.7273C94.2507 84.5227 94.0973 85.4119 94.0973 86.3949C94.0973 87.3949 94.2536 88.2784 94.5661 89.0455C94.8786 89.8068 95.3359 90.4034 95.9382 90.8352C96.5405 91.2614 97.2734 91.4744 98.1371 91.4744ZM112.952 93.2727C111.73 93.2727 110.673 92.9886 109.781 92.4205C108.889 91.8466 108.199 91.054 107.71 90.0426C107.227 89.0256 106.986 87.8551 106.986 86.5312C106.986 85.2131 107.227 84.0426 107.71 83.0199C108.199 81.9915 108.872 81.1875 109.73 80.608C110.594 80.0227 111.591 79.7301 112.722 79.7301C113.432 79.7301 114.116 79.8608 114.776 80.1222C115.435 80.3778 116.026 80.7727 116.548 81.3068C117.077 81.8352 117.494 82.5028 117.801 83.3097C118.108 84.1108 118.261 85.0597 118.261 86.1562V86.9062H108.034V85.5682H116.71C116.71 84.7273 116.54 83.9716 116.199 83.3011C115.864 82.625 115.395 82.0909 114.793 81.6989C114.196 81.3068 113.506 81.1108 112.722 81.1108C111.892 81.1108 111.162 81.3324 110.531 81.7756C109.901 82.2187 109.406 82.804 109.048 83.5312C108.696 84.2585 108.517 85.054 108.511 85.9176V86.7188C108.511 87.7585 108.69 88.6676 109.048 89.446C109.412 90.2187 109.926 90.8182 110.591 91.2443C111.256 91.6705 112.043 91.8835 112.952 91.8835C113.571 91.8835 114.114 91.7869 114.58 91.5938C115.051 91.4006 115.446 91.142 115.764 90.8182C116.088 90.4886 116.332 90.1278 116.497 89.7358L117.938 90.2045C117.739 90.7557 117.412 91.2642 116.957 91.7301C116.509 92.196 115.946 92.571 115.27 92.8551C114.599 93.1335 113.827 93.2727 112.952 93.2727ZM123.121 84.8182V93H121.604V79.9091H123.079V81.9631H123.215C123.522 81.2926 123.999 80.7557 124.647 80.3523C125.3 79.9432 126.107 79.7386 127.067 79.7386C127.948 79.7386 128.721 79.9233 129.386 80.2926C130.056 80.6562 130.576 81.1932 130.945 81.9034C131.32 82.6136 131.508 83.4858 131.508 84.5199V93H129.991V84.6136C129.991 83.5398 129.69 82.6903 129.087 82.0653C128.491 81.4403 127.69 81.1278 126.684 81.1278C125.996 81.1278 125.386 81.2756 124.852 81.571C124.317 81.8665 123.894 82.2926 123.582 82.8494C123.275 83.4006 123.121 84.0568 123.121 84.8182Z" fill="#242424"/>
</svg>
