<svg width="175" height="100" viewBox="0 0 175 100" fill="none" xmlns="http://www.w3.org/2000/svg">
<g clip-path="url(#clip0_12169_24721)">
<path d="M65.1864 41.7909C65.1864 43.0256 65.3199 44.0267 65.5534 44.7608C65.8204 45.495 66.1541 46.2959 66.6213 47.1635C66.7882 47.4305 66.8549 47.6974 66.8549 47.931C66.8549 48.2647 66.6547 48.5984 66.2209 48.9321L64.1185 50.3337C63.8182 50.5339 63.5179 50.634 63.2509 50.634C62.9172 50.634 62.5835 50.4672 62.2498 50.1668C61.7826 49.6663 61.3821 49.1324 61.0484 48.5984C60.7147 48.0311 60.381 47.3971 60.014 46.6296C57.4111 49.6997 54.1408 51.2347 50.2031 51.2347C47.3999 51.2347 45.1641 50.4338 43.529 48.832C41.8938 47.2303 41.0596 45.0945 41.0596 42.4249C41.0596 39.5884 42.0607 37.2859 44.0963 35.5506C46.1319 33.8153 48.8349 32.9477 52.272 32.9477C53.4066 32.9477 54.5746 33.0478 55.8093 33.2147C57.044 33.3815 58.3121 33.6485 59.6469 33.9488V31.5128C59.6469 28.9766 59.113 27.208 58.0785 26.1735C57.0106 25.139 55.2086 24.6385 52.6391 24.6385C51.4711 24.6385 50.2698 24.772 49.0351 25.0723C47.8004 25.3726 46.5991 25.7397 45.4311 26.2069C44.8972 26.4405 44.4967 26.574 44.2631 26.6407C44.0295 26.7075 43.8627 26.7408 43.7292 26.7408C43.262 26.7408 43.0284 26.4071 43.0284 25.7063V24.0712C43.0284 23.5373 43.0952 23.1368 43.262 22.9032C43.4289 22.6696 43.7292 22.436 44.1964 22.2024C45.3644 21.6018 46.7659 21.1012 48.4011 20.7008C50.0362 20.267 51.7715 20.0667 53.6068 20.0667C57.5779 20.0667 60.4811 20.9677 62.3499 22.7697C64.1853 24.5717 65.1196 27.3081 65.1196 30.9789V41.7909H65.1864ZM51.638 46.8632C52.7392 46.8632 53.8738 46.663 55.0751 46.2625C56.2765 45.8621 57.3443 45.1279 58.2453 44.1268C58.7793 43.4928 59.1797 42.792 59.3799 41.9911C59.5801 41.1902 59.7136 40.2225 59.7136 39.0879V37.6863C58.7459 37.4527 57.7114 37.2525 56.6435 37.119C55.5757 36.9855 54.5412 36.9188 53.5067 36.9188C51.2709 36.9188 49.6358 37.3526 48.5345 38.2536C47.4333 39.1546 46.8994 40.4227 46.8994 42.0912C46.8994 43.6596 47.2998 44.8276 48.1341 45.6285C48.935 46.4627 50.103 46.8632 51.638 46.8632ZM78.4344 50.4672C77.8338 50.4672 77.4333 50.3671 77.1664 50.1335C76.8994 49.9333 76.6658 49.4661 76.4656 48.832L68.6235 23.0367C68.4233 22.3693 68.3232 21.9355 68.3232 21.7019C68.3232 21.168 68.5902 20.8676 69.1241 20.8676H72.3944C73.0284 20.8676 73.4622 20.9677 73.6958 21.2013C73.9628 21.4016 74.163 21.8687 74.3632 22.5028L79.9695 44.594L85.1752 22.5028C85.3421 21.8354 85.5423 21.4016 85.8093 21.2013C86.0762 21.0011 86.5434 20.8676 87.1441 20.8676H89.8137C90.4478 20.8676 90.8816 20.9677 91.1485 21.2013C91.4155 21.4016 91.6491 21.8687 91.7826 22.5028L97.0551 44.861L102.828 22.5028C103.028 21.8354 103.262 21.4016 103.496 21.2013C103.763 21.0011 104.196 20.8676 104.797 20.8676H107.9C108.434 20.8676 108.735 21.1346 108.735 21.7019C108.735 21.8687 108.701 22.0356 108.668 22.2358C108.635 22.436 108.568 22.703 108.434 23.0701L100.392 48.8654C100.192 49.5328 99.9583 49.9666 99.6914 50.1668C99.4244 50.3671 98.9906 50.5006 98.4233 50.5006H95.5534C94.9194 50.5006 94.4856 50.4004 94.2186 50.1668C93.9517 49.9333 93.7181 49.4994 93.5846 48.832L88.4122 27.3081L83.2731 48.7987C83.1063 49.4661 82.9061 49.8999 82.6391 50.1335C82.3721 50.3671 81.9049 50.4672 81.3043 50.4672H78.4344ZM121.315 51.3682C119.58 51.3682 117.845 51.168 116.176 50.7675C114.508 50.3671 113.206 49.9333 112.339 49.4327C111.805 49.1324 111.438 48.7987 111.304 48.4983C111.171 48.198 111.104 47.8643 111.104 47.564V45.8621C111.104 45.1613 111.371 44.8276 111.872 44.8276C112.072 44.8276 112.272 44.861 112.472 44.9277C112.672 44.9944 112.973 45.1279 113.306 45.2614C114.441 45.762 115.676 46.1624 116.977 46.4294C118.312 46.6963 119.614 46.8298 120.948 46.8298C123.051 46.8298 124.686 46.4627 125.82 45.7286C126.955 44.9944 127.556 43.9266 127.556 42.5584C127.556 41.624 127.255 40.8565 126.655 40.2225C126.054 39.5884 124.919 39.0211 123.284 38.4872L118.446 36.9855C116.009 36.218 114.207 35.0834 113.106 33.5818C112.005 32.1135 111.438 30.4783 111.438 28.743C111.438 27.3415 111.738 26.1068 112.339 25.0389C112.939 23.9711 113.74 23.0367 114.741 22.3026C115.743 21.535 116.877 20.9677 118.212 20.5673C119.547 20.1669 120.948 20 122.417 20C123.151 20 123.918 20.0334 124.652 20.1335C125.42 20.2336 126.121 20.3671 126.822 20.5006C127.489 20.6674 128.123 20.8343 128.724 21.0345C129.324 21.2347 129.791 21.4349 130.125 21.6352C130.592 21.9021 130.926 22.1691 131.126 22.4694C131.327 22.7364 131.427 23.1034 131.427 23.5706V25.139C131.427 25.8398 131.16 26.2069 130.659 26.2069C130.392 26.2069 129.958 26.0734 129.391 25.8065C127.489 24.9388 125.353 24.505 122.984 24.505C121.082 24.505 119.58 24.8053 118.546 25.4394C117.511 26.0734 116.977 27.0412 116.977 28.4093C116.977 29.3437 117.311 30.1446 117.978 30.7786C118.646 31.4127 119.88 32.0467 121.649 32.614L126.388 34.1157C128.79 34.8832 130.526 35.9511 131.56 37.3192C132.595 38.6874 133.095 40.2558 133.095 41.9911C133.095 43.426 132.795 44.7275 132.228 45.8621C131.627 46.9967 130.826 47.9978 129.791 48.7987C128.757 49.6329 127.522 50.2336 126.087 50.6674C124.586 51.1346 123.017 51.3682 121.315 51.3682Z" fill="#252F3E"/>
<path fill-rule="evenodd" clip-rule="evenodd" d="M127.625 67.5864C116.646 75.6955 100.695 80.0002 86.9794 80.0002C67.758 80.0002 50.4388 72.8923 37.3576 61.0792C36.3231 60.1448 37.2575 58.8768 38.4922 59.6109C52.6412 67.82 70.094 72.7922 88.1473 72.7922C100.328 72.7922 113.709 70.2561 126.023 65.0503C127.858 64.216 129.427 66.2516 127.625 67.5864Z" fill="#FF9900"/>
<path fill-rule="evenodd" clip-rule="evenodd" d="M132.195 62.3806C130.794 60.5786 122.918 61.513 119.348 61.9468C118.28 62.0803 118.113 61.1459 119.081 60.4451C125.355 56.0402 135.666 57.3083 136.867 58.7766C138.069 60.2783 136.534 70.5897 130.66 75.5285C129.759 76.2961 128.892 75.8956 129.292 74.8945C130.627 71.5908 133.597 64.1492 132.195 62.3806Z" fill="#FF9900"/>
</g>
<defs>
<clipPath id="clip0_12169_24721">
<rect width="102.389" height="60" fill="white" transform="translate(36 20)"/>
</clipPath>
</defs>
</svg>
