<svg width="175" height="100" viewBox="0 0 175 100" fill="none" xmlns="http://www.w3.org/2000/svg">
<path d="M114.493 19.8015C116.993 23.4328 113.779 27.9332 109.543 26.7138C102.512 24.6902 98.2394 19.5168 94.506 7.97557C94.366 7.54268 94.7303 7.11071 95.1773 7.19501C103.168 8.70118 110.05 13.3468 114.493 19.8015Z" fill="#8D70FF"/>
<path d="M114.534 54.0364C117.021 50.4038 113.81 45.9135 109.576 47.12C102.495 49.1375 98.2028 54.3227 94.4512 65.932C94.3115 66.3643 94.6749 66.7961 95.1217 66.7127C103.16 65.213 110.082 60.5369 114.534 54.0364Z" fill="#8D70FF"/>
<path d="M93.3357 66.9908H93.2614C93.2592 66.9908 93.2573 66.9924 93.2569 66.9946C93.2564 66.9977 93.2589 67.0003 93.262 67C93.2866 66.997 93.3111 66.9939 93.3357 66.9908Z" fill="#8D70FF"/>
<path d="M59.6037 41.5816C59.5409 41.1726 59.9089 40.8296 60.3158 40.9049C76.6674 43.9272 82.4968 49.4366 84.8672 66.0689C84.9249 66.4742 84.5747 66.8264 84.1718 66.7544C71.5036 64.4923 61.5645 54.3516 59.6037 41.5816Z" fill="#8D70FF"/>
<path d="M89.9632 25.7398C90.1923 25.2487 90.905 25.2569 91.1223 25.7534C93.7242 31.6965 96.094 34.1025 102.2 36.9698C102.69 37.1999 102.68 37.9114 102.184 38.1283C96.198 40.7463 93.7787 43.1424 90.9031 49.3088C90.6741 49.8 89.9614 49.7917 89.7441 49.2952C87.1421 43.3521 84.7724 40.946 78.6667 38.0788C78.1767 37.8487 78.1863 37.1372 78.6822 36.9203C84.6683 34.3023 87.0876 31.9062 89.9632 25.7398Z" fill="#8D70FF"/>
<path d="M85.0021 7.00672C85.4101 6.94547 85.7515 7.31265 85.6771 7.71857C82.6539 24.203 77.1436 30.0477 60.3887 32.4153C59.9848 32.4724 59.6333 32.1242 59.7033 31.7222C61.9243 18.9572 72.1394 8.93647 85.0021 7.00672Z" fill="#8D70FF"/>
<path d="M129.354 75.2386V92.6932H127.76V75.2386H129.354Z" fill="#242424"/>
<path d="M112.036 92.6932H110.365L116.715 75.2386H118.419L124.769 92.6932H123.098L117.627 77.3097H117.507L112.036 92.6932ZM113.237 86.0029H121.896V87.4347H113.237V86.0029Z" fill="#242424"/>
<path d="M88.5385 92.6932L84.584 79.6023H86.1863L89.2885 90.4006H89.3993L92.4931 79.6023H94.1039L97.1721 90.375H97.2914L100.394 79.6023H101.996L98.0414 92.6932H96.4732L93.3709 81.9631H93.209L90.1067 92.6932H88.5385Z" fill="#242424"/>
<path d="M76.9796 92.9659C75.758 92.9659 74.7012 92.6818 73.8091 92.1136C72.9171 91.5398 72.2267 90.7472 71.7381 89.7358C71.2551 88.7188 71.0137 87.5483 71.0137 86.2244C71.0137 84.9063 71.2551 83.7358 71.7381 82.7131C72.2267 81.6847 72.9 80.8807 73.758 80.3011C74.6216 79.7159 75.6188 79.4233 76.7495 79.4233C77.4597 79.4233 78.1444 79.554 78.8034 79.8154C79.4625 80.071 80.0534 80.4659 80.5762 81C81.1046 81.5284 81.5222 82.196 81.829 83.0029C82.1358 83.804 82.2892 84.7529 82.2892 85.8494V86.5994H72.062V85.2614H80.7381C80.7381 84.4205 80.5676 83.6648 80.2267 82.9943C79.8915 82.3182 79.4228 81.7841 78.8205 81.3921C78.2239 81 77.5336 80.804 76.7495 80.804C75.9199 80.804 75.1898 81.0256 74.5591 81.4688C73.9284 81.9119 73.4341 82.4972 73.0762 83.2244C72.7239 83.9517 72.5449 84.7472 72.5392 85.6108V86.4119C72.5392 87.4517 72.7182 88.3608 73.0762 89.1392C73.4398 89.9119 73.954 90.5114 74.6188 90.9375C75.2836 91.3636 76.0705 91.5767 76.9796 91.5767C77.5989 91.5767 78.1415 91.4801 78.6074 91.2869C79.079 91.0938 79.4739 90.8352 79.7921 90.5114C80.1159 90.1818 80.3603 89.821 80.525 89.429L81.9654 89.8977C81.7665 90.4489 81.4398 90.9574 80.9853 91.4233C80.5364 91.8892 79.9739 92.2642 79.2978 92.5483C78.6273 92.8267 77.8546 92.9659 76.9796 92.9659Z" fill="#242424"/>
<path d="M63.5303 92.6932V79.6023H65.0047V81.6136H65.1155C65.3769 80.9545 65.8314 80.4233 66.4791 80.0199C67.1325 79.6108 67.8712 79.4062 68.695 79.4062C68.82 79.4062 68.9592 79.4091 69.1127 79.4148C69.2661 79.4205 69.3939 79.4261 69.4962 79.4318V80.9744C69.428 80.9631 69.3087 80.946 69.1382 80.9233C68.9678 80.9006 68.7831 80.8892 68.5842 80.8892C67.9024 80.8892 67.2945 81.0341 66.7604 81.3239C66.232 81.608 65.8144 82.0028 65.5075 82.5085C65.2007 83.0142 65.0473 83.5909 65.0473 84.2386V92.6932H63.5303Z" fill="#242424"/>
<path d="M60.102 80.6932H58.4997C58.3804 80.0966 58.1645 79.5455 57.852 79.0398C57.5452 78.5284 57.1588 78.0824 56.6929 77.7017C56.227 77.321 55.6986 77.0256 55.1077 76.8153C54.5168 76.6051 53.8776 76.5 53.1901 76.5C52.0878 76.5 51.0821 76.7869 50.173 77.3608C49.2696 77.9347 48.5452 78.7784 47.9997 79.892C47.46 81 47.1901 82.358 47.1901 83.9659C47.1901 85.5852 47.46 86.9489 47.9997 88.0568C48.5452 89.1648 49.2696 90.0057 50.173 90.5795C51.0821 91.1477 52.0878 91.4318 53.1901 91.4318C53.8776 91.4318 54.5168 91.3267 55.1077 91.1165C55.6986 90.9063 56.227 90.6136 56.6929 90.2386C57.1588 89.858 57.5452 89.4119 57.852 88.9006C58.1645 88.3892 58.3804 87.8352 58.4997 87.2386H60.102C59.96 88.0398 59.6929 88.7869 59.3009 89.4801C58.9145 90.1676 58.4202 90.7699 57.8179 91.2869C57.2213 91.804 56.5338 92.2074 55.7554 92.4972C54.977 92.7869 54.1219 92.9318 53.1901 92.9318C51.7242 92.9318 50.423 92.5653 49.2867 91.8324C48.1503 91.0938 47.2583 90.054 46.6105 88.7131C45.9685 87.3722 45.6475 85.7898 45.6475 83.9659C45.6475 82.142 45.9685 80.5597 46.6105 79.2188C47.2583 77.8778 48.1503 76.8409 49.2867 76.108C50.423 75.3693 51.7242 75 53.1901 75C54.1219 75 54.977 75.1449 55.7554 75.4347C56.5338 75.7188 57.2213 76.1222 57.8179 76.6449C58.4202 77.1619 58.9145 77.7642 59.3009 78.4517C59.6929 79.1392 59.96 79.8864 60.102 80.6932Z" fill="#242424"/>
</svg>
