<svg width="175" height="100" viewBox="0 0 175 100" fill="none" xmlns="http://www.w3.org/2000/svg">
<g clip-path="url(#clip0_12169_24718)">
<path d="M8.0415 66.1574V48.3466H30.2793V47.3047H8.0415V31.0561H31.6853V30.0146H7V67.1989H31.8935V66.1574H8.0415ZM51.9442 40.4303L42.7264 52.5648L33.7164 40.4306H32.3623L42.1012 53.3462L31.4246 67.1986H32.6746L42.7258 54.1267L52.8291 67.1986H54.131L43.4028 53.3456L53.1936 40.43H51.9439L51.9442 40.4303ZM57.2561 76.3648V59.6999H57.3602C57.9854 62.1302 59.2179 64.0831 61.058 65.5588C62.8981 67.0342 65.2415 67.7722 68.0884 67.7722C69.9286 67.7722 71.5605 67.3989 72.984 66.6525C74.4075 65.9061 75.5965 64.8905 76.5514 63.6058C77.506 62.3212 78.2353 60.8283 78.7388 59.127C79.2421 57.4259 79.494 55.6377 79.494 53.7632C79.494 51.7492 79.2333 49.8916 78.7125 48.1906C78.1918 46.4892 77.4366 45.0136 76.4473 43.7639C75.4577 42.5139 74.2599 41.5415 72.8536 40.8476C71.4477 40.153 69.8592 39.8058 68.0884 39.8058C66.7344 39.8058 65.4759 40.0055 64.3128 40.4046C63.1497 40.8041 62.117 41.368 61.2143 42.0972C60.3063 42.8321 59.5159 43.7014 58.8706 44.675C58.2111 45.6647 57.7075 46.7496 57.3602 47.9302H57.2561V40.4303H56.2146V76.3648H57.2561ZM68.0884 66.7822C64.8252 66.7822 62.2036 65.6626 60.2247 63.4233C58.2458 61.184 57.2561 57.9636 57.2561 53.7625C57.2561 52.0265 57.4993 50.3774 57.9854 48.8151C58.4714 47.2529 59.1744 45.8813 60.0943 44.701C61.0145 43.5204 62.1517 42.583 63.5055 41.8888C64.8595 41.1942 66.3874 40.8469 68.0884 40.8469C69.8245 40.8469 71.3436 41.1942 72.6455 41.8888C73.9473 42.583 75.0238 43.5291 75.8744 44.7269C76.7249 45.9247 77.3672 47.2963 77.8014 48.841C78.2352 50.3861 78.4522 52.0265 78.4522 53.7625C78.4522 55.3251 78.2527 56.8789 77.8533 58.4237C77.4541 59.9687 76.8377 61.3575 76.0044 62.5903C75.1714 63.8225 74.1039 64.8293 72.8018 65.6107C71.4996 66.3918 69.9286 66.7822 68.0884 66.7822ZM85.2225 67.1989V52.044C85.2225 50.5858 85.4307 49.1621 85.8477 47.7736C86.2641 46.3848 86.9064 45.1608 87.7744 44.1021C88.6424 43.0431 89.7446 42.2098 91.0815 41.6021C92.418 40.9945 94.0065 40.7429 95.8467 40.8469V39.8054C94.2494 39.7711 92.8522 39.9442 91.6544 40.3262C90.4563 40.7082 89.4236 41.2289 88.5555 41.8888C87.6875 42.5483 86.9933 43.3207 86.4725 44.2062C85.9522 45.0903 85.566 46.0468 85.3266 47.0444H85.2225V40.4303H84.1811V67.1992L85.2225 67.1989ZM97.1485 54.0229H119.542C119.612 52.1828 119.43 50.4124 118.996 48.711C118.562 47.0097 117.867 45.4993 116.913 44.1802C115.958 42.8609 114.725 41.8019 113.215 41.0032C111.705 40.2046 109.908 39.8054 107.825 39.8054C106.332 39.8054 104.874 40.118 103.45 40.7432C102.027 41.368 100.777 42.2792 99.7004 43.4769C98.6242 44.6747 97.7562 46.1416 97.0966 47.878C96.4371 49.6137 96.107 51.5926 96.107 53.8147C96.107 55.7937 96.3327 57.6425 96.7841 59.3611C97.2354 61.0796 97.9297 62.5728 98.8671 63.84C99.8048 65.1071 101.011 66.088 102.487 66.7822C103.962 67.4768 105.742 67.8065 107.825 67.7718C110.88 67.7718 113.449 66.9123 115.532 65.194C117.616 63.4752 118.848 61.0537 119.23 57.9289H118.189C117.737 60.8802 116.583 63.0935 114.725 64.5689C112.868 66.0446 110.533 66.7822 107.72 66.7822C105.811 66.7822 104.196 66.4525 102.877 65.7929C101.558 65.1334 100.482 64.2304 99.6482 63.0848C98.8152 61.9389 98.1988 60.5936 97.7996 59.0485C97.4002 57.5038 97.1832 55.8284 97.1485 54.0229ZM118.501 52.9814H97.1489C97.2526 51.1066 97.5999 49.4227 98.19 47.9299C98.7805 46.4367 99.5529 45.1608 100.508 44.1021C101.462 43.0431 102.574 42.236 103.841 41.6803C105.108 41.1248 106.471 40.8469 107.929 40.8469C109.665 40.8469 111.192 41.1683 112.512 41.8106C113.831 42.4529 114.933 43.3297 115.819 44.4406C116.704 45.5515 117.372 46.8449 117.824 48.3203C118.275 49.796 118.501 51.3498 118.501 52.9814ZM141.155 48.3466H142.197C142.197 45.3605 141.329 43.1906 139.593 41.8366C137.857 40.4825 135.496 39.8054 132.51 39.8054C130.844 39.8054 129.438 40.0139 128.292 40.4306C127.146 40.8469 126.209 41.3852 125.479 42.0447C124.75 42.7043 124.23 43.4335 123.917 44.2321C123.605 45.0308 123.448 45.7947 123.448 46.5236C123.448 47.9818 123.709 49.1449 124.23 50.0129C124.75 50.8809 125.566 51.5579 126.677 52.044C127.441 52.391 128.309 52.7035 129.281 52.9817C130.253 53.2593 131.382 53.5544 132.666 53.8666C133.812 54.1448 134.94 54.4224 136.052 54.7C137.163 54.9778 138.143 55.351 138.994 55.8196C139.845 56.2885 140.539 56.8874 141.077 57.6166C141.615 58.3455 141.884 59.3004 141.884 60.4807C141.884 61.6266 141.615 62.5987 141.077 63.397C140.544 64.1915 139.841 64.8585 139.02 65.3503C138.187 65.8536 137.258 66.218 136.234 66.4437C135.21 66.6694 134.212 66.7822 133.239 66.7822C130.08 66.7822 127.658 66.0793 125.974 64.6733C124.29 63.267 123.449 61.0537 123.449 58.0329H122.407C122.407 61.4009 123.318 63.8659 125.141 65.4285C126.964 66.9907 129.663 67.7718 133.239 67.7718C134.385 67.7718 135.539 67.6415 136.703 67.3811C137.866 67.1208 138.907 66.6956 139.827 66.1052C140.739 65.5231 141.505 64.7392 142.067 63.814C142.639 62.8763 142.926 61.7307 142.926 60.3766C142.926 59.0919 142.674 58.0504 142.171 57.2518C141.667 56.4535 141.008 55.7937 140.192 55.2729C139.376 54.7522 138.456 54.3442 137.432 54.0492C136.402 53.7524 135.369 53.4658 134.333 53.1896C133.058 52.8552 131.782 52.5254 130.505 52.2003C129.412 51.9224 128.396 51.5926 127.459 51.2107C126.556 50.8287 125.835 50.282 125.297 49.5703C124.759 48.8586 124.49 47.843 124.49 46.5236C124.49 46.2807 124.56 45.8466 124.698 45.2217C124.837 44.5966 125.167 43.963 125.688 43.3207C126.209 42.6786 127.007 42.1057 128.083 41.6021C129.16 41.0989 130.635 40.8469 132.51 40.8469C133.795 40.8469 134.966 40.986 136.025 41.2636C137.084 41.5415 137.996 41.9841 138.759 42.5917C139.523 43.1994 140.114 43.9718 140.53 44.9092C140.947 45.8469 141.155 46.9925 141.155 48.3466ZM165.268 48.3466H166.309C166.309 45.3605 165.442 43.1906 163.705 41.8366C161.969 40.4825 159.609 39.8054 156.623 39.8054C154.956 39.8054 153.55 40.0139 152.404 40.4306C151.258 40.8469 150.321 41.3852 149.592 42.0447C148.863 42.7043 148.342 43.4335 148.03 44.2321C147.717 45.0308 147.561 45.7947 147.561 46.5236C147.561 47.9818 147.821 49.1449 148.342 50.0129C148.863 50.8809 149.679 51.5579 150.79 52.044C151.554 52.391 152.422 52.7035 153.394 52.9817C154.366 53.2593 155.494 53.5544 156.779 53.8666C157.925 54.1448 159.053 54.4224 160.164 54.7C161.275 54.9778 162.256 55.351 163.107 55.8196C163.957 56.2885 164.652 56.8874 165.19 57.6166C165.728 58.3455 165.997 59.3004 165.997 60.4807C165.997 61.6266 165.728 62.5987 165.19 63.397C164.656 64.1915 163.954 64.8584 163.133 65.3503C162.299 65.8536 161.371 66.218 160.346 66.4437C159.322 66.6694 158.324 66.7822 157.352 66.7822C154.192 66.7822 151.771 66.0793 150.087 64.6733C148.403 63.267 147.561 61.0537 147.561 58.0329H146.519C146.519 61.4009 147.431 63.8659 149.254 65.4285C151.076 66.9907 153.776 67.7718 157.352 67.7718C158.498 67.7718 159.652 67.6415 160.815 67.3811C161.978 67.1208 163.02 66.6956 163.94 66.1052C164.852 65.5231 165.618 64.7392 166.179 63.814C166.752 62.8763 167.038 61.7307 167.038 60.3766C167.038 59.0919 166.787 58.0504 166.283 57.2518C165.78 56.4535 165.12 55.7937 164.304 55.2729C163.489 54.7522 162.568 54.3442 161.544 54.0492C160.514 53.7524 159.481 53.4658 158.445 53.1896C157.171 52.8552 155.895 52.5254 154.618 52.2003C153.524 51.9224 152.508 51.5926 151.571 51.2107C150.668 50.8287 149.948 50.282 149.41 49.5703C148.872 48.8586 148.602 47.843 148.602 46.5236C148.602 46.2807 148.672 45.8466 148.811 45.2217C148.95 44.5966 149.28 43.963 149.8 43.3207C150.321 42.6786 151.12 42.1057 152.196 41.6021C153.272 41.0989 154.748 40.8469 156.623 40.8469C157.908 40.8469 159.079 40.986 160.138 41.2636C161.197 41.5415 162.108 41.9841 162.872 42.5917C163.636 43.1994 164.226 43.9718 164.643 44.9092C165.06 45.8469 165.268 46.9925 165.268 48.3466H165.268Z" fill="#222222"/>
</g>
<defs>
<clipPath id="clip0_12169_24718">
<rect width="160.038" height="46.6032" fill="white" transform="translate(7 30)"/>
</clipPath>
</defs>
</svg>
