<svg width="175" height="100" viewBox="0 0 175 100" fill="none" xmlns="http://www.w3.org/2000/svg">
<g clip-path="url(#clip0_12169_24624)">
<path d="M87 66.6236C103.569 66.6236 117 53.1921 117 36.6236C117 20.0551 103.569 6.6236 87 6.6236C70.4315 6.6236 57 20.0551 57 36.6236C57 53.1921 70.4315 66.6236 87 66.6236Z" fill="#05998B"/>
<path d="M88.7048 13.8965L73.6074 41.1692H87.1951L85.6853 59.3508L100.783 32.078H87.1951L88.7048 13.8965Z" fill="white"/>
</g>
<path d="M127.336 74.6236V92.0781H125.742V74.6236H127.336Z" fill="#242424"/>
<path d="M110.742 92.0781V74.6236H116.376C117.614 74.6236 118.648 74.8622 119.478 75.3395C120.313 75.8111 120.941 76.4531 121.362 77.2656C121.788 78.0781 122.001 78.9929 122.001 80.01C122.001 81.027 121.79 81.9446 121.37 82.7628C120.95 83.5753 120.325 84.2202 119.495 84.6975C118.665 85.1691 117.634 85.4048 116.401 85.4048H111.969V83.973H116.359C117.273 83.973 118.032 83.8026 118.634 83.4617C119.237 83.1151 119.685 82.6435 119.981 82.0469C120.282 81.4503 120.433 80.7713 120.433 80.01C120.433 79.2486 120.282 78.5696 119.981 77.973C119.685 77.3764 119.234 76.9077 118.626 76.5668C118.023 76.2259 117.259 76.0554 116.333 76.0554H112.336V92.0781H110.742Z" fill="#242424"/>
<path d="M95.0181 92.0781H93.3477L99.6971 74.6236H101.402L107.751 92.0781H106.081L100.609 76.6946H100.49L95.0181 92.0781ZM96.2198 85.3878H104.879V86.8196H96.2198V85.3878Z" fill="#242424"/>
<path d="M91.2315 78.9873V80.3083H84.9844V78.9873H91.2315ZM86.9361 75.8509H88.4617V88.6606C88.4617 89.206 88.5554 89.635 88.7429 89.9475C88.9304 90.2543 89.1747 90.4731 89.4759 90.6037C89.777 90.7287 90.098 90.7912 90.4389 90.7912C90.6378 90.7912 90.8082 90.7799 90.9503 90.7571C91.0923 90.7287 91.2173 90.7003 91.3253 90.6719L91.6492 92.0441C91.5014 92.1009 91.3196 92.152 91.1037 92.1975C90.8878 92.2486 90.6207 92.2742 90.3026 92.2742C89.7457 92.2742 89.2088 92.152 88.6918 91.9077C88.1804 91.6634 87.7599 91.2998 87.4304 90.8168C87.1009 90.3338 86.9361 89.7344 86.9361 89.0185V75.8509Z" fill="#242424"/>
<path d="M82.5658 81.8594L81.1766 82.2514C81.0402 81.8594 80.847 81.5042 80.597 81.1861C80.347 80.8679 80.0203 80.615 79.6169 80.4275C79.2192 80.24 78.7249 80.1463 78.134 80.1463C77.2476 80.1463 76.5203 80.3565 75.9521 80.777C75.384 81.1974 75.0999 81.74 75.0999 82.4048C75.0999 82.9673 75.2931 83.4247 75.6794 83.777C76.0715 84.1236 76.6737 84.3991 77.4862 84.6037L79.4635 85.0895C80.5601 85.3565 81.3811 85.7798 81.9266 86.3594C82.4777 86.9389 82.7533 87.6662 82.7533 88.5412C82.7533 89.2798 82.5487 89.9361 82.1396 90.5099C81.7306 91.0838 81.1595 91.5355 80.4266 91.865C79.6993 92.1889 78.8556 92.3508 77.8953 92.3508C76.6169 92.3508 75.5629 92.0639 74.7334 91.49C73.9039 90.9105 73.3726 90.0753 73.1396 88.9844L74.597 88.6264C74.7845 89.4048 75.151 89.9929 75.6965 90.3906C76.2476 90.7883 76.972 90.9872 77.8698 90.9872C78.8754 90.9872 79.6794 90.7628 80.2817 90.3139C80.884 89.8594 81.1851 89.2912 81.1851 88.6094C81.1851 88.081 81.009 87.6378 80.6567 87.2798C80.3044 86.9162 79.7703 86.6491 79.0544 86.4787L76.9152 85.9673C75.7789 85.6946 74.9379 85.2628 74.3925 84.6719C73.847 84.081 73.5743 83.348 73.5743 82.473C73.5743 81.7514 73.7703 81.1179 74.1624 80.5724C74.5544 80.0213 75.0942 79.5895 75.7817 79.277C76.4692 78.9645 77.2533 78.8082 78.134 78.8082C79.3328 78.8082 80.2902 79.081 81.0061 79.6264C81.7277 80.1662 82.2476 80.9105 82.5658 81.8594Z" fill="#242424"/>
<path d="M64.0676 92.3764C63.2779 92.3764 62.5563 92.223 61.9029 91.9162C61.2495 91.6037 60.7296 91.1548 60.3432 90.5696C59.9569 89.9787 59.7637 89.2628 59.7637 88.4219C59.7637 87.7741 59.8858 87.2287 60.1301 86.7855C60.3745 86.3423 60.7211 85.9787 61.1699 85.6946C61.6188 85.4105 62.15 85.1861 62.7637 85.0213C63.3773 84.8565 64.0534 84.7287 64.7921 84.6378C65.525 84.5469 66.1444 84.4673 66.65 84.3991C67.1614 84.331 67.5506 84.223 67.8176 84.0753C68.0847 83.9275 68.2182 83.6889 68.2182 83.3594V83.0525C68.2182 82.1605 67.9512 81.4588 67.4171 80.9474C66.8887 80.4304 66.1273 80.1719 65.133 80.1719C64.1898 80.1719 63.4199 80.3793 62.8233 80.794C62.2324 81.2088 61.8176 81.6974 61.579 82.2599L60.1387 81.74C60.4341 81.0241 60.8432 80.4531 61.3659 80.027C61.8887 79.5952 62.4739 79.2855 63.1216 79.098C63.7694 78.9048 64.4256 78.8082 65.0904 78.8082C65.5904 78.8082 66.1103 78.8736 66.65 79.0042C67.1955 79.1349 67.7012 79.3622 68.1671 79.6861C68.633 80.0042 69.0108 80.4503 69.3006 81.0241C69.5904 81.5923 69.7353 82.3139 69.7353 83.1889V92.0781H68.2182V90.0071H68.1245C67.9426 90.3935 67.6728 90.7685 67.3148 91.1321C66.9569 91.4957 66.508 91.794 65.9682 92.027C65.4284 92.2599 64.7949 92.3764 64.0676 92.3764ZM64.2722 90.9872C65.079 90.9872 65.7779 90.8082 66.3688 90.4503C66.9597 90.0923 67.4142 89.6179 67.7324 89.027C68.0563 88.4304 68.2182 87.7741 68.2182 87.0582V85.1662C68.1046 85.2741 67.9142 85.3707 67.6472 85.456C67.3858 85.5412 67.0819 85.6179 66.7353 85.6861C66.3944 85.7486 66.0534 85.8025 65.7125 85.848C65.3716 85.8935 65.0648 85.9332 64.7921 85.9673C64.0534 86.0582 63.4228 86.2003 62.9 86.3935C62.3773 86.5866 61.9767 86.8537 61.6983 87.1946C61.4199 87.5298 61.2807 87.9616 61.2807 88.49C61.2807 89.2855 61.5648 89.902 62.133 90.3395C62.7012 90.7713 63.4142 90.9872 64.2722 90.9872Z" fill="#242424"/>
<path d="M46.6641 92.0781V74.6236H56.7635V76.0554H48.2578V82.6264H55.9709V84.0583H48.2578V92.0781H46.6641Z" fill="#242424"/>
<g clip-path="url(#clip1_12169_24624)">
<path d="M87 61C103.569 61 117 47.5685 117 31C117 14.4315 103.569 1 87 1C70.4315 1 57 14.4315 57 31C57 47.5685 70.4315 61 87 61Z" fill="#05998B"/>
<path d="M88.7048 8.27283L73.6074 35.5456H87.1951L85.6853 53.7271L100.783 26.4544H87.1951L88.7048 8.27283Z" fill="white"/>
</g>
<defs>
<clipPath id="clip0_12169_24624">
<rect width="60" height="60" fill="white" transform="translate(57 6.6236)"/>
</clipPath>
<clipPath id="clip1_12169_24624">
<rect width="60" height="60" fill="white" transform="translate(57 1)"/>
</clipPath>
</defs>
</svg>
