<svg width="175" height="100" viewBox="0 0 175 100" fill="none" xmlns="http://www.w3.org/2000/svg">
<path d="M97.0294 20.5846H99.3033L105.784 14.1039L106.102 11.3525C102.39 8.07569 97.9031 5.7994 93.0663 4.73866C88.2294 3.67793 83.202 3.86776 78.4589 5.29024C73.7158 6.71271 69.4136 9.32087 65.9587 12.8683C62.5039 16.4158 60.0104 20.7854 58.7139 25.5645C59.4358 25.2686 60.2356 25.2206 60.9878 25.428L73.9491 23.2906C73.9491 23.2906 74.6085 22.1991 74.9496 22.2673C77.7268 19.2172 81.5649 17.344 85.678 17.0312C89.7911 16.7184 93.8683 17.9896 97.0748 20.5846H97.0294Z" fill="#EA4335"/>
<path d="M115.018 25.5645C113.528 20.0789 110.469 15.1475 106.217 11.3752L97.1218 20.4709C99.0174 22.0198 100.537 23.9789 101.565 26.2006C102.593 28.4222 103.103 30.8482 103.057 33.2958V34.9103C104.12 34.9103 105.172 35.1196 106.155 35.5265C107.137 35.9333 108.029 36.5296 108.781 37.2813C109.533 38.033 110.129 38.9254 110.536 39.9075C110.942 40.8897 111.152 41.9423 111.152 43.0054C111.152 44.0685 110.942 45.1211 110.536 46.1033C110.129 47.0854 109.533 47.9778 108.781 48.7295C108.029 49.4812 107.137 50.0775 106.155 50.4843C105.172 50.8912 104.12 51.1005 103.057 51.1005H86.8664L85.252 52.7378V62.4474L86.8664 64.0619H103.057C107.578 64.0971 111.99 62.6761 115.641 60.0092C119.292 57.3423 121.988 53.5711 123.329 49.2535C124.67 44.9359 124.587 40.3011 123.09 36.0349C121.593 31.7686 118.763 28.0975 115.018 25.5645Z" fill="#4285F4"/>
<path d="M70.6546 63.971H86.8448V51.0096H70.6546C69.5011 51.0094 68.3611 50.7612 67.3119 50.282L65.038 50.9869L58.5118 57.4676L57.9434 59.7415C61.6031 62.505 66.0687 63.9909 70.6546 63.971Z" fill="#34A853"/>
<path d="M70.6533 21.9262C66.2666 21.9524 61.9975 23.3481 58.4424 25.9183C54.8873 28.4885 52.2238 32.1049 50.8237 36.2624C49.4237 40.4199 49.3572 44.9108 50.6334 49.1079C51.9096 53.3051 54.4648 56.9988 57.9421 59.6732L67.3334 50.282C66.14 49.7428 65.0952 48.9221 64.2887 47.8903C63.4821 46.8586 62.9379 45.6466 62.7028 44.3582C62.4677 43.0699 62.5486 41.7438 62.9387 40.4937C63.3287 39.2435 64.0163 38.1067 64.9423 37.1807C65.8683 36.2546 67.0051 35.5671 68.2553 35.1771C69.5054 34.787 70.8316 34.7061 72.1199 34.9412C73.4082 35.1763 74.6202 35.7205 75.6519 36.527C76.6837 37.3336 77.5044 38.3784 78.0436 39.5718L87.4348 30.1805C85.4637 27.6036 82.9232 25.5176 80.0119 24.0857C77.1007 22.6537 73.8977 21.9147 70.6533 21.9262Z" fill="#FBBC05"/>
<path d="M155.631 90.0284C154.558 90.0284 153.617 89.7443 152.81 89.1761C152.004 88.608 151.373 87.8154 150.918 86.7983C150.47 85.7813 150.245 84.5966 150.245 83.2443C150.245 81.8977 150.47 80.7188 150.918 79.7074C151.373 78.6904 152.006 77.9006 152.819 77.3381C153.631 76.7699 154.577 76.4858 155.657 76.4858C156.452 76.4858 157.114 76.6279 157.643 76.9119C158.171 77.1904 158.595 77.5369 158.913 77.9517C159.231 78.3665 159.478 78.7699 159.654 79.1619H159.791V72.3011H161.316V89.7557H159.833V87.3267H159.654C159.478 87.7244 159.228 88.1335 158.904 88.554C158.58 88.9688 158.151 89.3182 157.617 89.6023C157.089 89.8864 156.427 90.0284 155.631 90.0284ZM155.81 88.6392C156.657 88.6392 157.379 88.4091 157.975 87.9489C158.572 87.483 159.026 86.8438 159.339 86.0313C159.657 85.2131 159.816 84.2756 159.816 83.2188C159.816 82.1733 159.66 81.25 159.347 80.4489C159.035 79.6421 158.58 79.0114 157.984 78.5568C157.387 78.0966 156.663 77.8665 155.81 77.8665C154.935 77.8665 154.197 78.1051 153.595 78.5824C152.998 79.054 152.543 79.6932 152.231 80.5C151.924 81.3068 151.771 82.2131 151.771 83.2188C151.771 84.2358 151.927 85.1534 152.239 85.9716C152.552 86.7898 153.006 87.4404 153.603 87.9233C154.205 88.4006 154.941 88.6392 155.81 88.6392Z" fill="#242424"/>
<path d="M145.385 84.7528V76.6648H146.902V89.7557H145.385V87.5824H145.265C144.958 88.2528 144.473 88.8125 143.808 89.2614C143.143 89.7045 142.331 89.9261 141.37 89.9261C140.535 89.9261 139.794 89.7443 139.146 89.3807C138.498 89.0114 137.99 88.4716 137.62 87.7614C137.251 87.0511 137.066 86.179 137.066 85.1449V76.6648H138.583V85.0511C138.583 86.0739 138.885 86.8977 139.487 87.5227C140.089 88.142 140.862 88.4517 141.805 88.4517C142.396 88.4517 142.964 88.3097 143.51 88.0256C144.055 87.7415 144.504 87.3267 144.856 86.7812C145.208 86.2301 145.385 85.554 145.385 84.7528Z" fill="#242424"/>
<path d="M127.975 90.0284C126.845 90.0284 125.845 89.7415 124.975 89.1676C124.112 88.5938 123.435 87.8011 122.947 86.7898C122.458 85.7727 122.214 84.5994 122.214 83.2699C122.214 81.929 122.458 80.75 122.947 79.733C123.435 78.7102 124.112 77.9148 124.975 77.3466C125.845 76.7727 126.845 76.4858 127.975 76.4858C129.106 76.4858 130.103 76.7727 130.967 77.3466C131.83 77.9205 132.506 78.7159 132.995 79.733C133.489 80.75 133.737 81.929 133.737 83.2699C133.737 84.5994 133.492 85.7727 133.004 86.7898C132.515 87.8011 131.836 88.5938 130.967 89.1676C130.103 89.7415 129.106 90.0284 127.975 90.0284ZM127.975 88.6392C128.884 88.6392 129.654 88.3949 130.285 87.9063C130.916 87.4176 131.393 86.7671 131.717 85.9546C132.046 85.1421 132.211 84.2472 132.211 83.2699C132.211 82.2926 132.046 81.3949 131.717 80.5767C131.393 79.7585 130.916 79.1023 130.285 78.608C129.654 78.1136 128.884 77.8665 127.975 77.8665C127.072 77.8665 126.302 78.1136 125.666 78.608C125.035 79.1023 124.555 79.7585 124.225 80.5767C123.901 81.3949 123.739 82.2926 123.739 83.2699C123.739 84.2472 123.901 85.1421 124.225 85.9546C124.555 86.7671 125.035 87.4176 125.666 87.9063C126.296 88.3949 127.066 88.6392 127.975 88.6392Z" fill="#242424"/>
<path d="M118.873 72.3011V89.7557H117.355V72.3011H118.873Z" fill="#242424"/>
<path d="M113.927 77.7557H112.325C112.206 77.1591 111.99 76.608 111.677 76.1023C111.37 75.5909 110.984 75.1449 110.518 74.7642C110.052 74.3835 109.524 74.0881 108.933 73.8778C108.342 73.6676 107.703 73.5625 107.015 73.5625C105.913 73.5625 104.907 73.8494 103.998 74.4233C103.095 74.9972 102.37 75.8409 101.825 76.9545C101.285 78.0625 101.015 79.4205 101.015 81.0284C101.015 82.6477 101.285 84.0114 101.825 85.1193C102.37 86.2273 103.095 87.0682 103.998 87.642C104.907 88.2102 105.913 88.4943 107.015 88.4943C107.703 88.4943 108.342 88.3892 108.933 88.179C109.524 87.9688 110.052 87.6761 110.518 87.3011C110.984 86.9205 111.37 86.4744 111.677 85.9631C111.99 85.4517 112.206 84.8977 112.325 84.3011H113.927C113.785 85.1023 113.518 85.8494 113.126 86.5426C112.74 87.2301 112.245 87.8324 111.643 88.3494C111.047 88.8665 110.359 89.2699 109.581 89.5597C108.802 89.8494 107.947 89.9943 107.015 89.9943C105.549 89.9943 104.248 89.6278 103.112 88.8949C101.975 88.1562 101.083 87.1165 100.436 85.7756C99.7937 84.4347 99.4727 82.8523 99.4727 81.0284C99.4727 79.2045 99.7937 77.6222 100.436 76.2813C101.083 74.9403 101.975 73.9034 103.112 73.1705C104.248 72.4318 105.549 72.0625 107.015 72.0625C107.947 72.0625 108.802 72.2074 109.581 72.4972C110.359 72.7813 111.047 73.1847 111.643 73.7074C112.245 74.2244 112.74 74.8267 113.126 75.5142C113.518 76.2017 113.785 76.9489 113.927 77.7557Z" fill="#242424"/>
<path d="M84.5392 90.0284C83.3176 90.0284 82.2607 89.7443 81.3687 89.1761C80.4767 88.6023 79.7863 87.8097 79.2977 86.7983C78.8147 85.7813 78.5732 84.6108 78.5732 83.2869C78.5732 81.9688 78.8147 80.7983 79.2977 79.7756C79.7863 78.7472 80.4596 77.9432 81.3176 77.3636C82.1812 76.7784 83.1784 76.4858 84.309 76.4858C85.0193 76.4858 85.7039 76.6165 86.363 76.8779C87.0221 77.1335 87.613 77.5284 88.1357 78.0625C88.6642 78.5909 89.0818 79.2585 89.3886 80.0654C89.6954 80.8665 89.8488 81.8154 89.8488 82.9119V83.6619H79.6215V82.3239H88.2977C88.2977 81.483 88.1272 80.7273 87.7863 80.0568C87.4511 79.3807 86.9823 78.8466 86.3801 78.4546C85.7835 78.0625 85.0931 77.8665 84.309 77.8665C83.4795 77.8665 82.7494 78.0881 82.1187 78.5313C81.488 78.9744 80.9937 79.5597 80.6357 80.2869C80.2835 81.0142 80.1045 81.8097 80.0988 82.6733V83.4744C80.0988 84.5142 80.2778 85.4233 80.6357 86.2017C80.9994 86.9744 81.5136 87.5739 82.1784 88C82.8431 88.4261 83.6301 88.6392 84.5392 88.6392C85.1585 88.6392 85.7011 88.5426 86.167 88.3494C86.6386 88.1563 87.0335 87.8977 87.3517 87.5739C87.6755 87.2443 87.9198 86.8835 88.0846 86.4915L89.5249 86.9602C89.3261 87.5114 88.9994 88.0199 88.5448 88.4858C88.096 88.9517 87.5335 89.3267 86.8573 89.6108C86.1869 89.8892 85.4142 90.0284 84.5392 90.0284Z" fill="#242424"/>
<path d="M75.2319 72.3011V89.7557H73.7148V72.3011H75.2319Z" fill="#242424"/>
<path d="M64.2955 94.9375C63.4035 94.9375 62.6222 94.821 61.9518 94.5881C61.2813 94.3608 60.716 94.0483 60.2558 93.6506C59.7955 93.2529 59.4376 92.8068 59.1819 92.3125L60.4262 91.4943C60.6137 91.8239 60.8637 92.1477 61.1762 92.4659C61.4944 92.7841 61.9063 93.0483 62.412 93.2585C62.9234 93.4688 63.5512 93.5739 64.2955 93.5739C65.4546 93.5739 66.3893 93.2841 67.0995 92.7046C67.8154 92.125 68.1734 91.2244 68.1734 90.0029V87.054H68.037C67.8609 87.4517 67.608 87.8494 67.2785 88.2472C66.949 88.6392 66.5171 88.9659 65.983 89.2273C65.4546 89.4886 64.7984 89.6193 64.0143 89.6193C62.9688 89.6193 62.0399 89.3608 61.2274 88.8438C60.4205 88.3267 59.7842 87.5881 59.3183 86.6279C58.858 85.6619 58.6279 84.5114 58.6279 83.1761C58.6279 81.8523 58.8524 80.6875 59.3012 79.6818C59.7558 78.6761 60.3893 77.8921 61.2018 77.3296C62.0143 76.7671 62.9603 76.4858 64.0399 76.4858C64.841 76.4858 65.5058 76.6279 66.0342 76.9119C66.5626 77.1904 66.9859 77.5369 67.3041 77.9517C67.6279 78.3665 67.8808 78.7699 68.0626 79.1619H68.216V76.6648H69.699V90.0966C69.699 91.2046 69.4632 92.1165 68.9916 92.8324C68.52 93.5483 67.8779 94.0767 67.0654 94.4176C66.2529 94.7642 65.3296 94.9375 64.2955 94.9375ZM64.1933 88.2301C65.0342 88.2301 65.7529 88.0284 66.3495 87.625C66.9461 87.2159 67.4035 86.6307 67.7217 85.8693C68.0399 85.108 68.199 84.2017 68.199 83.1506C68.199 82.1279 68.0427 81.2216 67.7302 80.4318C67.4177 79.6364 66.9632 79.0114 66.3666 78.5568C65.7757 78.0966 65.0512 77.8665 64.1933 77.8665C63.3183 77.8665 62.5796 78.1023 61.9774 78.5739C61.3751 79.0455 60.9205 79.6818 60.6137 80.483C60.3069 81.2784 60.1535 82.1676 60.1535 83.1506C60.1535 84.1506 60.3097 85.0341 60.6222 85.8011C60.9347 86.5625 61.3921 87.1591 61.9944 87.5909C62.5967 88.0171 63.3296 88.2301 64.1933 88.2301Z" fill="#242424"/>
<path d="M50.2096 90.0284C49.0789 90.0284 48.0789 89.7415 47.2096 89.1676C46.346 88.5938 45.6698 87.8011 45.1812 86.7898C44.6926 85.7727 44.4482 84.5994 44.4482 83.2699C44.4482 81.929 44.6926 80.75 45.1812 79.733C45.6698 78.7102 46.346 77.9148 47.2096 77.3466C48.0789 76.7727 49.0789 76.4858 50.2096 76.4858C51.3403 76.4858 52.3374 76.7727 53.2011 77.3466C54.0647 77.9205 54.7409 78.7159 55.2295 79.733C55.7238 80.75 55.971 81.929 55.971 83.2699C55.971 84.5994 55.7267 85.7727 55.238 86.7898C54.7494 87.8011 54.0704 88.5938 53.2011 89.1676C52.3374 89.7415 51.3403 90.0284 50.2096 90.0284ZM50.2096 88.6392C51.1187 88.6392 51.8886 88.3949 52.5193 87.9063C53.15 87.4176 53.6272 86.7671 53.9511 85.9546C54.2806 85.1421 54.4454 84.2472 54.4454 83.2699C54.4454 82.2926 54.2806 81.3949 53.9511 80.5767C53.6272 79.7585 53.15 79.1023 52.5193 78.608C51.8886 78.1136 51.1187 77.8665 50.2096 77.8665C49.3062 77.8665 48.5363 78.1136 47.8999 78.608C47.2693 79.1023 46.7892 79.7585 46.4596 80.5767C46.1357 81.3949 45.9738 82.2926 45.9738 83.2699C45.9738 84.2472 46.1357 85.1421 46.4596 85.9546C46.7892 86.7671 47.2693 87.4176 47.8999 87.9063C48.5306 88.3949 49.3005 88.6392 50.2096 88.6392Z" fill="#242424"/>
<path d="M36.0299 90.0284C34.8992 90.0284 33.8992 89.7415 33.0299 89.1676C32.1663 88.5938 31.4901 87.8011 31.0015 86.7898C30.5129 85.7727 30.2686 84.5994 30.2686 83.2699C30.2686 81.929 30.5129 80.75 31.0015 79.733C31.4901 78.7102 32.1663 77.9148 33.0299 77.3466C33.8992 76.7727 34.8992 76.4858 36.0299 76.4858C37.1606 76.4858 38.1578 76.7727 39.0214 77.3466C39.885 77.9205 40.5612 78.7159 41.0498 79.733C41.5441 80.75 41.7913 81.929 41.7913 83.2699C41.7913 84.5994 41.547 85.7727 41.0583 86.7898C40.5697 87.8011 39.8907 88.5938 39.0214 89.1676C38.1578 89.7415 37.1606 90.0284 36.0299 90.0284ZM36.0299 88.6392C36.939 88.6392 37.7089 88.3949 38.3396 87.9063C38.9703 87.4176 39.4475 86.7671 39.7714 85.9546C40.1009 85.1421 40.2657 84.2472 40.2657 83.2699C40.2657 82.2926 40.1009 81.3949 39.7714 80.5767C39.4475 79.7585 38.9703 79.1023 38.3396 78.608C37.7089 78.1136 36.939 77.8665 36.0299 77.8665C35.1265 77.8665 34.3566 78.1136 33.7203 78.608C33.0896 79.1023 32.6095 79.7585 32.2799 80.5767C31.9561 81.3949 31.7941 82.2926 31.7941 83.2699C31.7941 84.2472 31.9561 85.1421 32.2799 85.9546C32.6095 86.7671 33.0896 87.4176 33.7203 87.9063C34.3509 88.3949 35.1208 88.6392 36.0299 88.6392Z" fill="#242424"/>
<path d="M25.5444 77.7557C25.3853 77.1761 25.1523 76.6335 24.8455 76.1278C24.5387 75.6165 24.158 75.1705 23.7035 74.7898C23.2546 74.4034 22.7347 74.1023 22.1438 73.8864C21.5586 73.6705 20.9052 73.5625 20.1836 73.5625C19.0472 73.5625 18.0302 73.858 17.1325 74.4489C16.2347 75.0398 15.5245 75.892 15.0018 77.0057C14.4847 78.1193 14.2262 79.4602 14.2262 81.0284C14.2262 82.5909 14.4876 83.929 15.0103 85.0426C15.533 86.1562 16.2489 87.0114 17.158 87.608C18.0728 88.1989 19.1183 88.4943 20.2944 88.4943C21.3683 88.4943 22.3171 88.2557 23.141 87.7784C23.9648 87.3011 24.6069 86.6193 25.0671 85.733C25.533 84.8466 25.7603 83.7926 25.7489 82.571L26.2603 82.733H20.6694V81.3011H27.3001V82.733C27.3001 84.2216 26.9989 85.5085 26.3967 86.5938C25.7944 87.679 24.9677 88.517 23.9165 89.108C22.8654 89.6989 21.658 89.9943 20.2944 89.9943C18.7717 89.9943 17.4393 89.6278 16.2972 88.8949C15.1552 88.1562 14.266 87.1165 13.6296 85.7756C12.9989 84.429 12.6836 82.8466 12.6836 81.0284C12.6836 79.6591 12.8654 78.4233 13.229 77.321C13.5927 76.2187 14.1069 75.2756 14.7717 74.4915C15.4421 73.7074 16.2347 73.108 17.1495 72.6932C18.0643 72.2727 19.0756 72.0625 20.1836 72.0625C21.1381 72.0625 22.0103 72.2131 22.8001 72.5142C23.5955 72.8153 24.2944 73.2301 24.8967 73.7585C25.5046 74.2812 26.0018 74.8864 26.3881 75.5739C26.7802 76.2557 27.0444 76.983 27.1808 77.7557H25.5444Z" fill="#242424"/>
</svg>
