<svg width="175" height="100" viewBox="0 0 175 100" fill="none" xmlns="http://www.w3.org/2000/svg">
<rect width="175" height="100" fill="white"/>
<g clip-path="url(#clip0_12169_24455)">
<path d="M75.9375 60.016C74.5049 60.016 73.1521 59.3794 72.2368 58.2254L58.3099 40.9159C57.3947 39.7619 57.0366 38.2898 57.3947 36.857L62.3686 15.2501C62.6869 13.8175 63.6419 12.6635 64.9552 12.0269L85.0898 2.39702C85.7266 2.07899 86.4429 1.91974 87.1592 1.91974C87.8755 1.91974 88.5915 2.07875 89.2283 2.39726L109.363 11.9872C110.676 12.6237 111.631 13.7777 111.949 15.2103L116.923 36.8172C117.242 38.2498 116.923 39.7221 116.008 40.8762L102.081 58.1856C101.166 59.2997 99.813 59.9762 98.3804 59.9762L75.9379 60.016H75.9375Z" fill="#326DE6"/>
<path d="M87.1181 2.91452C87.6753 2.91452 88.2324 3.03377 88.7496 3.27253L108.884 12.8624C109.919 13.3797 110.715 14.3348 110.954 15.449L115.928 37.056C116.206 38.21 115.928 39.4038 115.172 40.3189L101.244 57.6286C100.528 58.5436 99.4138 59.0609 98.26 59.0609H75.9366C74.7825 59.0609 73.6685 58.5436 72.9522 57.6286L59.0251 40.3189C58.3088 39.4038 58.0301 38.21 58.2691 37.056L63.243 15.449C63.5216 14.295 64.2776 13.34 65.3121 12.8624L85.4472 3.23302C85.9645 3.03402 86.5613 2.91476 87.1183 2.91476L87.1181 2.91452ZM87.1181 1.04419C86.2825 1.04419 85.447 1.2432 84.651 1.60122L64.5164 11.2311C62.9245 11.9871 61.8105 13.3797 61.4125 15.0908L56.4385 36.698C56.0407 38.409 56.4385 40.1599 57.5528 41.5527L71.4799 58.8621C72.5544 60.215 74.1858 60.971 75.8968 60.971H98.22C99.9311 60.971 101.563 60.215 102.637 58.8621L116.564 41.5524C117.678 40.1996 118.076 38.409 117.678 36.6977L112.704 15.0908C112.307 13.3797 111.192 11.9871 109.601 11.2311L89.5454 1.60097C88.7894 1.2432 87.9538 1.04419 87.1181 1.04419Z" fill="white"/>
<path d="M107.294 35.3449C107.254 35.3449 107.254 35.3449 107.294 35.3449H107.254C107.214 35.3449 107.175 35.3449 107.175 35.3052C107.095 35.3052 107.016 35.2654 106.936 35.2654C106.657 35.2256 106.419 35.1859 106.18 35.1859C106.06 35.1859 105.941 35.1859 105.782 35.1459H105.742C104.907 35.0664 104.23 34.9869 103.593 34.7879C103.315 34.6684 103.235 34.5094 103.155 34.3501C103.155 34.3104 103.116 34.3104 103.116 34.2706L102.598 34.1116C102.843 32.2397 102.748 30.3391 102.32 28.5006C101.885 26.6468 101.131 24.8829 100.092 23.2879L100.49 22.9299V22.8504C100.49 22.6514 100.529 22.4524 100.688 22.2533C101.166 21.8156 101.763 21.4576 102.479 21.0198C102.598 20.9403 102.718 20.9005 102.837 20.8208C103.076 20.7015 103.275 20.5823 103.514 20.423C103.553 20.3833 103.633 20.3435 103.713 20.264C103.752 20.224 103.792 20.224 103.792 20.1843C104.349 19.7067 104.469 18.911 104.071 18.3934C103.872 18.1149 103.514 17.9559 103.155 17.9559C102.837 17.9559 102.559 18.0752 102.28 18.2742L102.201 18.3537C102.121 18.3934 102.081 18.4732 102.002 18.5129C101.803 18.7119 101.643 18.871 101.484 19.07C101.405 19.1495 101.325 19.269 101.206 19.3485C100.649 19.9455 100.131 20.423 99.6141 20.781C99.4948 20.8605 99.3755 20.9005 99.256 20.9005C99.1765 20.9005 99.0968 20.9005 99.0173 20.8605H98.9378L98.46 21.179C97.9427 20.622 97.3857 20.1445 96.8287 19.667C94.4301 17.7921 91.5434 16.6457 88.5121 16.3641L88.4723 15.8468L88.3928 15.7673C88.2733 15.6478 88.1143 15.5286 88.0743 15.25C88.0346 14.6133 88.1143 13.897 88.1938 13.1012V13.0615C88.1938 12.942 88.2336 12.7829 88.2733 12.6634C88.3131 12.4249 88.3528 12.1859 88.3928 11.9074V11.5494C88.3928 10.8331 87.8356 10.2363 87.1593 10.2363C86.8408 10.2363 86.5225 10.3953 86.2837 10.6341C86.0452 10.8729 85.9257 11.1911 85.9257 11.5494V11.8677C85.9257 12.1462 85.9655 12.3849 86.045 12.6237C86.0847 12.7432 86.0847 12.8624 86.1245 13.0217V13.0615C86.204 13.8572 86.3235 14.5735 86.244 15.2103C86.2042 15.4888 86.045 15.6081 85.9257 15.7276L85.8462 15.8071L85.8062 16.3243C85.0899 16.4039 84.3737 16.4834 83.6574 16.6426C80.5935 17.3191 77.8876 18.8712 75.7788 21.0993L75.3808 20.8208H75.3013C75.2218 20.8208 75.142 20.8605 75.0625 20.8605C74.943 20.8605 74.8237 20.8208 74.7042 20.7413C74.187 20.3833 73.6697 19.8657 73.1127 19.269C73.0332 19.1895 72.9537 19.07 72.8342 18.9905C72.6749 18.7914 72.5157 18.6322 72.3167 18.4334C72.2769 18.3934 72.1974 18.3539 72.1179 18.2742C72.0781 18.2344 72.0384 18.2344 72.0384 18.1947C71.7918 17.991 71.4826 17.8785 71.1628 17.8762C70.8046 17.8762 70.4466 18.0354 70.2476 18.3139C69.8495 18.8312 69.969 19.627 70.5261 20.1045C70.5658 20.1045 70.5658 20.1445 70.6056 20.1445C70.6851 20.1843 70.7251 20.2638 70.8046 20.3035C71.0433 20.4625 71.2424 20.582 71.4811 20.7015C71.6006 20.7413 71.7199 20.8208 71.8394 20.9005C72.5554 21.3381 73.1524 21.6963 73.63 22.1341C73.829 22.3329 73.829 22.5319 73.829 22.7309V22.8104L74.2267 23.1686C74.1472 23.2879 74.0677 23.3676 74.0277 23.4869C72.0381 26.6305 71.2821 30.3312 71.7994 33.9921L71.2821 34.1511C71.2821 34.1911 71.2424 34.1911 71.2424 34.2306C71.1628 34.3899 71.0433 34.5491 70.8046 34.6684C70.2078 34.8674 69.4915 34.9471 68.656 35.0266H68.616C68.4967 35.0266 68.3375 35.0266 68.2182 35.0664C67.9795 35.0664 67.7407 35.1061 67.4622 35.1459C67.3827 35.1459 67.3032 35.1859 67.2234 35.1859C67.1837 35.1859 67.1439 35.1859 67.1039 35.2256C66.3876 35.3847 65.9499 36.0612 66.0694 36.6977C66.1889 37.255 66.7062 37.6132 67.3427 37.6132C67.4622 37.6132 67.5417 37.6132 67.6612 37.5733C67.7009 37.5733 67.7407 37.5733 67.7407 37.5335C67.8202 37.5335 67.8997 37.4937 67.9792 37.4937C68.258 37.4142 68.457 37.3347 68.6957 37.2152C68.815 37.1755 68.9343 37.0957 69.0538 37.0562H69.0935C69.8495 36.7775 70.5261 36.5387 71.1628 36.4592H71.2424C71.4811 36.4592 71.6404 36.5785 71.7596 36.6582C71.7994 36.6582 71.7994 36.698 71.8391 36.698L72.3964 36.6185C73.3514 39.5628 75.1818 42.1892 77.6091 44.0993C78.1661 44.5368 78.7232 44.8951 79.3202 45.2533L79.0814 45.7704C79.0814 45.8104 79.1212 45.8103 79.1212 45.8499C79.2007 46.0091 79.2802 46.2081 79.2007 46.4866C78.9622 47.0837 78.6039 47.6804 78.1661 48.357V48.3967C78.0866 48.5162 78.0071 48.5957 77.9276 48.715C77.7684 48.914 77.6489 49.113 77.4896 49.3518C77.4499 49.3915 77.4101 49.471 77.3704 49.5508C77.3704 49.5905 77.3306 49.6303 77.3306 49.6303C77.0123 50.3068 77.2511 51.0628 77.8479 51.3413C78.0069 51.4208 78.1661 51.4608 78.3254 51.4608C78.8029 51.4608 79.2804 51.1423 79.5192 50.7046C79.5192 50.6648 79.559 50.6251 79.559 50.6251C79.5987 50.5456 79.6385 50.466 79.6782 50.4261C79.7977 50.1475 79.8375 49.9485 79.917 49.7098L80.0365 49.3518C80.315 48.556 80.514 47.9192 80.872 47.3622C81.031 47.1234 81.2303 47.0837 81.3893 47.0039C81.429 47.0039 81.429 47.0039 81.4688 46.9642L81.7475 46.4469C83.4984 47.1234 85.4084 47.4814 87.3183 47.4814C88.4723 47.4814 89.6661 47.3622 90.7804 47.0837C91.4816 46.9269 92.1726 46.7275 92.8495 46.4866L93.088 46.9244C93.128 46.9244 93.128 46.9244 93.1678 46.9642C93.3668 47.0039 93.5258 47.0837 93.6851 47.3224C94.0033 47.8794 94.2421 48.556 94.5206 49.312V49.3518L94.6401 49.7098C94.7196 49.9485 94.7594 50.1873 94.8786 50.4261C94.9186 50.5056 94.9584 50.5456 94.9981 50.6251C94.9981 50.6648 95.0381 50.7046 95.0381 50.7046C95.2766 51.1821 95.7541 51.4608 96.2317 51.4608C96.3909 51.4608 96.5502 51.4208 96.7092 51.3413C96.9877 51.1823 97.2265 50.9433 97.3062 50.6251C97.3857 50.3068 97.3857 49.9485 97.2267 49.6303C97.2267 49.5905 97.1867 49.5905 97.1867 49.5508C97.147 49.4713 97.1072 49.3917 97.0674 49.3518C96.9479 49.113 96.7889 48.914 96.6297 48.715C96.5502 48.5957 96.4707 48.5162 96.3912 48.397V48.357C95.9532 47.6804 95.5551 47.0837 95.3564 46.4866C95.2769 46.2081 95.3564 46.0491 95.3961 45.8501C95.3961 45.8103 95.4359 45.8104 95.4359 45.7706L95.2369 45.2931C97.346 44.0595 99.1365 42.3085 100.49 40.1599C101.206 39.0456 101.763 37.812 102.161 36.5785L102.638 36.658C102.678 36.658 102.678 36.6182 102.718 36.6182C102.877 36.5387 102.996 36.4194 103.235 36.4194H103.315C103.951 36.499 104.628 36.7375 105.384 37.0162H105.424C105.543 37.056 105.662 37.1355 105.782 37.1752C106.021 37.2947 106.22 37.3742 106.498 37.454C106.578 37.454 106.657 37.4937 106.737 37.4937C106.777 37.4937 106.816 37.4937 106.856 37.5335C106.976 37.5733 107.055 37.5733 107.175 37.5733C107.771 37.5733 108.289 37.1755 108.448 36.6582C108.448 36.1807 108.01 35.5439 107.294 35.3451V35.3449ZM88.8701 33.3951L87.1193 34.2309L85.3685 33.3951L84.9309 31.525L86.1245 30.0129H88.0743L89.2681 31.525L88.8703 33.3951H88.8701ZM99.256 29.2569C99.5647 30.5727 99.6588 31.9298 99.5345 33.2756L93.4463 31.525C92.8893 31.366 92.571 30.8087 92.6903 30.2517C92.73 30.0924 92.8098 29.9332 92.929 29.8139L97.744 25.4765C98.4203 26.5908 98.9375 27.8643 99.256 29.2569ZM95.8339 23.0891L90.6212 26.7898C90.1834 27.0683 89.5864 26.9886 89.2284 26.551C89.1091 26.4315 89.0694 26.2723 89.0294 26.1133L88.6713 19.627C91.3813 19.939 93.9059 21.1593 95.8339 23.0891ZM84.2942 19.8258C84.7319 19.7462 85.1297 19.6667 85.5675 19.5872L85.2094 25.9538C85.1697 26.5108 84.7319 26.9883 84.1349 26.9883C83.9759 26.9883 83.7769 26.9486 83.6574 26.8691L78.3652 23.0891C79.9967 21.4576 82.0261 20.343 84.2942 19.8258ZM76.4551 25.4762L81.1903 29.6942C81.628 30.0524 81.6678 30.7287 81.3098 31.1665C81.1903 31.3255 81.0313 31.445 80.8323 31.485L74.6645 33.2756C74.4257 30.5697 75.0225 27.8241 76.4551 25.4762ZM75.3805 36.26L81.7078 35.1854C82.2251 35.1457 82.7026 35.5039 82.8218 36.0212C82.8616 36.2597 82.8616 36.459 82.7821 36.658L80.3547 42.5072C78.1264 41.0747 76.3356 38.8861 75.3805 36.26ZM89.9049 44.1785C88.9896 44.3776 88.0743 44.4968 87.1193 44.4968C85.7267 44.4968 84.3737 44.2583 83.1006 43.8603L86.244 38.17C86.5623 37.8118 87.0795 37.6528 87.5173 37.8915C87.7031 38.0053 87.8652 38.1539 87.9948 38.329L91.0587 43.8603C90.7007 43.9795 90.3027 44.0593 89.9047 44.1785H89.9049ZM97.6642 38.6476C96.6694 40.2391 95.3561 41.5124 93.8443 42.5072L91.3375 36.4985C91.218 36.0212 91.417 35.5039 91.8945 35.2649C92.0535 35.1854 92.2525 35.1457 92.4515 35.1457L98.8183 36.2202C98.5795 37.0955 98.1815 37.8915 97.6642 38.6476Z" fill="white"/>
</g>
<path d="M24.3182 92V74.5455H25.9119V83.946H26.0653L34.5881 74.5455H36.6847L29.2273 82.6165L36.6506 92H34.7074L28.2386 83.7244L25.9119 86.3324V92H24.3182ZM46.8757 86.9972V78.9091H48.3928V92H46.8757V89.8267H46.7564C46.4496 90.4972 45.9638 91.0568 45.299 91.5057C44.6342 91.9489 43.8217 92.1705 42.8615 92.1705C42.0263 92.1705 41.2848 91.9886 40.6371 91.625C39.9893 91.2557 39.4808 90.7159 39.1115 90.0057C38.7422 89.2955 38.5575 88.4233 38.5575 87.3892V78.9091H40.0746V87.2955C40.0746 88.3182 40.3757 89.142 40.978 89.767C41.5803 90.3864 42.353 90.696 43.2962 90.696C43.8871 90.696 44.4553 90.554 45.0007 90.2699C45.5462 89.9858 45.995 89.571 46.3473 89.0256C46.6996 88.4744 46.8757 87.7983 46.8757 86.9972ZM52.7244 92V74.5455H54.25V81.4062H54.3864C54.5568 81.0142 54.8011 80.6108 55.1193 80.196C55.4432 79.7812 55.8665 79.4347 56.3892 79.1562C56.9176 78.8722 57.5824 78.7301 58.3835 78.7301C59.4574 78.7301 60.4006 79.0142 61.2131 79.5824C62.0256 80.1449 62.6591 80.9347 63.1136 81.9517C63.5682 82.9631 63.7955 84.142 63.7955 85.4886C63.7955 86.8409 63.5682 88.0256 63.1136 89.0426C62.6648 90.0597 62.0341 90.8523 61.2216 91.4205C60.4148 91.9886 59.4773 92.2727 58.4091 92.2727C57.6136 92.2727 56.9489 92.1307 56.4148 91.8466C55.8864 91.5625 55.4602 91.2131 55.1364 90.7983C54.8125 90.3778 54.5625 89.9687 54.3864 89.571H54.1989V92H52.7244ZM54.2244 85.4631C54.2244 86.5199 54.3807 87.4574 54.6932 88.2756C55.0114 89.0881 55.4659 89.7273 56.0568 90.1932C56.6534 90.6534 57.375 90.8835 58.2216 90.8835C59.0909 90.8835 59.8267 90.6449 60.429 90.1676C61.0313 89.6847 61.4886 89.0341 61.8011 88.2159C62.1136 87.3977 62.2699 86.4801 62.2699 85.4631C62.2699 84.4574 62.1136 83.5511 61.8011 82.7443C61.4943 81.9375 61.0398 81.2983 60.4375 80.8267C59.8352 80.3494 59.0966 80.1108 58.2216 80.1108C57.3693 80.1108 56.6449 80.3409 56.0483 80.8011C55.4574 81.2557 55.0057 81.8864 54.6932 82.6932C54.3807 83.4943 54.2244 84.4176 54.2244 85.4631ZM72.4205 92.2727C71.1989 92.2727 70.142 91.9886 69.25 91.4205C68.358 90.8466 67.6676 90.054 67.179 89.0426C66.696 88.0256 66.4545 86.8551 66.4545 85.5312C66.4545 84.2131 66.696 83.0426 67.179 82.0199C67.6676 80.9915 68.3409 80.1875 69.1989 79.608C70.0625 79.0227 71.0597 78.7301 72.1903 78.7301C72.9006 78.7301 73.5852 78.8608 74.2443 79.1222C74.9034 79.3778 75.4943 79.7727 76.017 80.3068C76.5455 80.8352 76.9631 81.5028 77.2699 82.3097C77.5767 83.1108 77.7301 84.0597 77.7301 85.1562V85.9062H67.5028V84.5682H76.179C76.179 83.7273 76.0085 82.9716 75.6676 82.3011C75.3324 81.625 74.8636 81.0909 74.2614 80.6989C73.6648 80.3068 72.9744 80.1108 72.1903 80.1108C71.3608 80.1108 70.6307 80.3324 70 80.7756C69.3693 81.2187 68.875 81.804 68.517 82.5312C68.1648 83.2585 67.9858 84.054 67.9801 84.9176V85.7188C67.9801 86.7585 68.1591 87.6676 68.517 88.446C68.8807 89.2187 69.3949 89.8182 70.0597 90.2443C70.7244 90.6705 71.5114 90.8835 72.4205 90.8835C73.0398 90.8835 73.5824 90.7869 74.0483 90.5938C74.5199 90.4006 74.9148 90.142 75.233 89.8182C75.5568 89.4886 75.8011 89.1278 75.9659 88.7358L77.4062 89.2045C77.2074 89.7557 76.8807 90.2642 76.4261 90.7301C75.9773 91.196 75.4148 91.571 74.7386 91.8551C74.0682 92.1335 73.2955 92.2727 72.4205 92.2727ZM81.0732 92V78.9091H82.5476V80.9205H82.6584C82.9197 80.2614 83.3743 79.7301 84.022 79.3267C84.6754 78.9176 85.4141 78.7131 86.2379 78.7131C86.3629 78.7131 86.5021 78.7159 86.6555 78.7216C86.8089 78.7273 86.9368 78.733 87.0391 78.7386V80.2812C86.9709 80.2699 86.8516 80.2528 86.6811 80.2301C86.5107 80.2074 86.326 80.196 86.1271 80.196C85.4453 80.196 84.8374 80.3409 84.3033 80.6307C83.7749 80.9148 83.3572 81.3097 83.0504 81.8153C82.7436 82.321 82.5902 82.8977 82.5902 83.5455V92H81.0732ZM91.1449 83.8182V92H89.6278V78.9091H91.1023V80.9631H91.2386C91.5455 80.2926 92.0227 79.7557 92.6705 79.3523C93.3239 78.9432 94.1307 78.7386 95.0909 78.7386C95.9716 78.7386 96.7443 78.9233 97.4091 79.2926C98.0795 79.6562 98.5994 80.1932 98.9688 80.9034C99.3438 81.6136 99.5312 82.4858 99.5312 83.5199V92H98.0142V83.6136C98.0142 82.5398 97.7131 81.6903 97.1108 81.0653C96.5142 80.4403 95.7131 80.1278 94.7074 80.1278C94.0199 80.1278 93.4091 80.2756 92.875 80.571C92.3409 80.8665 91.9176 81.2926 91.6051 81.8494C91.2983 82.4006 91.1449 83.0568 91.1449 83.8182ZM108.819 92.2727C107.597 92.2727 106.54 91.9886 105.648 91.4205C104.756 90.8466 104.066 90.054 103.577 89.0426C103.094 88.0256 102.853 86.8551 102.853 85.5312C102.853 84.2131 103.094 83.0426 103.577 82.0199C104.066 80.9915 104.739 80.1875 105.597 79.608C106.461 79.0227 107.458 78.7301 108.589 78.7301C109.299 78.7301 109.984 78.8608 110.643 79.1222C111.302 79.3778 111.893 79.7727 112.415 80.3068C112.944 80.8352 113.362 81.5028 113.668 82.3097C113.975 83.1108 114.129 84.0597 114.129 85.1562V85.9062H103.901V84.5682H112.577C112.577 83.7273 112.407 82.9716 112.066 82.3011C111.731 81.625 111.262 81.0909 110.66 80.6989C110.063 80.3068 109.373 80.1108 108.589 80.1108C107.759 80.1108 107.029 80.3324 106.398 80.7756C105.768 81.2187 105.273 81.804 104.915 82.5312C104.563 83.2585 104.384 84.054 104.379 84.9176V85.7188C104.379 86.7585 104.558 87.6676 104.915 88.446C105.279 89.2187 105.793 89.8182 106.458 90.2443C107.123 90.6705 107.91 90.8835 108.819 90.8835C109.438 90.8835 109.981 90.7869 110.447 90.5938C110.918 90.4006 111.313 90.142 111.631 89.8182C111.955 89.4886 112.2 89.1278 112.364 88.7358L113.805 89.2045C113.606 89.7557 113.279 90.2642 112.825 90.7301C112.376 91.196 111.813 91.571 111.137 91.8551C110.467 92.1335 109.694 92.2727 108.819 92.2727ZM122.628 78.9091V80.2301H116.381V78.9091H122.628ZM118.332 75.7727H119.858V88.5824C119.858 89.1278 119.952 89.5568 120.139 89.8693C120.327 90.1761 120.571 90.3949 120.872 90.5256C121.173 90.6506 121.494 90.7131 121.835 90.7131C122.034 90.7131 122.205 90.7017 122.347 90.679C122.489 90.6506 122.614 90.6222 122.722 90.5938L123.045 91.9659C122.898 92.0227 122.716 92.0739 122.5 92.1193C122.284 92.1705 122.017 92.196 121.699 92.196C121.142 92.196 120.605 92.0739 120.088 91.8295C119.577 91.5852 119.156 91.2216 118.827 90.7386C118.497 90.2557 118.332 89.6562 118.332 88.9403V75.7727ZM131.225 92.2727C130.004 92.2727 128.947 91.9886 128.055 91.4205C127.163 90.8466 126.472 90.054 125.984 89.0426C125.501 88.0256 125.259 86.8551 125.259 85.5312C125.259 84.2131 125.501 83.0426 125.984 82.0199C126.472 80.9915 127.146 80.1875 128.004 79.608C128.867 79.0227 129.864 78.7301 130.995 78.7301C131.705 78.7301 132.39 78.8608 133.049 79.1222C133.708 79.3778 134.299 79.7727 134.822 80.3068C135.35 80.8352 135.768 81.5028 136.075 82.3097C136.381 83.1108 136.535 84.0597 136.535 85.1562V85.9062H126.308V84.5682H134.984C134.984 83.7273 134.813 82.9716 134.472 82.3011C134.137 81.625 133.668 81.0909 133.066 80.6989C132.469 80.3068 131.779 80.1108 130.995 80.1108C130.165 80.1108 129.435 80.3324 128.805 80.7756C128.174 81.2187 127.68 81.804 127.322 82.5312C126.969 83.2585 126.79 84.054 126.785 84.9176V85.7188C126.785 86.7585 126.964 87.6676 127.322 88.446C127.685 89.2187 128.2 89.8182 128.864 90.2443C129.529 90.6705 130.316 90.8835 131.225 90.8835C131.844 90.8835 132.387 90.7869 132.853 90.5938C133.325 90.4006 133.719 90.142 134.038 89.8182C134.362 89.4886 134.606 89.1278 134.771 88.7358L136.211 89.2045C136.012 89.7557 135.685 90.2642 135.231 90.7301C134.782 91.196 134.219 91.571 133.543 91.8551C132.873 92.1335 132.1 92.2727 131.225 92.2727ZM148.673 81.7812L147.284 82.1733C147.148 81.7812 146.955 81.4261 146.705 81.108C146.455 80.7898 146.128 80.5369 145.724 80.3494C145.327 80.1619 144.832 80.0682 144.241 80.0682C143.355 80.0682 142.628 80.2784 142.06 80.6989C141.491 81.1193 141.207 81.6619 141.207 82.3267C141.207 82.8892 141.401 83.3466 141.787 83.6989C142.179 84.0455 142.781 84.321 143.594 84.5256L145.571 85.0114C146.668 85.2784 147.489 85.7017 148.034 86.2812C148.585 86.8608 148.861 87.5881 148.861 88.4631C148.861 89.2017 148.656 89.858 148.247 90.4318C147.838 91.0057 147.267 91.4574 146.534 91.7869C145.807 92.1108 144.963 92.2727 144.003 92.2727C142.724 92.2727 141.67 91.9858 140.841 91.4119C140.011 90.8324 139.48 89.9972 139.247 88.9062L140.705 88.5483C140.892 89.3267 141.259 89.9148 141.804 90.3125C142.355 90.7102 143.08 90.9091 143.977 90.9091C144.983 90.9091 145.787 90.6847 146.389 90.2358C146.991 89.7812 147.293 89.2131 147.293 88.5312C147.293 88.0028 147.116 87.5597 146.764 87.2017C146.412 86.8381 145.878 86.571 145.162 86.4006L143.023 85.8892C141.886 85.6165 141.045 85.1847 140.5 84.5938C139.955 84.0028 139.682 83.2699 139.682 82.3949C139.682 81.6733 139.878 81.0398 140.27 80.4943C140.662 79.9432 141.202 79.5114 141.889 79.1989C142.577 78.8864 143.361 78.7301 144.241 78.7301C145.44 78.7301 146.398 79.0028 147.114 79.5483C147.835 80.0881 148.355 80.8324 148.673 81.7812Z" fill="#242424"/>
<defs>
<clipPath id="clip0_12169_24455">
<rect width="61.6776" height="60" fill="white" transform="translate(56.1611 1)"/>
</clipPath>
</defs>
</svg>
