<svg width="175" height="100" viewBox="0 0 175 100" fill="none" xmlns="http://www.w3.org/2000/svg">
<g clip-path="url(#clip0_12169_24585)">
<g clip-path="url(#clip1_12169_24585)">
<path d="M91.4866 6.23401L69.3168 25.4555L50.4062 59.4057H67.46L91.4866 6.23401ZM94.4349 10.7307L84.9745 37.3933L103.112 60.1825L67.9207 66.2288H125.594L94.4349 10.7307Z" fill="#0072C6"/>
</g>
<path d="M169.397 92.7685C168.175 92.7685 167.118 92.4844 166.226 91.9162C165.334 91.3423 164.644 90.5497 164.155 89.5384C163.672 88.5213 163.431 87.3509 163.431 86.027C163.431 84.7088 163.672 83.5384 164.155 82.5156C164.644 81.4872 165.317 80.6832 166.175 80.1037C167.039 79.5185 168.036 79.2259 169.166 79.2259C169.877 79.2259 170.561 79.3565 171.22 79.6179C171.88 79.8736 172.47 80.2685 172.993 80.8026C173.522 81.331 173.939 81.9986 174.246 82.8054C174.553 83.6065 174.706 84.5554 174.706 85.652V86.402H164.479V85.0639H173.155C173.155 84.223 172.985 83.4673 172.644 82.7969C172.309 82.1207 171.84 81.5867 171.237 81.1946C170.641 80.8026 169.951 80.6065 169.166 80.6065C168.337 80.6065 167.607 80.8281 166.976 81.2713C166.345 81.7145 165.851 82.2997 165.493 83.027C165.141 83.7543 164.962 84.5497 164.956 85.4134V86.2145C164.956 87.2543 165.135 88.1634 165.493 88.9418C165.857 89.7145 166.371 90.3139 167.036 90.7401C167.701 91.1662 168.487 91.3793 169.397 91.3793C170.016 91.3793 170.559 91.2827 171.024 91.0895C171.496 90.8963 171.891 90.6378 172.209 90.3139C172.533 89.9844 172.777 89.6236 172.942 89.2315L174.382 89.7003C174.184 90.2514 173.857 90.76 173.402 91.2259C172.953 91.6918 172.391 92.0668 171.715 92.3509C171.044 92.6293 170.272 92.7685 169.397 92.7685Z" fill="#242424"/>
<path d="M155.947 92.4957V79.4048H157.422V81.4162H157.533C157.794 80.7571 158.248 80.2258 158.896 79.8224C159.55 79.4133 160.288 79.2088 161.112 79.2088C161.237 79.2088 161.376 79.2116 161.53 79.2173C161.683 79.223 161.811 79.2287 161.913 79.2344V80.777C161.845 80.7656 161.726 80.7486 161.555 80.7258C161.385 80.7031 161.2 80.6918 161.001 80.6918C160.319 80.6918 159.711 80.8366 159.177 81.1264C158.649 81.4105 158.231 81.8054 157.925 82.3111C157.618 82.8168 157.464 83.3935 157.464 84.0412V92.4957H155.947Z" fill="#242424"/>
<path d="M150.414 87.4929V79.4048H151.931V92.4958H150.414V90.3225H150.295C149.988 90.9929 149.502 91.5526 148.837 92.0014C148.172 92.4446 147.36 92.6662 146.4 92.6662C145.564 92.6662 144.823 92.4844 144.175 92.1208C143.528 91.7514 143.019 91.2117 142.65 90.5014C142.28 89.7912 142.096 88.9191 142.096 87.885V79.4048H143.613V87.7912C143.613 88.8139 143.914 89.6378 144.516 90.2628C145.118 90.8821 145.891 91.1918 146.834 91.1918C147.425 91.1918 147.993 91.0497 148.539 90.7656C149.084 90.4816 149.533 90.0668 149.885 89.5213C150.238 88.9702 150.414 88.2941 150.414 87.4929Z" fill="#242424"/>
<path d="M128.96 92.4958V91.2941L136.528 80.9475V80.8367H129.284V79.4048H138.48V80.6577L131.048 90.9531V91.0639H138.753V92.4958H128.96Z" fill="#242424"/>
<path d="M113.96 92.4957H112.29L118.639 75.0412H120.344L126.693 92.4957H125.023L119.551 77.1122H119.432L113.96 92.4957ZM115.162 85.8054H123.821V87.2372H115.162V85.8054Z" fill="#242424"/>
<path d="M103.424 79.4048V80.7259H97.1768V79.4048H103.424ZM99.1285 76.2685H100.654V89.0781C100.654 89.6236 100.748 90.0526 100.935 90.3651C101.123 90.6719 101.367 90.8906 101.668 91.0213C101.969 91.1463 102.29 91.2088 102.631 91.2088C102.83 91.2088 103.001 91.1974 103.143 91.1747C103.285 91.1463 103.41 91.1179 103.518 91.0895L103.842 92.4616C103.694 92.5185 103.512 92.5696 103.296 92.6151C103.08 92.6662 102.813 92.6918 102.495 92.6918C101.938 92.6918 101.401 92.5696 100.884 92.3253C100.373 92.081 99.9523 91.7173 99.6228 91.2344C99.2932 90.7514 99.1285 90.152 99.1285 89.4361V76.2685Z" fill="#242424"/>
<path d="M95.2403 79.4048V80.7259H88.8057V79.4048H95.2403ZM90.817 92.4957V77.4872C90.817 76.7827 90.979 76.1889 91.3028 75.706C91.6324 75.223 92.0614 74.8565 92.5898 74.6065C93.1182 74.3565 93.6778 74.2315 94.2687 74.2315C94.6665 74.2315 94.996 74.2656 95.2574 74.3338C95.5244 74.3963 95.7346 74.4588 95.8881 74.5213L95.4449 75.8509C95.3312 75.8168 95.192 75.777 95.0273 75.7315C94.8625 75.6861 94.6551 75.6634 94.4051 75.6634C93.746 75.6634 93.2375 75.848 92.8795 76.2173C92.5216 76.5867 92.3426 77.1151 92.3426 77.8026L92.3341 92.4957H90.817Z" fill="#242424"/>
<path d="M80.7623 92.7685C79.6317 92.7685 78.6317 92.4815 77.7623 91.9077C76.8987 91.3338 76.2226 90.5412 75.7339 89.5298C75.2453 88.5128 75.001 87.3395 75.001 86.01C75.001 84.669 75.2453 83.4901 75.7339 82.473C76.2226 81.4503 76.8987 80.6548 77.7623 80.0867C78.6317 79.5128 79.6317 79.2259 80.7623 79.2259C81.893 79.2259 82.8902 79.5128 83.7538 80.0867C84.6175 80.6605 85.2936 81.456 85.7822 82.473C86.2765 83.4901 86.5237 84.669 86.5237 86.01C86.5237 87.3395 86.2794 88.5128 85.7907 89.5298C85.3021 90.5412 84.6231 91.3338 83.7538 91.9077C82.8902 92.4815 81.893 92.7685 80.7623 92.7685ZM80.7623 91.3793C81.6714 91.3793 82.4413 91.135 83.072 90.6463C83.7027 90.1577 84.18 89.5071 84.5038 88.6946C84.8334 87.8821 84.9981 86.9872 84.9981 86.01C84.9981 85.0327 84.8334 84.135 84.5038 83.3168C84.18 82.4986 83.7027 81.8423 83.072 81.348C82.4413 80.8537 81.6714 80.6065 80.7623 80.6065C79.8589 80.6065 79.089 80.8537 78.4527 81.348C77.822 81.8423 77.3419 82.4986 77.0123 83.3168C76.6885 84.135 76.5265 85.0327 76.5265 86.01C76.5265 86.9872 76.6885 87.8821 77.0123 88.6946C77.3419 89.5071 77.822 90.1577 78.4527 90.6463C79.0834 91.135 79.8533 91.3793 80.7623 91.3793Z" fill="#242424"/>
<path d="M72.1644 82.277L70.7752 82.669C70.6388 82.277 70.4457 81.9219 70.1957 81.6037C69.9457 81.2855 69.619 81.0327 69.2156 80.8452C68.8178 80.6577 68.3235 80.5639 67.7326 80.5639C66.8462 80.5639 66.119 80.7742 65.5508 81.1946C64.9826 81.6151 64.6985 82.1577 64.6985 82.8225C64.6985 83.385 64.8917 83.8423 65.2781 84.1946C65.6701 84.5412 66.2724 84.8168 67.0849 85.0213L69.0621 85.5071C70.1587 85.7742 70.9798 86.1975 71.5252 86.777C72.0763 87.3565 72.3519 88.0838 72.3519 88.9588C72.3519 89.6975 72.1474 90.3537 71.7383 90.9276C71.3292 91.5014 70.7582 91.9531 70.0252 92.2827C69.2979 92.6065 68.4542 92.7685 67.494 92.7685C66.2156 92.7685 65.1616 92.4815 64.332 91.9077C63.5025 91.3281 62.9712 90.4929 62.7383 89.402L64.1957 89.044C64.3832 89.8225 64.7496 90.4105 65.2951 90.8082C65.8462 91.206 66.5707 91.4048 67.4684 91.4048C68.4741 91.4048 69.2781 91.1804 69.8803 90.7315C70.4826 90.277 70.7837 89.7088 70.7837 89.027C70.7837 88.4986 70.6076 88.0554 70.2553 87.6975C69.9031 87.3338 69.369 87.0668 68.6531 86.8963L66.5139 86.385C65.3775 86.1122 64.5366 85.6804 63.9911 85.0895C63.4457 84.4986 63.1729 83.7656 63.1729 82.8906C63.1729 82.169 63.369 81.5355 63.761 80.9901C64.1531 80.4389 64.6928 80.0071 65.3803 79.6946C66.0678 79.3821 66.8519 79.2259 67.7326 79.2259C68.9315 79.2259 69.8889 79.4986 70.6048 80.044C71.3264 80.5838 71.8462 81.3281 72.1644 82.277Z" fill="#242424"/>
<path d="M54.278 92.7685C53.1473 92.7685 52.1473 92.4815 51.278 91.9077C50.4143 91.3338 49.7382 90.5412 49.2496 89.5298C48.7609 88.5128 48.5166 87.3395 48.5166 86.01C48.5166 84.669 48.7609 83.4901 49.2496 82.473C49.7382 81.4503 50.4143 80.6548 51.278 80.0867C52.1473 79.5128 53.1473 79.2259 54.278 79.2259C55.4086 79.2259 56.4058 79.5128 57.2694 80.0867C58.1331 80.6605 58.8092 81.456 59.2979 82.473C59.7922 83.4901 60.0393 84.669 60.0393 86.01C60.0393 87.3395 59.795 88.5128 59.3064 89.5298C58.8177 90.5412 58.1388 91.3338 57.2694 91.9077C56.4058 92.4815 55.4086 92.7685 54.278 92.7685ZM54.278 91.3793C55.1871 91.3793 55.9569 91.135 56.5876 90.6463C57.2183 90.1577 57.6956 89.5071 58.0194 88.6946C58.349 87.8821 58.5138 86.9872 58.5138 86.01C58.5138 85.0327 58.349 84.135 58.0194 83.3168C57.6956 82.4986 57.2183 81.8423 56.5876 81.348C55.9569 80.8537 55.1871 80.6065 54.278 80.6065C53.3746 80.6065 52.6047 80.8537 51.9683 81.348C51.3376 81.8423 50.8575 82.4986 50.528 83.3168C50.2041 84.135 50.0422 85.0327 50.0422 86.01C50.0422 86.9872 50.2041 87.8821 50.528 88.6946C50.8575 89.5071 51.3376 90.1577 51.9683 90.6463C52.599 91.135 53.3689 91.3793 54.278 91.3793Z" fill="#242424"/>
<path d="M41.0332 92.4957V79.4048H42.5076V81.4162H42.6184C42.8798 80.7571 43.3343 80.2258 43.9821 79.8224C44.6355 79.4133 45.3741 79.2088 46.198 79.2088C46.323 79.2088 46.4622 79.2116 46.6156 79.2173C46.769 79.223 46.8968 79.2287 46.9991 79.2344V80.777C46.9309 80.7656 46.8116 80.7486 46.6412 80.7258C46.4707 80.7031 46.286 80.6918 46.0872 80.6918C45.4054 80.6918 44.7974 80.8366 44.2633 81.1264C43.7349 81.4105 43.3173 81.8054 43.0105 82.3111C42.7037 82.8168 42.5502 83.3935 42.5502 84.0412V92.4957H41.0332Z" fill="#242424"/>
<path d="M32.7879 92.7685C31.6175 92.7685 30.5976 92.4759 29.7282 91.8906C28.8646 91.3054 28.1942 90.5043 27.7169 89.4872C27.2396 88.4702 27.001 87.3111 27.001 86.01C27.001 84.6975 27.2425 83.5298 27.7254 82.5071C28.214 81.4844 28.8902 80.6832 29.7538 80.1037C30.6175 79.5185 31.6203 79.2259 32.7623 79.2259C33.6373 79.2259 34.43 79.3963 35.1402 79.7372C35.8504 80.0725 36.4356 80.5469 36.8959 81.1605C37.3618 81.7685 37.6544 82.4787 37.7737 83.2912H36.2396C36.0805 82.5526 35.697 81.9219 35.089 81.3992C34.4868 80.8707 33.7197 80.6065 32.7879 80.6065C31.9527 80.6065 31.214 80.8338 30.572 81.2884C29.93 81.7372 29.4271 82.3651 29.0635 83.1719C28.7055 83.973 28.5265 84.902 28.5265 85.9588C28.5265 87.0213 28.7027 87.9617 29.055 88.7798C29.4072 89.5923 29.9015 90.2287 30.5379 90.6889C31.18 91.1492 31.93 91.3793 32.7879 91.3793C33.3675 91.3793 33.8959 91.2713 34.3731 91.0554C34.8561 90.8338 35.2595 90.5213 35.5834 90.1179C35.9129 89.7145 36.1345 89.2344 36.2481 88.6776H37.7822C37.6686 89.4673 37.3873 90.1719 36.9385 90.7912C36.4953 91.4048 35.9186 91.8878 35.2084 92.2401C34.5038 92.5923 33.697 92.7685 32.7879 92.7685Z" fill="#242424"/>
<path d="M22.1363 92.4958V79.4048H23.6618V92.4958H22.1363ZM22.9118 77.1548C22.5993 77.1548 22.3323 77.0497 22.1107 76.8395C21.8891 76.6236 21.7783 76.3651 21.7783 76.0639C21.7783 75.7628 21.8891 75.5071 22.1107 75.2969C22.3323 75.081 22.5993 74.973 22.9118 74.973C23.2243 74.973 23.4914 75.081 23.713 75.2969C23.9346 75.5071 24.0454 75.7628 24.0454 76.0639C24.0454 76.3651 23.9346 76.6236 23.713 76.8395C23.4914 77.0497 23.2243 77.1548 22.9118 77.1548Z" fill="#242424"/>
<path d="M1.29395 75.0412H3.13485L9.46724 90.2457H9.62065L15.953 75.0412H17.7939V92.4957H16.2939V78.4077H16.1576L10.2684 92.4957H8.81951L2.93031 78.4077H2.79395V92.4957H1.29395V75.0412Z" fill="#242424"/>
</g>
<defs>
<clipPath id="clip0_12169_24585">
<rect width="175" height="100" fill="white"/>
</clipPath>
<clipPath id="clip1_12169_24585">
<rect width="75.188" height="60" fill="white" transform="translate(50.4062 6.23154)"/>
</clipPath>
</defs>
</svg>
