<svg width="175" height="100" viewBox="0 0 175 100" fill="none" xmlns="http://www.w3.org/2000/svg">
<rect width="175" height="100" fill="white"/>
<circle cx="87.5" cy="31" r="30" fill="#6CAC48"/>
<path d="M86.9003 9.49292L88.0903 11.7279C88.3578 12.1404 88.6478 12.5054 88.9878 12.8454C89.9878 13.8329 90.9202 14.8878 91.7777 16.0028C93.7927 18.6478 95.1527 21.5877 96.1227 24.7677C96.7052 26.7077 97.0202 28.7026 97.0452 30.7151C97.1427 36.7375 95.0777 41.9075 90.9177 46.2049C90.2428 46.8849 89.5103 47.5124 88.7303 48.0724C88.3178 48.0724 88.1228 47.7574 87.9528 47.4649C87.6428 46.9249 87.4378 46.3324 87.3453 45.7174C87.1978 44.9874 87.1028 44.2599 87.1503 43.5099V43.1699C87.1178 43.0924 86.7553 9.66542 86.9003 9.49292Z" fill="#F1F1F1"/>
<path d="M86.9066 9.42032C86.8591 9.32282 86.8091 9.39532 86.7591 9.44532C86.7841 9.93281 86.6116 10.3678 86.3466 10.7828C86.0541 11.1953 85.6666 11.5128 85.2766 11.8528C83.1191 13.7203 81.4191 15.9802 80.0592 18.5052C78.2467 21.9026 77.3142 25.5451 77.0517 29.3825C76.9317 30.765 77.4892 35.6449 77.9267 37.0524C79.1167 40.7924 81.2516 43.9248 84.0216 46.6423C84.7016 47.2973 85.4291 47.9048 86.1791 48.4898C86.3991 48.4898 86.4216 48.2948 86.4716 48.1498C86.5691 47.8398 86.6416 47.5248 86.6916 47.2048L87.1791 43.5648L86.9066 9.42032Z" fill="white"/>
<path d="M88.1016 49.5472C88.1491 48.9897 88.4166 48.5297 88.7091 48.0672C88.4166 47.9472 88.1991 47.7047 88.0291 47.4372C87.8816 47.1822 87.7616 46.9147 87.6666 46.6347C87.3266 45.6172 87.2541 44.5447 87.1566 43.5047V42.8748C87.0366 42.9723 87.0091 43.7972 87.0091 43.9197C86.9391 45.0222 86.7916 46.1147 86.5716 47.1972C86.4991 47.6347 86.4516 48.0722 86.1816 48.4597C86.1816 48.5072 86.1816 48.5572 86.2066 48.6297C86.6441 49.9172 86.7641 51.2271 86.8366 52.5646V53.0521C86.8366 53.6346 86.8116 53.5121 87.2966 53.7071C87.4916 53.7796 87.7091 53.8046 87.9041 53.9496C88.0516 53.9496 88.0741 53.8296 88.0741 53.7296L88.0016 52.9271V50.6921C87.9791 50.3022 88.0516 49.9147 88.1016 49.5472Z" fill="white"/>
<path d="M34.3182 74.5455H36.1591L42.4915 89.75H42.6449L48.9773 74.5455H50.8182V92H49.3182V77.9119H49.1818L43.2926 92H41.8438L35.9545 77.9119H35.8182V92H34.3182V74.5455ZM60.2315 92.2727C59.1009 92.2727 58.1009 91.9858 57.2315 91.4119C56.3679 90.8381 55.6918 90.0455 55.2031 89.0341C54.7145 88.017 54.4702 86.8437 54.4702 85.5142C54.4702 84.1733 54.7145 82.9943 55.2031 81.9773C55.6918 80.9545 56.3679 80.1591 57.2315 79.5909C58.1009 79.017 59.1009 78.7301 60.2315 78.7301C61.3622 78.7301 62.3594 79.017 63.223 79.5909C64.0866 80.1648 64.7628 80.9602 65.2514 81.9773C65.7457 82.9943 65.9929 84.1733 65.9929 85.5142C65.9929 86.8437 65.7486 88.017 65.2599 89.0341C64.7713 90.0455 64.0923 90.8381 63.223 91.4119C62.3594 91.9858 61.3622 92.2727 60.2315 92.2727ZM60.2315 90.8835C61.1406 90.8835 61.9105 90.6392 62.5412 90.1506C63.1719 89.6619 63.6491 89.0114 63.973 88.1989C64.3026 87.3864 64.4673 86.4915 64.4673 85.5142C64.4673 84.5369 64.3026 83.6392 63.973 82.821C63.6491 82.0028 63.1719 81.3466 62.5412 80.8523C61.9105 80.358 61.1406 80.1108 60.2315 80.1108C59.3281 80.1108 58.5582 80.358 57.9219 80.8523C57.2912 81.3466 56.8111 82.0028 56.4815 82.821C56.1577 83.6392 55.9957 84.5369 55.9957 85.5142C55.9957 86.4915 56.1577 87.3864 56.4815 88.1989C56.8111 89.0114 57.2912 89.6619 57.9219 90.1506C58.5526 90.6392 59.3224 90.8835 60.2315 90.8835ZM70.8402 83.8182V92H69.3232V78.9091H70.7976V80.9631H70.9339C71.2408 80.2926 71.718 79.7557 72.3658 79.3523C73.0192 78.9432 73.826 78.7386 74.7862 78.7386C75.6669 78.7386 76.4396 78.9233 77.1044 79.2926C77.7749 79.6562 78.2947 80.1932 78.6641 80.9034C79.0391 81.6136 79.2266 82.4858 79.2266 83.5199V92H77.7095V83.6136C77.7095 82.5398 77.4084 81.6903 76.8061 81.0653C76.2095 80.4403 75.4084 80.1278 74.4027 80.1278C73.7152 80.1278 73.1044 80.2756 72.5703 80.571C72.0362 80.8665 71.6129 81.2926 71.3004 81.8494C70.9936 82.4006 70.8402 83.0568 70.8402 83.8182ZM88.2159 97.1818C87.3239 97.1818 86.5426 97.0653 85.8722 96.8324C85.2017 96.6051 84.6364 96.2926 84.1761 95.8949C83.7159 95.4972 83.358 95.0511 83.1023 94.5568L84.3466 93.7386C84.5341 94.0682 84.7841 94.392 85.0966 94.7102C85.4148 95.0284 85.8267 95.2926 86.3324 95.5028C86.8438 95.7131 87.4716 95.8182 88.2159 95.8182C89.375 95.8182 90.3097 95.5284 91.0199 94.9489C91.7358 94.3693 92.0938 93.4687 92.0938 92.2472V89.2983H91.9574C91.7813 89.696 91.5284 90.0937 91.1989 90.4915C90.8693 90.8835 90.4375 91.2102 89.9034 91.4716C89.375 91.733 88.7188 91.8636 87.9347 91.8636C86.8892 91.8636 85.9602 91.6051 85.1477 91.0881C84.3409 90.571 83.7045 89.8324 83.2386 88.8722C82.7784 87.9062 82.5483 86.7557 82.5483 85.4205C82.5483 84.0966 82.7727 82.9318 83.2216 81.9261C83.6761 80.9205 84.3097 80.1364 85.1222 79.5739C85.9347 79.0114 86.8807 78.7301 87.9602 78.7301C88.7614 78.7301 89.4261 78.8722 89.9545 79.1562C90.483 79.4347 90.9063 79.7812 91.2244 80.196C91.5483 80.6108 91.8011 81.0142 91.983 81.4062H92.1364V78.9091H93.6193V92.3409C93.6193 93.4489 93.3835 94.3608 92.9119 95.0767C92.4403 95.7926 91.7983 96.321 90.9858 96.6619C90.1733 97.0085 89.25 97.1818 88.2159 97.1818ZM88.1136 90.4744C88.9545 90.4744 89.6733 90.2727 90.2699 89.8693C90.8665 89.4602 91.3239 88.875 91.642 88.1136C91.9602 87.3523 92.1193 86.446 92.1193 85.3949C92.1193 84.3722 91.9631 83.4659 91.6506 82.6761C91.3381 81.8807 90.8835 81.2557 90.2869 80.8011C89.696 80.3409 88.9716 80.1108 88.1136 80.1108C87.2386 80.1108 86.5 80.3466 85.8977 80.8182C85.2955 81.2898 84.8409 81.9261 84.5341 82.7273C84.2273 83.5227 84.0739 84.4119 84.0739 85.3949C84.0739 86.3949 84.2301 87.2784 84.5426 88.0455C84.8551 88.8068 85.3125 89.4034 85.9148 89.8352C86.517 90.2614 87.25 90.4744 88.1136 90.4744ZM102.724 92.2727C101.593 92.2727 100.593 91.9858 99.7237 91.4119C98.8601 90.8381 98.1839 90.0455 97.6953 89.0341C97.2067 88.017 96.9624 86.8437 96.9624 85.5142C96.9624 84.1733 97.2067 82.9943 97.6953 81.9773C98.1839 80.9545 98.8601 80.1591 99.7237 79.5909C100.593 79.017 101.593 78.7301 102.724 78.7301C103.854 78.7301 104.852 79.017 105.715 79.5909C106.579 80.1648 107.255 80.9602 107.744 81.9773C108.238 82.9943 108.485 84.1733 108.485 85.5142C108.485 86.8437 108.241 88.017 107.752 89.0341C107.263 90.0455 106.585 90.8381 105.715 91.4119C104.852 91.9858 103.854 92.2727 102.724 92.2727ZM102.724 90.8835C103.633 90.8835 104.403 90.6392 105.033 90.1506C105.664 89.6619 106.141 89.0114 106.465 88.1989C106.795 87.3864 106.96 86.4915 106.96 85.5142C106.96 84.5369 106.795 83.6392 106.465 82.821C106.141 82.0028 105.664 81.3466 105.033 80.8523C104.403 80.358 103.633 80.1108 102.724 80.1108C101.82 80.1108 101.05 80.358 100.414 80.8523C99.7834 81.3466 99.3033 82.0028 98.9737 82.821C98.6499 83.6392 98.4879 84.5369 98.4879 85.5142C98.4879 86.4915 98.6499 87.3864 98.9737 88.1989C99.3033 89.0114 99.7834 89.6619 100.414 90.1506C101.045 90.6392 101.815 90.8835 102.724 90.8835ZM117.244 92H112.131V74.5455H117.551C119.216 74.5455 120.639 74.892 121.821 75.5852C123.009 76.2784 123.918 77.2727 124.548 78.5682C125.179 79.8636 125.494 81.4176 125.494 83.2301C125.494 85.0597 125.17 86.6307 124.523 87.9432C123.881 89.25 122.943 90.2528 121.71 90.9517C120.483 91.6506 118.994 92 117.244 92ZM113.724 90.5682H117.151C118.651 90.5682 119.906 90.2727 120.918 89.6818C121.929 89.0909 122.688 88.2472 123.193 87.1506C123.699 86.054 123.952 84.7472 123.952 83.2301C123.946 81.7244 123.696 80.429 123.202 79.3438C122.713 78.2585 121.986 77.4261 121.02 76.8466C120.06 76.267 118.872 75.9773 117.457 75.9773H113.724V90.5682ZM129.357 92V74.5455H135.246C136.383 74.5455 137.329 74.7443 138.085 75.142C138.846 75.5398 139.417 76.0824 139.798 76.7699C140.178 77.4574 140.369 78.2386 140.369 79.1136C140.369 79.8409 140.246 80.4631 140.002 80.9801C139.758 81.4972 139.425 81.9148 139.005 82.233C138.585 82.5511 138.116 82.7812 137.599 82.9233V83.0597C138.161 83.0994 138.707 83.2983 139.235 83.6562C139.763 84.0085 140.198 84.5028 140.539 85.1392C140.88 85.7756 141.05 86.5369 141.05 87.4233C141.05 88.304 140.854 89.0909 140.462 89.7841C140.07 90.4716 139.468 91.0142 138.656 91.4119C137.849 91.804 136.82 92 135.57 92H129.357ZM130.951 90.5682H135.57C136.917 90.5682 137.911 90.2699 138.553 89.6733C139.201 89.0767 139.525 88.3267 139.525 87.4233C139.525 86.7585 139.363 86.1562 139.039 85.6165C138.721 85.071 138.269 84.6392 137.684 84.321C137.104 84.0028 136.423 83.8438 135.638 83.8438H130.951V90.5682ZM130.951 82.429H135.391C136.079 82.429 136.681 82.2869 137.198 82.0028C137.715 81.7187 138.119 81.3267 138.408 80.8267C138.698 80.3267 138.843 79.7557 138.843 79.1136C138.843 78.1875 138.542 77.4347 137.94 76.8551C137.337 76.2699 136.44 75.9773 135.246 75.9773H130.951V82.429Z" fill="#242424"/>
</svg>
