<svg width="175" height="100" viewBox="0 0 175 100" fill="none" xmlns="http://www.w3.org/2000/svg">
<g clip-path="url(#clip0_12169_24691)">
<path d="M113.5 29.8148H94.661C94.2069 29.8146 93.7715 29.6341 93.4503 29.3131C93.1292 28.992 92.9487 28.5566 92.9485 28.1024V8.4685C92.9485 7.01455 91.7695 5.83514 90.3162 5.83514H83.5911C82.137 5.83514 80.9587 7.01455 80.9587 8.4685V27.9836C80.9587 28.996 80.1401 29.819 79.1277 29.8234L72.9539 29.8529C71.9328 29.8584 71.1032 29.0299 71.1052 28.0097L71.1435 8.47293C71.1468 7.01677 69.9674 5.83514 68.5112 5.83514H61.7917C60.3373 5.83514 59.1592 7.01455 59.1592 8.4685V63.4462C59.1592 64.7379 60.2055 65.7842 61.4961 65.7842H113.5C114.792 65.7842 115.838 64.7379 115.838 63.4462V32.1528C115.838 30.8611 114.792 29.8148 113.5 29.8148ZM104.666 50.4568C104.666 52.1494 103.293 53.5219 101.601 53.5219H96.2861C94.5933 53.5219 93.221 52.1494 93.221 50.4568V45.142C93.221 43.4492 94.5933 42.0769 96.2861 42.0769H101.601C103.293 42.0769 104.666 43.4492 104.666 45.142V50.4568Z" fill="#FF6600"/>
</g>
<path d="M133.639 86.0738H135.412L137.645 89.0312L138.02 89.5255L140.764 93.1648H138.992L136.98 90.4801L136.622 90.0028L133.639 86.0738ZM141.412 82.8011C141.412 84.6193 141.088 86.2017 140.441 87.5483C139.793 88.8892 138.901 89.929 137.764 90.6676C136.634 91.4005 135.333 91.767 133.861 91.767C132.389 91.767 131.085 91.4005 129.949 90.6676C128.818 89.929 127.929 88.8892 127.281 87.5483C126.639 86.2017 126.318 84.6193 126.318 82.8011C126.318 80.9829 126.639 79.4034 127.281 78.0625C127.929 76.7159 128.821 75.6761 129.958 74.9432C131.094 74.2045 132.395 73.8352 133.861 73.8352C135.333 73.8352 136.634 74.2045 137.764 74.9432C138.901 75.6761 139.793 76.7159 140.441 78.0625C141.088 79.4034 141.412 80.9829 141.412 82.8011ZM139.861 82.8011C139.861 81.2386 139.6 79.9005 139.077 78.7869C138.554 77.6676 137.841 76.8125 136.938 76.2216C136.034 75.6307 135.009 75.3352 133.861 75.3352C132.719 75.3352 131.696 75.6307 130.793 76.2216C129.889 76.8125 129.173 77.6648 128.645 78.7784C128.122 79.892 127.861 81.2329 127.861 82.8011C127.861 84.3636 128.122 85.7017 128.645 86.8153C129.168 87.929 129.881 88.7841 130.784 89.3807C131.688 89.9716 132.713 90.267 133.861 90.267C135.009 90.267 136.034 89.9716 136.938 89.3807C137.847 88.7898 138.563 87.9375 139.085 86.8238C139.608 85.7045 139.867 84.3636 139.861 82.8011Z" fill="#242424"/>
<path d="M105.962 74.0739H107.803L114.135 89.2784H114.289L120.621 74.0739H122.462V91.5284H120.962V77.4403H120.826L114.936 91.5284H113.487L107.598 77.4403H107.462V91.5284H105.962V74.0739Z" fill="#242424"/>
<path d="M101.92 78.4375V79.7585H95.6729V78.4375H101.92ZM97.6246 75.3011H99.1501V88.1108C99.1501 88.6563 99.2439 89.0852 99.4314 89.3977C99.6189 89.7046 99.8632 89.9233 100.164 90.054C100.465 90.179 100.786 90.2415 101.127 90.2415C101.326 90.2415 101.497 90.2301 101.639 90.2074C101.781 90.179 101.906 90.1506 102.014 90.1222L102.338 91.4943C102.19 91.5511 102.008 91.6023 101.792 91.6477C101.576 91.6989 101.309 91.7244 100.991 91.7244C100.434 91.7244 99.8973 91.6023 99.3802 91.358C98.8689 91.1136 98.4484 90.75 98.1189 90.2671C97.7893 89.7841 97.6246 89.1847 97.6246 88.4688V75.3011Z" fill="#242424"/>
<path d="M91.2261 91.5284V78.4375H92.7517V91.5284H91.2261ZM92.0017 76.1875C91.6892 76.1875 91.4221 76.0824 91.2006 75.8722C90.979 75.6562 90.8682 75.3977 90.8682 75.0966C90.8682 74.7954 90.979 74.5398 91.2006 74.3295C91.4221 74.1136 91.6892 74.0057 92.0017 74.0057C92.3142 74.0057 92.5812 74.1136 92.8028 74.3295C93.0244 74.5398 93.1352 74.7954 93.1352 75.0966C93.1352 75.3977 93.0244 75.6562 92.8028 75.8722C92.5812 76.0824 92.3142 76.1875 92.0017 76.1875Z" fill="#242424"/>
<path d="M76.8057 91.5284V74.0739H78.3312V80.9346H78.4676C78.6381 80.5426 78.8824 80.1392 79.2006 79.7244C79.5244 79.3096 79.9477 78.9631 80.4704 78.6846C80.9988 78.4006 81.6636 78.2585 82.4648 78.2585C83.5386 78.2585 84.4818 78.5426 85.2943 79.1108C86.1068 79.6733 86.7403 80.4631 87.1949 81.4801C87.6494 82.4915 87.8767 83.6704 87.8767 85.017C87.8767 86.3693 87.6494 87.554 87.1949 88.571C86.746 89.5881 86.1153 90.3807 85.3028 90.9489C84.496 91.517 83.5585 91.8011 82.4903 91.8011C81.6949 91.8011 81.0301 91.6591 80.496 91.375C79.9676 91.0909 79.5415 90.7415 79.2176 90.3267C78.8937 89.9062 78.6437 89.4971 78.4676 89.0994H78.2801V91.5284H76.8057ZM78.3057 84.9915C78.3057 86.0483 78.4619 86.9858 78.7744 87.804C79.0926 88.6165 79.5471 89.2557 80.1381 89.7216C80.7346 90.1818 81.4562 90.4119 82.3028 90.4119C83.1721 90.4119 83.9079 90.1733 84.5102 89.696C85.1125 89.2131 85.5699 88.5625 85.8824 87.7443C86.1949 86.9261 86.3511 86.0085 86.3511 84.9915C86.3511 83.9858 86.1949 83.0795 85.8824 82.2727C85.5756 81.4659 85.121 80.8267 84.5187 80.3551C83.9165 79.8778 83.1778 79.6392 82.3028 79.6392C81.4506 79.6392 80.7261 79.8693 80.1295 80.3295C79.5386 80.7841 79.0869 81.4148 78.7744 82.2216C78.4619 83.0227 78.3057 83.946 78.3057 84.9915Z" fill="#242424"/>
<path d="M62.0869 91.5284V74.0739H63.6125V80.9346H63.7488C63.9193 80.5426 64.1636 80.1392 64.4818 79.7244C64.8057 79.3096 65.229 78.9631 65.7517 78.6846C66.2801 78.4006 66.9449 78.2585 67.746 78.2585C68.8199 78.2585 69.7631 78.5426 70.5756 79.1108C71.3881 79.6733 72.0216 80.4631 72.4761 81.4801C72.9307 82.4915 73.1579 83.6704 73.1579 85.017C73.1579 86.3693 72.9307 87.554 72.4761 88.571C72.0273 89.5881 71.3966 90.3807 70.5841 90.9489C69.7773 91.517 68.8398 91.8011 67.7716 91.8011C66.9761 91.8011 66.3113 91.6591 65.7773 91.375C65.2488 91.0909 64.8227 90.7415 64.4988 90.3267C64.175 89.9062 63.925 89.4971 63.7488 89.0994H63.5613V91.5284H62.0869ZM63.5869 84.9915C63.5869 86.0483 63.7432 86.9858 64.0557 87.804C64.3738 88.6165 64.8284 89.2557 65.4193 89.7216C66.0159 90.1818 66.7375 90.4119 67.5841 90.4119C68.4534 90.4119 69.1892 90.1733 69.7915 89.696C70.3937 89.2131 70.8511 88.5625 71.1636 87.7443C71.4761 86.9261 71.6324 86.0085 71.6324 84.9915C71.6324 83.9858 71.4761 83.0795 71.1636 82.2727C70.8568 81.4659 70.4023 80.8267 69.8 80.3551C69.1977 79.8778 68.4591 79.6392 67.5841 79.6392C66.7318 79.6392 66.0074 79.8693 65.4108 80.3295C64.8199 80.7841 64.3682 81.4148 64.0557 82.2216C63.7432 83.0227 63.5869 83.946 63.5869 84.9915Z" fill="#242424"/>
<path d="M52.0686 91.8267C51.2789 91.8267 50.5573 91.6733 49.9039 91.3664C49.2504 91.0539 48.7306 90.6051 48.3442 90.0198C47.9578 89.4289 47.7646 88.713 47.7646 87.8721C47.7646 87.2244 47.8868 86.6789 48.1311 86.2358C48.3754 85.7926 48.722 85.4289 49.1709 85.1448C49.6198 84.8608 50.151 84.6363 50.7646 84.4716C51.3783 84.3068 52.0544 84.1789 52.7931 84.088C53.526 83.9971 54.1453 83.9176 54.651 83.8494C55.1624 83.7812 55.5516 83.6733 55.8186 83.5255C56.0857 83.3778 56.2192 83.1392 56.2192 82.8096V82.5028C56.2192 81.6108 55.9521 80.9091 55.4181 80.3977C54.8896 79.8806 54.1283 79.6221 53.134 79.6221C52.1908 79.6221 51.4209 79.8295 50.8243 80.2443C50.2334 80.6591 49.8186 81.1477 49.58 81.7102L48.1396 81.1903C48.4351 80.4744 48.8442 79.9034 49.3669 79.4772C49.8896 79.0454 50.4749 78.7358 51.1226 78.5483C51.7703 78.3551 52.4266 78.2585 53.0914 78.2585C53.5914 78.2585 54.1112 78.3238 54.651 78.4545C55.1965 78.5852 55.7021 78.8125 56.1681 79.1363C56.634 79.4545 57.0118 79.9005 57.3016 80.4744C57.5914 81.0426 57.7362 81.7642 57.7362 82.6392V91.5284H56.2192V89.4573H56.1254C55.9436 89.8437 55.6737 90.2187 55.3158 90.5823C54.9578 90.946 54.509 91.2443 53.9692 91.4772C53.4294 91.7102 52.7959 91.8267 52.0686 91.8267ZM52.2732 90.4375C53.08 90.4375 53.7789 90.2585 54.3698 89.9005C54.9607 89.5426 55.4152 89.0681 55.7334 88.4772C56.0573 87.8806 56.2192 87.2244 56.2192 86.5085V84.6164C56.1056 84.7244 55.9152 84.821 55.6482 84.9062C55.3868 84.9914 55.0828 85.0681 54.7362 85.1363C54.3953 85.1988 54.0544 85.2528 53.7135 85.2983C53.3726 85.3437 53.0658 85.3835 52.7931 85.4176C52.0544 85.5085 51.4237 85.6505 50.901 85.8437C50.3783 86.0369 49.9777 86.3039 49.6993 86.6448C49.4209 86.9801 49.2817 87.4119 49.2817 87.9403C49.2817 88.7358 49.5658 89.3522 50.134 89.7897C50.7021 90.2216 51.4152 90.4375 52.2732 90.4375Z" fill="#242424"/>
<path d="M33.5869 91.5284V74.0739H39.2204C40.4591 74.0739 41.4932 74.2983 42.3227 74.7471C43.1579 75.1903 43.7858 75.8068 44.2062 76.5966C44.6324 77.3807 44.8454 78.2812 44.8454 79.2983C44.8454 80.3153 44.6324 81.2131 44.2062 81.9915C43.7858 82.7699 43.1608 83.3778 42.3312 83.8153C41.5017 84.2528 40.4733 84.4716 39.246 84.4716H34.4477V83.0142H39.2034C40.1125 83.0142 40.8682 82.8636 41.4704 82.5625C42.0784 82.2614 42.5301 81.8324 42.8256 81.2756C43.1267 80.7187 43.2773 80.0596 43.2773 79.2983C43.2773 78.5369 43.1267 77.8721 42.8256 77.304C42.5244 76.7301 42.0699 76.2869 41.4619 75.9744C40.8596 75.6619 40.0983 75.5057 39.1778 75.5057H35.1807V91.5284H33.5869ZM41.2829 83.6534L45.5784 91.5284H43.7375L39.4846 83.6534H41.2829Z" fill="#242424"/>
<defs>
<clipPath id="clip0_12169_24691">
<rect width="56.688" height="60" fill="white" transform="translate(59.1553 5.83521)"/>
</clipPath>
</defs>
</svg>
