<svg width="175" height="100" viewBox="0 0 175 100" fill="none" xmlns="http://www.w3.org/2000/svg">
<path fill-rule="evenodd" clip-rule="evenodd" d="M92.3496 6.5C91.9141 6.5 91.5097 6.5934 91.1363 6.71786C91.9298 7.24676 92.3653 7.94681 92.5831 8.74003C92.5988 8.84908 92.6298 8.92684 92.6452 9.03565C92.6609 9.12905 92.6765 9.22222 92.6765 9.31562C92.7387 10.6847 92.3186 10.8556 92.023 11.6647C91.5718 12.7071 91.6963 13.827 92.2408 14.7292C92.2875 14.8381 92.3496 14.9625 92.4276 15.0713C91.8364 11.1358 95.1188 10.5446 95.7254 9.31562C95.7721 8.24219 94.8853 7.52673 94.1855 7.02889C93.5162 6.62446 92.9096 6.5 92.3496 6.5ZM97.2967 7.38662C97.2341 7.74459 97.2811 7.65119 97.2654 7.83776C97.25 7.96222 97.25 8.11773 97.2344 8.24219C97.2033 8.36665 97.1722 8.49111 97.1255 8.61557C97.0943 8.74003 97.0478 8.86449 97.0011 8.98895C96.9387 9.11341 96.8923 9.22246 96.8302 9.34668C96.7832 9.40903 96.7522 9.47114 96.7055 9.53349L96.6121 9.67335C96.5343 9.78241 96.4565 9.89122 96.3788 9.98462C96.2854 10.078 96.2079 10.1868 96.0988 10.2646V10.2802C96.0054 10.358 95.9123 10.4512 95.8032 10.5292C95.4765 10.7778 95.1031 10.9646 94.7608 11.1979C94.652 11.2757 94.5432 11.338 94.4498 11.4314C94.341 11.5092 94.2476 11.5869 94.1544 11.6801C94.0454 11.7735 93.9676 11.8669 93.8742 11.9757C93.7964 12.0691 93.7033 12.1779 93.6409 12.287C93.5632 12.3958 93.4854 12.5046 93.4231 12.6137C93.361 12.7381 93.3143 12.8469 93.2521 12.9714C93.2054 13.0959 93.1587 13.2049 93.1277 13.3291C93.0861 13.4573 93.0498 13.5871 93.0186 13.7182C93.0032 13.7803 93.0032 13.858 92.9876 13.9204C92.9719 13.9825 92.9719 14.0448 92.9565 14.1069C92.9565 14.2314 92.9409 14.3715 92.9409 14.496C92.9409 14.5891 92.9409 14.6825 92.9565 14.7759C92.9565 14.9004 92.9722 15.0249 93.0032 15.1647C93.0189 15.2892 93.0499 15.4136 93.081 15.5381C93.1277 15.6626 93.1587 15.787 93.2054 15.9112C93.2367 15.9892 93.2832 16.067 93.3143 16.1294L89.7365 14.7446C89.1298 14.5737 88.5386 14.418 87.9319 14.2781L86.9519 14.0446C86.0157 13.858 85.0709 13.7178 84.1209 13.6248C84.0896 13.6248 84.0739 13.6091 84.0429 13.6091C83.1095 13.5157 82.1916 13.4692 81.2583 13.4692C80.5739 13.4692 79.8895 13.5003 79.2205 13.547C78.2715 13.6091 77.3225 13.7336 76.3738 13.8891C76.1403 13.9204 75.9068 13.9668 75.6738 14.0135C75.1913 14.1069 74.7248 14.2158 74.2736 14.3248L73.5736 14.5114C73.3401 14.6048 73.1225 14.7136 72.9046 14.807L72.3914 15.0405C72.3601 15.0559 72.329 15.0559 72.3136 15.0713C72.1581 15.1491 72.018 15.2114 71.8779 15.2892C71.8314 15.3048 71.8001 15.3205 71.7691 15.3359C71.5981 15.4136 71.427 15.5068 71.2869 15.5848C71.1781 15.6315 71.069 15.6936 70.9758 15.7403C70.9291 15.7716 70.8668 15.8027 70.8357 15.8181C70.6956 15.8958 70.5558 15.9736 70.4313 16.0516C70.2912 16.1291 70.1667 16.2071 70.0579 16.2849C69.9491 16.3626 69.8401 16.4247 69.7469 16.5025C69.7312 16.5181 69.7156 16.5181 69.7002 16.5338C69.6068 16.5959 69.498 16.6736 69.4046 16.7514L69.3733 16.7827L69.1402 16.9693C69.1089 16.9847 69.0777 17.016 69.0468 17.0314C68.9691 17.0937 68.8913 17.1715 68.8133 17.2336C68.7979 17.2649 68.7669 17.2803 68.7512 17.2959C68.6578 17.3894 68.5646 17.4669 68.4712 17.5603C68.4556 17.5603 68.4556 17.5759 68.4399 17.5916C68.3468 17.6693 68.2534 17.7625 68.16 17.8559C68.1446 17.8715 68.1446 17.8872 68.1289 17.8872C68.0473 17.9664 67.9695 18.0494 67.8956 18.1359C67.8644 18.1672 67.8179 18.1982 67.7868 18.2293C67.7091 18.3227 67.6157 18.4158 67.5223 18.5092C67.5066 18.5405 67.4756 18.5559 67.4602 18.587C67.3357 18.7115 67.2266 18.8359 67.1022 18.9604L67.0557 19.0071C66.8068 19.2714 66.5422 19.536 66.2623 19.7692C65.9865 20.0154 65.6955 20.2439 65.3911 20.4537C65.0894 20.6652 64.7779 20.8625 64.4577 21.0449C64.1402 21.2191 63.813 21.3749 63.4777 21.5117C63.1469 21.6522 62.8094 21.7767 62.4666 21.8848C61.8133 22.0249 61.1443 22.2892 60.5687 22.3359C60.4442 22.3359 60.3043 22.3672 60.1799 22.3827C60.0398 22.4139 59.9153 22.445 59.7909 22.4761L59.4177 22.6162C59.293 22.6626 59.1686 22.725 59.0441 22.7871C58.9353 22.8648 58.8108 22.9272 58.702 23.0049C58.593 23.0827 58.4842 23.1759 58.3908 23.2695C58.2819 23.3473 58.1731 23.4561 58.0797 23.5495C57.9863 23.6583 57.8932 23.7517 57.8152 23.8605C57.7374 23.985 57.6442 24.094 57.5819 24.2182C57.5041 24.3273 57.4264 24.4518 57.3643 24.5762C57.3017 24.7161 57.2398 24.8405 57.1931 24.9806C57.144 25.1146 57.0973 25.2494 57.053 25.3851C57.0219 25.5095 56.9909 25.634 56.9752 25.7582C56.9752 25.7741 56.9596 25.7895 56.9596 25.8052C56.9285 25.945 56.9285 26.1318 56.9129 26.225C56.8975 26.3341 56.8818 26.4272 56.8818 26.5363C56.8818 26.5984 56.8818 26.6761 56.8975 26.7385C56.9131 26.8473 56.9288 26.9407 56.9598 27.0341C56.9909 27.1273 57.0219 27.2207 57.0686 27.3141V27.3295C57.1153 27.4229 57.1775 27.5163 57.2396 27.6097C57.3022 27.7029 57.3643 27.7963 57.4418 27.8897C57.5198 27.9674 57.6132 28.0606 57.7066 28.1386C57.7998 28.2318 57.8932 28.3095 58.002 28.3875C58.3753 28.7142 58.4688 28.823 58.9509 29.0719C59.0287 29.1186 59.1065 29.1497 59.1999 29.1964C59.2155 29.1964 59.2309 29.2118 59.2466 29.2118C59.2466 29.2431 59.2466 29.2585 59.262 29.2898C59.2776 29.4142 59.3087 29.5387 59.34 29.6629C59.3696 29.791 59.4112 29.916 59.4642 30.0363C59.5109 30.1297 59.5422 30.2231 59.5886 30.3165C59.6043 30.3476 59.6199 30.3786 59.6353 30.3943C59.6977 30.5187 59.7598 30.6275 59.8222 30.7364L60.0554 31.063C60.1332 31.1564 60.2264 31.2652 60.32 31.3587C60.4132 31.4521 60.5066 31.5296 60.6154 31.6232C60.6154 31.6232 60.631 31.6386 60.6467 31.6386C60.7398 31.7164 60.8332 31.7944 60.9266 31.8565C61.0355 31.9342 61.1443 31.9966 61.2687 32.0587C61.3778 32.1211 61.5022 32.1832 61.6267 32.2296C61.7199 32.2766 61.8289 32.3076 61.9377 32.3387C61.9534 32.3543 61.9688 32.3543 61.9998 32.37C62.0624 32.3854 62.1399 32.401 62.2021 32.4164C62.1556 33.2566 62.1399 34.0498 62.2646 34.3298C62.4043 34.6411 63.0889 33.6921 63.7733 32.6032C63.6799 33.6764 63.6178 34.9367 63.7733 35.3098C63.9445 35.6988 64.8778 34.4855 65.6867 33.1475C76.7161 30.5965 86.781 38.2191 87.8388 48.9837C87.6365 47.3036 85.5674 46.3703 84.6185 46.6036C84.1519 47.7548 83.3585 49.2327 82.0828 50.1506C82.1942 49.1117 82.1418 48.0619 81.9273 47.0393C81.5852 48.4705 80.9162 49.8082 79.9983 50.9594C78.5207 51.0682 77.0428 50.3528 76.265 49.2791C76.2027 49.2326 76.1872 49.1395 76.1405 49.0769C76.0938 48.9681 76.0471 48.8593 76.0161 48.7505C75.9707 48.6462 75.9393 48.5363 75.9227 48.4238C75.907 48.3147 75.907 48.2059 75.907 48.0815V47.8479C75.9227 47.7391 75.9537 47.6303 75.9848 47.5215C76.0161 47.4125 76.0471 47.3036 76.0938 47.1948C76.1559 47.0858 76.2027 46.977 76.2804 46.8682C76.545 46.1214 76.545 45.5148 76.0628 45.157C75.9694 45.0959 75.8704 45.0438 75.7672 45.0013C75.7048 44.9859 75.6271 44.9548 75.5649 44.9392C75.5182 44.9235 75.4872 44.9079 75.4405 44.8925C75.3314 44.8612 75.2226 44.8301 75.1138 44.8147C75.0076 44.784 74.8977 44.7683 74.7871 44.768C74.6781 44.7523 74.5536 44.7367 74.4448 44.7367C74.3671 44.7367 74.2893 44.7526 74.2113 44.7526C74.0871 44.7526 73.9783 44.768 73.8695 44.7991C73.7604 44.8147 73.6516 44.8303 73.5425 44.8614C73.4337 44.8927 73.3247 44.9238 73.2159 44.9702C73.1071 45.0169 73.0137 45.0636 72.9048 45.1103C72.8114 45.157 72.718 45.2191 72.6092 45.2658C68.9847 47.6303 71.147 53.1684 73.6203 54.7707C72.687 54.9417 71.738 55.1439 71.4737 55.3461L71.4424 55.3774C72.1116 55.7818 72.8114 56.1241 73.5425 56.4198C74.5382 56.7462 75.596 57.0418 76.0628 57.1663V57.1819C77.3516 57.4462 78.6696 57.5403 79.9829 57.4619C86.8741 56.9797 92.521 51.7372 93.5478 44.8303C93.5791 44.9702 93.6101 45.0947 93.6412 45.2348C93.6879 45.5148 93.75 45.8101 93.781 46.106V46.1214C93.8123 46.2615 93.8277 46.4016 93.8434 46.5258V46.5884C93.859 46.7281 93.8747 46.8682 93.8747 46.9929C93.8901 47.1638 93.9055 47.3347 93.9055 47.5061V47.755C93.9055 47.8328 93.9211 47.9259 93.9211 48.0037C93.9211 48.0971 93.9055 48.1905 93.9055 48.2839V48.5015C93.9055 48.6106 93.8898 48.7038 93.8898 48.8128C93.8898 48.8749 93.8898 48.9373 93.8744 49.015C93.8744 49.1238 93.8588 49.2326 93.8588 49.3571C93.8431 49.4038 93.8431 49.4505 93.8431 49.4972C93.8277 49.6217 93.8121 49.7307 93.7964 49.8549C93.7964 49.9016 93.7964 49.9484 93.781 49.9951C93.7654 50.1506 93.7343 50.2907 93.7187 50.4462V50.4772C93.6876 50.6173 93.6566 50.7729 93.6253 50.913V50.9594L93.5321 51.3795C93.5321 51.3952 93.5165 51.4262 93.5165 51.4419C93.4852 51.5817 93.4541 51.7218 93.4077 51.8617V51.9084C93.361 52.0642 93.3143 52.204 93.2832 52.3441C93.2675 52.3595 93.2675 52.3752 93.2675 52.3752L93.1274 52.8417C93.0653 52.9975 93.0186 53.1373 92.9565 53.2929C92.8942 53.4486 92.8475 53.6041 92.7854 53.744C92.723 53.8998 92.6609 54.0396 92.5985 54.1951H92.5831C92.5205 54.3352 92.4587 54.4908 92.3809 54.6309C92.3653 54.6776 92.3496 54.7086 92.3342 54.7397C92.3186 54.7553 92.3186 54.771 92.3029 54.7864C91.2918 56.8242 89.7986 58.6131 87.9317 60.0132C87.8072 60.0909 87.6828 60.1841 87.5585 60.2778C87.5273 60.3088 87.4805 60.3242 87.4495 60.3555C87.3407 60.4333 87.2316 60.511 87.1074 60.5888L87.1539 60.6822H87.1695L87.8229 60.5888H87.8385C88.243 60.5264 88.6474 60.4487 89.0518 60.3709C89.1606 60.3553 89.2853 60.3242 89.3941 60.2932C89.4719 60.2775 89.534 60.2621 89.6118 60.2465C89.7208 60.2311 89.8296 60.1998 89.9384 60.1843C90.0318 60.1531 90.1252 60.1376 90.2187 60.1066C91.7743 59.7332 93.2832 59.2197 94.73 58.6131C92.2565 61.9889 88.9428 64.7111 85.0694 66.5C86.8585 66.3755 88.6474 66.0802 90.3742 65.5823C96.6434 63.7311 101.917 59.5154 105.075 53.8374C104.434 57.4391 103.005 60.8547 100.89 63.8399C102.398 62.8454 103.791 61.6873 105.044 60.3866C108.528 56.7464 110.815 52.1263 111.593 47.1638C112.123 49.6257 112.275 52.1541 112.044 54.6619C123.275 38.9969 112.977 22.7563 108.668 18.4784C108.653 18.4471 108.637 18.4317 108.637 18.4007C108.622 18.4161 108.622 18.4161 108.622 18.4317C108.622 18.4161 108.622 18.4161 108.606 18.4004C108.606 18.5872 108.59 18.7738 108.575 18.9606C108.528 19.3184 108.481 19.6607 108.419 20.003C108.341 20.3451 108.248 20.6874 108.155 21.0295C108.044 21.3664 107.92 21.6985 107.782 22.0252C107.639 22.3475 107.483 22.6641 107.315 22.9741C107.144 23.2695 106.957 23.5808 106.755 23.8608C106.555 24.1501 106.342 24.4304 106.117 24.7009C105.883 24.9809 105.635 25.2298 105.386 25.4785C105.239 25.6126 105.089 25.7423 104.935 25.8675C104.81 25.9763 104.701 26.0697 104.577 26.1785C104.297 26.3964 104.017 26.5986 103.706 26.7852C103.41 26.972 103.099 27.1586 102.788 27.3143C102.461 27.4698 102.134 27.6097 101.808 27.7498C101.481 27.8743 101.139 27.9833 100.797 28.0765C100.453 28.1691 100.105 28.247 99.7544 28.31C99.3966 28.3721 99.0389 28.4032 98.6966 28.4342C98.4477 28.4499 98.1987 28.4655 97.9498 28.4655C97.5921 28.4655 97.2344 28.4342 96.892 28.4029C96.5343 28.3721 96.1766 28.3254 95.8343 28.2476C95.4765 28.1851 95.1342 28.0919 94.7919 27.9831H94.7765C95.1188 27.9518 95.4609 27.9207 95.8032 27.8586C96.1542 27.7973 96.502 27.7194 96.8456 27.6251C97.1877 27.5327 97.5251 27.4238 97.8567 27.2987C98.1987 27.1742 98.5254 27.0187 98.8364 26.8629C99.1634 26.7074 99.459 26.5363 99.77 26.3497C100.066 26.1475 100.361 25.9453 100.641 25.7274C100.92 25.5107 101.185 25.2769 101.434 25.0274C101.699 24.7938 101.932 24.5295 102.166 24.2652C102.393 23.9928 102.611 23.7125 102.819 23.425C102.85 23.3786 102.881 23.3162 102.912 23.2695C103.068 23.0206 103.223 22.7717 103.363 22.5228C103.535 22.2144 103.69 21.8978 103.83 21.574C103.971 21.2484 104.095 20.9161 104.203 20.5784C104.312 20.2517 104.39 19.9094 104.468 19.5673C104.53 19.2095 104.592 18.8672 104.623 18.5249C104.655 18.1672 104.686 17.8094 104.686 17.4671C104.686 17.2182 104.67 16.9693 104.654 16.7204C104.624 16.3626 104.577 16.0205 104.53 15.678C104.469 15.3271 104.391 14.9793 104.297 14.6358C104.188 14.3092 104.079 13.9671 103.955 13.6404C103.83 13.3137 103.675 12.9871 103.519 12.6758C103.348 12.3648 103.177 12.0537 102.99 11.7581C102.792 11.4666 102.584 11.1813 102.368 10.9025C102.134 10.6342 101.895 10.3697 101.652 10.1091C101.521 9.97563 101.386 9.84598 101.248 9.7203C100.551 9.17907 99.8295 8.67034 99.0856 8.19573C98.9768 8.13338 98.8834 8.08692 98.7743 8.04021C98.2611 7.71354 97.7789 7.54214 97.2967 7.38662Z" fill="#E0234E"/>
<path d="M123.813 79.1108C123.716 78.1392 123.287 77.3665 122.526 76.7926C121.765 76.2188 120.807 75.9318 119.654 75.9318C118.841 75.9318 118.125 76.071 117.506 76.3494C116.892 76.6278 116.409 77.0142 116.057 77.5085C115.711 77.9972 115.537 78.554 115.537 79.179C115.537 79.6392 115.637 80.0426 115.836 80.3892C116.034 80.7358 116.301 81.0341 116.637 81.2841C116.978 81.5284 117.353 81.7386 117.762 81.9148C118.176 82.0909 118.594 82.2386 119.015 82.358L120.855 82.8864C121.412 83.0398 121.969 83.2358 122.526 83.4744C123.083 83.7131 123.591 84.0142 124.051 84.3778C124.517 84.7358 124.89 85.1761 125.168 85.6989C125.452 86.2159 125.594 86.8381 125.594 87.5653C125.594 88.4972 125.353 89.3352 124.87 90.0795C124.387 90.8239 123.694 91.4148 122.79 91.8523C121.887 92.2841 120.804 92.5 119.543 92.5C118.355 92.5 117.324 92.304 116.449 91.9119C115.574 91.5142 114.887 90.9659 114.387 90.267C113.887 89.5682 113.605 88.7585 113.543 87.8381H115.179C115.236 88.5256 115.463 89.108 115.861 89.5852C116.259 90.0625 116.776 90.4261 117.412 90.6761C118.049 90.9205 118.759 91.0426 119.543 91.0426C120.412 91.0426 121.185 90.8977 121.861 90.608C122.543 90.3125 123.077 89.9034 123.463 89.3807C123.855 88.8523 124.051 88.2386 124.051 87.5398C124.051 86.9489 123.898 86.4545 123.591 86.0568C123.284 85.6534 122.855 85.3153 122.304 85.0426C121.759 84.7699 121.125 84.5284 120.404 84.3182L118.316 83.7045C116.946 83.2955 115.884 82.7301 115.128 82.0085C114.373 81.2869 113.995 80.3665 113.995 79.2472C113.995 78.3097 114.245 77.4858 114.745 76.7756C115.25 76.0597 115.932 75.5028 116.79 75.1051C117.654 74.7017 118.623 74.5 119.696 74.5C120.782 74.5 121.742 74.6989 122.577 75.0966C123.412 75.4943 124.074 76.0426 124.563 76.7415C125.057 77.4347 125.321 78.2244 125.355 79.1108H123.813Z" fill="#242424"/>
<path d="M108.106 74.7472H109.699V87.3353C109.694 88.4716 109.489 89.4205 109.086 90.1819C108.682 90.9375 108.125 91.5029 107.415 91.8779C106.705 92.2529 105.89 92.4404 104.969 92.4404C104.066 92.4404 103.259 92.2728 102.549 91.9375C101.839 91.6023 101.279 91.1307 100.87 90.5228C100.466 89.9148 100.265 89.2017 100.265 88.3836H101.833C101.833 88.9006 101.969 89.358 102.242 89.7557C102.515 90.1478 102.887 90.4546 103.358 90.6762C103.836 90.8978 104.373 91.0086 104.969 91.0086C105.589 91.0086 106.131 90.8779 106.597 90.6165C107.069 90.3551 107.438 89.9546 107.705 89.4148C107.972 88.8694 108.106 88.1762 108.106 87.3353V74.7472Z" fill="#242424"/>
<path d="M97.7315 79.1108V80.4318H91.4844V79.1108H97.7315ZM93.4361 75.9744H94.9617V88.7841C94.9617 89.3295 95.0554 89.7585 95.2429 90.071C95.4304 90.3778 95.6747 90.5966 95.9759 90.7273C96.277 90.8523 96.598 90.9148 96.9389 90.9148C97.1378 90.9148 97.3082 90.9034 97.4503 90.8807C97.5923 90.8523 97.7173 90.8239 97.8253 90.7954L98.1492 92.1676C98.0014 92.2244 97.8196 92.2756 97.6037 92.321C97.3878 92.3722 97.1207 92.3977 96.8026 92.3977C96.2457 92.3977 95.7088 92.2756 95.1918 92.0312C94.6804 91.7869 94.2599 91.4233 93.9304 90.9403C93.6009 90.4574 93.4361 89.8579 93.4361 89.142V75.9744Z" fill="#242424"/>
<path d="M89.0658 81.983L87.6766 82.375C87.5402 81.983 87.347 81.6278 87.097 81.3097C86.847 80.9915 86.5203 80.7386 86.1169 80.5511C85.7192 80.3636 85.2249 80.2699 84.634 80.2699C83.7476 80.2699 83.0203 80.4801 82.4521 80.9006C81.884 81.321 81.5999 81.8636 81.5999 82.5284C81.5999 83.0909 81.7931 83.5483 82.1794 83.9006C82.5715 84.2472 83.1737 84.5227 83.9862 84.7273L85.9635 85.2131C87.0601 85.4801 87.8811 85.9034 88.4266 86.483C88.9777 87.0625 89.2533 87.7898 89.2533 88.6648C89.2533 89.4034 89.0487 90.0597 88.6396 90.6335C88.2306 91.2074 87.6595 91.6591 86.9266 91.9886C86.1993 92.3125 85.3556 92.4744 84.3953 92.4744C83.1169 92.4744 82.0629 92.1875 81.2334 91.6136C80.4039 91.0341 79.8726 90.1989 79.6396 89.108L81.097 88.75C81.2845 89.5284 81.651 90.1165 82.1965 90.5142C82.7476 90.9119 83.472 91.1108 84.3698 91.1108C85.3754 91.1108 86.1794 90.8864 86.7817 90.4375C87.384 89.983 87.6851 89.4148 87.6851 88.733C87.6851 88.2046 87.509 87.7614 87.1567 87.4034C86.8044 87.0398 86.2703 86.7727 85.5544 86.6023L83.4152 86.0909C82.2789 85.8182 81.4379 85.3864 80.8925 84.7955C80.347 84.2046 80.0743 83.4716 80.0743 82.5966C80.0743 81.875 80.2703 81.2415 80.6624 80.696C81.0544 80.1449 81.5942 79.7131 82.2817 79.4006C82.9692 79.0881 83.7533 78.9318 84.634 78.9318C85.8328 78.9318 86.7902 79.2045 87.5061 79.75C88.2277 80.2898 88.7476 81.0341 89.0658 81.983Z" fill="#242424"/>
<path d="M71.6183 92.4744C70.3967 92.4744 69.3398 92.1903 68.4478 91.6222C67.5558 91.0483 66.8654 90.2557 66.3768 89.2443C65.8938 88.2273 65.6523 87.0568 65.6523 85.733C65.6523 84.4148 65.8938 83.2443 66.3768 82.2216C66.8654 81.1932 67.5387 80.3892 68.3967 79.8097C69.2603 79.2244 70.2575 78.9318 71.3881 78.9318C72.0984 78.9318 72.783 79.0625 73.4421 79.3239C74.1012 79.5795 74.6921 79.9744 75.2148 80.5085C75.7433 81.0369 76.1609 81.7046 76.4677 82.5114C76.7745 83.3125 76.9279 84.2614 76.9279 85.358V86.108H66.7006V84.7699H75.3768C75.3768 83.929 75.2063 83.1733 74.8654 82.5028C74.5302 81.8267 74.0614 81.2926 73.4592 80.9006C72.8626 80.5085 72.1722 80.3125 71.3881 80.3125C70.5586 80.3125 69.8285 80.5341 69.1978 80.9773C68.5671 81.4205 68.0728 82.0057 67.7148 82.733C67.3626 83.4602 67.1836 84.2557 67.1779 85.1193V85.9205C67.1779 86.9602 67.3569 87.8693 67.7148 88.6477C68.0785 89.4205 68.5927 90.0199 69.2575 90.446C69.9222 90.8722 70.7092 91.0852 71.6183 91.0852C72.2376 91.0852 72.7802 90.9886 73.2461 90.7955C73.7177 90.6023 74.1126 90.3438 74.4308 90.0199C74.7546 89.6903 74.9989 89.3296 75.1637 88.9375L76.604 89.4063C76.4052 89.9574 76.0785 90.4659 75.6239 90.9318C75.1751 91.3977 74.6126 91.7727 73.9364 92.0568C73.266 92.3352 72.4933 92.4744 71.6183 92.4744Z" fill="#242424"/>
<path d="M62 74.7472V92.2017H60.4489L50.1364 77.5853H50V92.2017H48.4062V74.7472H49.9489L60.2955 89.3807H60.4318V74.7472H62Z" fill="#242424"/>
</svg>
