<svg width="175" height="100" viewBox="0 0 175 100" fill="none" xmlns="http://www.w3.org/2000/svg">
<g clip-path="url(#clip0_12169_24570)">
<path d="M84.1591 4.33038C84.0342 4.34173 83.637 4.38146 83.2794 4.40983C75.0336 5.15327 67.3098 9.60253 62.4179 16.441C59.6938 20.2433 57.9516 24.5563 57.2933 29.1248C57.0606 30.7195 57.0322 31.1905 57.0322 33.3527C57.0322 35.5149 57.0606 35.9859 57.2933 37.5806C58.8709 48.4824 66.6288 57.642 77.1504 61.0357C79.0345 61.6429 81.0208 62.0572 83.2794 62.3069C84.1591 62.4034 87.9614 62.4034 88.841 62.3069C92.7398 61.8756 96.0427 60.9109 99.3002 59.2481C99.7996 58.9927 99.896 58.9246 99.8279 58.8678C99.7825 58.8338 97.6544 55.9792 95.1006 52.5288L90.4584 46.2578L84.6415 37.6487C81.4407 32.9157 78.8075 29.0453 78.7848 29.0453C78.7621 29.0396 78.7394 32.8646 78.728 37.5352C78.711 45.713 78.7053 46.0422 78.6032 46.2351C78.4556 46.5132 78.3421 46.6267 78.1038 46.7515C77.9222 46.8423 77.7633 46.8594 76.9063 46.8594H75.9245L75.6635 46.6948C75.4932 46.587 75.3684 46.4451 75.2833 46.2805L75.1641 46.0251L75.1754 34.6466L75.1925 23.2624L75.3684 23.0411C75.4592 22.9219 75.6521 22.7687 75.7883 22.6949C76.021 22.5814 76.1118 22.5701 77.0936 22.5701C78.2513 22.5701 78.4443 22.6155 78.7451 22.9446C78.8302 23.0354 81.9798 27.7798 85.7481 33.4946C89.5163 39.2094 94.6693 47.0126 97.2004 50.8433L101.797 57.8066L102.03 57.6534C104.09 56.314 106.269 54.4072 107.994 52.4209C111.666 48.2044 114.033 43.0628 114.827 37.5806C115.06 35.9859 115.088 35.5149 115.088 33.3527C115.088 31.1905 115.06 30.7195 114.827 29.1248C113.249 18.223 105.492 9.06339 94.9701 5.6697C93.1143 5.06814 91.1394 4.65386 88.9261 4.40416C88.3813 4.34741 84.6301 4.28498 84.1591 4.33038ZM96.0427 21.8891C96.3151 22.0253 96.5364 22.2863 96.6159 22.5587C96.6613 22.7063 96.6726 25.8616 96.6613 32.9725L96.6442 43.1763L94.8452 40.4182L93.0406 37.6601V30.2428C93.0406 25.4473 93.0633 22.7517 93.0973 22.6211C93.1881 22.3033 93.3867 22.0536 93.6591 21.9061C93.8918 21.7869 93.9769 21.7756 94.8679 21.7756C95.7078 21.7756 95.8554 21.7869 96.0427 21.8891Z" fill="black"/>
<path d="M102.953 59.6673C102.748 59.7962 102.684 59.8841 102.865 59.7845C102.994 59.7083 103.205 59.5501 103.17 59.5443C103.152 59.5443 103.053 59.6028 102.953 59.6673ZM102.549 59.9309C102.443 60.013 102.443 60.0188 102.572 59.9544C102.643 59.9192 102.701 59.8782 102.701 59.8665C102.701 59.8196 102.672 59.8313 102.549 59.9309ZM102.256 60.1067C102.15 60.1887 102.15 60.1946 102.279 60.1301C102.35 60.095 102.408 60.054 102.408 60.0422C102.408 59.9954 102.379 60.0071 102.256 60.1067ZM101.963 60.2825C101.857 60.3645 101.857 60.3703 101.986 60.3059C102.057 60.2707 102.115 60.2297 102.115 60.218C102.115 60.1711 102.086 60.1829 101.963 60.2825ZM101.518 60.5168C101.295 60.634 101.307 60.6809 101.529 60.5695C101.629 60.5168 101.705 60.4641 101.705 60.4524C101.705 60.4114 101.699 60.4172 101.518 60.5168Z" fill="black"/>
</g>
<path d="M123.677 79.5881L122.288 79.9801C122.152 79.5881 121.958 79.2329 121.708 78.9148C121.458 78.5966 121.132 78.3437 120.728 78.1562C120.331 77.9687 119.836 77.875 119.245 77.875C118.359 77.875 117.632 78.0852 117.063 78.5057C116.495 78.9261 116.211 79.4687 116.211 80.1335C116.211 80.696 116.404 81.1534 116.791 81.5057C117.183 81.8523 117.785 82.1278 118.598 82.3324L120.575 82.8182C121.671 83.0852 122.492 83.5085 123.038 84.0881C123.589 84.6676 123.865 85.3949 123.865 86.2699C123.865 87.0085 123.66 87.6648 123.251 88.2386C122.842 88.8125 122.271 89.2642 121.538 89.5937C120.811 89.9176 119.967 90.0795 119.007 90.0795C117.728 90.0795 116.674 89.7926 115.845 89.2187C115.015 88.6392 114.484 87.804 114.251 86.7131L115.708 86.3551C115.896 87.1335 116.262 87.7216 116.808 88.1193C117.359 88.517 118.083 88.7159 118.981 88.7159C119.987 88.7159 120.791 88.4915 121.393 88.0426C121.995 87.5881 122.296 87.0199 122.296 86.3381C122.296 85.8097 122.12 85.3665 121.768 85.0085C121.416 84.6449 120.882 84.3778 120.166 84.2074L118.027 83.696C116.89 83.4233 116.049 82.9915 115.504 82.4006C114.958 81.8097 114.686 81.0767 114.686 80.2017C114.686 79.4801 114.882 78.8466 115.274 78.3011C115.666 77.75 116.206 77.3182 116.893 77.0057C117.581 76.6932 118.365 76.5369 119.245 76.5369C120.444 76.5369 121.402 76.8097 122.117 77.3551C122.839 77.8949 123.359 78.6392 123.677 79.5881Z" fill="#242424"/>
<path d="M109.344 76.7159H110.87V91.0767C110.87 91.821 110.73 92.463 110.452 93.0028C110.179 93.5483 109.782 93.9687 109.259 94.2642C108.736 94.5653 108.105 94.7159 107.367 94.7159C107.31 94.7159 107.253 94.7159 107.196 94.7159C107.139 94.7159 107.077 94.713 107.009 94.7074L107.026 93.2841C107.083 93.2841 107.137 93.2841 107.188 93.2841C107.239 93.2841 107.293 93.2841 107.35 93.2841C107.975 93.2841 108.463 93.0909 108.816 92.7045C109.168 92.3181 109.344 91.7755 109.344 91.0767V76.7159ZM110.094 74.4659C109.787 74.4659 109.52 74.3608 109.293 74.1505C109.071 73.9346 108.96 73.6761 108.96 73.375C108.96 73.0738 109.071 72.8181 109.293 72.6079C109.52 72.392 109.787 72.2841 110.094 72.2841C110.407 72.2841 110.674 72.392 110.895 72.6079C111.122 72.8181 111.236 73.0738 111.236 73.375C111.236 73.6761 111.122 73.9346 110.895 74.1505C110.674 74.3608 110.407 74.4659 110.094 74.4659Z" fill="#242424"/>
<path d="M104.093 89.9346C103.757 89.9346 103.468 89.8153 103.223 89.5767C102.985 89.3324 102.865 89.0426 102.865 88.7074C102.865 88.3665 102.985 88.0767 103.223 87.8381C103.468 87.5994 103.757 87.4801 104.093 87.4801C104.433 87.4801 104.723 87.5994 104.962 87.8381C105.2 88.0767 105.32 88.3665 105.32 88.7074C105.32 88.929 105.263 89.1335 105.149 89.321C105.041 89.5085 104.894 89.6591 104.706 89.7727C104.524 89.8807 104.32 89.9346 104.093 89.9346Z" fill="#242424"/>
<path d="M99.4366 76.7159V78.0369H93.1895V76.7159H99.4366ZM95.1412 73.5795H96.6667V86.3892C96.6667 86.9346 96.7605 87.3636 96.948 87.6761C97.1355 87.9829 97.3798 88.2017 97.6809 88.3324C97.9821 88.4574 98.3031 88.5199 98.644 88.5199C98.8429 88.5199 99.0133 88.5085 99.1554 88.4858C99.2974 88.4574 99.4224 88.429 99.5304 88.4006L99.8542 89.7727C99.7065 89.8295 99.5247 89.8807 99.3088 89.9261C99.0929 89.9773 98.8258 90.0028 98.5076 90.0028C97.9508 90.0028 97.4139 89.8807 96.8968 89.6363C96.3855 89.392 95.965 89.0284 95.6355 88.5454C95.3059 88.0625 95.1412 87.4631 95.1412 86.7471V73.5795Z" fill="#242424"/>
<path d="M82.5848 76.7159L85.9598 82.2983L89.3348 76.7159H91.099L86.8888 83.2613L91.099 89.8068H89.3348L85.9598 84.4034L82.5848 89.8068H80.8291L84.9882 83.2613L80.8291 76.7159H82.5848Z" fill="#242424"/>
<path d="M73.3468 90.0795C72.1252 90.0795 71.0684 89.7954 70.1763 89.2273C69.2843 88.6534 68.5939 87.8608 68.1053 86.8494C67.6223 85.8324 67.3809 84.6619 67.3809 83.3381C67.3809 82.0199 67.6223 80.8494 68.1053 79.8267C68.5939 78.7983 69.2672 77.9943 70.1252 77.4148C70.9888 76.8295 71.986 76.5369 73.1167 76.5369C73.8269 76.5369 74.5115 76.6676 75.1706 76.929C75.8297 77.1847 76.4206 77.5795 76.9434 78.1136C77.4718 78.642 77.8894 79.3097 78.1962 80.1165C78.503 80.9176 78.6564 81.8665 78.6564 82.9631V83.7131H68.4292V82.375H77.1053C77.1053 81.5341 76.9348 80.7784 76.5939 80.1079C76.2587 79.4318 75.7899 78.8977 75.1877 78.5057C74.5911 78.1136 73.9007 77.9176 73.1167 77.9176C72.2871 77.9176 71.557 78.1392 70.9263 78.5824C70.2956 79.0256 69.8013 79.6108 69.4434 80.3381C69.0911 81.0653 68.9121 81.8608 68.9064 82.7244V83.5256C68.9064 84.5653 69.0854 85.4744 69.4434 86.2528C69.807 87.0256 70.3212 87.625 70.986 88.0511C71.6507 88.4773 72.4377 88.6903 73.3468 88.6903C73.9661 88.6903 74.5087 88.5937 74.9746 88.4006C75.4462 88.2074 75.8411 87.9489 76.1593 87.625C76.4831 87.2954 76.7275 86.9347 76.8922 86.5426L78.3326 87.0114C78.1337 87.5625 77.807 88.071 77.3524 88.5369C76.9036 89.0028 76.3411 89.3778 75.6649 89.6619C74.9945 89.9403 74.2218 90.0795 73.3468 90.0795Z" fill="#242424"/>
<path d="M63.7285 72.3522V89.8068H62.1774L51.8649 75.1903H51.7285V89.8068H50.1348V72.3522H51.6774L62.024 86.9858H62.1603V72.3522H63.7285Z" fill="#242424"/>
<defs>
<clipPath id="clip0_12169_24570">
<rect width="60" height="60" fill="white" transform="translate(57 4.28406)"/>
</clipPath>
</defs>
</svg>
