<svg width="175" height="100" viewBox="0 0 175 100" fill="none" xmlns="http://www.w3.org/2000/svg">
<path d="M88.4236 6.87706C87.9897 6.63006 87.4991 6.50018 86.9998 6.50018C86.5005 6.50018 86.0098 6.63006 85.5759 6.87706L62.0672 20.4454C61.1734 20.9479 60.6709 21.8973 60.6709 22.9022V50.0969C60.6709 51.1019 61.2294 52.0513 62.0672 52.5538L85.5759 66.1231C86.0098 66.3701 86.5005 66.5 86.9998 66.5C87.4991 66.5 87.9897 66.3701 88.4236 66.1231L111.933 52.5538C112.826 52.0513 113.329 51.1019 113.329 50.0969V22.9027C113.329 21.8978 112.77 20.9484 111.933 20.4459L88.4236 6.87706Z" fill="url(#paint0_linear_12188_24695)"/>
<mask id="mask0_12188_24695" style="mask-type:luminance" maskUnits="userSpaceOnUse" x="60" y="6" width="54" height="61">
<path d="M88.4236 6.87681C87.9897 6.62982 87.4991 6.49994 86.9998 6.49994C86.5005 6.49994 86.0098 6.62982 85.5759 6.87681L62.0672 20.4452C61.1734 20.9476 60.6709 21.897 60.6709 22.902V50.0967C60.6709 51.1016 61.2294 52.051 62.0672 52.5535L85.5759 66.1228C86.0098 66.3698 86.5005 66.4997 86.9998 66.4997C87.4991 66.4997 87.9897 66.3698 88.4236 66.1228L111.933 52.5535C112.826 52.051 113.329 51.1016 113.329 50.0967V22.9025C113.329 21.8975 112.77 20.9481 111.933 20.4457L88.4236 6.87681Z" fill="white"/>
</mask>
<g mask="url(#mask0_12188_24695)">
<path d="M111.986 20.4459L88.3656 6.8771C88.1335 6.7599 87.8902 6.66634 87.6394 6.59784L61.1709 51.9407C61.3902 52.2084 61.655 52.4352 61.9531 52.6108L85.5735 66.1801C86.2436 66.571 87.0253 66.6826 87.751 66.4589L112.6 21.0049C112.433 20.7817 112.209 20.6131 111.986 20.4459Z" fill="url(#paint1_linear_12188_24695)"/>
</g>
<mask id="mask1_12188_24695" style="mask-type:luminance" maskUnits="userSpaceOnUse" x="60" y="6" width="54" height="61">
<path d="M88.4236 6.87681C87.9897 6.62982 87.4991 6.49994 86.9998 6.49994C86.5005 6.49994 86.0098 6.62982 85.5759 6.87681L62.0672 20.4452C61.1734 20.9476 60.6709 21.897 60.6709 22.902V50.0967C60.6709 51.1016 61.2294 52.051 62.0672 52.5535L85.5759 66.1228C86.0098 66.3698 86.5005 66.4997 86.9998 66.4997C87.4991 66.4997 87.9897 66.3698 88.4236 66.1228L111.933 52.5535C112.826 52.051 113.329 51.1016 113.329 50.0967V22.9025C113.329 21.8975 112.77 20.9481 111.933 20.4457L88.4236 6.87681Z" fill="white"/>
</mask>
<g mask="url(#mask1_12188_24695)">
<path fill-rule="evenodd" clip-rule="evenodd" d="M112.043 52.554C112.713 52.1632 113.216 51.493 113.439 50.7673L87.5285 6.54154C86.8584 6.42994 86.1322 6.4855 85.5186 6.87637L62.0654 20.3901L87.3609 66.5142C87.7287 66.454 88.086 66.3412 88.4219 66.1794L112.043 52.5545L112.043 52.554Z" fill="url(#paint2_linear_12188_24695)"/>
<path fill-rule="evenodd" clip-rule="evenodd" d="M112.043 52.554L88.478 66.1234C88.1453 66.293 87.7868 66.4062 87.417 66.4582L87.8639 67.296L113.997 52.1637V51.8284L113.327 50.7113C113.215 51.493 112.713 52.1632 112.043 52.554Z" fill="url(#paint3_linear_12188_24695)"/>
<path fill-rule="evenodd" clip-rule="evenodd" d="M112.043 52.554L88.478 66.1234C88.1453 66.293 87.7868 66.4062 87.417 66.4582L87.8639 67.296L113.997 52.1637V51.8284L113.327 50.7113C113.215 51.493 112.713 52.1632 112.043 52.554Z" fill="url(#paint4_linear_12188_24695)"/>
</g>
<path d="M131.184 79.1108C131.087 78.1392 130.658 77.3665 129.897 76.7926C129.136 76.2188 128.178 75.9318 127.025 75.9318C126.212 75.9318 125.496 76.071 124.877 76.3494C124.263 76.6278 123.781 77.0142 123.428 77.5085C123.082 77.9972 122.908 78.554 122.908 79.179C122.908 79.6392 123.008 80.0426 123.207 80.3892C123.406 80.7358 123.673 81.0341 124.008 81.2841C124.349 81.5284 124.724 81.7386 125.133 81.9148C125.548 82.0909 125.965 82.2386 126.386 82.358L128.227 82.8864C128.783 83.0398 129.34 83.2358 129.897 83.4744C130.454 83.7131 130.962 84.0142 131.423 84.3778C131.888 84.7358 132.261 85.1761 132.539 85.6989C132.823 86.2159 132.965 86.8381 132.965 87.5653C132.965 88.4972 132.724 89.3352 132.241 90.0795C131.758 90.8239 131.065 91.4148 130.161 91.8523C129.258 92.2841 128.175 92.5 126.914 92.5C125.727 92.5 124.695 92.304 123.82 91.9119C122.945 91.5142 122.258 90.9659 121.758 90.267C121.258 89.5682 120.977 88.7585 120.914 87.8381H122.55C122.607 88.5256 122.835 89.108 123.232 89.5852C123.63 90.0625 124.147 90.4261 124.783 90.6761C125.42 90.9205 126.13 91.0426 126.914 91.0426C127.783 91.0426 128.556 90.8977 129.232 90.608C129.914 90.3125 130.448 89.9034 130.835 89.3807C131.227 88.8523 131.423 88.2386 131.423 87.5398C131.423 86.9489 131.269 86.4545 130.962 86.0568C130.656 85.6534 130.227 85.3153 129.675 85.0426C129.13 84.7699 128.496 84.5284 127.775 84.3182L125.687 83.7045C124.317 83.2955 123.255 82.7301 122.499 82.0085C121.744 81.2869 121.366 80.3665 121.366 79.2472C121.366 78.3097 121.616 77.4858 122.116 76.7756C122.621 76.0597 123.303 75.5028 124.161 75.1051C125.025 74.7017 125.994 74.5 127.067 74.5C128.153 74.5 129.113 74.6989 129.948 75.0966C130.783 75.4943 131.445 76.0426 131.934 76.7415C132.428 77.4347 132.692 78.2244 132.727 79.1108H131.184Z" fill="#242424"/>
<path d="M115.477 74.7472H117.07V87.3353C117.065 88.4716 116.86 89.4205 116.457 90.1819C116.053 90.9375 115.497 91.5029 114.786 91.8779C114.076 92.2529 113.261 92.4404 112.34 92.4404C111.437 92.4404 110.63 92.2728 109.92 91.9375C109.21 91.6023 108.65 91.1307 108.241 90.5228C107.837 89.9148 107.636 89.2017 107.636 88.3836H109.204C109.204 88.9006 109.34 89.358 109.613 89.7557C109.886 90.1478 110.258 90.4546 110.729 90.6762C111.207 90.8978 111.744 91.0086 112.34 91.0086C112.96 91.0086 113.502 90.8779 113.968 90.6165C114.44 90.3551 114.809 89.9546 115.076 89.4148C115.343 88.8694 115.477 88.1762 115.477 87.3353V74.7472Z" fill="#242424"/>
<path d="M93.1456 92.4744C91.924 92.4744 90.8672 92.1903 89.9751 91.6222C89.0831 91.0483 88.3928 90.2557 87.9041 89.2443C87.4212 88.2273 87.1797 87.0568 87.1797 85.733C87.1797 84.4148 87.4212 83.2443 87.9041 82.2216C88.3928 81.1932 89.0661 80.3892 89.924 79.8097C90.7876 79.2244 91.7848 78.9318 92.9155 78.9318C93.6257 78.9318 94.3104 79.0625 94.9695 79.3239C95.6286 79.5795 96.2195 79.9744 96.7422 80.5085C97.2706 81.0369 97.6882 81.7046 97.995 82.5114C98.3019 83.3125 98.4553 84.2614 98.4553 85.358V86.108H88.228V84.7699H96.9041C96.9041 83.929 96.7337 83.1733 96.3928 82.5028C96.0575 81.8267 95.5888 81.2926 94.9865 80.9006C94.3899 80.5085 93.6996 80.3125 92.9155 80.3125C92.0859 80.3125 91.3558 80.5341 90.7251 80.9773C90.0945 81.4205 89.6001 82.0057 89.2422 82.733C88.8899 83.4602 88.7109 84.2557 88.7053 85.1193V85.9205C88.7053 86.9602 88.8842 87.8693 89.2422 88.6477C89.6058 89.4205 90.12 90.0199 90.7848 90.446C91.4496 90.8722 92.2365 91.0852 93.1456 91.0852C93.7649 91.0852 94.3075 90.9886 94.7734 90.7955C95.245 90.6023 95.6399 90.3438 95.9581 90.0199C96.282 89.6903 96.5263 89.3296 96.6911 88.9375L98.1314 89.4063C97.9325 89.9574 97.6058 90.4659 97.1513 90.9318C96.7024 91.3977 96.1399 91.7727 95.4638 92.0568C94.7933 92.3352 94.0206 92.4744 93.1456 92.4744Z" fill="#242424"/>
<path d="M77.8473 92.4745C76.7734 92.4745 75.8331 92.1904 75.0263 91.6222C74.2195 91.054 73.5888 90.2614 73.1342 89.2444C72.6854 88.2273 72.4609 87.0426 72.4609 85.6904C72.4609 84.3438 72.6854 83.1648 73.1342 82.1534C73.5888 81.1364 74.2223 80.3466 75.0348 79.7841C75.8473 79.2159 76.7933 78.9319 77.8729 78.9319C78.6683 78.9319 79.3303 79.0739 79.8587 79.358C80.3871 79.6364 80.8104 79.983 81.1286 80.3978C81.4467 80.8125 81.6939 81.2159 81.87 81.608H82.0064V74.7472H83.532V92.2017H82.049V89.7728H81.87C81.6939 90.1705 81.4439 90.5796 81.12 91C80.7962 91.4148 80.3672 91.7642 79.8331 92.0483C79.3047 92.3324 78.6428 92.4745 77.8473 92.4745ZM78.0263 91.0853C78.8729 91.0853 79.5945 90.8551 80.1911 90.3949C80.7876 89.929 81.2422 89.2898 81.5547 88.4773C81.8729 87.6591 82.032 86.7216 82.032 85.6648C82.032 84.6194 81.8757 83.6961 81.5632 82.8949C81.2507 82.0881 80.7962 81.4574 80.1996 81.0029C79.603 80.5426 78.8786 80.3125 78.0263 80.3125C77.1513 80.3125 76.4126 80.5512 75.8104 81.0284C75.2138 81.5 74.7592 82.1392 74.4467 82.9461C74.1399 83.7529 73.9865 84.6591 73.9865 85.6648C73.9865 86.6819 74.1428 87.5995 74.4553 88.4176C74.7678 89.2358 75.2223 89.8864 75.8189 90.3694C76.4212 90.8466 77.157 91.0853 78.0263 91.0853Z" fill="#242424"/>
<path d="M64.0426 92.4744C62.9119 92.4744 61.9119 92.1875 61.0426 91.6136C60.179 91.0398 59.5028 90.2472 59.0142 89.2358C58.5256 88.2188 58.2812 87.0455 58.2812 85.7159C58.2812 84.375 58.5256 83.196 59.0142 82.179C59.5028 81.1563 60.179 80.3608 61.0426 79.7926C61.9119 79.2188 62.9119 78.9318 64.0426 78.9318C65.1733 78.9318 66.1705 79.2188 67.0341 79.7926C67.8977 80.3665 68.5739 81.1619 69.0625 82.179C69.5568 83.196 69.804 84.375 69.804 85.7159C69.804 87.0455 69.5597 88.2188 69.071 89.2358C68.5824 90.2472 67.9034 91.0398 67.0341 91.6136C66.1705 92.1875 65.1733 92.4744 64.0426 92.4744ZM64.0426 91.0852C64.9517 91.0852 65.7216 90.8409 66.3523 90.3523C66.983 89.8636 67.4602 89.2131 67.7841 88.4006C68.1136 87.5881 68.2784 86.6932 68.2784 85.7159C68.2784 84.7386 68.1136 83.8409 67.7841 83.0227C67.4602 82.2046 66.983 81.5483 66.3523 81.054C65.7216 80.5597 64.9517 80.3125 64.0426 80.3125C63.1392 80.3125 62.3693 80.5597 61.733 81.054C61.1023 81.5483 60.6222 82.2046 60.2926 83.0227C59.9687 83.8409 59.8068 84.7386 59.8068 85.7159C59.8068 86.6932 59.9687 87.5881 60.2926 88.4006C60.6222 89.2131 61.1023 89.8636 61.733 90.3523C62.3636 90.8409 63.1335 91.0852 64.0426 91.0852Z" fill="#242424"/>
<path d="M54.6289 74.7472V92.2017H53.0778L42.7653 77.5853H42.6289V92.2017H41.0352V74.7472H42.5778L52.9244 89.3807H53.0607V74.7472H54.6289Z" fill="#242424"/>
<defs>
<linearGradient id="paint0_linear_12188_24695" x1="3651.33" y1="1055.72" x2="1074.55" y2="5104.61" gradientUnits="userSpaceOnUse">
<stop stop-color="#41873F"/>
<stop offset="0.3288" stop-color="#418B3D"/>
<stop offset="0.6352" stop-color="#419637"/>
<stop offset="0.9319" stop-color="#3FA92D"/>
<stop offset="1" stop-color="#3FAE2A"/>
</linearGradient>
<linearGradient id="paint1_linear_12188_24695" x1="2286.89" y1="3315.37" x2="8740.32" y2="-190.807" gradientUnits="userSpaceOnUse">
<stop offset="0.1376" stop-color="#41873F"/>
<stop offset="0.4032" stop-color="#54A044"/>
<stop offset="0.7136" stop-color="#66B848"/>
<stop offset="0.9081" stop-color="#6CC04A"/>
</linearGradient>
<linearGradient id="paint2_linear_12188_24695" x1="-163.415" y1="3007.49" x2="5276.48" y2="3007.49" gradientUnits="userSpaceOnUse">
<stop offset="0.09192" stop-color="#6CC04A"/>
<stop offset="0.2864" stop-color="#66B848"/>
<stop offset="0.5968" stop-color="#54A044"/>
<stop offset="0.8624" stop-color="#41873F"/>
</linearGradient>
<linearGradient id="paint3_linear_12188_24695" x1="-2673.22" y1="884.506" x2="2766.61" y2="884.506" gradientUnits="userSpaceOnUse">
<stop offset="0.09192" stop-color="#6CC04A"/>
<stop offset="0.2864" stop-color="#66B848"/>
<stop offset="0.5968" stop-color="#54A044"/>
<stop offset="0.8624" stop-color="#41873F"/>
</linearGradient>
<linearGradient id="paint4_linear_12188_24695" x1="3559.13" y1="-3449.8" x2="2181" y2="3771.52" gradientUnits="userSpaceOnUse">
<stop stop-color="#41873F"/>
<stop offset="0.3288" stop-color="#418B3D"/>
<stop offset="0.6352" stop-color="#419637"/>
<stop offset="0.9319" stop-color="#3FA92D"/>
<stop offset="1" stop-color="#3FAE2A"/>
</linearGradient>
</defs>
</svg>
