<svg width="175" height="100" viewBox="0 0 175 100" fill="none" xmlns="http://www.w3.org/2000/svg">
<g clip-path="url(#clip0_12169_24658)">
<path d="M105.984 31.2244C106.638 29.2608 106.865 27.1802 106.65 25.1219C106.434 23.0636 105.782 21.075 104.736 19.2892C103.185 16.5881 100.816 14.4496 97.9704 13.1823C95.1252 11.9149 91.9508 11.5843 88.9054 12.2381C87.532 10.6901 85.8438 9.45331 83.9537 8.61052C82.0636 7.76772 80.0154 7.33836 77.9459 7.35117C74.8326 7.34369 71.7972 8.325 69.2774 10.1536C66.7576 11.9823 64.8836 14.5638 63.9254 17.5261C61.8968 17.9411 59.9803 18.7848 58.3043 20.0006C56.6282 21.2164 55.2312 22.7763 54.2069 24.5758C52.644 27.2695 51.977 30.3899 52.302 33.4872C52.627 36.5845 53.9272 39.4985 56.0153 41.8091C55.3613 43.7729 55.1344 45.8537 55.3497 47.9123C55.5649 49.9709 56.2175 51.9597 57.2636 53.7457C58.8148 56.4466 61.1839 58.585 64.0292 59.8523C66.8744 61.1197 70.0486 61.4504 73.094 60.7968C74.4678 62.3447 76.1564 63.5812 78.0467 64.4238C79.937 65.2663 81.9854 65.6954 84.055 65.6823C87.1699 65.6905 90.2069 64.7089 92.7277 62.879C95.2485 61.0492 97.1227 58.4658 98.0799 55.5015C100.108 55.0863 102.024 54.2425 103.7 53.0267C105.376 51.811 106.773 50.2512 107.797 48.4519C109.358 45.7584 110.024 42.6388 109.698 39.5427C109.372 36.4466 108.072 33.5339 105.984 31.2244ZM84.0593 61.8731C81.5019 61.8769 79.0245 60.9812 77.0607 59.3428C77.1497 59.2947 77.3057 59.2101 77.4064 59.1474L89.0207 52.439C89.3126 52.2732 89.555 52.0326 89.7229 51.7419C89.8908 51.4512 89.9782 51.1209 89.9759 50.7852V34.4094L94.8847 37.2444C94.9105 37.2572 94.9328 37.2761 94.9496 37.2995C94.9664 37.3229 94.9772 37.3501 94.9809 37.3786V50.9398C94.9775 53.8365 93.8258 56.6137 91.7784 58.6629C89.7309 60.712 86.9546 61.8658 84.0579 61.8716L84.0593 61.8731ZM60.5711 51.8396C59.2905 49.6265 58.8289 47.0334 59.2674 44.5143C59.3549 44.5668 59.5036 44.6587 59.613 44.72L71.2273 51.4284C71.5168 51.5974 71.8459 51.6864 72.1811 51.6864C72.5163 51.6864 72.8454 51.5974 73.1348 51.4284L87.3158 43.2412V48.9113C87.3175 48.9401 87.312 48.969 87.2998 48.9952C87.2875 49.0214 87.269 49.0442 87.2458 49.0615L75.5047 55.8413C72.993 57.2879 70.01 57.679 67.2103 56.9288C64.4106 56.1786 62.0229 54.3483 60.5711 51.8396ZM57.5159 26.4847C58.7916 24.2682 60.8066 22.5712 63.2078 21.6911C63.2078 21.7903 63.202 21.9682 63.202 22.0907V35.509C63.2001 35.8441 63.2875 36.1736 63.4551 36.4637C63.6227 36.7539 63.8646 36.9941 64.1558 37.1599L78.3353 45.347L73.4265 48.1821C73.4022 48.1982 73.3743 48.2079 73.3452 48.2105C73.3162 48.213 73.287 48.2083 73.2603 48.1967L61.5162 41.4124C59.0089 39.9604 57.1798 37.5734 56.4299 34.7748C55.68 31.9762 56.0706 28.9958 57.5159 26.4847ZM97.851 35.8721L83.67 27.6835L88.5802 24.8499C88.6044 24.8342 88.6321 24.8247 88.6608 24.8221C88.6895 24.8196 88.7185 24.8241 88.745 24.8353L100.488 31.6138C102.287 32.653 103.752 34.1832 104.713 36.0252C105.674 37.8672 106.09 39.9448 105.913 42.0147C105.736 44.0847 104.972 46.0613 103.713 47.7132C102.453 49.3651 100.748 50.624 98.7989 51.3423V37.523C98.8015 37.1885 98.7151 36.8593 98.5486 36.5692C98.382 36.2791 98.1412 36.0385 97.851 35.8721ZM102.736 28.5177C102.65 28.4637 102.5 28.3733 102.392 28.312L90.7765 21.6036C90.487 21.4348 90.1579 21.3458 89.8228 21.3458C89.4876 21.3458 89.1585 21.4348 88.869 21.6036L74.6894 29.7908V24.1207C74.6878 24.0919 74.6933 24.063 74.7055 24.0368C74.7178 24.0106 74.7363 23.9878 74.7594 23.9705L86.4992 17.1965C88.2981 16.1588 90.3553 15.6548 92.4301 15.7437C94.505 15.8325 96.5116 16.5104 98.2152 17.6981C99.9188 18.8858 101.249 20.5342 102.05 22.4503C102.851 24.3663 103.088 26.4709 102.736 28.5177ZM72.0192 38.6226L67.1089 35.7876C67.0834 35.7747 67.0613 35.7557 67.0448 35.7323C67.0283 35.7089 67.0178 35.6818 67.0141 35.6534V22.0922C67.0159 20.0155 67.609 17.9822 68.7242 16.2303C69.8393 14.4784 71.4304 13.0803 73.3111 12.1997C75.1919 11.3191 77.2846 10.9923 79.3443 11.2576C81.4039 11.5229 83.3455 12.3694 84.9417 13.6979C84.8257 13.7608 84.7109 13.826 84.5975 13.8933L72.9817 20.6017C72.6905 20.7675 72.4486 21.0077 72.281 21.2979C72.1134 21.588 72.0261 21.9175 72.028 22.2526L72.0192 38.6226ZM74.6865 32.8723L81.0012 29.225L87.3188 32.8709V40.1626L81.0026 43.8085L74.6865 40.1626V32.8723Z" fill="black"/>
</g>
<path d="M123.873 74.7557V92.2102H122.279V74.7557H123.873Z" fill="#242424"/>
<path d="M106.555 92.2102H104.885L111.234 74.7557H112.939L119.288 92.2102H117.618L112.146 76.8267H112.027L106.555 92.2102ZM107.757 85.5199H116.416V86.9517H107.757V85.5199Z" fill="#242424"/>
<path d="M87.0825 84.0284V92.2102H85.5654V79.1193H87.0399V81.1733H87.1762C87.483 80.5028 87.9603 79.9659 88.608 79.5625C89.2615 79.1534 90.0683 78.9489 91.0285 78.9489C91.9092 78.9489 92.6819 79.1335 93.3467 79.5028C94.0171 79.8665 94.537 80.4034 94.9063 81.1136C95.2813 81.8239 95.4688 82.696 95.4688 83.7301V92.2102H93.9518V83.8239C93.9518 82.75 93.6507 81.9006 93.0484 81.2756C92.4518 80.6506 91.6507 80.3381 90.645 80.3381C89.9575 80.3381 89.3467 80.4858 88.8126 80.7812C88.2785 81.0767 87.8552 81.5028 87.5427 82.0596C87.2359 82.6108 87.0825 83.267 87.0825 84.0284Z" fill="#242424"/>
<path d="M76.9132 92.4829C75.6916 92.4829 74.6348 92.1988 73.7427 91.6306C72.8507 91.0568 72.1603 90.2642 71.6717 89.2528C71.1887 88.2358 70.9473 87.0653 70.9473 85.7414C70.9473 84.4233 71.1887 83.2528 71.6717 82.2301C72.1603 81.2017 72.8336 80.3977 73.6916 79.8181C74.5552 79.2329 75.5524 78.9403 76.6831 78.9403C77.3933 78.9403 78.078 79.071 78.737 79.3324C79.3961 79.588 79.987 79.9829 80.5098 80.517C81.0382 81.0454 81.4558 81.713 81.7626 82.5199C82.0694 83.321 82.2228 84.2699 82.2228 85.3664V86.1164H71.9956V84.7784H80.6717C80.6717 83.9375 80.5012 83.1818 80.1603 82.5113C79.8251 81.8352 79.3564 81.3011 78.7541 80.9091C78.1575 80.517 77.4672 80.321 76.6831 80.321C75.8535 80.321 75.1234 80.5426 74.4927 80.9858C73.862 81.4289 73.3677 82.0142 73.0098 82.7414C72.6575 83.4687 72.4785 84.2642 72.4728 85.1278V85.9289C72.4728 86.9687 72.6518 87.8778 73.0098 88.6562C73.3734 89.4289 73.8876 90.0284 74.5524 90.4545C75.2172 90.8806 76.0041 91.0937 76.9132 91.0937C77.5325 91.0937 78.0751 90.9971 78.541 90.8039C79.0126 90.6108 79.4075 90.3522 79.7257 90.0284C80.0495 89.6988 80.2939 89.338 80.4586 88.946L81.899 89.4147C81.7001 89.9659 81.3734 90.4744 80.9189 90.9403C80.47 91.4062 79.9075 91.7812 79.2314 92.0653C78.5609 92.3437 77.7882 92.4829 76.9132 92.4829Z" fill="#242424"/>
<path d="M57.0762 92.2102V74.7557H62.7097C63.9483 74.7557 64.9824 74.9943 65.812 75.4716C66.6472 75.9432 67.275 76.5852 67.6955 77.3977C68.1216 78.2102 68.3347 79.125 68.3347 80.142C68.3347 81.1591 68.1245 82.0767 67.704 82.8949C67.2836 83.7074 66.6586 84.3523 65.829 84.8295C64.9995 85.3011 63.9682 85.5369 62.7353 85.5369H58.3034V84.1051H62.6926C63.6074 84.1051 64.3659 83.9347 64.9682 83.5937C65.5705 83.2472 66.0194 82.7756 66.3148 82.179C66.6159 81.5824 66.7665 80.9034 66.7665 80.142C66.7665 79.3807 66.6159 78.7017 66.3148 78.1051C66.0194 77.5085 65.5676 77.0398 64.9597 76.6989C64.3574 76.3579 63.5932 76.1875 62.6671 76.1875H58.6699V92.2102H57.0762Z" fill="#242424"/>
<path d="M53.2217 83.4829C53.2217 85.3011 52.8978 86.8835 52.2501 88.2301C51.6024 89.571 50.7103 90.6108 49.574 91.3494C48.4433 92.0824 47.1421 92.4488 45.6705 92.4488C44.199 92.4488 42.895 92.0824 41.7586 91.3494C40.6279 90.6108 39.7387 89.571 39.091 88.2301C38.449 86.8835 38.1279 85.3011 38.1279 83.4829C38.1279 81.6648 38.449 80.0852 39.091 78.7443C39.7387 77.3977 40.6308 76.3579 41.7671 75.625C42.9035 74.8863 44.2046 74.517 45.6705 74.517C47.1421 74.517 48.4433 74.8863 49.574 75.625C50.7103 76.3579 51.6024 77.3977 52.2501 78.7443C52.8978 80.0852 53.2217 81.6648 53.2217 83.4829ZM51.6705 83.4829C51.6705 81.9204 51.4092 80.5824 50.8865 79.4687C50.3637 78.3494 49.6507 77.4943 48.7472 76.9034C47.8438 76.3125 46.8183 76.017 45.6705 76.017C44.5285 76.017 43.5058 76.3125 42.6024 76.9034C41.699 77.4943 40.983 78.3466 40.4546 79.4602C39.9319 80.5738 39.6705 81.9148 39.6705 83.4829C39.6705 85.0454 39.9319 86.3835 40.4546 87.4971C40.9774 88.6108 41.6904 89.4659 42.5938 90.0625C43.4972 90.6534 44.5228 90.9488 45.6705 90.9488C46.8183 90.9488 47.8438 90.6534 48.7472 90.0625C49.6563 89.4716 50.3722 88.6193 50.895 87.5057C51.4177 86.3863 51.6762 85.0454 51.6705 83.4829Z" fill="#242424"/>
<defs>
<clipPath id="clip0_12169_24658">
<rect width="60" height="60" fill="white" transform="translate(51 6.51703)"/>
</clipPath>
</defs>
</svg>
