<svg width="175" height="100" viewBox="0 0 175 100" fill="none" xmlns="http://www.w3.org/2000/svg">
<rect width="175" height="100" fill="white"/>
<mask id="mask0_12169_24434" style="mask-type:luminance" maskUnits="userSpaceOnUse" x="47" y="1" width="80" height="60">
<path d="M127 1H47V61H127V1Z" fill="white"/>
</mask>
<g mask="url(#mask0_12169_24434)">
<path d="M73.3921 34.8901C70.4032 35.7383 68.4421 37.2256 67.1503 38.7116C68.3877 37.6291 70.0451 36.6351 72.2805 36.0014C74.5672 35.3533 76.518 35.358 78.13 35.6692V34.4087C76.7547 34.283 75.1783 34.3831 73.3921 34.8901ZM67.0136 24.2942L55.9132 27.2186C55.9132 27.2186 56.1152 27.5045 56.49 27.8858L65.902 25.4055C65.902 25.4055 65.7685 27.1242 64.6103 28.6615C66.8013 27.0041 67.0136 24.2942 67.0136 24.2942ZM76.3059 50.3828C60.684 54.5903 52.4192 36.4862 49.917 27.0898C48.7609 22.7522 48.2561 19.4674 48.1216 17.3474C48.1088 17.1557 48.1114 16.9632 48.1294 16.7719C47.3193 16.8204 46.9312 17.2417 47.01 18.4593C47.1445 20.5777 47.6493 23.8625 48.8053 28.2014C51.3066 37.5965 59.5724 55.7007 75.1943 51.4932C78.5945 50.5771 81.1489 48.9087 83.0669 46.7787C81.2991 48.3751 79.0871 49.6322 76.3059 50.3828ZM79.241 13.2141V14.326H85.3683C85.2429 13.9322 85.1162 13.5775 84.9905 13.2141H79.241Z" fill="#2D4552"/>
<path d="M86.7385 22.3705C89.494 23.1534 90.9516 25.0854 91.7219 26.7951L94.7947 27.6677C94.7947 27.6677 94.3755 21.6837 88.9629 20.1464C83.8994 18.7076 80.7835 22.9598 80.4044 23.51C81.8776 22.4606 84.0283 21.6014 86.7385 22.3705ZM111.197 26.8226C106.128 25.3776 103.014 29.6385 102.64 30.1809C104.114 29.1328 106.264 28.2732 108.973 29.0458C111.725 29.8296 113.181 31.7595 113.953 33.4703L117.03 34.3461C117.03 34.3461 116.605 28.3611 111.197 26.8226ZM108.144 42.6L82.5845 35.4546C82.5845 35.4546 82.8613 36.8574 83.9229 38.674L105.443 44.6899C107.214 43.665 108.144 42.6 108.144 42.6ZM90.4236 57.9804C70.1854 52.5544 72.6319 26.7685 75.9067 14.5496C77.2551 9.51385 78.6413 5.77117 79.7911 3.26208C79.1052 3.12101 78.5369 3.48227 77.9757 4.6239C76.7547 7.09922 75.1939 11.13 73.6838 16.7725C70.41 28.9914 67.9631 54.7767 88.2004 60.2027C97.7391 62.7581 105.17 58.8744 110.71 52.7746C105.452 57.5369 98.7385 60.2071 90.4236 57.9804Z" fill="#2D4552"/>
<path d="M79.2417 44.34V39.1363L64.7842 43.2362C64.7842 43.2362 65.8523 37.0289 73.3924 34.8901C75.6791 34.242 77.6302 34.2464 79.2417 34.5576V13.2141H86.4809C85.6927 10.7785 84.9301 8.90337 84.2896 7.60035C83.2302 5.44375 82.1442 6.87346 79.6789 8.93559C77.9424 10.3862 73.5538 13.4812 66.9495 15.2606C60.3456 17.0415 55.0062 16.5692 52.7786 16.1832C49.6205 15.6384 47.9687 14.9447 48.1232 17.3471C48.2577 19.4658 48.7622 22.7509 49.9186 27.0894C52.4195 36.4849 60.6856 54.5888 76.3075 50.3813C80.388 49.2819 83.268 47.1084 85.2645 44.3384H79.2417V44.3397V44.34ZM55.9123 27.2186L67.014 24.2942C67.014 24.2942 66.6906 28.5648 62.5288 29.662C58.3657 30.758 55.9123 27.2186 55.9123 27.2186Z" fill="#E2574C"/>
<path d="M121.024 13.4612C118.138 13.9669 111.215 14.5972 102.659 12.3039C94.1002 10.0119 88.422 6.00334 86.1722 4.11917C82.9829 1.44806 81.58 -0.408579 80.1995 2.39953C78.979 4.87609 77.4179 8.90684 75.9072 14.5496C72.6337 26.7686 70.1869 52.5535 90.4241 57.9796C110.657 63.4009 121.428 39.8454 124.702 27.6256C126.213 21.984 126.875 17.7121 127.057 14.9575C127.265 11.8372 125.122 12.743 121.024 13.4612ZM80.364 23.5704C80.364 23.5704 83.553 18.6101 88.9622 20.1477C94.3748 21.685 94.7939 27.6687 94.7939 27.6687L80.364 23.5704ZM93.5678 45.8285C84.0535 43.0417 82.5862 35.4547 82.5862 35.4547L108.144 42.6004C108.144 42.5991 102.986 48.5807 93.5678 45.8282V45.8285ZM102.604 30.2366C102.604 30.2366 105.789 25.2801 111.197 26.8217C116.605 28.3615 117.031 34.3453 117.031 34.3453L102.604 30.2366H102.604Z" fill="#2EAD33"/>
<path d="M74.1893 40.5695L64.7841 43.2349C64.7841 43.2349 65.8057 37.4145 72.7343 35.1081L67.409 15.121L66.9489 15.2608C60.3446 17.0418 55.0055 16.5695 52.7779 16.1835C49.6198 15.639 47.9677 14.9449 48.1222 17.3477C48.2567 19.4664 48.7616 22.7512 49.9176 27.0897C52.4188 36.4852 60.6849 54.589 76.3065 50.3816L76.7666 50.2371L74.1896 40.5692L74.1893 40.5695ZM55.9122 27.2186L67.0139 24.2938C67.0139 24.2938 66.6905 28.5645 62.5287 29.6617C58.3657 30.7577 55.9122 27.2186 55.9122 27.2186Z" fill="#D65348"/>
<path d="M93.997 45.933L93.5666 45.8282C84.0522 43.0414 82.585 35.4547 82.585 35.4547L95.7645 39.1385L102.742 12.3261L102.657 12.3042C94.0992 10.0119 88.4211 6.00331 86.171 4.11883C82.9819 1.44772 81.5788 -0.408612 80.1982 2.3995C78.979 4.87606 77.4179 8.90681 75.9072 14.5496C72.6337 26.7685 70.1869 52.5535 90.4241 57.9793L90.8389 58.0731L93.997 45.933ZM80.364 23.5701C80.364 23.5701 83.553 18.6098 88.9622 20.1474C94.3748 21.6847 94.7939 27.6684 94.7939 27.6684L80.364 23.5701Z" fill="#1D8D22"/>
<path d="M74.6679 40.4325L72.1457 41.1484C72.7418 44.5076 73.7921 47.7314 75.4405 50.5793C75.7276 50.5161 76.0122 50.4616 76.3043 50.3816C77.0703 50.1751 77.7806 49.919 78.4644 49.64C76.6221 46.9063 75.4035 43.7585 74.6679 40.4325ZM73.6833 16.7728C72.3871 21.6105 71.2274 28.5739 71.5467 35.5582C72.1178 35.3101 72.7215 35.079 73.3921 34.8888L73.8587 34.7844C73.2895 27.324 74.52 19.722 75.9062 14.5496C76.2348 13.3228 76.5865 12.1024 76.9612 10.8889C76.3508 11.2792 75.7276 11.6492 75.0926 11.9983C74.5816 13.5773 74.1117 15.1694 73.6833 16.7728Z" fill="#C04B41"/>
</g>
<path d="M29.3182 92V74.5455H34.9517C36.1903 74.5455 37.2244 74.7841 38.054 75.2614C38.8892 75.733 39.517 76.375 39.9375 77.1875C40.3636 78 40.5767 78.9148 40.5767 79.9318C40.5767 80.9489 40.3665 81.8665 39.946 82.6847C39.5256 83.4972 38.9006 84.142 38.071 84.6193C37.2415 85.0909 36.2102 85.3267 34.9773 85.3267H30.5455V83.8949H34.9347C35.8494 83.8949 36.608 83.7244 37.2102 83.3835C37.8125 83.0369 38.2614 82.5653 38.5568 81.9688C38.858 81.3722 39.0085 80.6932 39.0085 79.9318C39.0085 79.1705 38.858 78.4915 38.5568 77.8949C38.2614 77.2983 37.8097 76.8295 37.2017 76.4886C36.5994 76.1477 35.8352 75.9773 34.9091 75.9773H30.9119V92H29.3182ZM45.5199 74.5455V92H44.0028V74.5455H45.5199ZM53.1903 92.2983C52.4006 92.2983 51.679 92.1449 51.0256 91.8381C50.3722 91.5256 49.8523 91.0767 49.4659 90.4915C49.0795 89.9006 48.8864 89.1847 48.8864 88.3438C48.8864 87.696 49.0085 87.1506 49.2528 86.7074C49.4972 86.2642 49.8438 85.9006 50.2926 85.6165C50.7415 85.3324 51.2727 85.108 51.8864 84.9432C52.5 84.7784 53.1761 84.6506 53.9148 84.5597C54.6477 84.4687 55.267 84.3892 55.7727 84.321C56.2841 84.2528 56.6733 84.1449 56.9403 83.9972C57.2074 83.8494 57.3409 83.6108 57.3409 83.2812V82.9744C57.3409 82.0824 57.0739 81.3807 56.5398 80.8693C56.0114 80.3523 55.25 80.0938 54.2557 80.0938C53.3125 80.0938 52.5426 80.3011 51.946 80.7159C51.3551 81.1307 50.9403 81.6193 50.7017 82.1818L49.2614 81.6619C49.5568 80.946 49.9659 80.375 50.4886 79.9489C51.0114 79.517 51.5966 79.2074 52.2443 79.0199C52.892 78.8267 53.5483 78.7301 54.2131 78.7301C54.7131 78.7301 55.233 78.7955 55.7727 78.9261C56.3182 79.0568 56.8239 79.2841 57.2898 79.608C57.7557 79.9261 58.1335 80.3722 58.4233 80.946C58.7131 81.5142 58.858 82.2358 58.858 83.1108V92H57.3409V89.929H57.2472C57.0653 90.3153 56.7955 90.6903 56.4375 91.054C56.0795 91.4176 55.6307 91.7159 55.0909 91.9489C54.5511 92.1818 53.9176 92.2983 53.1903 92.2983ZM53.3949 90.9091C54.2017 90.9091 54.9006 90.7301 55.4915 90.3722C56.0824 90.0142 56.5369 89.5398 56.8551 88.9489C57.179 88.3523 57.3409 87.696 57.3409 86.9801V85.0881C57.2273 85.196 57.0369 85.2926 56.7699 85.3778C56.5085 85.4631 56.2045 85.5398 55.858 85.608C55.517 85.6705 55.1761 85.7244 54.8352 85.7699C54.4943 85.8153 54.1875 85.8551 53.9148 85.8892C53.1761 85.9801 52.5455 86.1222 52.0227 86.3153C51.5 86.5085 51.0994 86.7756 50.821 87.1165C50.5426 87.4517 50.4034 87.8835 50.4034 88.4119C50.4034 89.2074 50.6875 89.8239 51.2557 90.2614C51.8239 90.6932 52.5369 90.9091 53.3949 90.9091ZM63.4815 96.9091C63.1804 96.9091 62.8991 96.8807 62.6378 96.8239C62.3764 96.767 62.169 96.7045 62.0156 96.6364L62.4247 95.2983C62.9418 95.4574 63.402 95.5142 63.8054 95.4688C64.2088 95.429 64.5668 95.2472 64.8793 94.9233C65.1918 94.6051 65.4702 94.1165 65.7145 93.4574L66.1918 92.1278L61.3764 78.9091H63.0213L66.9077 89.9972H67.027L70.9134 78.9091H72.5582L67.0185 94.071C66.7855 94.7017 66.4986 95.2273 66.1577 95.6477C65.8168 96.0739 65.4219 96.3892 64.973 96.5938C64.5298 96.804 64.0327 96.9091 63.4815 96.9091ZM78.4325 92L74.478 78.9091H76.0803L79.1825 89.7074H79.2933L82.3871 78.9091H83.9979L87.0661 89.6818H87.1854L90.2876 78.9091H91.8899L87.9354 92H86.3672L83.2649 81.2699H83.103L80.0007 92H78.4325ZM94.8388 92V78.9091H96.3132V80.9205H96.424C96.6854 80.2614 97.1399 79.7301 97.7876 79.3267C98.4411 78.9176 99.1797 78.7131 100.004 78.7131C100.129 78.7131 100.268 78.7159 100.421 78.7216C100.575 78.7273 100.702 78.733 100.805 78.7386V80.2812C100.737 80.2699 100.617 80.2528 100.447 80.2301C100.276 80.2074 100.092 80.196 99.8928 80.196C99.2109 80.196 98.603 80.3409 98.0689 80.6307C97.5405 80.9148 97.1229 81.3097 96.8161 81.8153C96.5092 82.321 96.3558 82.8977 96.3558 83.5455V92H94.8388ZM103.411 92V78.9091H104.936V92H103.411ZM104.186 76.6591C103.874 76.6591 103.607 76.554 103.385 76.3438C103.163 76.1278 103.053 75.8693 103.053 75.5682C103.053 75.267 103.163 75.0114 103.385 74.8011C103.607 74.5852 103.874 74.4773 104.186 74.4773C104.499 74.4773 104.766 74.5852 104.987 74.8011C105.209 75.0114 105.32 75.267 105.32 75.5682C105.32 75.8693 105.209 76.1278 104.987 76.3438C104.766 76.554 104.499 76.6591 104.186 76.6591ZM113.942 97.1818C113.05 97.1818 112.269 97.0653 111.599 96.8324C110.928 96.6051 110.363 96.2926 109.903 95.8949C109.442 95.4972 109.085 95.0511 108.829 94.5568L110.073 93.7386C110.261 94.0682 110.511 94.392 110.823 94.7102C111.141 95.0284 111.553 95.2926 112.059 95.5028C112.57 95.7131 113.198 95.8182 113.942 95.8182C115.102 95.8182 116.036 95.5284 116.746 94.9489C117.462 94.3693 117.82 93.4687 117.82 92.2472V89.2983H117.684C117.508 89.696 117.255 90.0937 116.925 90.4915C116.596 90.8835 116.164 91.2102 115.63 91.4716C115.102 91.733 114.445 91.8636 113.661 91.8636C112.616 91.8636 111.687 91.6051 110.874 91.0881C110.067 90.571 109.431 89.8324 108.965 88.8722C108.505 87.9062 108.275 86.7557 108.275 85.4205C108.275 84.0966 108.499 82.9318 108.948 81.9261C109.403 80.9205 110.036 80.1364 110.849 79.5739C111.661 79.0114 112.607 78.7301 113.687 78.7301C114.488 78.7301 115.153 78.8722 115.681 79.1562C116.21 79.4347 116.633 79.7812 116.951 80.196C117.275 80.6108 117.528 81.0142 117.71 81.4062H117.863V78.9091H119.346V92.3409C119.346 93.4489 119.11 94.3608 118.638 95.0767C118.167 95.7926 117.525 96.321 116.712 96.6619C115.9 97.0085 114.977 97.1818 113.942 97.1818ZM113.84 90.4744C114.681 90.4744 115.4 90.2727 115.996 89.8693C116.593 89.4602 117.05 88.875 117.369 88.1136C117.687 87.3523 117.846 86.446 117.846 85.3949C117.846 84.3722 117.69 83.4659 117.377 82.6761C117.065 81.8807 116.61 81.2557 116.013 80.8011C115.423 80.3409 114.698 80.1108 113.84 80.1108C112.965 80.1108 112.227 80.3466 111.624 80.8182C111.022 81.2898 110.567 81.9261 110.261 82.7273C109.954 83.5227 109.8 84.4119 109.8 85.3949C109.8 86.3949 109.957 87.2784 110.269 88.0455C110.582 88.8068 111.039 89.4034 111.641 89.8352C112.244 90.2614 112.977 90.4744 113.84 90.4744ZM124.879 83.8182V92H123.362V74.5455H124.879V80.9631H125.016C125.322 80.2869 125.797 79.7472 126.439 79.3438C127.087 78.9403 127.905 78.7386 128.893 78.7386C129.78 78.7386 130.558 78.9205 131.229 79.2841C131.899 79.6477 132.422 80.1847 132.797 80.8949C133.172 81.6051 133.359 82.4801 133.359 83.5199V92H131.834V83.6136C131.834 82.5341 131.533 81.6847 130.93 81.0653C130.334 80.4403 129.527 80.1278 128.51 80.1278C127.811 80.1278 127.189 80.2756 126.643 80.571C126.098 80.8665 125.666 81.2926 125.348 81.8494C125.036 82.4006 124.879 83.0568 124.879 83.8182ZM142.511 78.9091V80.2301H136.263V78.9091H142.511ZM138.215 75.7727H139.741V88.5824C139.741 89.1278 139.835 89.5568 140.022 89.8693C140.21 90.1761 140.454 90.3949 140.755 90.5256C141.056 90.6506 141.377 90.7131 141.718 90.7131C141.917 90.7131 142.087 90.7017 142.229 90.679C142.371 90.6506 142.496 90.6222 142.604 90.5938L142.928 91.9659C142.781 92.0227 142.599 92.0739 142.383 92.1193C142.167 92.1705 141.9 92.196 141.582 92.196C141.025 92.196 140.488 92.0739 139.971 91.8295C139.46 91.5852 139.039 91.2216 138.71 90.7386C138.38 90.2557 138.215 89.6562 138.215 88.9403V75.7727Z" fill="#242424"/>
</svg>
