<svg width="175" height="100" viewBox="0 0 175 100" fill="none" xmlns="http://www.w3.org/2000/svg">
<path d="M115.944 40.4995C115.595 39.4401 114.678 38.7023 113.493 38.5252C112.935 38.4418 112.295 38.4773 111.537 38.6334C110.218 38.9058 109.238 39.0094 108.524 39.0295C111.221 34.4753 113.414 29.282 114.677 24.3933C116.719 16.4885 115.628 12.8873 114.353 11.2584C110.979 6.94697 106.056 4.63081 100.117 4.55994C96.9487 4.5212 94.1674 5.14673 92.7165 5.59656C91.3657 5.3582 89.9132 5.22512 88.3891 5.20051C85.5322 5.15493 83.008 5.77772 80.8512 7.05772C79.6571 6.65392 77.7406 6.08468 75.5275 5.72144C70.3223 4.8669 66.127 5.53276 63.0584 7.70056C59.3426 10.3253 57.6201 14.8856 57.9387 21.2548C58.0399 23.2769 59.171 29.4297 60.9521 35.2647C61.9758 38.6186 63.0673 41.4038 64.1964 43.5435C65.7977 46.5777 67.5112 48.3645 69.4347 49.0062C70.5128 49.3654 72.4716 49.6169 74.5319 47.901C74.793 48.2173 75.1414 48.5316 75.6038 48.8235C76.191 49.1938 76.9091 49.4964 77.6262 49.6757C80.2106 50.3218 82.6313 50.1602 84.6966 49.2546C84.7094 49.622 84.7192 49.9729 84.7274 50.276C84.741 50.7675 84.7547 51.2495 84.7727 51.7002C84.8951 54.7478 85.1024 57.1175 85.7168 58.7756C85.7505 58.8667 85.7959 59.0057 85.8437 59.1532C86.1502 60.0916 86.6627 61.6626 87.9666 62.8929C89.3168 64.1674 90.95 64.5582 92.4458 64.5582C93.196 64.5582 93.9118 64.4598 94.5396 64.3253C96.7773 63.8457 99.3189 63.1151 101.157 60.4972C102.896 58.0225 103.741 54.2951 103.894 48.4219C103.913 48.2558 103.932 48.0972 103.949 47.9461L103.986 47.6358L104.395 47.6718L104.501 47.6788C106.78 47.7827 109.567 47.2994 111.278 46.5043C112.631 45.8768 116.965 43.5886 115.944 40.4995Z" fill="black"/>
<path d="M112.047 41.1002C105.27 42.4982 104.804 40.2037 104.804 40.2037C111.96 29.5862 114.951 16.1088 112.37 12.8103C105.327 3.81248 93.1371 8.06788 92.9336 8.17817L92.8682 8.19002C91.5292 7.91201 90.0309 7.74657 88.3467 7.719C85.2803 7.66887 82.9542 8.52295 81.189 9.86151C81.189 9.86151 59.4426 0.902706 60.4541 21.1287C60.6693 25.4315 66.6214 53.6864 73.7208 45.1521C76.3156 42.0313 78.823 39.3927 78.823 39.3927C80.0681 40.2199 81.5589 40.6419 83.1217 40.4904L83.2431 40.3874C83.2053 40.7748 83.2226 41.1537 83.2916 41.6024C81.4627 43.6458 82.0003 44.0045 78.3442 44.7572C74.6446 45.5197 76.8179 46.8769 78.2369 47.2319C79.9571 47.6619 83.9368 48.2713 86.6257 44.507L86.5186 44.9365C87.2351 45.5106 87.7382 48.6699 87.6539 51.5341C87.5696 54.398 87.5133 56.3644 88.0778 57.9003C88.6427 59.4362 89.2053 62.892 94.0117 61.8622C98.0276 61.0015 100.109 58.7712 100.398 55.0509C100.604 52.4061 101.069 52.7972 101.098 50.4325L101.471 49.3132C101.901 45.7279 101.539 44.5712 104.014 45.1093L104.615 45.1621C106.436 45.2448 108.819 44.8691 110.218 44.2189C113.231 42.8211 115.017 40.487 112.047 41.1002H112.047Z" fill="#336791"/>
<path d="M82.4613 23.0529C81.8506 22.9679 81.2975 23.0465 81.0177 23.2584C80.8605 23.3776 80.8117 23.5157 80.7985 23.6107C80.7634 23.8626 80.9398 24.141 81.0482 24.2846C81.355 24.6911 81.803 24.9705 82.2464 25.032C82.3107 25.0411 82.3747 25.0452 82.4383 25.0452C83.1778 25.0452 83.8502 24.4694 83.9095 24.0444C83.9835 23.5121 83.2108 23.157 82.4613 23.0529ZM102.693 23.0698C102.635 22.6525 101.892 22.5336 101.188 22.6316C100.484 22.7295 99.8019 23.0472 99.8589 23.4654C99.9045 23.7905 100.492 24.3457 101.187 24.3457C101.246 24.3457 101.305 24.3418 101.365 24.3333C101.828 24.2691 102.169 23.9744 102.331 23.8047C102.577 23.5458 102.719 23.2573 102.693 23.0698Z" fill="white"/>
<path d="M114.302 40.9413C114.043 40.1599 113.211 39.9086 111.829 40.1939C107.727 41.0407 106.257 40.4541 105.775 40.0989C108.964 35.2405 111.587 29.3676 113.003 23.8883C113.673 21.2928 114.044 18.8823 114.074 16.9175C114.107 14.7611 113.74 13.1764 112.983 12.2084C109.929 8.30598 105.446 6.2127 100.02 6.15527C96.2902 6.11334 93.1387 7.06792 92.5277 7.33636C91.2411 7.01642 89.8386 6.81999 88.3115 6.79492C85.5114 6.74958 83.0909 7.41999 81.0869 8.78658C80.2164 8.46254 77.9668 7.69026 75.2156 7.24703C70.4593 6.48136 66.6797 7.06154 63.9826 8.9723C60.7643 11.2524 59.2785 15.3283 59.5663 21.0863C59.6631 23.0235 60.767 28.983 62.5089 34.6902C64.8018 42.202 67.2943 46.4544 69.9168 47.3292C70.2237 47.4315 70.5776 47.5031 70.968 47.5031C71.9246 47.5031 73.0975 47.0719 74.3178 45.6049C75.8062 43.8193 77.3458 42.0772 78.9348 40.3805C79.9657 40.9338 81.0983 41.2428 82.2566 41.2738C82.2589 41.3041 82.2618 41.3344 82.2646 41.3645C82.0652 41.6023 81.8699 41.8435 81.6789 42.088C80.8763 43.1069 80.7093 43.319 78.1258 43.8509C77.3909 44.0027 75.4392 44.4049 75.4104 45.773C75.3795 47.2679 77.7177 47.8957 77.9841 47.9623C78.9125 48.1947 79.8069 48.3093 80.6598 48.3093C82.7342 48.3093 84.5598 47.6275 86.0186 46.3083C85.9737 51.6375 86.1959 56.8887 86.8358 58.4886C87.3599 59.7985 88.6401 62.9995 92.6841 62.9993C93.2775 62.9993 93.9306 62.9302 94.6491 62.7762C98.8696 61.8715 100.702 60.0061 101.411 55.8936C101.791 53.6957 102.442 48.4474 102.748 45.6322C103.394 45.8339 104.226 45.9262 105.126 45.9259C107.002 45.9259 109.166 45.5274 110.524 44.8973C112.049 44.1891 114.801 42.4513 114.302 40.9413ZM104.251 21.9181C104.237 22.7491 104.122 23.5036 104.001 24.2912C103.871 25.1382 103.736 26.0139 103.702 27.077C103.668 28.1116 103.797 29.1871 103.922 30.2274C104.175 32.3284 104.434 34.4915 103.431 36.6258C103.264 36.3306 103.116 36.0255 102.987 35.7122C102.862 35.41 102.591 34.9247 102.216 34.2529C100.758 31.6377 97.3435 25.5138 99.0916 23.0148C99.6123 22.271 100.934 21.5063 104.251 21.9181ZM100.23 7.83815C105.092 7.94548 108.937 9.76418 111.66 13.2434C113.748 15.9121 111.449 28.055 104.792 38.5308C104.725 38.4457 104.657 38.3609 104.59 38.2763L104.505 38.171C106.226 35.3301 105.889 32.5192 105.59 30.0271C105.467 29.0044 105.351 28.0384 105.38 27.131C105.411 26.1694 105.538 25.3444 105.661 24.5469C105.812 23.564 105.966 22.547 105.924 21.3481C105.955 21.2223 105.968 21.0738 105.951 20.8974C105.843 19.7477 104.531 16.307 101.855 13.1928C100.392 11.4894 98.2577 9.58324 95.3439 8.29755C96.5972 8.03777 98.3111 7.79554 100.23 7.83815ZM73.0264 44.5311C71.6819 46.1477 70.7535 45.8378 70.4482 45.7361C68.4588 45.0725 66.1504 40.8677 64.1152 34.2C62.3542 28.4306 61.3251 22.629 61.2435 21.0022C60.9864 15.8572 62.2336 12.2715 64.9506 10.3446C69.3724 7.20898 76.6421 9.08578 79.5633 10.0376C79.5214 10.0791 79.4776 10.1178 79.4361 10.16C74.6425 15.001 74.7562 23.2721 74.7681 23.7778C74.7676 23.9728 74.784 24.249 74.8063 24.6289C74.8888 26.0201 75.0424 28.6092 74.6322 31.5414C74.2512 34.2661 75.0912 36.933 76.9363 38.8583C77.1257 39.0555 77.3247 39.2432 77.5327 39.4207C76.7114 40.3003 74.9264 42.2455 73.0264 44.5311ZM78.1489 37.6964C76.6617 36.1445 75.9863 33.986 76.2955 31.7738C76.7285 28.6765 76.5688 25.9788 76.4828 24.5295C76.4708 24.3267 76.4601 24.149 76.4539 24.0088C77.1542 23.3879 80.3994 21.6492 82.7137 22.1794C83.7697 22.4212 84.4132 23.1404 84.6808 24.3773C86.0653 30.7814 84.864 33.4505 83.8987 35.5955C83.6997 36.0374 83.5117 36.4551 83.3513 36.8872L83.2269 37.2212C82.912 38.0657 82.6189 38.851 82.4373 39.5966C80.8563 39.5921 79.3183 38.9166 78.1489 37.6961V37.6964ZM78.3916 46.3329C77.9299 46.2176 77.5147 46.0173 77.2711 45.8512C77.4746 45.7555 77.8367 45.6251 78.4647 45.4957C81.5039 44.8702 81.9733 44.4286 82.9983 43.1271C83.2333 42.8286 83.4997 42.4905 83.8686 42.0784L83.8691 42.078C84.4185 41.4627 84.6698 41.5671 85.1256 41.7562C85.495 41.9089 85.8548 42.372 86.0006 42.8815C86.0697 43.1221 86.1472 43.5788 85.8935 43.9343C83.7524 46.9323 80.6323 46.8937 78.3916 46.3329ZM94.2972 61.1341C90.5792 61.9307 89.2627 60.0337 88.3952 57.8649C87.8353 56.4649 87.56 50.1513 87.7553 43.1789C87.7578 43.0861 87.7446 42.9966 87.7191 42.9123C87.6962 42.7458 87.6615 42.5811 87.6151 42.4196C87.3248 41.4051 86.6173 40.5564 85.7684 40.2046C85.4312 40.0649 84.8122 39.8086 84.0685 39.9988C84.2271 39.3453 84.5021 38.6072 84.8004 37.808L84.9255 37.4719C85.0663 37.0929 85.2432 36.7003 85.43 36.2846C86.4402 34.0405 87.8237 30.9666 86.3222 24.0225C85.7598 21.4215 83.8816 20.1513 81.0345 20.4464C79.3277 20.623 77.766 21.3117 76.9871 21.7066C76.8196 21.7914 76.6665 21.8734 76.5234 21.9532C76.7408 19.3326 77.5621 14.435 80.6343 11.3363C82.5688 9.38567 85.1449 8.4222 88.2837 8.47416C94.4684 8.57534 98.4344 11.7492 100.673 14.3942C102.601 16.6732 103.646 18.9691 104.062 20.2074C100.928 19.8886 98.7962 20.5073 97.7156 22.0523C95.3646 25.413 99.0018 31.9358 100.75 35.0707C101.07 35.6452 101.347 36.1418 101.434 36.3528C102.003 37.7324 102.74 38.6534 103.278 39.3257C103.443 39.5317 103.603 39.7315 103.725 39.9061C102.776 40.1798 101.07 40.8121 101.226 43.973C101.101 45.5591 100.209 52.9847 99.7565 55.6083C99.1588 59.0743 97.8833 60.3652 94.2972 61.1343V61.1341ZM109.817 43.3742C108.846 43.8247 107.221 44.1626 105.678 44.2353C103.974 44.3151 103.106 44.0443 102.902 43.8778C102.806 41.908 103.539 41.7022 104.315 41.4844C104.437 41.4502 104.556 41.4167 104.671 41.3766C104.742 41.4347 104.82 41.4923 104.906 41.5489C106.276 42.4531 108.719 42.5506 112.169 41.8385L112.207 41.831C111.742 42.266 110.946 42.8498 109.817 43.3742Z" fill="white"/>
<path d="M141.833 90.26V72.8054H143.427V88.8281H151.745V90.26H141.833Z" fill="#242424"/>
<path d="M130.206 84.8054H131.979L134.211 87.7628L134.586 88.2571L137.331 91.8963H135.558L133.547 89.2117L133.189 88.7344L130.206 84.8054ZM137.979 81.5327C137.979 83.3509 137.655 84.9332 137.007 86.2798C136.359 87.6207 135.467 88.6605 134.331 89.3992C133.2 90.1321 131.899 90.4986 130.427 90.4986C128.956 90.4986 127.652 90.1321 126.515 89.3992C125.385 88.6605 124.496 87.6207 123.848 86.2798C123.206 84.9332 122.885 83.3509 122.885 81.5327C122.885 79.7145 123.206 78.135 123.848 76.794C124.496 75.4475 125.388 74.4077 126.524 73.6747C127.66 72.9361 128.961 72.5668 130.427 72.5668C131.899 72.5668 133.2 72.9361 134.331 73.6747C135.467 74.4077 136.359 75.4475 137.007 76.794C137.655 78.135 137.979 79.7145 137.979 81.5327ZM136.427 81.5327C136.427 79.9702 136.166 78.6321 135.643 77.5185C135.121 76.3992 134.407 75.544 133.504 74.9531C132.601 74.3622 131.575 74.0668 130.427 74.0668C129.285 74.0668 128.263 74.3622 127.359 74.9531C126.456 75.544 125.74 76.3963 125.211 77.51C124.689 78.6236 124.427 79.9645 124.427 81.5327C124.427 83.0952 124.689 84.4333 125.211 85.5469C125.734 86.6605 126.447 87.5156 127.351 88.1122C128.254 88.7031 129.28 88.9986 130.427 88.9986C131.575 88.9986 132.601 88.7031 133.504 88.1122C134.413 87.5213 135.129 86.669 135.652 85.5554C136.175 84.4361 136.433 83.0952 136.427 81.5327Z" fill="#242424"/>
<path d="M118.052 77.169C117.956 76.1974 117.527 75.4247 116.765 74.8508C116.004 74.277 115.046 73.99 113.893 73.99C113.081 73.99 112.365 74.1293 111.745 74.4077C111.132 74.6861 110.649 75.0724 110.296 75.5668C109.95 76.0554 109.777 76.6122 109.777 77.2372C109.777 77.6974 109.876 78.1008 110.075 78.4474C110.274 78.794 110.541 79.0923 110.876 79.3423C111.217 79.5866 111.592 79.7969 112.001 79.973C112.416 80.1491 112.833 80.2969 113.254 80.4162L115.095 80.9446C115.652 81.098 116.208 81.294 116.765 81.5327C117.322 81.7713 117.831 82.0724 118.291 82.4361C118.757 82.794 119.129 83.2344 119.407 83.7571C119.691 84.2741 119.833 84.8963 119.833 85.6236C119.833 86.5554 119.592 87.3935 119.109 88.1378C118.626 88.8821 117.933 89.473 117.029 89.9105C116.126 90.3423 115.044 90.5582 113.782 90.5582C112.595 90.5582 111.563 90.3622 110.688 89.9702C109.813 89.5724 109.126 89.0241 108.626 88.3253C108.126 87.6264 107.845 86.8168 107.782 85.8963H109.419C109.475 86.5838 109.703 87.1662 110.1 87.6435C110.498 88.1207 111.015 88.4844 111.652 88.7344C112.288 88.9787 112.998 89.1008 113.782 89.1008C114.652 89.1008 115.424 88.956 116.1 88.6662C116.782 88.3707 117.316 87.9616 117.703 87.4389C118.095 86.9105 118.291 86.2969 118.291 85.598C118.291 85.0071 118.137 84.5128 117.831 84.115C117.524 83.7116 117.095 83.3736 116.544 83.1008C115.998 82.8281 115.365 82.5866 114.643 82.3764L112.555 81.7628C111.186 81.3537 110.123 80.7883 109.367 80.0668C108.612 79.3452 108.234 78.4247 108.234 77.3054C108.234 76.3679 108.484 75.544 108.984 74.8338C109.49 74.1179 110.171 73.5611 111.029 73.1633C111.893 72.7599 112.862 72.5582 113.936 72.5582C115.021 72.5582 115.981 72.7571 116.816 73.1548C117.652 73.5525 118.313 74.1008 118.802 74.7997C119.296 75.4929 119.561 76.2827 119.595 77.169H118.052Z" fill="#242424"/>
<path d="M99.6075 90.5327C98.3859 90.5327 97.3291 90.2486 96.4371 89.6804C95.545 89.1065 94.8547 88.3139 94.366 87.3026C93.8831 86.2855 93.6416 85.1151 93.6416 83.7912C93.6416 82.473 93.8831 81.3026 94.366 80.2798C94.8547 79.2514 95.528 78.4474 96.3859 77.8679C97.2496 77.2827 98.2467 76.9901 99.3774 76.9901C100.088 76.9901 100.772 77.1207 101.431 77.3821C102.09 77.6378 102.681 78.0327 103.204 78.5668C103.733 79.0952 104.15 79.7628 104.457 80.5696C104.764 81.3707 104.917 82.3196 104.917 83.4162V84.1662H94.6899V82.8281H103.366C103.366 81.9872 103.196 81.2315 102.855 80.5611C102.519 79.8849 102.051 79.3508 101.448 78.9588C100.852 78.5668 100.161 78.3707 99.3774 78.3707C98.5479 78.3707 97.8177 78.5923 97.1871 79.0355C96.5564 79.4787 96.0621 80.0639 95.7041 80.7912C95.3518 81.5185 95.1728 82.3139 95.1672 83.1776V83.9787C95.1672 85.0185 95.3461 85.9276 95.7041 86.706C96.0677 87.4787 96.5819 88.0781 97.2467 88.5043C97.9115 88.9304 98.6984 89.1435 99.6075 89.1435C100.227 89.1435 100.769 89.0469 101.235 88.8537C101.707 88.6605 102.102 88.402 102.42 88.0781C102.744 87.7486 102.988 87.3878 103.153 86.9957L104.593 87.4645C104.394 88.0156 104.068 88.5241 103.613 88.9901C103.164 89.456 102.602 89.831 101.926 90.1151C101.255 90.3935 100.483 90.5327 99.6075 90.5327Z" fill="#242424"/>
<path d="M86.1582 90.26V77.169H87.6326V79.1804H87.7434C88.0048 78.5213 88.4593 77.9901 89.1071 77.5867C89.7605 77.1776 90.4991 76.973 91.323 76.973C91.448 76.973 91.5872 76.9759 91.7406 76.9815C91.894 76.9872 92.0218 76.9929 92.1241 76.9986V78.5412C92.0559 78.5298 91.9366 78.5128 91.7662 78.4901C91.5957 78.4673 91.411 78.456 91.2122 78.456C90.5304 78.456 89.9224 78.6009 89.3883 78.8906C88.8599 79.1747 88.4423 79.5696 88.1355 80.0753C87.8287 80.581 87.6753 81.1577 87.6753 81.8054V90.26H86.1582Z" fill="#242424"/>
<path d="M76.7389 95.4418C75.8469 95.4418 75.0656 95.3253 74.3952 95.0923C73.7247 94.8651 73.1594 94.5526 72.6991 94.1548C72.2389 93.7571 71.8809 93.3111 71.6253 92.8168L72.8696 91.9986C73.0571 92.3281 73.3071 92.652 73.6196 92.9702C73.9378 93.2883 74.3497 93.5525 74.8554 93.7628C75.3667 93.973 75.9946 94.0781 76.7389 94.0781C77.898 94.0781 78.8327 93.7883 79.5429 93.2088C80.2588 92.6293 80.6167 91.7287 80.6167 90.5071V87.5582H80.4804C80.3042 87.956 80.0514 88.3537 79.7219 88.7514C79.3923 89.1435 78.9605 89.4702 78.4264 89.7315C77.898 89.9929 77.2417 90.1236 76.4577 90.1236C75.4122 90.1236 74.4832 89.8651 73.6707 89.348C72.8639 88.831 72.2275 88.0923 71.7616 87.1321C71.3014 86.1662 71.0713 85.0156 71.0713 83.6804C71.0713 82.3565 71.2957 81.1918 71.7446 80.1861C72.1991 79.1804 72.8327 78.3963 73.6452 77.8338C74.4577 77.2713 75.4037 76.9901 76.4832 76.9901C77.2844 76.9901 77.9491 77.1321 78.4775 77.4162C79.0059 77.6946 79.4292 78.0412 79.7474 78.456C80.0713 78.8707 80.3241 79.2741 80.506 79.6662H80.6594V77.169H82.1423V90.6008C82.1423 91.7088 81.9065 92.6207 81.4349 93.3366C80.9633 94.0526 80.3213 94.581 79.5088 94.9219C78.6963 95.2685 77.773 95.4418 76.7389 95.4418ZM76.6366 88.7344C77.4775 88.7344 78.1963 88.5327 78.7929 88.1293C79.3895 87.7202 79.8469 87.1349 80.165 86.3736C80.4832 85.6122 80.6423 84.706 80.6423 83.6548C80.6423 82.6321 80.4861 81.7258 80.1736 80.9361C79.8611 80.1406 79.4065 79.5156 78.8099 79.0611C78.219 78.6008 77.4946 78.3707 76.6366 78.3707C75.7616 78.3707 75.023 78.6065 74.4207 79.0781C73.8185 79.5497 73.3639 80.1861 73.0571 80.9872C72.7503 81.7827 72.5969 82.6719 72.5969 83.6548C72.5969 84.6548 72.7531 85.5383 73.0656 86.3054C73.3781 87.0668 73.8355 87.6633 74.4378 88.0952C75.04 88.5213 75.773 88.7344 76.6366 88.7344Z" fill="#242424"/>
<path d="M68.4395 77.169V78.49H62.1924V77.169H68.4395ZM64.1441 74.0327H65.6697V86.8423C65.6697 87.3878 65.7634 87.8167 65.9509 88.1292C66.1384 88.4361 66.3827 88.6548 66.6839 88.7855C66.985 88.9105 67.306 88.973 67.6469 88.973C67.8458 88.973 68.0162 88.9616 68.1583 88.9389C68.3003 88.9105 68.4253 88.8821 68.5333 88.8537L68.8572 90.2258C68.7094 90.2827 68.5276 90.3338 68.3117 90.3792C68.0958 90.4304 67.8287 90.4559 67.5106 90.4559C66.9537 90.4559 66.4168 90.3338 65.8998 90.0895C65.3884 89.8452 64.968 89.4815 64.6384 88.9986C64.3089 88.5156 64.1441 87.9162 64.1441 87.2003V74.0327Z" fill="#242424"/>
<path d="M59.7738 80.0412L58.3846 80.4332C58.2482 80.0412 58.055 79.6861 57.805 79.3679C57.555 79.0497 57.2283 78.7969 56.8249 78.6094C56.4272 78.4219 55.9329 78.3281 55.342 78.3281C54.4556 78.3281 53.7283 78.5383 53.1602 78.9588C52.592 79.3793 52.3079 79.9219 52.3079 80.5866C52.3079 81.1491 52.5011 81.6065 52.8874 81.9588C53.2795 82.3054 53.8817 82.581 54.6942 82.7855L56.6715 83.2713C57.7681 83.5383 58.5891 83.9616 59.1346 84.5412C59.6857 85.1207 59.9613 85.848 59.9613 86.723C59.9613 87.4616 59.7567 88.1179 59.3477 88.6918C58.9386 89.2656 58.3675 89.7173 57.6346 90.0469C56.9073 90.3707 56.0636 90.5327 55.1033 90.5327C53.8249 90.5327 52.771 90.2457 51.9414 89.6719C51.1119 89.0923 50.5806 88.2571 50.3477 87.1662L51.805 86.8082C51.9925 87.5866 52.359 88.1747 52.9045 88.5724C53.4556 88.9702 54.18 89.169 55.0778 89.169C56.0835 89.169 56.8874 88.9446 57.4897 88.4957C58.092 88.0412 58.3931 87.473 58.3931 86.7912C58.3931 86.2628 58.217 85.8196 57.8647 85.4616C57.5124 85.098 56.9783 84.831 56.2624 84.6605L54.1232 84.1491C52.9869 83.8764 52.146 83.4446 51.6005 82.8537C51.055 82.2628 50.7823 81.5298 50.7823 80.6548C50.7823 79.9332 50.9783 79.2997 51.3704 78.7543C51.7624 78.2031 52.3022 77.7713 52.9897 77.4588C53.6772 77.1463 54.4613 76.9901 55.342 76.9901C56.5408 76.9901 57.4982 77.2628 58.2141 77.8082C58.9357 78.348 59.4556 79.0923 59.7738 80.0412Z" fill="#242424"/>
<path d="M41.8873 90.5327C40.7567 90.5327 39.7567 90.2457 38.8873 89.6719C38.0237 89.098 37.3476 88.3054 36.8589 87.294C36.3703 86.277 36.126 85.1037 36.126 83.7741C36.126 82.4332 36.3703 81.2543 36.8589 80.2372C37.3476 79.2145 38.0237 78.419 38.8873 77.8508C39.7567 77.277 40.7567 76.9901 41.8873 76.9901C43.018 76.9901 44.0152 77.277 44.8788 77.8508C45.7425 78.4247 46.4186 79.2202 46.9072 80.2372C47.4015 81.2543 47.6487 82.4332 47.6487 83.7741C47.6487 85.1037 47.4044 86.277 46.9158 87.294C46.4271 88.3054 45.7481 89.098 44.8788 89.6719C44.0152 90.2457 43.018 90.5327 41.8873 90.5327ZM41.8873 89.1435C42.7964 89.1435 43.5663 88.8991 44.197 88.4105C44.8277 87.9219 45.305 87.2713 45.6288 86.4588C45.9584 85.6463 46.1231 84.7514 46.1231 83.7741C46.1231 82.7969 45.9584 81.8991 45.6288 81.081C45.305 80.2628 44.8277 79.6065 44.197 79.1122C43.5663 78.6179 42.7964 78.3707 41.8873 78.3707C40.9839 78.3707 40.214 78.6179 39.5777 79.1122C38.947 79.6065 38.4669 80.2628 38.1373 81.081C37.8135 81.8991 37.6515 82.7969 37.6515 83.7741C37.6515 84.7514 37.8135 85.6463 38.1373 86.4588C38.4669 87.2713 38.947 87.9219 39.5777 88.4105C40.2084 88.8991 40.9782 89.1435 41.8873 89.1435Z" fill="#242424"/>
<path d="M22.2549 90.26V72.8054H27.8884C29.127 72.8054 30.1611 73.0441 30.9907 73.5213C31.8259 73.9929 32.4537 74.635 32.8742 75.4475C33.3003 76.26 33.5134 77.1747 33.5134 78.1918C33.5134 79.2088 33.3032 80.1264 32.8827 80.9446C32.4623 81.7571 31.8373 82.402 31.0077 82.8793C30.1782 83.3509 29.1469 83.5867 27.914 83.5867H23.4822V82.1549H27.8714C28.7861 82.1549 29.5447 81.9844 30.1469 81.6435C30.7492 81.2969 31.1981 80.8253 31.4935 80.2287C31.7947 79.6321 31.9452 78.9531 31.9452 78.1918C31.9452 77.4304 31.7947 76.7514 31.4935 76.1549C31.1981 75.5583 30.7464 75.0895 30.1384 74.7486C29.5361 74.4077 28.7719 74.2372 27.8458 74.2372H23.8486V90.26H22.2549Z" fill="#242424"/>
</svg>
