<svg width="175" height="100" viewBox="0 0 175 100" fill="none" xmlns="http://www.w3.org/2000/svg">
<g clip-path="url(#clip0_12188_24508)">
<g clip-path="url(#clip1_12188_24508)">
<path d="M52.7173 83.0943C52.7173 79.1492 51.5919 77.1809 49.337 77.1082C48.4213 77.0397 47.5784 77.2494 46.7312 77.5318C46.0251 77.7415 45.6058 78.0239 45.3919 78.2378V87.5315C46.7996 88.4471 48.0662 88.8707 49.1958 88.798C51.5192 88.5841 52.7173 86.6842 52.7173 83.0943ZM55.4643 83.2355C55.4643 85.208 55.0407 86.8255 54.0565 88.1647C52.9997 89.6452 51.5919 90.4197 49.6921 90.4197C48.2844 90.4881 46.8766 89.9961 45.3962 89.0804V97.5311L43 96.6839V77.8827C43.4236 77.3906 43.9157 76.967 44.4805 76.6161C45.8882 75.7732 47.6511 75.3496 49.6194 75.3496C51.4507 75.3496 52.9269 76.1241 53.9153 77.6045C54.9679 79.2219 55.4643 80.9805 55.4643 83.2355ZM70.038 88.798C70.038 91.4723 69.7556 93.3036 69.2636 94.292C68.6988 95.2762 67.7146 96.1234 66.2341 96.7567C64.9676 97.2487 63.7011 97.5311 62.289 97.5311L61.8654 96.0506C63.3459 95.841 64.33 95.627 64.8949 95.4858C66.0202 95.0622 66.8674 94.5017 67.2867 93.6545C67.6376 93.0212 67.7788 91.7547 67.7788 89.9233V89.2901C66.1614 90.0645 64.3985 90.4154 62.6399 90.4154C61.4418 90.4154 60.385 90.0645 59.542 89.2901C58.5579 88.5156 58.0615 87.4587 58.0615 86.1922V76.2653L60.4534 75.4223V85.422C60.4534 86.4789 60.8043 87.3218 61.5103 87.8866C62.2163 88.4514 63.0592 88.7295 64.1846 88.7295C65.3099 88.7295 66.4395 88.3059 67.7061 87.463V75.7689H70.0979L70.038 88.798ZM79.3317 90.3469H78.5572C77.2179 90.3469 76.1653 89.9961 75.3866 89.3628C74.6121 88.7295 74.2613 87.8139 74.2613 86.6885V77.2537H72.6438V75.7689H74.2613V71.7554L76.6531 70.9124V75.7689H79.3274V77.2494H76.6531V86.5431C76.6531 87.4587 76.8628 88.092 77.3591 88.4429C77.7827 88.7253 78.416 88.9349 79.3317 89.0077V90.3469ZM93.837 90.133H91.4451V80.9078C91.4451 79.9921 91.2354 79.1492 90.8118 78.5159C90.3198 77.7415 89.6138 77.3906 88.6981 77.3906C87.5727 77.3906 86.2335 77.9554 84.6161 79.1492V90.2057H82.2242V68.1654L84.6161 67.3909V77.3906C86.165 76.2653 87.7867 75.7005 89.6138 75.7005C90.8803 75.7005 91.8687 76.1241 92.7116 76.967C93.4861 77.8099 93.9097 78.8668 93.9097 80.1376L93.837 90.133ZM106.511 82.6707C106.511 81.1902 106.229 79.9237 105.668 78.9395C104.962 77.7415 103.978 77.1082 102.497 77.0397C99.8915 77.1809 98.5523 79.0807 98.5523 82.6707C98.5523 84.3608 98.8347 85.7001 99.3952 86.8255C100.101 88.2332 101.154 88.9392 102.566 88.9392C105.172 88.8665 106.511 86.8255 106.511 82.6707ZM109.117 82.6707C109.117 84.7844 108.552 86.6158 107.499 88.0235C106.301 89.5725 104.611 90.4154 102.57 90.4154C100.456 90.4154 98.8389 89.6409 97.6409 88.0235C96.584 86.6158 96.0235 84.8529 96.0235 82.6707C96.0235 80.6297 96.5883 78.9395 97.7821 77.6003C99.0486 76.1198 100.598 75.4181 102.57 75.4181C104.543 75.4181 106.16 76.1241 107.427 77.6003C108.552 79.008 109.117 80.6981 109.117 82.6707ZM122.848 90.133H120.456V80.4157C120.456 79.3589 120.105 78.5159 119.472 77.9511C118.838 77.3863 117.991 77.0355 116.866 77.1082C115.74 77.1082 114.611 77.5318 113.627 78.2335V90.2742H111.235V77.9511C112.574 76.967 113.841 76.261 115.039 75.9786C116.164 75.6962 117.08 75.555 117.927 75.555C118.492 75.555 119.052 75.6234 119.544 75.6962C120.46 75.9058 121.234 76.3294 121.799 76.8943C122.433 77.5275 122.783 78.3747 122.783 79.2861L122.848 90.133Z" fill="#656565"/>
<path d="M81.869 0.0128456C79.6141 0.0128456 77.4319 0.222509 75.5321 0.577653C69.9011 1.56179 68.9127 3.60708 68.9127 7.47943V12.5499H82.1514V14.24H63.9835C60.1796 14.24 56.8036 16.5634 55.7467 20.9278C54.5486 25.9983 54.4801 29.0962 55.7467 34.3763C56.6623 38.3214 58.9173 41.0641 62.7897 41.0641H67.368V35.0095C67.368 30.6451 71.1719 26.7728 75.6048 26.7728H88.7708C92.4335 26.7728 95.3902 23.7433 95.3902 20.0122V7.40669C95.3902 3.81674 92.3608 1.13818 88.7708 0.504913C86.4431 0.154048 84.1197 -0.0556159 81.869 0.0128456ZM74.6849 4.0264C76.0241 4.0264 77.1495 5.15174 77.1495 6.55948C77.1495 7.96722 76.0241 9.09256 74.6849 9.09256C73.3456 9.09256 72.2202 7.96722 72.2202 6.55948C72.2202 5.15174 73.2771 4.0264 74.6849 4.0264Z" fill="url(#paint0_linear_12188_24508)"/>
<path d="M97.007 14.0945V19.9394C97.007 24.5178 93.1347 28.3174 88.6975 28.3174H75.5315C71.9415 28.3174 68.9121 31.4153 68.9121 35.0779V47.6834C68.9121 51.2734 72.01 53.3871 75.5315 54.444C79.6862 55.7105 83.6998 55.9245 88.7702 54.444C92.0778 53.4599 95.3896 51.5558 95.3896 47.6834V42.613H82.1466V40.9228H102.005C105.809 40.9228 107.285 38.2486 108.624 34.235C110.032 30.0803 109.963 26.1394 108.624 20.7866C107.708 16.9827 105.877 14.0988 102.005 14.0988L97.007 14.0945ZM89.5404 45.9933C90.8797 45.9933 92.005 47.1186 92.005 48.5264C92.005 49.9341 90.8797 51.0594 89.5404 51.0594C88.2011 51.0594 87.0758 49.9341 87.0758 48.5264C87.0758 47.1186 88.2054 45.9933 89.5404 45.9933Z" fill="url(#paint1_linear_12188_24508)"/>
<path d="M127.422 73.6594H127.845V71.0536H128.829V70.7028H126.438V71.0536H127.422V73.6594ZM129.253 73.6594H129.604V71.2676L130.378 73.6594H130.802L131.576 71.2676V73.6594H132V70.7028H131.508L130.592 73.2358L129.818 70.7028H129.253V73.6594Z" fill="#656565"/>
<path opacity="0.444" d="M100.033 62.9633C100.033 64.8631 92.0783 66.412 82.2883 66.412C72.4983 66.412 64.5439 64.8631 64.5439 62.9633C64.5439 61.0635 72.4983 59.5145 82.2883 59.5145C92.0783 59.5145 100.033 61.0592 100.033 62.9633Z" fill="url(#paint2_radial_12188_24508)"/>
</g>
</g>
<defs>
<linearGradient id="paint0_linear_12188_24508" x1="53.3626" y1="1.51255" x2="83.8674" y2="27.5039" gradientUnits="userSpaceOnUse">
<stop stop-color="#5CA0D5"/>
<stop offset="1" stop-color="#316A99"/>
</linearGradient>
<linearGradient id="paint1_linear_12188_24508" x1="95.3683" y1="43.6869" x2="84.4237" y2="28.3523" gradientUnits="userSpaceOnUse">
<stop stop-color="#FFD43E"/>
<stop offset="1" stop-color="#FFE975"/>
</linearGradient>
<radialGradient id="paint2_radial_12188_24508" cx="0" cy="0" r="1" gradientUnits="userSpaceOnUse" gradientTransform="translate(82.2757 62.3841) rotate(-90) scale(3.43568 15.1048)">
<stop stop-color="#B8B8B8" stop-opacity="0.498"/>
<stop offset="1" stop-color="#7F8080" stop-opacity="0"/>
</radialGradient>
<clipPath id="clip0_12188_24508">
<rect width="175" height="100" fill="white"/>
</clipPath>
<clipPath id="clip1_12188_24508">
<rect width="89" height="99.5046" fill="white" transform="translate(43)"/>
</clipPath>
</defs>
</svg>
