<svg width="175" height="100" viewBox="0 0 175 100" fill="none" xmlns="http://www.w3.org/2000/svg">
<g clip-path="url(#clip0_12188_24550)">
<path d="M113.328 36.629C113.328 33.1408 108.96 29.835 102.262 27.785C103.808 20.9588 103.121 15.528 100.094 13.7892C99.3965 13.3814 98.5808 13.1882 97.6899 13.1882V15.5816C98.1836 15.5816 98.5808 15.6782 98.9135 15.8607C100.373 16.6978 101.006 19.8855 100.513 23.9855C100.395 24.9944 100.201 26.057 99.9653 27.141C97.8617 26.6259 95.5648 26.2287 93.1499 25.9711C91.7009 23.9855 90.1983 22.1824 88.685 20.6047C92.1839 17.3526 95.4682 15.5709 97.7007 15.5709V13.1774C94.7491 13.1774 90.8852 15.2811 86.9784 18.9303C83.0716 15.3026 79.2077 13.2204 76.2562 13.2204V15.6138C78.4779 15.6138 81.7729 17.3848 85.2719 20.6154C83.7692 22.1931 82.2666 23.9855 80.8391 25.9711C78.4135 26.2287 76.1166 26.6259 74.013 27.1518C73.7661 26.0785 73.5836 25.0374 73.4549 24.0392C72.9504 19.9392 73.5729 16.7515 75.0219 15.9036C75.3439 15.7104 75.7624 15.6245 76.2562 15.6245V13.2311C75.3546 13.2311 74.5389 13.4243 73.8305 13.8321C70.8145 15.5709 70.1384 20.991 71.6946 27.7957C65.0187 29.8565 60.6719 33.1515 60.6719 36.629C60.6719 40.1172 65.0402 43.423 71.7376 45.473C70.192 52.2991 70.8789 57.73 73.9056 59.4688C74.6033 59.8766 75.419 60.0698 76.3206 60.0698C79.2721 60.0698 83.136 57.9662 87.0428 54.3169C90.9496 57.9447 94.8135 60.0269 97.7651 60.0269C98.6666 60.0269 99.4823 59.8337 100.191 59.4258C103.207 57.6871 103.883 52.2669 102.327 45.4622C108.981 43.4122 113.328 40.1065 113.328 36.629ZM99.3535 29.4701C98.9564 30.8546 98.4627 32.2821 97.9046 33.7096C97.4645 32.851 97.003 31.9923 96.4986 31.1337C96.0048 30.2751 95.4789 29.4379 94.953 28.6222C96.4771 28.8476 97.9475 29.1266 99.3535 29.4701ZM94.4378 40.9007C93.6007 42.3497 92.742 43.7235 91.8512 45.0007C90.252 45.1402 88.6313 45.2154 86.9999 45.2154C85.3792 45.2154 83.7585 45.1402 82.17 45.0114C81.2792 43.7342 80.4098 42.3711 79.5727 40.9329C78.7569 39.5269 78.0164 38.0994 77.3402 36.6612C78.0056 35.223 78.7569 33.7847 79.5619 32.3787C80.3991 30.9298 81.2577 29.556 82.1486 28.2787C83.7478 28.1392 85.3685 28.0641 86.9999 28.0641C88.6206 28.0641 90.2412 28.1392 91.8297 28.268C92.7206 29.5452 93.5899 30.9083 94.4271 32.3465C95.2428 33.7526 95.9834 35.18 96.6596 36.6183C95.9834 38.0565 95.2428 39.4947 94.4378 40.9007ZM97.9046 39.5054C98.4842 40.9436 98.9779 42.3819 99.3857 43.7772C97.9797 44.1206 96.4986 44.4104 94.9637 44.6358C95.4897 43.8094 96.0156 42.9614 96.5093 42.0921C97.003 41.2334 97.4645 40.3641 97.9046 39.5054ZM87.0213 50.9575C86.0232 49.9272 85.025 48.7787 84.0376 47.523C85.0035 47.5659 85.991 47.5981 86.9891 47.5981C87.998 47.5981 88.9962 47.5766 89.9729 47.523C89.0069 48.7787 88.0088 49.9272 87.0213 50.9575ZM79.036 44.6358C77.5119 44.4104 76.0415 44.1313 74.6355 43.7879C75.0326 42.4033 75.5263 40.9758 76.0844 39.5484C76.5245 40.407 76.986 41.2656 77.4905 42.1243C77.9949 42.9829 78.5101 43.8201 79.036 44.6358ZM86.9677 22.3005C87.9658 23.3308 88.964 24.4793 89.9514 25.735C88.9855 25.6921 87.998 25.6599 86.9999 25.6599C85.991 25.6599 84.9928 25.6814 84.0161 25.735C84.9821 24.4793 85.9802 23.3308 86.9677 22.3005ZM79.0253 28.6222C78.4994 29.4486 77.9734 30.2965 77.4797 31.1659C76.986 32.0245 76.5245 32.8832 76.0844 33.7418C75.5049 32.3036 75.0111 30.8654 74.6033 29.4701C76.0093 29.1374 77.4905 28.8476 79.0253 28.6222ZM69.3119 42.0599C65.5125 40.4392 63.0546 38.3141 63.0546 36.629C63.0546 34.9439 65.5125 32.808 69.3119 31.1981C70.235 30.801 71.2439 30.4468 72.285 30.1141C72.8967 32.2177 73.7017 34.4073 74.6999 36.6505C73.7124 38.8829 72.9182 41.0617 72.3172 43.1546C71.2546 42.8219 70.2457 42.457 69.3119 42.0599ZM75.0863 57.3973C73.6266 56.5601 72.9933 53.3724 73.4871 49.2724C73.6051 48.2635 73.7983 47.201 74.0344 46.1169C76.1381 46.6321 78.435 47.0292 80.8499 47.2868C82.2988 49.2724 83.8014 51.0756 85.3148 52.6533C81.8158 55.9054 78.5316 57.6871 76.2991 57.6871C75.8161 57.6764 75.4083 57.5798 75.0863 57.3973ZM100.545 49.2188C101.049 53.3188 100.427 56.5065 98.9779 57.3544C98.6559 57.5476 98.2373 57.6334 97.7436 57.6334C95.5219 57.6334 92.2268 55.8625 88.7279 52.6319C90.2305 51.0541 91.7331 49.2617 93.1606 47.2761C95.5863 47.0185 97.8831 46.6214 99.9868 46.0955C100.234 47.1795 100.427 48.2206 100.545 49.2188ZM104.677 42.0599C103.754 42.457 102.745 42.8112 101.704 43.1439C101.092 41.0402 100.287 38.8507 99.2891 36.6075C100.277 34.3751 101.071 32.1963 101.672 30.1033C102.734 30.4361 103.743 30.801 104.688 31.1981C108.487 32.8188 110.945 34.9439 110.945 36.629C110.934 38.3141 108.477 40.4499 104.677 42.0599Z" fill="#61DAFB"/>
<path d="M86.989 41.5339C89.6979 41.5339 91.8939 39.3379 91.8939 36.629C91.8939 33.92 89.6979 31.724 86.989 31.724C84.28 31.724 82.084 33.92 82.084 36.629C82.084 39.3379 84.28 41.5339 86.989 41.5339Z" fill="#61DAFB"/>
</g>
<path d="M117.044 78.9873V80.3083H110.797V78.9873H117.044ZM112.749 75.8509H114.274V88.6606C114.274 89.206 114.368 89.635 114.555 89.9475C114.743 90.2543 114.987 90.4731 115.288 90.6037C115.589 90.7287 115.911 90.7912 116.251 90.7912C116.45 90.7912 116.621 90.7799 116.763 90.7571C116.905 90.7287 117.03 90.7003 117.138 90.6719L117.462 92.0441C117.314 92.1009 117.132 92.152 116.916 92.1975C116.7 92.2486 116.433 92.2742 116.115 92.2742C115.558 92.2742 115.021 92.152 114.504 91.9077C113.993 91.6634 113.572 91.2998 113.243 90.8168C112.913 90.3338 112.749 89.7344 112.749 89.0185V75.8509Z" fill="#242424"/>
<path d="M103.642 92.3508C102.472 92.3508 101.452 92.0582 100.583 91.473C99.7191 90.8878 99.0487 90.0866 98.5714 89.0696C98.0941 88.0525 97.8555 86.8935 97.8555 85.5923C97.8555 84.2798 98.0969 83.1122 98.5799 82.0895C99.0685 81.0668 99.7447 80.2656 100.608 79.6861C101.472 79.1008 102.475 78.8082 103.617 78.8082C104.492 78.8082 105.284 78.9787 105.995 79.3196C106.705 79.6548 107.29 80.1292 107.75 80.7429C108.216 81.3508 108.509 82.0611 108.628 82.8736H107.094C106.935 82.1349 106.551 81.5043 105.944 80.9815C105.341 80.4531 104.574 80.1889 103.642 80.1889C102.807 80.1889 102.069 80.4162 101.426 80.8707C100.784 81.3196 100.282 81.9474 99.918 82.7542C99.56 83.5554 99.381 84.4844 99.381 85.5412C99.381 86.6037 99.5572 87.544 99.9094 88.3622C100.262 89.1747 100.756 89.8111 101.392 90.2713C102.034 90.7315 102.784 90.9616 103.642 90.9616C104.222 90.9616 104.75 90.8537 105.228 90.6378C105.711 90.4162 106.114 90.1037 106.438 89.7003C106.767 89.2969 106.989 88.8167 107.103 88.2599H108.637C108.523 89.0497 108.242 89.7542 107.793 90.3736C107.35 90.9872 106.773 91.4702 106.063 91.8224C105.358 92.1747 104.551 92.3508 103.642 92.3508Z" fill="#242424"/>
<path d="M88.8255 92.3764C88.0357 92.3764 87.3141 92.223 86.6607 91.9162C86.0073 91.6037 85.4874 91.1548 85.101 90.5696C84.7147 89.9787 84.5215 89.2628 84.5215 88.4219C84.5215 87.7741 84.6436 87.2287 84.888 86.7855C85.1323 86.3423 85.4789 85.9787 85.9277 85.6946C86.3766 85.4105 86.9078 85.1861 87.5215 85.0213C88.1351 84.8565 88.8113 84.7287 89.5499 84.6378C90.2828 84.5469 90.9022 84.4673 91.4078 84.3991C91.9192 84.331 92.3084 84.223 92.5755 84.0753C92.8425 83.9275 92.976 83.6889 92.976 83.3594V83.0525C92.976 82.1605 92.709 81.4588 92.1749 80.9474C91.6465 80.4304 90.8851 80.1719 89.8908 80.1719C88.9476 80.1719 88.1777 80.3793 87.5811 80.794C86.9902 81.2088 86.5755 81.6974 86.3368 82.2599L84.8965 81.74C85.1919 81.0241 85.601 80.4531 86.1238 80.027C86.6465 79.5952 87.2317 79.2855 87.8794 79.098C88.5272 78.9048 89.1834 78.8082 89.8482 78.8082C90.3482 78.8082 90.8681 78.8736 91.4078 79.0042C91.9533 79.1349 92.459 79.3622 92.9249 79.6861C93.3908 80.0042 93.7686 80.4503 94.0584 81.0241C94.3482 81.5923 94.4931 82.3139 94.4931 83.1889V92.0781H92.976V90.0071H92.8823C92.7005 90.3935 92.4306 90.7685 92.0726 91.1321C91.7147 91.4957 91.2658 91.794 90.726 92.027C90.1863 92.2599 89.5527 92.3764 88.8255 92.3764ZM89.03 90.9872C89.8368 90.9872 90.5357 90.8082 91.1266 90.4503C91.7175 90.0923 92.1721 89.6179 92.4902 89.027C92.8141 88.4304 92.976 87.7741 92.976 87.0582V85.1662C92.8624 85.2741 92.6721 85.3707 92.405 85.456C92.1436 85.5412 91.8397 85.6179 91.4931 85.6861C91.1522 85.7486 90.8113 85.8025 90.4703 85.848C90.1294 85.8935 89.8226 85.9332 89.5499 85.9673C88.8113 86.0582 88.1806 86.2003 87.6578 86.3935C87.1351 86.5866 86.7346 86.8537 86.4561 87.1946C86.1777 87.5298 86.0385 87.9616 86.0385 88.49C86.0385 89.2855 86.3226 89.902 86.8908 90.3395C87.459 90.7713 88.1721 90.9872 89.03 90.9872Z" fill="#242424"/>
<path d="M76.5167 92.3508C75.2951 92.3508 74.2383 92.0667 73.3462 91.4986C72.4542 90.9247 71.7639 90.1321 71.2752 89.1207C70.7923 88.1037 70.5508 86.9332 70.5508 85.6094C70.5508 84.2912 70.7923 83.1207 71.2752 82.098C71.7639 81.0696 72.4371 80.2656 73.2951 79.6861C74.1587 79.1008 75.1559 78.8082 76.2866 78.8082C76.9968 78.8082 77.6815 78.9389 78.3406 79.2003C78.9996 79.456 79.5906 79.8508 80.1133 80.3849C80.6417 80.9133 81.0593 81.581 81.3661 82.3878C81.6729 83.1889 81.8264 84.1378 81.8264 85.2344V85.9844H71.5991V84.6463H80.2752C80.2752 83.8054 80.1048 83.0497 79.7639 82.3792C79.4286 81.7031 78.9599 81.169 78.3576 80.777C77.761 80.3849 77.0707 80.1889 76.2866 80.1889C75.457 80.1889 74.7269 80.4105 74.0962 80.8537C73.4656 81.2969 72.9712 81.8821 72.6133 82.6094C72.261 83.3366 72.082 84.1321 72.0764 84.9957V85.7969C72.0764 86.8366 72.2553 87.7457 72.6133 88.5241C72.9769 89.2969 73.4911 89.8963 74.1559 90.3224C74.8207 90.7486 75.6076 90.9616 76.5167 90.9616C77.136 90.9616 77.6786 90.865 78.1445 90.6719C78.6161 90.4787 79.011 90.2202 79.3292 89.8963C79.6531 89.5667 79.8974 89.206 80.0621 88.8139L81.5025 89.2827C81.3036 89.8338 80.9769 90.3423 80.5224 90.8082C80.0735 91.2741 79.511 91.6491 78.8349 91.9332C78.1644 92.2116 77.3917 92.3508 76.5167 92.3508Z" fill="#242424"/>
<path d="M56.5391 92.0781V74.6236H62.1726C63.4112 74.6236 64.4453 74.848 65.2749 75.2969C66.1101 75.7401 66.7379 76.3566 67.1584 77.1463C67.5845 77.9304 67.7976 78.831 67.7976 79.848C67.7976 80.8651 67.5845 81.7628 67.1584 82.5412C66.7379 83.3196 66.1129 83.9276 65.2834 84.3651C64.4538 84.8026 63.4254 85.0213 62.1982 85.0213H57.3999V83.5639H62.1555C63.0646 83.5639 63.8203 83.4134 64.4226 83.1122C65.0305 82.8111 65.4822 82.3821 65.7777 81.8253C66.0788 81.2685 66.2294 80.6094 66.2294 79.848C66.2294 79.0867 66.0788 78.4219 65.7777 77.8537C65.4766 77.2798 65.022 76.8367 64.4141 76.5242C63.8118 76.2117 63.0504 76.0554 62.13 76.0554H58.1328V92.0781H56.5391ZM64.2351 84.2031L68.5305 92.0781H66.6896L62.4368 84.2031H64.2351Z" fill="#242424"/>
<defs>
<clipPath id="clip0_12188_24550">
<rect width="52.656" height="60" fill="white" transform="translate(60.6719 6.6236)"/>
</clipPath>
</defs>
</svg>
