<svg width="175" height="100" viewBox="0 0 175 100" fill="none" xmlns="http://www.w3.org/2000/svg">
<g clip-path="url(#clip0_12169_24696)">
<path d="M123.149 53.4745C119.048 55.4291 97.8059 63.4165 93.2835 65.5726C88.7611 67.729 86.2488 67.7082 82.6761 66.1463C79.1036 64.5845 56.4979 56.2339 52.4257 54.4538C50.3907 53.5645 49.3203 52.8135 49.3203 52.1042V45.0015C49.3203 45.0015 78.7504 39.1425 83.5015 37.5837C88.2523 36.0248 89.9008 35.9686 93.9438 37.3229C97.9875 38.6778 122.164 42.6667 126.16 44.0051L126.158 51.0073C126.158 51.7095 125.236 52.4797 123.149 53.4745Z" fill="#912626"/>
<path d="M123.148 46.4136C119.047 48.3675 97.8052 56.3551 93.2828 58.511C88.7607 60.6676 86.2484 60.6465 82.676 59.0847C79.1033 57.5239 56.4984 49.172 52.4265 47.393C48.3547 45.6129 48.2694 44.3879 52.2693 42.9556C56.2691 41.5228 78.75 33.4569 83.5017 31.898C88.2526 30.3397 89.9007 30.2829 93.9438 31.6378C97.9871 32.9921 119.102 40.6782 123.098 42.0163C127.095 43.3561 127.248 44.4593 123.148 46.4136Z" fill="#C6302B"/>
<path d="M123.149 41.9817C119.048 43.9367 97.8059 51.9238 93.2835 54.0807C88.7611 56.2363 86.2488 56.2154 82.6761 54.6536C79.1033 53.0926 56.4979 44.7412 52.4257 42.9611C50.3907 42.0718 49.3203 41.3219 49.3203 40.6123V33.5088C49.3203 33.5088 78.7504 27.65 83.5015 26.0912C88.2523 24.5324 89.9008 24.4758 93.9438 25.8305C97.9878 27.1851 122.164 31.1731 126.16 32.5118L126.158 39.5149C126.158 40.2168 125.236 40.987 123.149 41.9817Z" fill="#912626"/>
<path d="M123.148 34.9212C119.047 36.8756 97.8052 44.8627 93.2828 47.0193C88.7607 49.1752 86.2484 49.1541 82.676 47.5922C79.1033 46.0315 56.4984 37.6798 52.4265 35.9006C48.3547 34.121 48.2694 32.8957 52.2693 31.4629C56.2691 30.0309 78.7503 21.9644 83.5017 20.4059C88.2526 18.8473 89.9007 18.7907 93.9438 20.1454C97.9871 21.4997 119.102 29.1852 123.098 30.5238C127.095 31.8634 127.248 32.9668 123.148 34.9212Z" fill="#C6302B"/>
<path d="M123.149 30.0632C119.048 32.0175 97.8059 40.0052 93.2835 42.1621C88.7611 44.318 86.2488 44.2969 82.6761 42.735C79.1033 41.174 56.4979 32.8223 52.4257 31.0431C50.3907 30.1529 49.3203 29.4027 49.3203 28.694V21.5902C49.3203 21.5902 78.7504 15.7317 83.5015 14.1732C88.2523 12.6141 89.9008 12.5581 93.9438 13.9124C97.9878 15.267 122.164 19.2551 126.16 20.5938L126.158 27.5966C126.158 28.2979 125.236 29.0681 123.149 30.0632Z" fill="#912626"/>
<path d="M123.147 23.0025C119.047 24.9568 97.8051 32.9445 93.2827 35.1004C88.7606 37.2562 86.2483 37.2351 82.6758 35.674C79.1034 34.1122 56.4983 25.7611 52.4267 23.9816C48.3545 22.2023 48.2696 20.9767 52.2691 19.5442C56.2689 18.1119 78.7501 10.0465 83.5016 8.4874C88.2524 6.92857 89.9005 6.87258 93.9436 8.22719C97.987 9.5818 119.102 17.2673 123.098 18.6059C127.094 19.9444 127.248 21.0481 123.147 23.0025Z" fill="#C6302B"/>
<path d="M97.1295 16.0927L90.5231 16.7199L89.0443 19.9743L86.6556 16.3427L79.0272 15.7158L84.7193 13.8386L83.0115 10.957L88.3407 12.863L93.3647 11.3588L92.0068 14.3384L97.1295 16.0927ZM88.6499 31.8808L76.3204 27.2043L93.9875 24.7243L88.6499 31.8808ZM71.5561 17.9016C76.7713 17.9016 80.9989 19.4003 80.9989 21.2487C80.9989 23.0977 76.7713 24.5961 71.5561 24.5961C66.3409 24.5961 62.1133 23.0974 62.1133 21.2487C62.1133 19.4003 66.3409 17.9016 71.5561 17.9016Z" fill="white"/>
<path d="M104.939 16.9823L115.396 20.7609L104.948 24.536L104.939 16.9823Z" fill="#621B1C"/>
<path d="M93.3701 21.167L104.938 16.9824L104.947 24.5361L103.813 24.9418L93.3701 21.167Z" fill="#9A2928"/>
</g>
<path d="M116.255 82.4063L114.866 82.7983C114.73 82.4063 114.536 82.0512 114.286 81.733C114.036 81.4148 113.71 81.162 113.306 80.9745C112.909 80.787 112.414 80.6932 111.823 80.6932C110.937 80.6932 110.21 80.9035 109.642 81.3239C109.073 81.7444 108.789 82.287 108.789 82.9518C108.789 83.5143 108.983 83.9716 109.369 84.3239C109.761 84.6705 110.363 84.9461 111.176 85.1506L113.153 85.6364C114.25 85.9035 115.071 86.3268 115.616 86.9063C116.167 87.4858 116.443 88.2131 116.443 89.0881C116.443 89.8268 116.238 90.483 115.829 91.0569C115.42 91.6307 114.849 92.0824 114.116 92.412C113.389 92.7358 112.545 92.8978 111.585 92.8978C110.306 92.8978 109.252 92.6108 108.423 92.037C107.593 91.4574 107.062 90.6222 106.829 89.5313L108.286 89.1733C108.474 89.9518 108.84 90.5398 109.386 90.9375C109.937 91.3353 110.661 91.5341 111.559 91.5341C112.565 91.5341 113.369 91.3097 113.971 90.8608C114.573 90.4063 114.875 89.8381 114.875 89.1563C114.875 88.6279 114.698 88.1847 114.346 87.8268C113.994 87.4631 113.46 87.1961 112.744 87.0256L110.605 86.5143C109.468 86.2415 108.627 85.8097 108.082 85.2188C107.536 84.6279 107.264 83.8949 107.264 83.0199C107.264 82.2983 107.46 81.6648 107.852 81.1194C108.244 80.5682 108.784 80.1364 109.471 79.8239C110.159 79.5114 110.943 79.3552 111.823 79.3552C113.022 79.3552 113.98 79.6279 114.696 80.1733C115.417 80.7131 115.937 81.4574 116.255 82.4063Z" fill="#242424"/>
<path d="M101.922 92.625V79.5341H103.448V92.625H101.922ZM102.698 77.2841C102.385 77.2841 102.118 77.179 101.897 76.9688C101.675 76.7529 101.564 76.4943 101.564 76.1932C101.564 75.8921 101.675 75.6364 101.897 75.4262C102.118 75.2102 102.385 75.1023 102.698 75.1023C103.01 75.1023 103.278 75.2102 103.499 75.4262C103.721 75.6364 103.832 75.8921 103.832 76.1932C103.832 76.4943 103.721 76.7529 103.499 76.9688C103.278 77.179 103.01 77.2841 102.698 77.2841Z" fill="#242424"/>
<path d="M91.9 92.8977C90.8262 92.8977 89.8858 92.6137 89.079 92.0455C88.2722 91.4773 87.6415 90.6847 87.187 89.6676C86.7381 88.6506 86.5137 87.4659 86.5137 86.1137C86.5137 84.7671 86.7381 83.5881 87.187 82.5767C87.6415 81.5597 88.275 80.7699 89.0875 80.2074C89.9 79.6392 90.8461 79.3551 91.9256 79.3551C92.7211 79.3551 93.383 79.4972 93.9114 79.7813C94.4398 80.0597 94.8631 80.4063 95.1813 80.821C95.4995 81.2358 95.7466 81.6392 95.9228 82.0313H96.0591V75.1705H97.5847V92.625H96.1017V90.196H95.9228C95.7466 90.5938 95.4966 91.0029 95.1728 91.4233C94.8489 91.8381 94.4199 92.1875 93.8858 92.4716C93.3574 92.7557 92.6955 92.8977 91.9 92.8977ZM92.079 91.5085C92.9256 91.5085 93.6472 91.2784 94.2438 90.8182C94.8404 90.3523 95.2949 89.7131 95.6074 88.9006C95.9256 88.0824 96.0847 87.1449 96.0847 86.0881C96.0847 85.0426 95.9284 84.1193 95.6159 83.3182C95.3034 82.5114 94.8489 81.8807 94.2523 81.4262C93.6557 80.9659 92.9313 80.7358 92.079 80.7358C91.204 80.7358 90.4654 80.9744 89.8631 81.4517C89.2665 81.9233 88.812 82.5625 88.4995 83.3693C88.1927 84.1762 88.0392 85.0824 88.0392 86.0881C88.0392 87.1051 88.1955 88.0227 88.508 88.8409C88.8205 89.6591 89.275 90.3097 89.8716 90.7926C90.4739 91.2699 91.2097 91.5085 92.079 91.5085Z" fill="#242424"/>
<path d="M78.5343 92.8978C77.3127 92.8978 76.2559 92.6137 75.3638 92.0455C74.4718 91.4716 73.7814 90.679 73.2928 89.6677C72.8098 88.6506 72.5684 87.4802 72.5684 86.1563C72.5684 84.8381 72.8098 83.6677 73.2928 82.6449C73.7814 81.6165 74.4547 80.8125 75.3127 80.233C76.1763 79.6478 77.1735 79.3552 78.3042 79.3552C79.0144 79.3552 79.699 79.4858 80.3581 79.7472C81.0172 80.0029 81.6081 80.3978 82.1309 80.9319C82.6593 81.4603 83.0769 82.1279 83.3837 82.9347C83.6905 83.7358 83.8439 84.6847 83.8439 85.7813V86.5313H73.6167V85.1932H82.2928C82.2928 84.3523 82.1223 83.5966 81.7814 82.9262C81.4462 82.25 80.9774 81.716 80.3752 81.3239C79.7786 80.9319 79.0882 80.7358 78.3042 80.7358C77.4746 80.7358 76.7445 80.9574 76.1138 81.4006C75.4831 81.8438 74.9888 82.429 74.6309 83.1563C74.2786 83.8836 74.0996 84.679 74.0939 85.5427V86.3438C74.0939 87.3836 74.2729 88.2927 74.6309 89.0711C74.9945 89.8438 75.5087 90.4432 76.1735 90.8694C76.8382 91.2955 77.6252 91.5086 78.5343 91.5086C79.1536 91.5086 79.6962 91.412 80.1621 91.2188C80.6337 91.0256 81.0286 90.7671 81.3468 90.4432C81.6706 90.1137 81.915 89.7529 82.0797 89.3608L83.5201 89.8296C83.3212 90.3807 82.9945 90.8893 82.5399 91.3552C82.0911 91.8211 81.5286 92.1961 80.8524 92.4802C80.182 92.7586 79.4093 92.8978 78.5343 92.8978Z" fill="#242424"/>
<path d="M58.5566 92.625V75.1705H64.1902C65.4288 75.1705 66.4629 75.3949 67.2924 75.8438C68.1277 76.2869 68.7555 76.9034 69.176 77.6932C69.6021 78.4773 69.8152 79.3779 69.8152 80.3949C69.8152 81.4119 69.6021 82.3097 69.176 83.0881C68.7555 83.8665 68.1305 84.4744 67.301 84.9119C66.4714 85.3494 65.443 85.5682 64.2157 85.5682H59.4174V84.1108H64.1731C65.0822 84.1108 65.8379 83.9602 66.4402 83.6591C67.0481 83.358 67.4998 82.929 67.7953 82.3722C68.0964 81.8154 68.247 81.1563 68.247 80.3949C68.247 79.6335 68.0964 78.9688 67.7953 78.4006C67.4941 77.8267 67.0396 77.3835 66.4316 77.071C65.8294 76.7585 65.068 76.6023 64.1475 76.6023H60.1504V92.625H58.5566ZM66.2527 84.75L70.5481 92.625H68.7072L64.4544 84.75H66.2527Z" fill="#242424"/>
<defs>
<clipPath id="clip0_12169_24696">
<rect width="76.3613" height="60" fill="white" transform="translate(49.3193 7.10229)"/>
</clipPath>
</defs>
</svg>
