<svg width="175" height="100" viewBox="0 0 175 100" fill="none" xmlns="http://www.w3.org/2000/svg">
<path d="M97.1959 41.8094C96.0932 41.7759 95.0182 42.1583 94.1845 42.8809C93.3509 43.6034 92.8195 44.6131 92.6959 45.7094C92.6904 45.7306 92.6899 45.7528 92.6945 45.7743C92.6991 45.7957 92.7086 45.8158 92.7223 45.8329C92.736 45.8501 92.7535 45.8638 92.7735 45.8729C92.7934 45.8821 92.8152 45.8865 92.8371 45.8858H101.572C101.593 45.886 101.612 45.8819 101.631 45.8737C101.649 45.8655 101.666 45.8535 101.679 45.8385C101.692 45.8234 101.702 45.8057 101.708 45.7865C101.714 45.7673 101.716 45.747 101.714 45.727C101.628 44.6109 101.105 43.5736 100.259 42.8402C99.4138 42.1068 98.313 41.7364 97.1959 41.8094Z" fill="#01A71C"/>
<path d="M115.922 12.5156L97.3928 33.3215C97.3399 33.3787 97.2758 33.4243 97.2044 33.4555C97.133 33.4867 97.056 33.5029 96.9781 33.5029C96.9002 33.5029 96.8231 33.4867 96.7517 33.4555C96.6804 33.4243 96.6162 33.3787 96.5634 33.3215L87.1045 23.5626C87.0243 23.4625 86.9806 23.338 86.9806 23.2097C86.9806 23.0814 87.0243 22.9569 87.1045 22.8567L90.2281 18.8509C90.2803 18.778 90.3492 18.7186 90.429 18.6777C90.5088 18.6367 90.5972 18.6154 90.6869 18.6154C90.7766 18.6154 90.865 18.6367 90.9447 18.6777C91.0245 18.7186 91.0934 18.778 91.1457 18.8509L96.4398 24.7097C96.4928 24.7728 96.559 24.8235 96.6337 24.8583C96.7084 24.8931 96.7898 24.9111 96.8722 24.9111C96.9546 24.9111 97.036 24.8931 97.1107 24.8583C97.1854 24.8235 97.2515 24.7728 97.3045 24.7097L112.057 4.48615C112.099 4.42639 112.123 4.35672 112.128 4.28439C112.133 4.21207 112.118 4.13972 112.086 4.07487C112.053 4.01003 112.004 3.95505 111.943 3.91565C111.883 3.87626 111.812 3.85389 111.74 3.85086L59.7869 3.85086C59.6699 3.85086 59.5577 3.89734 59.4749 3.98008C59.3922 4.06281 59.3457 4.17503 59.3457 4.29204V63.4097C59.3457 63.5267 59.3922 63.6389 59.4749 63.7216C59.5577 63.8044 59.6699 63.8509 59.7869 63.8509H116.257C116.374 63.8509 116.487 63.8044 116.569 63.7216C116.652 63.6389 116.699 63.5267 116.699 63.4097V12.7803C116.734 12.6773 116.727 12.5646 116.679 12.467C116.631 12.3694 116.546 12.2948 116.443 12.2597C116.34 12.2246 116.227 12.2318 116.129 12.2798C116.032 12.3278 115.957 12.4126 115.922 12.5156ZM75.3339 57.2685C71.6268 57.4553 67.9929 56.1892 65.2045 53.7391C65.1164 53.6392 65.0678 53.5105 65.0678 53.3773C65.0678 53.2441 65.1164 53.1155 65.2045 53.0156L67.4104 49.9273C67.4468 49.8641 67.4955 49.8088 67.5537 49.7646C67.6118 49.7205 67.6782 49.6884 67.7489 49.6703C67.8196 49.6522 67.8932 49.6485 67.9654 49.6593C68.0376 49.6701 68.1069 49.6952 68.1692 49.7332C70.1843 51.6014 72.8331 52.6357 75.581 52.6273C78.4751 52.6273 79.8869 51.2862 79.8869 49.8744C79.8869 45.4979 65.6281 48.4979 65.6281 39.1803C65.6281 35.0685 69.1575 31.645 75.0163 31.645C78.3786 31.5254 81.6702 32.6289 84.281 34.7509C84.3791 34.8528 84.434 34.9888 84.434 35.1303C84.434 35.2718 84.3791 35.4078 84.281 35.5097L82.1104 38.5273C82.0656 38.5874 82.0089 38.6375 81.9439 38.6748C81.8789 38.712 81.8069 38.7355 81.7325 38.7437C81.658 38.752 81.5827 38.7449 81.5111 38.7228C81.4395 38.7008 81.3732 38.6643 81.3163 38.6156C79.3912 37.0855 76.9988 36.2631 74.5398 36.2862C72.281 36.2862 71.0104 37.292 71.0104 38.7744C71.0104 42.7097 85.2339 40.0803 85.2339 49.3626C85.2339 53.845 82.0045 57.2685 75.3163 57.2685H75.3339ZM106.428 48.6744C106.431 48.7399 106.419 48.8053 106.395 48.8664C106.372 48.9274 106.335 48.9829 106.289 49.0293C106.242 49.0757 106.187 49.112 106.126 49.1359C106.065 49.1599 105.999 49.171 105.934 49.1685H92.8751C92.8542 49.1707 92.834 49.177 92.8155 49.1871C92.7971 49.1972 92.7808 49.2108 92.7677 49.2272C92.7545 49.2437 92.7448 49.2625 92.739 49.2827C92.7332 49.3029 92.7315 49.3241 92.7339 49.345C92.9457 50.5653 93.6065 51.6621 94.5862 52.4198C95.5659 53.1775 96.7937 53.5411 98.0281 53.4391C99.6478 53.4048 101.221 52.8887 102.546 51.9567C102.597 51.9134 102.658 51.8815 102.723 51.8632C102.788 51.8449 102.856 51.8407 102.923 51.8507C102.989 51.8607 103.053 51.8848 103.11 51.9213C103.167 51.9578 103.215 52.006 103.252 52.0626L104.84 54.3744C104.906 54.4771 104.932 54.6006 104.912 54.7212C104.893 54.8418 104.829 54.9508 104.734 55.0273C102.637 56.5574 100.094 57.3516 97.4986 57.2862C96.2024 57.3585 94.9053 57.1591 93.6906 56.7008C92.4759 56.2426 91.3704 55.5355 90.4449 54.625C89.5195 53.7145 88.7945 52.6206 88.3165 51.4135C87.8385 50.2065 87.618 48.9128 87.6692 47.6156C87.6333 46.3494 87.8544 45.0891 88.3192 43.9109C88.784 42.7326 89.4828 41.6607 90.3735 40.7602C91.2642 39.8596 92.3283 39.1489 93.5013 38.6711C94.6744 38.1933 95.9322 37.9583 97.1987 37.9803C102.687 37.9803 106.41 42.092 106.41 48.1097L106.428 48.6744Z" fill="#01A71C"/>
<path d="M120.356 94.8509V81.76H121.831V83.7713H121.967C122.229 83.0952 122.663 82.5639 123.271 82.1776C123.885 81.7855 124.621 81.5895 125.479 81.5895C126.382 81.5895 127.123 81.8026 127.703 82.2287C128.288 82.6492 128.726 83.2287 129.016 83.9673H129.126C129.422 83.2401 129.902 82.6634 130.567 82.2372C131.237 81.8054 132.05 81.5895 133.004 81.5895C134.22 81.5895 135.18 81.973 135.885 82.7401C136.589 83.5014 136.942 84.6151 136.942 86.081V94.8509H135.425V86.081C135.425 85.0469 135.16 84.2713 134.632 83.7543C134.104 83.2372 133.408 82.9787 132.544 82.9787C131.544 82.9787 130.774 83.2855 130.234 83.8992C129.695 84.5128 129.425 85.2912 129.425 86.2344V94.8509H127.873V85.9446C127.873 85.0583 127.626 84.3423 127.132 83.7969C126.638 83.2514 125.942 82.9787 125.044 82.9787C124.442 82.9787 123.899 83.1264 123.416 83.4219C122.939 83.7173 122.561 84.1293 122.283 84.6577C122.01 85.1804 121.873 85.7827 121.873 86.4645V94.8509H120.356Z" fill="#242424"/>
<path d="M114.823 89.848V81.7599H116.34V94.8509H114.823V92.6776H114.704C114.397 93.348 113.911 93.9077 113.246 94.3565C112.582 94.7997 111.769 95.0213 110.809 95.0213C109.974 95.0213 109.232 94.8395 108.584 94.4759C107.937 94.1065 107.428 93.5668 107.059 92.8565C106.69 92.1463 106.505 91.2742 106.505 90.2401V81.7599H108.022V90.1463C108.022 91.169 108.323 91.9929 108.925 92.6179C109.528 93.2372 110.3 93.5469 111.244 93.5469C111.834 93.5469 112.403 93.4048 112.948 93.1207C113.494 92.8367 113.942 92.4219 114.295 91.8764C114.647 91.3253 114.823 90.6492 114.823 89.848Z" fill="#242424"/>
<path d="M100.967 94.8509V81.76H102.493V94.8509H100.967ZM101.743 79.51C101.43 79.51 101.163 79.4049 100.942 79.1946C100.72 78.9787 100.609 78.7202 100.609 78.4191C100.609 78.1179 100.72 77.8622 100.942 77.652C101.163 77.4361 101.43 77.3282 101.743 77.3282C102.055 77.3282 102.322 77.4361 102.544 77.652C102.766 77.8622 102.876 78.1179 102.876 78.4191C102.876 78.7202 102.766 78.9787 102.544 79.1946C102.322 79.4049 102.055 79.51 101.743 79.51Z" fill="#242424"/>
<path d="M88.5688 86.6691V94.8509H87.0518V81.76H88.5262V83.8139H88.6626C88.9694 83.1435 89.4466 82.6066 90.0944 82.2031C90.7478 81.7941 91.5546 81.5895 92.5148 81.5895C93.3955 81.5895 94.1682 81.7742 94.833 82.1435C95.5035 82.5071 96.0233 83.0441 96.3927 83.7543C96.7677 84.4645 96.9552 85.3367 96.9552 86.3708V94.8509H95.4381V86.4645C95.4381 85.3906 95.137 84.5412 94.5347 83.9162C93.9381 83.2912 93.137 82.9787 92.1313 82.9787C91.4438 82.9787 90.833 83.1264 90.2989 83.4219C89.7648 83.7173 89.3415 84.1435 89.029 84.7003C88.7222 85.2514 88.5688 85.9077 88.5688 86.6691Z" fill="#242424"/>
<path d="M78.3985 95.1236C77.1769 95.1236 76.1201 94.8395 75.2281 94.2713C74.336 93.6975 73.6457 92.9049 73.1571 91.8935C72.6741 90.8764 72.4326 89.706 72.4326 88.3821C72.4326 87.0639 72.6741 85.8935 73.1571 84.8708C73.6457 83.8424 74.319 83.0384 75.1769 82.4588C76.0406 81.8736 77.0377 81.581 78.1684 81.581C78.8786 81.581 79.5633 81.7117 80.2224 81.973C80.8815 82.2287 81.4724 82.6236 81.9951 83.1577C82.5235 83.6861 82.9411 84.3537 83.248 85.1605C83.5548 85.9617 83.7082 86.9105 83.7082 88.0071V88.7571H73.4809V87.4191H82.1571C82.1571 86.5782 81.9866 85.8225 81.6457 85.152C81.3105 84.4759 80.8417 83.9418 80.2394 83.5497C79.6428 83.1577 78.9525 82.9617 78.1684 82.9617C77.3389 82.9617 76.6088 83.1833 75.9781 83.6264C75.3474 84.0696 74.8531 84.6549 74.4951 85.3821C74.1428 86.1094 73.9639 86.9049 73.9582 87.7685V88.5696C73.9582 89.6094 74.1372 90.5185 74.4951 91.2969C74.8588 92.0696 75.373 92.6691 76.0377 93.0952C76.7025 93.5213 77.4894 93.7344 78.3985 93.7344C79.0178 93.7344 79.5605 93.6378 80.0264 93.4446C80.498 93.2514 80.8928 92.9929 81.211 92.6691C81.5349 92.3395 81.7792 91.9787 81.944 91.5867L83.3843 92.0554C83.1855 92.6066 82.8588 93.1151 82.4042 93.581C81.9553 94.0469 81.3928 94.4219 80.7167 94.706C80.0463 94.9844 79.2735 95.1236 78.3985 95.1236Z" fill="#242424"/>
<path d="M69.0922 77.3963V94.8509H67.5752V77.3963H69.0922Z" fill="#242424"/>
<path d="M58.922 95.1236C57.7004 95.1236 56.6436 94.8395 55.7515 94.2713C54.8595 93.6975 54.1691 92.9049 53.6805 91.8935C53.1975 90.8764 52.9561 89.706 52.9561 88.3821C52.9561 87.0639 53.1975 85.8935 53.6805 84.8708C54.1691 83.8424 54.8424 83.0384 55.7004 82.4588C56.564 81.8736 57.5612 81.581 58.6919 81.581C59.4021 81.581 60.0867 81.7117 60.7458 81.973C61.4049 82.2287 61.9958 82.6236 62.5186 83.1577C63.047 83.6861 63.4646 84.3537 63.7714 85.1605C64.0782 85.9617 64.2316 86.9105 64.2316 88.0071V88.7571H54.0044V87.4191H62.6805C62.6805 86.5782 62.51 85.8225 62.1691 85.152C61.8339 84.4759 61.3651 83.9418 60.7629 83.5497C60.1663 83.1577 59.4759 82.9617 58.6919 82.9617C57.8623 82.9617 57.1322 83.1833 56.5015 83.6264C55.8708 84.0696 55.3765 84.6549 55.0186 85.3821C54.6663 86.1094 54.4873 86.9049 54.4816 87.7685V88.5696C54.4816 89.6094 54.6606 90.5185 55.0186 91.2969C55.3822 92.0696 55.8964 92.6691 56.5612 93.0952C57.2259 93.5213 58.0129 93.7344 58.922 93.7344C59.5413 93.7344 60.0839 93.6378 60.5498 93.4446C61.0214 93.2514 61.4163 92.9929 61.7345 92.6691C62.0583 92.3395 62.3026 91.9787 62.4674 91.5867L63.9078 92.0554C63.7089 92.6066 63.3822 93.1151 62.9276 93.581C62.4788 94.0469 61.9163 94.4219 61.2401 94.706C60.5697 94.9844 59.797 95.1236 58.922 95.1236Z" fill="#242424"/>
<path d="M48.3285 81.76C48.2319 80.7884 47.8029 80.0156 47.0415 79.4418C46.2802 78.8679 45.3228 78.581 44.1694 78.581C43.3569 78.581 42.641 78.7202 42.0217 78.9986C41.408 79.277 40.9251 79.6634 40.5728 80.1577C40.2262 80.6463 40.0529 81.2031 40.0529 81.8281C40.0529 82.2884 40.1523 82.6918 40.3512 83.0384C40.5501 83.385 40.8171 83.6833 41.1523 83.9333C41.4933 84.1776 41.8683 84.3878 42.2773 84.5639C42.6921 84.7401 43.1097 84.8878 43.5302 85.0071L45.3711 85.5355C45.9279 85.6889 46.4847 85.885 47.0415 86.1236C47.5984 86.3622 48.1069 86.6634 48.5671 87.027C49.033 87.385 49.4052 87.8253 49.6836 88.348C49.9677 88.8651 50.1097 89.4872 50.1097 90.2145C50.1097 91.1463 49.8683 91.9844 49.3853 92.7287C48.9023 93.473 48.2092 94.0639 47.3058 94.5014C46.4023 94.9333 45.32 95.1492 44.0586 95.1492C42.8711 95.1492 41.8398 94.9531 40.9648 94.5611C40.0898 94.1634 39.4023 93.6151 38.9023 92.9162C38.4023 92.2174 38.1211 91.4077 38.0586 90.4872H39.695C39.7518 91.1747 39.979 91.7571 40.3768 92.2344C40.7745 92.7117 41.2915 93.0753 41.9279 93.3253C42.5643 93.5696 43.2745 93.6918 44.0586 93.6918C44.9279 93.6918 45.7006 93.5469 46.3768 93.2571C47.0586 92.9617 47.5927 92.5526 47.979 92.0299C48.3711 91.5014 48.5671 90.8878 48.5671 90.1889C48.5671 89.598 48.4137 89.1037 48.1069 88.706C47.8001 88.3026 47.3711 87.9645 46.82 87.6918C46.2745 87.4191 45.641 87.1776 44.9194 86.9674L42.8313 86.3537C41.462 85.9446 40.3995 85.3793 39.6438 84.6577C38.8881 83.9361 38.5103 83.0156 38.5103 81.8963C38.5103 80.9588 38.7603 80.135 39.2603 79.4247C39.766 78.7088 40.4478 78.152 41.3058 77.7543C42.1694 77.3509 43.1381 77.1492 44.212 77.1492C45.2972 77.1492 46.2575 77.348 47.0927 77.7458C47.9279 78.1435 48.5898 78.6918 49.0785 79.3906C49.5728 80.0838 49.837 80.8736 49.8711 81.76H48.3285Z" fill="#242424"/>
</svg>
