<svg width="175" height="100" viewBox="0 0 175 100" fill="none" xmlns="http://www.w3.org/2000/svg">
<g clip-path="url(#clip0_12188_24543)">
<path d="M107.847 6.63635H121.747L86.9963 66.5821L52.2451 6.63635H78.8297L86.9963 20.5368L94.989 6.63635H107.847Z" fill="#41B883"/>
<path d="M52.2451 6.63635L86.9963 66.5821L121.747 6.63635H107.847L86.9963 42.6038L65.9718 6.63635H52.2451Z" fill="#41B883"/>
<path d="M65.9717 6.63635L86.9961 42.7775L107.847 6.63635H94.9889L86.9961 20.5368L78.8296 6.63635H65.9717Z" fill="#35495E"/>
</g>
<path d="M102.457 92.3637C101.236 92.3637 100.179 92.0796 99.2867 91.5114C98.3946 90.9375 97.7043 90.1449 97.2156 89.1335C96.7327 88.1165 96.4912 86.946 96.4912 85.6222C96.4912 84.304 96.7327 83.1335 97.2156 82.1108C97.7043 81.0824 98.3776 80.2784 99.2355 79.6989C100.099 79.1137 101.096 78.821 102.227 78.821C102.937 78.821 103.622 78.9517 104.281 79.2131C104.94 79.4688 105.531 79.8637 106.054 80.3977C106.582 80.9262 107 81.5938 107.307 82.4006C107.613 83.2017 107.767 84.1506 107.767 85.2472V85.9972H97.5395V84.6591H106.216C106.216 83.8182 106.045 83.0625 105.704 82.3921C105.369 81.7159 104.9 81.1818 104.298 80.7898C103.701 80.3977 103.011 80.2017 102.227 80.2017C101.397 80.2017 100.667 80.4233 100.037 80.8665C99.406 81.3097 98.9117 81.8949 98.5537 82.6222C98.2014 83.3495 98.0225 84.1449 98.0168 85.0085V85.8097C98.0168 86.8495 98.1958 87.7585 98.5537 88.537C98.9173 89.3097 99.4316 89.9091 100.096 90.3352C100.761 90.7614 101.548 90.9745 102.457 90.9745C103.076 90.9745 103.619 90.8779 104.085 90.6847C104.557 90.4915 104.951 90.233 105.27 89.9091C105.593 89.5796 105.838 89.2188 106.003 88.8267L107.443 89.2955C107.244 89.8466 106.917 90.3551 106.463 90.821C106.014 91.287 105.451 91.662 104.775 91.946C104.105 92.2245 103.332 92.3637 102.457 92.3637Z" fill="#242424"/>
<path d="M91.6307 87.0881V79H93.1477V92.0909H91.6307V89.9176H91.5114C91.2045 90.5881 90.7188 91.1477 90.054 91.5966C89.3892 92.0398 88.5767 92.2614 87.6165 92.2614C86.7813 92.2614 86.0398 92.0795 85.392 91.7159C84.7443 91.3466 84.2358 90.8068 83.8665 90.0966C83.4972 89.3864 83.3125 88.5142 83.3125 87.4801V79H84.8295V87.3864C84.8295 88.4091 85.1307 89.233 85.733 89.858C86.3352 90.4773 87.108 90.7869 88.0511 90.7869C88.642 90.7869 89.2102 90.6449 89.7557 90.3608C90.3011 90.0767 90.75 89.6619 91.1023 89.1165C91.4545 88.5653 91.6307 87.8892 91.6307 87.0881Z" fill="#242424"/>
<path d="M67.9039 74.6364L73.3584 90.0199H73.5118L78.9664 74.6364H80.6368L74.2874 92.0909H72.5828L66.2334 74.6364H67.9039Z" fill="#242424"/>
<defs>
<clipPath id="clip0_12188_24543">
<rect width="69.5088" height="60" fill="white" transform="translate(52.2451 6.63635)"/>
</clipPath>
</defs>
</svg>
